<svg width="1191" height="991" viewBox="0 0 1191 991" fill="none" xmlns="http://www.w3.org/2000/svg">
<path d="M0 -14H1440V1079H0V-14Z" fill="#163355"/>
<path fill-rule="evenodd" clip-rule="evenodd" d="M705.905 87.2236C705.494 88.2747 704.396 88.625 703.611 89.2417C701.197 91.2597 698.675 94.3148 695.862 96.1506C694.053 97.9663 692.146 99.6467 690.153 101.182C689.151 102.051 688.306 103.144 687.364 103.984C683.272 107.628 679.398 110.992 675.221 114.621C674.799 114.986 674.328 115.364 673.845 115.756C672.711 116.653 671.431 117.872 670.321 118.559C669.853 118.951 669.292 119.162 668.715 119.162C668.139 119.162 667.577 118.951 667.11 118.559C667.291 116.934 669.246 115.35 671.021 113.654C673.99 110.851 678.263 107.152 681.341 104.643C683.659 102.709 685.988 100.705 688.306 98.9394C690.623 97.1736 692.941 95.2677 695.295 93.6421C697.009 92.4649 698.795 91.554 700.473 90.4749C702.151 89.3958 704.07 88.2747 705.905 87.2236Z" fill="url(#paint0_linear_1090_2619)"/>
<path d="M616.521 414.602C616.967 414.602 617.329 414.181 617.329 413.663C617.329 413.144 616.967 412.724 616.521 412.724C616.074 412.724 615.712 413.144 615.712 413.663C615.712 414.181 616.074 414.602 616.521 414.602Z" fill="#1B1633"/>
<path d="M553.198 404.918C553.645 404.918 554.007 404.498 554.007 403.979C554.007 403.461 553.645 403.041 553.198 403.041C552.752 403.041 552.39 403.461 552.39 403.979C552.39 404.498 552.752 404.918 553.198 404.918Z" fill="#1B1633"/>
<path d="M578.088 389.853C578.534 389.853 578.896 389.433 578.896 388.915C578.896 388.396 578.534 387.976 578.088 387.976C577.641 387.976 577.279 388.396 577.279 388.915C577.279 389.433 577.641 389.853 578.088 389.853Z" fill="#1B1633"/>
<path d="M487.607 298.93C488.053 298.93 488.415 298.51 488.415 297.991C488.415 297.473 488.053 297.052 487.607 297.052C487.16 297.052 486.798 297.473 486.798 297.991C486.798 298.51 487.16 298.93 487.607 298.93Z" fill="#1B1633"/>
<path d="M533.294 339.122C533.74 339.122 534.102 338.702 534.102 338.183C534.102 337.665 533.74 337.244 533.294 337.244C532.847 337.244 532.485 337.665 532.485 338.183C532.485 338.702 532.847 339.122 533.294 339.122Z" fill="#1B1633"/>
<path d="M313.464 403.601C313.911 403.601 314.273 403.181 314.273 402.662C314.273 402.144 313.911 401.723 313.464 401.723C313.017 401.723 312.655 402.144 312.655 402.662C312.655 403.181 313.017 403.601 313.464 403.601Z" fill="#1B1633"/>
<path d="M544.664 284.789C545.111 284.789 545.473 284.369 545.473 283.85C545.473 283.332 545.111 282.911 544.664 282.911C544.218 282.911 543.855 283.332 543.855 283.85C543.855 284.369 544.218 284.789 544.664 284.789Z" fill="#1B1633"/>
<path d="M403.414 216.821C404.021 216.821 404.512 216.25 404.512 215.546C404.512 214.841 404.021 214.271 403.414 214.271C402.807 214.271 402.315 214.841 402.315 215.546C402.315 216.25 402.807 216.821 403.414 216.821Z" fill="#1B1633"/>
<path d="M601.783 451.992C602.449 451.992 602.99 451.364 602.99 450.59C602.99 449.816 602.449 449.189 601.783 449.189C601.116 449.189 600.576 449.816 600.576 450.59C600.576 451.364 601.116 451.992 601.783 451.992Z" fill="#1B1633"/>
<path d="M482.38 556.159C483.047 556.159 483.587 555.531 483.587 554.757C483.587 553.983 483.047 553.356 482.38 553.356C481.713 553.356 481.173 553.983 481.173 554.757C481.173 555.531 481.713 556.159 482.38 556.159Z" fill="#1B1633"/>
<path d="M491.433 355.028C492.099 355.028 492.64 354.4 492.64 353.627C492.64 352.853 492.099 352.225 491.433 352.225C490.766 352.225 490.226 352.853 490.226 353.627C490.226 354.4 490.766 355.028 491.433 355.028Z" fill="#1B1633"/>
<path d="M354.251 497.061C354.917 497.061 355.458 496.434 355.458 495.66C355.458 494.886 354.917 494.258 354.251 494.258C353.584 494.258 353.043 494.886 353.043 495.66C353.043 496.434 353.584 497.061 354.251 497.061Z" fill="#1B1633"/>
<path d="M315.492 416.466C316.158 416.466 316.699 415.839 316.699 415.065C316.699 414.291 316.158 413.664 315.492 413.664C314.825 413.664 314.285 414.291 314.285 415.065C314.285 415.839 314.825 416.466 315.492 416.466Z" fill="#1B1633"/>
<path d="M527.246 531.942C527.913 531.942 528.453 531.315 528.453 530.541C528.453 529.767 527.913 529.14 527.246 529.14C526.579 529.14 526.039 529.767 526.039 530.541C526.039 531.315 526.579 531.942 527.246 531.942Z" fill="#1B1633"/>
<path d="M600.575 353.627C601.242 353.627 601.782 352.999 601.782 352.225C601.782 351.451 601.242 350.824 600.575 350.824C599.909 350.824 599.368 351.451 599.368 352.225C599.368 352.999 599.909 353.627 600.575 353.627Z" fill="#B44538"/>
<path d="M540.876 450.726C541.744 449.719 541.717 448.055 540.817 447.01C539.916 445.964 538.483 445.933 537.616 446.94C536.749 447.947 536.775 449.611 537.676 450.656C538.576 451.702 540.009 451.733 540.876 450.726Z" fill="#B44538"/>
<path d="M420.687 311.991C421.354 311.991 421.894 311.363 421.894 310.589C421.894 309.815 421.354 309.188 420.687 309.188C420.02 309.188 419.48 309.815 419.48 310.589C419.48 311.363 420.02 311.991 420.687 311.991Z" fill="#B44538"/>
<path d="M308.865 409.795C309.531 409.795 310.072 409.168 310.072 408.394C310.072 407.62 309.531 406.993 308.865 406.993C308.198 406.993 307.658 407.62 307.658 408.394C307.658 409.168 308.198 409.795 308.865 409.795Z" fill="#B44538"/>
<path d="M271.808 391.269C272.474 391.269 273.015 390.641 273.015 389.867C273.015 389.093 272.474 388.466 271.808 388.466C271.141 388.466 270.601 389.093 270.601 389.867C270.601 390.641 271.141 391.269 271.808 391.269Z" fill="#B44538"/>
<path d="M563.277 562.759C563.944 562.759 564.484 562.132 564.484 561.358C564.484 560.584 563.944 559.956 563.277 559.956C562.61 559.956 562.07 560.584 562.07 561.358C562.07 562.132 562.61 562.759 563.277 562.759Z" fill="#B44538"/>
<path d="M366.454 538.01C367.12 538.01 367.661 537.383 367.661 536.609C367.661 535.835 367.12 535.208 366.454 535.208C365.787 535.208 365.247 535.835 365.247 536.609C365.247 537.383 365.787 538.01 366.454 538.01Z" fill="#B44538"/>
<path d="M807.075 577.919C807.521 577.919 807.884 577.499 807.884 576.98C807.884 576.461 807.521 576.041 807.075 576.041C806.628 576.041 806.266 576.461 806.266 576.98C806.266 577.499 806.628 577.919 807.075 577.919Z" fill="#1B1633"/>
<path d="M131.516 434.527C132.182 434.527 132.723 433.9 132.723 433.126C132.723 432.352 132.182 431.725 131.516 431.725C130.849 431.725 130.309 432.352 130.309 433.126C130.309 433.9 130.849 434.527 131.516 434.527Z" fill="#1B1633"/>
<path d="M802.477 584.113C803.143 584.113 803.684 583.485 803.684 582.711C803.684 581.937 803.143 581.31 802.477 581.31C801.81 581.31 801.27 581.937 801.27 582.711C801.27 583.485 801.81 584.113 802.477 584.113Z" fill="#B44538"/>
<path d="M765.419 565.587C766.086 565.587 766.627 564.959 766.627 564.185C766.627 563.411 766.086 562.784 765.419 562.784C764.753 562.784 764.212 563.411 764.212 564.185C764.212 564.959 764.753 565.587 765.419 565.587Z" fill="#B44538"/>
<path d="M143.719 475.477C144.386 475.477 144.926 474.849 144.926 474.075C144.926 473.302 144.386 472.674 143.719 472.674C143.053 472.674 142.512 473.302 142.512 474.075C142.512 474.849 143.053 475.477 143.719 475.477Z" fill="#B44538"/>
<g opacity="0.93">
<path opacity="0.93" fill-rule="evenodd" clip-rule="evenodd" d="M350.136 112.302C349.738 113.367 348.627 113.704 347.855 114.32C345.441 116.352 342.918 119.407 340.093 121.229C338.29 123.071 336.383 124.77 334.384 126.316C333.382 127.185 332.549 128.278 331.596 129.119C327.504 132.763 323.641 136.126 319.525 139.756C319.102 140.12 318.632 140.499 318.137 140.891C317.014 141.788 315.723 143.007 314.624 143.694C314.155 144.087 313.591 144.299 313.013 144.299C312.434 144.299 311.87 144.087 311.401 143.694C311.594 142.068 313.538 140.485 315.312 138.803C318.294 136 322.555 132.286 325.633 129.778C327.95 127.844 330.28 125.84 332.597 124.074C334.915 122.308 337.245 120.402 339.586 118.777C341.3 117.6 343.099 116.689 344.777 115.61C346.454 114.53 348.313 113.339 350.136 112.302Z" fill="white"/>
</g>
<path d="M783.764 196.577C784.43 196.577 784.971 195.95 784.971 195.176C784.971 194.402 784.43 193.774 783.764 193.774C783.097 193.774 782.557 194.402 782.557 195.176C782.557 195.95 783.097 196.577 783.764 196.577Z" fill="#1B1633"/>
<path d="M106.148 756.925C106.815 756.925 107.355 756.298 107.355 755.524C107.355 754.75 106.815 754.123 106.148 754.123C105.481 754.123 104.941 754.75 104.941 755.524C104.941 756.298 105.481 756.925 106.148 756.925Z" fill="#1B1633"/>
<path d="M59.003 308.301C59.6696 308.301 60.21 307.674 60.21 306.9C60.21 306.126 59.6696 305.499 59.003 305.499C58.3363 305.499 57.7959 306.126 57.7959 306.9C57.7959 307.674 58.3363 308.301 59.003 308.301Z" fill="#1B1633"/>
<path d="M719.818 958.481C720.485 958.481 721.025 957.854 721.025 957.08C721.025 956.306 720.485 955.678 719.818 955.678C719.152 955.678 718.611 956.306 718.611 957.08C718.611 957.854 719.152 958.481 719.818 958.481Z" fill="#1B1633"/>
<path d="M739.443 220.565C740.31 219.558 740.283 217.894 739.383 216.849C738.483 215.803 737.05 215.772 736.182 216.779C735.315 217.786 735.342 219.45 736.242 220.495C737.142 221.541 738.575 221.572 739.443 220.565Z" fill="#B44538"/>
<path d="M783.443 346.403C784.311 345.396 784.284 343.732 783.384 342.686C782.483 341.641 781.05 341.61 780.183 342.617C779.315 343.624 779.342 345.288 780.243 346.333C781.143 347.378 782.576 347.41 783.443 346.403Z" fill="#B44538"/>
<path d="M804.244 833.109C805.111 832.102 805.085 830.438 804.184 829.393C803.284 828.347 801.851 828.316 800.984 829.323C800.116 830.33 800.143 831.994 801.043 833.039C801.944 834.085 803.377 834.116 804.244 833.109Z" fill="#B44538"/>
<path d="M440.611 80.805C441.278 80.805 441.818 80.1776 441.818 79.4036C441.818 78.6296 441.278 78.0022 440.611 78.0022C439.945 78.0022 439.404 78.6296 439.404 79.4036C439.404 80.1776 439.945 80.805 440.611 80.805Z" fill="#1B1633"/>
<path d="M521.509 87.4054C522.176 87.4054 522.716 86.7779 522.716 86.0039C522.716 85.23 522.176 84.6025 521.509 84.6025C520.843 84.6025 520.302 85.23 520.302 86.0039C520.302 86.7779 520.843 87.4054 521.509 87.4054Z" fill="#B44538"/>
<path d="M725.5 66.9257C725.947 66.9257 726.309 66.5054 726.309 65.9868C726.309 65.4682 725.947 65.0479 725.5 65.0479C725.053 65.0479 724.691 65.4682 724.691 65.9868C724.691 66.5054 725.053 66.9257 725.5 66.9257Z" fill="#1B1633"/>
<path d="M782.558 52.7851C783.004 52.7851 783.366 52.3647 783.366 51.8462C783.366 51.3276 783.004 50.9072 782.558 50.9072C782.111 50.9072 781.749 51.3276 781.749 51.8462C781.749 52.3647 782.111 52.7851 782.558 52.7851Z" fill="#1B1633"/>
<path d="M838.47 121.622C839.136 121.622 839.677 120.995 839.677 120.221C839.677 119.447 839.136 118.819 838.47 118.819C837.803 118.819 837.263 119.447 837.263 120.221C837.263 120.995 837.803 121.622 838.47 121.622Z" fill="#B44538"/>
<path d="M658.581 79.9864C659.248 79.9864 659.788 79.359 659.788 78.585C659.788 77.811 659.248 77.1836 658.581 77.1836C657.914 77.1836 657.374 77.811 657.374 78.585C657.374 79.359 657.914 79.9864 658.581 79.9864Z" fill="#B44538"/>
<defs>
<linearGradient id="paint0_linear_1090_2619" x1="704.296" y1="109.573" x2="671.215" y2="92.0816" gradientUnits="userSpaceOnUse">
<stop stop-color="#860752"/>
<stop offset="1" stop-color="#FFD9A8"/>
</linearGradient>
</defs>
</svg>
