<svg width="156" height="52" viewBox="0 0 156 52" fill="none" xmlns="http://www.w3.org/2000/svg">
<path d="M143.175 0.000169H12.3951C11.9184 0.000169 11.4474 0.000169 10.9719 0.002769C10.5739 0.005369 10.1791 0.012922 9.7773 0.019279C8.90437 0.0295513 8.03349 0.106348 7.17223 0.249002C6.31218 0.394761 5.47907 0.669559 4.70109 1.0641C3.92405 1.46198 3.21405 1.97899 2.59684 2.59636C1.97639 3.212 1.4592 3.92359 1.06516 4.70378C0.67002 5.48241 0.396033 6.31679 0.252655 7.17809C0.107914 8.03831 0.0300279 8.90845 0.019695 9.78069C0.007631 10.1793 0.006357 10.5792 0 10.9778V41.0263C0.006357 41.43 0.007631 41.821 0.019695 42.2248C0.0300311 43.097 0.107917 43.9671 0.252655 44.8273C0.395637 45.6891 0.669641 46.524 1.06516 47.3029C1.45902 48.0805 1.97629 48.7893 2.59684 49.4015C3.21171 50.0216 3.92217 50.5389 4.70109 50.9338C5.47907 51.3294 6.31209 51.6058 7.17223 51.7538C8.03364 51.8953 8.90442 51.9722 9.7773 51.9837C10.1791 51.9925 10.5739 51.9976 10.9719 51.9976C11.4474 52.0002 11.9184 52.0002 12.3951 52.0002H143.175C143.642 52.0002 144.117 52.0002 144.584 51.9976C144.981 51.9976 145.387 51.9925 145.783 51.9837C146.654 51.9728 147.523 51.8959 148.383 51.7538C149.246 51.6048 150.082 51.3284 150.864 50.9338C151.642 50.5387 152.352 50.0214 152.966 49.4015C153.585 48.7869 154.103 48.0787 154.502 47.3029C154.895 46.5234 155.166 45.6886 155.307 44.8273C155.452 43.967 155.532 43.0971 155.548 42.2248C155.553 41.821 155.553 41.43 155.553 41.0263C155.563 40.5541 155.563 40.0844 155.563 39.6044V12.3971C155.563 11.9211 155.563 11.4488 155.553 10.9778C155.553 10.5792 155.553 10.1793 155.548 9.78064C155.532 8.90832 155.452 8.03837 155.307 7.17804C155.166 6.31723 154.894 5.48292 154.502 4.70372C153.7 3.13992 152.427 1.867 150.864 1.06398C150.082 0.670407 149.246 0.395682 148.383 0.248885C147.523 0.105603 146.654 0.0287791 145.783 0.019097C145.387 0.012753 144.981 0.005135 144.584 0.0026C144.117 0 143.642 0 143.175 0V0.000169Z" fill="#A6A6A6"/>
<path d="M10.9781 50.8627C10.582 50.8627 10.1955 50.8576 9.80255 50.8488C8.98847 50.8382 8.17629 50.7673 7.37267 50.6368C6.62334 50.5077 5.89744 50.2676 5.21891 49.9245C4.5466 49.5842 3.93341 49.1379 3.40281 48.6029C2.86453 48.0742 2.41639 47.4609 2.07615 46.7875C1.73215 46.1096 1.49409 45.3831 1.37025 44.6331C1.23651 43.8272 1.16415 43.0124 1.1538 42.1956C1.14556 41.9214 1.13477 41.0086 1.13477 41.0086V10.9778C1.13477 10.9778 1.14626 10.079 1.15386 9.81493C1.16378 8.99942 1.23571 8.18584 1.36905 7.38124C1.49312 6.62922 1.73137 5.90057 2.07555 5.22051C2.41454 4.54752 2.8602 3.93381 3.39523 3.40318C3.92967 2.8675 4.54482 2.41898 5.21827 2.07397C5.89524 1.73192 6.61977 1.49355 7.36759 1.36685C8.17385 1.23498 8.98885 1.16369 9.80575 1.15357L10.9788 1.1377H144.578L145.765 1.15421C146.574 1.16382 147.382 1.23448 148.181 1.36557C148.936 1.49386 149.668 1.7339 150.353 2.07778C151.702 2.77308 152.8 3.87311 153.493 5.22369C153.831 5.89905 154.066 6.62175 154.188 7.36728C154.323 8.17848 154.399 8.99846 154.414 9.82065C154.418 10.1888 154.418 10.5843 154.418 10.9778C154.428 11.4653 154.428 11.9293 154.428 12.3972V39.6044C154.428 40.0767 154.428 40.5376 154.418 41.0022C154.418 41.425 154.418 41.8122 154.413 42.2108C154.398 43.0183 154.323 43.8237 154.191 44.6204C154.069 45.3757 153.833 46.108 153.489 46.7914C153.146 47.4575 152.701 48.0654 152.168 48.5928C151.637 49.1307 151.023 49.5795 150.349 49.922C149.666 50.2678 148.935 50.5088 148.181 50.6368C147.377 50.768 146.565 50.8389 145.751 50.8488C145.37 50.8576 144.971 50.8627 144.584 50.8627L143.175 50.8653L10.9781 50.8627Z" fill="black"/>
<path d="M32.1994 26.3913C32.2134 25.3062 32.5016 24.2423 33.0372 23.2986C33.5729 22.3548 34.3385 21.5619 35.2629 20.9936C34.6757 20.1549 33.9009 19.4646 33.0003 18.9777C32.0996 18.4908 31.0978 18.2206 30.0744 18.1886C27.8914 17.9595 25.7751 19.4949 24.6626 19.4949C23.5287 19.4949 21.8159 18.2113 19.9716 18.2493C18.7786 18.2878 17.616 18.6347 16.5969 19.2562C15.5779 19.8777 14.7372 20.7525 14.1568 21.7955C11.6426 26.1485 13.518 32.5458 15.9264 36.0644C17.1313 37.7874 18.5396 39.712 20.3823 39.6437C22.1855 39.5689 22.8589 38.4939 25.0355 38.4939C27.1919 38.4939 27.8237 39.6437 29.7038 39.6003C31.6387 39.5689 32.8578 37.8697 34.0205 36.1304C34.8862 34.9028 35.5524 33.5459 35.9944 32.1102C34.8703 31.6347 33.911 30.8389 33.2361 29.8219C32.5613 28.8049 32.2007 27.6118 32.1994 26.3913Z" fill="white"/>
<path d="M28.6483 15.8745C29.7032 14.608 30.223 12.9802 30.0971 11.3367C28.4854 11.506 26.9965 12.2763 25.9273 13.4942C25.4045 14.0891 25.0041 14.7813 24.749 15.5311C24.4939 16.2809 24.389 17.0736 24.4405 17.864C25.2466 17.8723 26.0442 17.6975 26.7731 17.3529C27.5019 17.0083 28.1431 16.5028 28.6483 15.8745Z" fill="white"/>
<path d="M54.9929 35.282H48.8395L47.3617 39.6454H44.7554L50.5838 23.502H53.2917L59.1201 39.6454H56.4693L54.9929 35.282ZM49.4768 33.2685H54.3544L51.9499 26.187H51.8826L49.4768 33.2685Z" fill="white"/>
<path d="M71.7075 33.7609C71.7075 37.4184 69.7498 39.7683 66.7956 39.7683C66.0473 39.8074 65.303 39.6351 64.6481 39.2709C63.9932 38.9067 63.454 38.3654 63.0924 37.7091H63.0365V43.5388H60.6206V27.8753H62.9591V29.8329H63.0036C63.3818 29.1797 63.93 28.6413 64.59 28.2749C65.2499 27.9085 65.9968 27.7278 66.7512 27.7522C69.7384 27.7522 71.7075 30.1135 71.7075 33.7609ZM69.2243 33.7609C69.2243 31.378 67.9928 29.8114 66.1139 29.8114C64.268 29.8114 63.0264 31.411 63.0264 33.7609C63.0264 36.1324 64.268 37.7205 66.1139 37.7205C67.9928 37.7205 69.2243 36.1654 69.2243 33.7609Z" fill="white"/>
<path d="M84.662 33.7609C84.662 37.4184 82.7044 39.7683 79.7502 39.7683C79.0019 39.8074 78.2576 39.635 77.6027 39.2709C76.9478 38.9067 76.4086 38.3654 76.047 37.7091H75.9911V43.5388H73.5752V27.8753H75.9137V29.8329H75.9581C76.3363 29.1797 76.8846 28.6413 77.5445 28.2749C78.2044 27.9085 78.9513 27.7278 79.7058 27.7522C82.693 27.7522 84.662 30.1135 84.662 33.7609ZM82.1788 33.7609C82.1788 31.378 80.9474 29.8113 79.0685 29.8113C77.2226 29.8113 75.981 31.411 75.981 33.7609C75.981 36.1323 77.2226 37.7205 79.0685 37.7205C80.9474 37.7205 82.1789 36.1654 82.1789 33.7609H82.1788Z" fill="white"/>
<path d="M93.2236 35.1473C93.4026 36.7482 94.9578 37.7993 97.083 37.7993C99.1193 37.7993 100.584 36.7481 100.584 35.3046C100.584 34.0516 99.7007 33.3013 97.6085 32.7872L95.5164 32.2832C92.552 31.5671 91.1758 30.1808 91.1758 27.9312C91.1758 25.1458 93.6032 23.2327 97.0499 23.2327C100.461 23.2327 102.8 25.1458 102.878 27.9312H100.44C100.294 26.3202 98.9618 25.3477 97.0156 25.3477C95.0694 25.3477 93.7377 26.3316 93.7377 27.7636C93.7377 28.9049 94.5883 29.5765 96.6691 30.0906L98.4477 30.5274C101.76 31.3107 103.136 32.6412 103.136 35.0025C103.136 38.0227 100.73 39.9143 96.9039 39.9143C93.3238 39.9143 90.9066 38.0671 90.7505 35.1472L93.2236 35.1473Z" fill="white"/>
<path d="M108.35 25.0901V27.8754H110.588V29.7886H108.35V36.2772C108.35 37.2852 108.798 37.7549 109.782 37.7549C110.048 37.7503 110.313 37.7316 110.577 37.699V39.6008C110.134 39.6834 109.685 39.7209 109.235 39.7125C106.852 39.7125 105.923 38.8175 105.923 36.5349V29.7886H104.211V27.8754H105.923V25.0901H108.35Z" fill="white"/>
<path d="M111.884 33.761C111.884 30.0578 114.065 27.7307 117.466 27.7307C120.879 27.7307 123.05 30.0577 123.05 33.761C123.05 37.4744 120.89 39.7913 117.466 39.7913C114.044 39.7913 111.884 37.4744 111.884 33.761ZM120.588 33.761C120.588 31.2207 119.424 29.7213 117.466 29.7213C115.509 29.7213 114.346 31.2321 114.346 33.761C114.346 36.3115 115.509 37.7994 117.466 37.7994C119.424 37.7994 120.588 36.3115 120.588 33.761H120.588Z" fill="white"/>
<path d="M125.042 27.8755H127.346V29.8788H127.402C127.558 29.2531 127.925 28.7001 128.44 28.3129C128.956 27.9256 129.589 27.7277 130.233 27.7523C130.512 27.7513 130.789 27.7816 131.061 27.8424V30.1022C130.709 29.9948 130.343 29.9455 129.975 29.9562C129.624 29.942 129.275 30.0039 128.95 30.1376C128.625 30.2714 128.333 30.4738 128.094 30.7311C127.855 30.9883 127.674 31.2943 127.564 31.628C127.454 31.9616 127.418 32.3151 127.458 32.6641V39.6453H125.042L125.042 27.8755Z" fill="white"/>
<path d="M142.2 36.1883C141.875 38.3249 139.794 39.7913 137.132 39.7913C133.708 39.7913 131.583 37.4972 131.583 33.8168C131.583 30.1251 133.719 27.7307 137.03 27.7307C140.286 27.7307 142.334 29.9676 142.334 33.5363V34.364H134.021V34.51C133.983 34.9432 134.037 35.3795 134.18 35.7901C134.324 36.2007 134.553 36.5761 134.852 36.8914C135.152 37.2068 135.515 37.4548 135.917 37.6189C136.32 37.7831 136.753 37.8598 137.188 37.8438C137.758 37.8973 138.331 37.7651 138.821 37.4668C139.311 37.1685 139.691 36.7201 139.906 36.1883L142.2 36.1883ZM134.033 32.6755H139.917C139.939 32.2861 139.88 31.8963 139.744 31.5307C139.607 31.1652 139.397 30.8317 139.126 30.5512C138.855 30.2707 138.529 30.0492 138.168 29.9008C137.808 29.7523 137.42 29.68 137.03 29.6883C136.637 29.686 136.247 29.7616 135.883 29.9107C135.519 30.0599 135.188 30.2797 134.909 30.5574C134.63 30.8351 134.409 31.1653 134.259 31.5288C134.109 31.8924 134.032 32.2821 134.033 32.6755V32.6755Z" fill="white"/>
<path d="M49.1739 11.3504C49.6804 11.314 50.1887 11.3905 50.662 11.5744C51.1354 11.7583 51.562 12.0449 51.9112 12.4136C52.2603 12.7823 52.5233 13.2239 52.6811 13.7066C52.839 14.1892 52.8877 14.7009 52.8238 15.2046C52.8238 17.6828 51.4845 19.1072 49.1739 19.1072H46.3721V11.3504H49.1739ZM47.5768 18.0103H49.0393C49.4013 18.0319 49.7635 17.9725 50.0996 17.8365C50.4357 17.7005 50.7372 17.4913 50.9823 17.2241C51.2273 16.9568 51.4097 16.6383 51.5161 16.2917C51.6225 15.9451 51.6503 15.5792 51.5974 15.2205C51.6465 14.8632 51.6159 14.4995 51.5078 14.1554C51.3997 13.8113 51.2169 13.4954 50.9724 13.2303C50.728 12.9652 50.4279 12.7575 50.0937 12.622C49.7595 12.4865 49.3994 12.4265 49.0393 12.4465H47.5768V18.0103Z" fill="white"/>
<path d="M54.1849 16.1779C54.1481 15.7932 54.1921 15.4051 54.3141 15.0384C54.4361 14.6717 54.6334 14.3346 54.8933 14.0486C55.1533 13.7626 55.4701 13.5341 55.8235 13.3778C56.1769 13.2214 56.5591 13.1406 56.9455 13.1406C57.332 13.1406 57.7142 13.2214 58.0676 13.3778C58.421 13.5341 58.7378 13.7626 58.9977 14.0486C59.2577 14.3346 59.4549 14.6717 59.5769 15.0384C59.6989 15.4051 59.7429 15.7932 59.7061 16.1779C59.7436 16.563 59.7001 16.9517 59.5785 17.319C59.4568 17.6862 59.2596 18.024 58.9996 18.3105C58.7397 18.5971 58.4226 18.8261 58.0688 18.9828C57.7151 19.1395 57.3324 19.2204 56.9455 19.2204C56.5586 19.2204 56.176 19.1395 55.8222 18.9828C55.4685 18.8261 55.1514 18.5971 54.8914 18.3105C54.6314 18.024 54.4343 17.6862 54.3126 17.319C54.1909 16.9517 54.1474 16.563 54.1849 16.1779ZM58.5178 16.1779C58.5178 14.909 57.9478 14.167 56.9474 14.167C55.9432 14.167 55.3783 14.909 55.3783 16.1779C55.3783 17.457 55.9433 18.1933 56.9474 18.1933C57.9478 18.1933 58.5178 17.4519 58.5178 16.1779H58.5178Z" fill="white"/>
<path d="M67.0451 19.1072H65.8467L64.6368 14.7959H64.5454L63.3406 19.1072H62.1536L60.54 13.2534H61.7118L62.7605 17.7202H62.8468L64.0503 13.2534H65.1586L66.3621 17.7202H66.4535L67.4971 13.2534H68.6523L67.0451 19.1072Z" fill="white"/>
<path d="M70.0093 13.2535H71.1214V14.1835H71.2077C71.3542 13.8495 71.6012 13.5695 71.9143 13.3825C72.2274 13.1956 72.5911 13.111 72.9546 13.1405C73.2394 13.1191 73.5254 13.1621 73.7914 13.2662C74.0574 13.3703 74.2965 13.5329 74.4911 13.742C74.6857 13.9511 74.8307 14.2013 74.9155 14.4741C75.0003 14.7469 75.0226 15.0352 74.9808 15.3178V19.1073H73.8255V15.6079C73.8255 14.6672 73.4167 14.1993 72.5623 14.1993C72.3689 14.1903 72.1759 14.2232 71.9964 14.2958C71.8169 14.3684 71.6553 14.4789 71.5225 14.6198C71.3897 14.7607 71.289 14.9287 71.2272 15.1121C71.1654 15.2956 71.1441 15.4903 71.1645 15.6828V19.1073H70.0093L70.0093 13.2535Z" fill="white"/>
<path d="M76.8218 10.9683H77.9771V19.1072H76.8218V10.9683Z" fill="white"/>
<path d="M79.5829 16.1778C79.5461 15.7931 79.5901 15.4049 79.7121 15.0382C79.8342 14.6715 80.0315 14.3343 80.2914 14.0484C80.5514 13.7624 80.8682 13.5339 81.2217 13.3775C81.5751 13.2212 81.9573 13.1404 82.3438 13.1404C82.7302 13.1404 83.1125 13.2212 83.4659 13.3775C83.8193 13.5339 84.1362 13.7624 84.3961 14.0484C84.6561 14.3343 84.8534 14.6715 84.9754 15.0382C85.0974 15.4049 85.1414 15.7931 85.1047 16.1778C85.1421 16.5629 85.0986 16.9516 84.9769 17.3188C84.8552 17.6861 84.658 18.0239 84.398 18.3104C84.138 18.5969 83.8209 18.8259 83.4671 18.9826C83.1133 19.1393 82.7307 19.2202 82.3438 19.2202C81.9568 19.2202 81.5742 19.1393 81.2204 18.9826C80.8667 18.8259 80.5496 18.5969 80.2896 18.3104C80.0295 18.0239 79.8323 17.6861 79.7106 17.3188C79.5889 16.9516 79.5454 16.5629 79.5829 16.1778ZM83.9158 16.1778C83.9158 14.9089 83.3457 14.1669 82.3454 14.1669C81.3412 14.1669 80.7763 14.9089 80.7763 16.1778C80.7763 17.4569 81.3412 18.1932 82.3454 18.1932C83.3457 18.1932 83.9158 17.4518 83.9158 16.1778H83.9158Z" fill="white"/>
<path d="M86.3213 17.4517C86.3213 16.398 87.1059 15.7905 88.4985 15.7042L90.0842 15.6128V15.1075C90.0842 14.4892 89.6754 14.1401 88.8857 14.1401C88.2408 14.1401 87.794 14.3769 87.6657 14.7908H86.5473C86.6653 13.7853 87.6111 13.1404 88.9391 13.1404C90.4066 13.1404 91.2344 13.871 91.2344 15.1075V19.1072H90.1223V18.2845H90.0309C89.8453 18.5796 89.5848 18.8202 89.2759 18.9816C88.967 19.1431 88.6208 19.2197 88.2726 19.2036C88.0268 19.2292 87.7784 19.203 87.5435 19.1267C87.3085 19.0503 87.0921 18.9256 86.9082 18.7606C86.7244 18.5955 86.5772 18.3938 86.4761 18.1683C86.375 17.9429 86.3223 17.6988 86.3213 17.4517ZM90.0842 16.9515V16.4621L88.6547 16.5535C87.8485 16.6075 87.4829 16.8817 87.4829 17.3977C87.4829 17.9246 87.9399 18.2312 88.5684 18.2312C88.7525 18.2498 88.9385 18.2312 89.1153 18.1765C89.2922 18.1218 89.4562 18.0321 89.5976 17.9127C89.739 17.7933 89.855 17.6467 89.9386 17.4815C90.0221 17.3164 90.0717 17.1362 90.0842 16.9515Z" fill="white"/>
<path d="M92.7524 16.1778C92.7524 14.3281 93.7033 13.1563 95.1823 13.1563C95.5482 13.1395 95.9112 13.2271 96.2291 13.4089C96.547 13.5908 96.8066 13.8594 96.9774 14.1833H97.0638V10.9683H98.219V19.1072H97.112V18.1824H97.0206C96.8365 18.5041 96.5679 18.7693 96.2439 18.9494C95.9199 19.1294 95.5528 19.2173 95.1823 19.2037C93.6932 19.2038 92.7524 18.032 92.7524 16.1778ZM93.9458 16.1778C93.9458 17.4194 94.5311 18.1665 95.5099 18.1665C96.4836 18.1665 97.0854 17.4086 97.0854 16.1829C97.0854 14.9629 96.4773 14.1942 95.5099 14.1942C94.5374 14.1942 93.9458 14.9464 93.9458 16.1778H93.9458Z" fill="white"/>
<path d="M102.999 16.1779C102.962 15.7932 103.006 15.4051 103.128 15.0384C103.25 14.6717 103.447 14.3346 103.707 14.0486C103.967 13.7626 104.284 13.5341 104.637 13.3778C104.991 13.2214 105.373 13.1406 105.759 13.1406C106.146 13.1406 106.528 13.2214 106.882 13.3778C107.235 13.5341 107.552 13.7626 107.812 14.0486C108.072 14.3346 108.269 14.6717 108.391 15.0384C108.513 15.4051 108.557 15.7932 108.52 16.1779C108.558 16.563 108.514 16.9517 108.392 17.319C108.271 17.6862 108.074 18.024 107.814 18.3105C107.554 18.5971 107.237 18.8261 106.883 18.9828C106.529 19.1395 106.146 19.2204 105.759 19.2204C105.373 19.2204 104.99 19.1395 104.636 18.9828C104.282 18.8261 103.965 18.5971 103.705 18.3105C103.445 18.024 103.248 17.6862 103.127 17.319C103.005 16.9517 102.961 16.563 102.999 16.1779ZM107.332 16.1779C107.332 14.909 106.762 14.167 105.761 14.167C104.757 14.167 104.192 14.909 104.192 16.1779C104.192 17.457 104.757 18.1933 105.761 18.1933C106.762 18.1933 107.332 17.4519 107.332 16.1779Z" fill="white"/>
<path d="M110.07 13.2535H111.182V14.1835H111.269C111.415 13.8495 111.662 13.5695 111.975 13.3825C112.288 13.1956 112.652 13.111 113.016 13.1405C113.3 13.1191 113.586 13.1621 113.852 13.2662C114.118 13.3703 114.358 13.5329 114.552 13.742C114.747 13.9511 114.892 14.2013 114.977 14.4741C115.061 14.7469 115.084 15.0352 115.042 15.3178V19.1073H113.887V15.6079C113.887 14.6672 113.478 14.1993 112.623 14.1993C112.43 14.1903 112.237 14.2232 112.057 14.2958C111.878 14.3684 111.716 14.4789 111.584 14.6198C111.451 14.7607 111.35 14.9287 111.288 15.1121C111.226 15.2956 111.205 15.4903 111.226 15.6828V19.1073H110.07V13.2535Z" fill="white"/>
<path d="M121.57 11.7959V13.28H122.838V14.2531H121.57V17.2631C121.57 17.8763 121.822 18.1448 122.397 18.1448C122.545 18.1444 122.692 18.1355 122.838 18.1182V19.0805C122.631 19.1176 122.42 19.1373 122.21 19.1395C120.925 19.1395 120.413 18.6875 120.413 17.5589V14.253H119.484V13.2799H120.413V11.7959H121.57Z" fill="white"/>
<path d="M124.416 10.9683H125.561V14.1941H125.653C125.806 13.857 126.06 13.5755 126.379 13.3878C126.699 13.2002 127.068 13.1155 127.437 13.1455C127.721 13.1301 128.004 13.1774 128.267 13.2841C128.53 13.3907 128.766 13.5541 128.959 13.7625C129.151 13.971 129.295 14.2193 129.381 14.4899C129.466 14.7605 129.491 15.0466 129.453 15.3278V19.1072H128.297V15.6128C128.297 14.6778 127.862 14.2043 127.045 14.2043C126.847 14.188 126.647 14.2153 126.46 14.2843C126.273 14.3532 126.104 14.4622 125.963 14.6036C125.823 14.7449 125.715 14.9153 125.647 15.1026C125.58 15.29 125.554 15.4899 125.571 15.6884V19.1072H124.416L124.416 10.9683Z" fill="white"/>
<path d="M136.189 17.5267C136.032 18.0617 135.692 18.5245 135.229 18.8341C134.765 19.1437 134.207 19.2804 133.653 19.2203C133.267 19.2304 132.884 19.1566 132.53 19.0038C132.175 18.851 131.859 18.6229 131.601 18.3355C131.344 18.048 131.153 17.708 131.04 17.339C130.927 16.97 130.896 16.581 130.949 16.1988C130.897 15.8154 130.929 15.4255 131.041 15.0554C131.154 14.6854 131.345 14.3438 131.6 14.0538C131.856 13.7638 132.172 13.5322 132.525 13.3746C132.878 13.217 133.261 13.1372 133.648 13.1405C135.277 13.1405 136.259 14.2533 136.259 16.0915V16.4946H132.126V16.5593C132.108 16.7742 132.135 16.9904 132.205 17.1942C132.275 17.3979 132.387 17.5848 132.534 17.7426C132.681 17.9005 132.859 18.026 133.057 18.111C133.255 18.1961 133.469 18.2387 133.685 18.2363C133.961 18.2695 134.241 18.2198 134.489 18.0934C134.737 17.967 134.942 17.7697 135.077 17.5267L136.189 17.5267ZM132.126 15.6402H135.082C135.097 15.4437 135.07 15.2464 135.004 15.0608C134.938 14.8753 134.833 14.7057 134.698 14.5629C134.562 14.4201 134.398 14.3072 134.216 14.2316C134.034 14.156 133.838 14.1192 133.641 14.1237C133.442 14.1212 133.243 14.1587 133.058 14.2341C132.873 14.3094 132.705 14.421 132.564 14.5623C132.423 14.7037 132.311 14.8718 132.236 15.057C132.16 15.2421 132.123 15.4404 132.126 15.6402H132.126Z" fill="white"/>
</svg>
