<svg width="700" height="659" viewBox="0 0 700 659" fill="none" xmlns="http://www.w3.org/2000/svg">
<path d="M392.631 498.863C392.362 498.933 392.133 499.101 391.995 499.329C391.857 499.558 391.822 499.829 391.896 500.082C391.97 500.336 392.148 500.551 392.391 500.681C392.634 500.81 392.922 500.844 393.191 500.774C402.036 498.951 410.327 495.267 417.446 489.999C444.501 471.185 443.101 444.495 458.501 420.079C470.821 401.463 481.636 403.604 480.796 401.199C480.765 401.104 480.713 401.016 480.644 400.941C480.575 400.865 480.49 400.804 480.395 400.76C480.3 400.717 480.196 400.693 480.09 400.689C479.985 400.685 479.879 400.702 479.781 400.738C431.341 417.509 458.711 477.314 392.631 498.863ZM588.666 440.278C590.031 438.927 591.396 437.51 592.726 436.093C603.016 424.33 610.226 406.109 609.526 392.698C609.508 392.553 609.448 392.416 609.353 392.302C609.258 392.187 609.131 392.099 608.986 392.048C608.842 391.997 608.685 391.984 608.533 392.012C608.381 392.039 608.24 392.106 608.126 392.204C607.076 393.159 610.016 398.431 602.631 415.038C595.631 430.788 589.506 434.808 582.611 442.156C576.434 448.87 571.739 456.675 568.8 465.116C565.862 473.556 564.738 482.464 565.496 491.317C565.536 491.504 565.643 491.671 565.8 491.791C565.956 491.911 566.151 491.977 566.353 491.977C566.555 491.977 566.751 491.911 566.907 491.791C567.063 491.671 567.171 491.504 567.211 491.317C566.971 481.89 568.747 472.514 572.432 463.746C576.118 454.978 581.639 446.997 588.666 440.278ZM281.366 298C284.866 295.726 284.621 288.774 281.366 286.204C280.445 285.504 279.372 285.004 278.223 284.74C277.074 284.475 275.878 284.452 274.718 284.672C273.558 284.892 272.465 285.35 271.515 286.014C270.564 286.677 269.781 287.529 269.221 288.51C268.571 290.043 268.454 291.73 268.887 293.33C269.319 294.929 270.279 296.359 271.628 297.413C272.977 298.467 274.646 299.091 276.395 299.197C278.145 299.302 279.885 298.883 281.366 298ZM271.741 290.454C272.791 286.698 279.686 286.171 280.736 289.927C281.436 292.497 281.121 294.309 279.721 295.298C278.879 295.79 277.922 296.081 276.934 296.144C275.945 296.207 274.955 296.041 274.051 295.66C273.104 295.16 272.362 294.375 271.943 293.432C271.525 292.488 271.453 291.44 271.741 290.454ZM400.961 237.042C400.826 237.033 400.691 237.05 400.564 237.093C400.437 237.135 400.321 237.201 400.222 237.288C400.124 237.375 400.045 237.479 399.992 237.596C399.938 237.712 399.91 237.838 399.911 237.965C399.911 241.26 393.996 244.555 392.911 244.884C392.702 244.932 392.522 245.057 392.41 245.23C392.299 245.403 392.265 245.61 392.316 245.807C392.367 246.004 392.499 246.173 392.683 246.278C392.866 246.383 393.087 246.415 393.296 246.367C402.501 244.588 403.901 236.976 400.961 237.042ZM388.676 232.001C388.256 231.77 386.401 230.485 385.736 229.991C385.736 229.563 387.381 224.06 387.696 223.005C388.011 221.951 386.576 221.687 386.191 222.544C384.727 225.215 383.554 228.019 382.691 230.913C382.971 231.869 387.836 233.121 388.186 233.121C388.332 233.14 388.48 233.112 388.607 233.043C388.735 232.974 388.834 232.867 388.891 232.739C388.947 232.611 388.956 232.469 388.917 232.336C388.878 232.202 388.793 232.084 388.676 232.001ZM377.126 214.34C377.076 214.055 376.92 213.796 376.686 213.609C376.452 213.423 376.155 213.32 375.848 213.32C375.542 213.32 375.245 213.423 375.011 213.609C374.777 213.796 374.621 214.055 374.571 214.34C374.438 216.611 374.438 218.888 374.571 221.16C374.79 221.498 375.123 221.757 375.516 221.897C375.91 222.037 376.341 222.049 376.743 221.932C377.145 221.815 377.493 221.575 377.734 221.25C377.974 220.925 378.093 220.534 378.071 220.139C377.586 218.234 377.27 216.294 377.126 214.34ZM401.591 220.106C401.142 218.216 400.826 216.301 400.646 214.373C400.646 214.049 400.509 213.739 400.267 213.511C400.024 213.282 399.694 213.153 399.351 213.153C399.007 213.153 398.678 213.282 398.435 213.511C398.192 213.739 398.056 214.049 398.056 214.373C397.929 216.568 397.929 218.768 398.056 220.963C398.075 221.218 398.154 221.466 398.287 221.689C398.42 221.912 398.603 222.105 398.823 222.254C399.044 222.404 399.297 222.506 399.564 222.553C399.831 222.6 400.105 222.592 400.368 222.528C400.632 222.464 400.877 222.347 401.086 222.184C401.296 222.021 401.465 221.817 401.581 221.586C401.698 221.355 401.759 221.103 401.761 220.847C401.763 220.591 401.704 220.338 401.591 220.106Z" fill="#F0F0EC"/>
<path d="M392.631 498.863C392.362 498.933 392.133 499.101 391.995 499.329C391.857 499.558 391.822 499.829 391.896 500.082C391.97 500.336 392.148 500.551 392.391 500.681C392.634 500.81 392.922 500.844 393.191 500.774C402.036 498.951 410.327 495.267 417.446 489.999C444.501 471.185 443.101 444.495 458.501 420.079C470.821 401.463 481.636 403.604 480.796 401.199C480.765 401.104 480.713 401.016 480.644 400.941C480.575 400.865 480.49 400.804 480.395 400.76C480.3 400.717 480.196 400.693 480.09 400.689C479.985 400.685 479.879 400.702 479.781 400.738C431.341 417.509 458.711 477.314 392.631 498.863ZM588.666 440.278C590.031 438.927 591.396 437.51 592.726 436.093C603.016 424.33 610.226 406.109 609.526 392.698C609.508 392.553 609.448 392.416 609.353 392.302C609.258 392.187 609.131 392.099 608.986 392.048C608.842 391.997 608.685 391.984 608.533 392.012C608.381 392.039 608.24 392.106 608.126 392.204C607.076 393.159 610.016 398.431 602.631 415.038C595.631 430.788 589.506 434.808 582.611 442.156C576.434 448.87 571.739 456.675 568.8 465.116C565.862 473.556 564.738 482.464 565.496 491.317C565.536 491.504 565.643 491.671 565.8 491.791C565.956 491.911 566.151 491.977 566.353 491.977C566.555 491.977 566.751 491.911 566.907 491.791C567.063 491.671 567.171 491.504 567.211 491.317C566.971 481.89 568.747 472.514 572.432 463.746C576.118 454.978 581.639 446.997 588.666 440.278ZM281.366 298C284.866 295.726 284.621 288.774 281.366 286.204C280.445 285.504 279.372 285.004 278.223 284.74C277.074 284.475 275.878 284.452 274.718 284.672C273.558 284.892 272.465 285.35 271.515 286.014C270.564 286.677 269.781 287.529 269.221 288.51C268.571 290.043 268.454 291.73 268.887 293.33C269.319 294.929 270.279 296.359 271.628 297.413C272.977 298.467 274.646 299.091 276.395 299.197C278.145 299.302 279.885 298.883 281.366 298ZM271.741 290.454C272.791 286.698 279.686 286.171 280.736 289.927C281.436 292.497 281.121 294.309 279.721 295.298C278.879 295.79 277.922 296.081 276.934 296.144C275.945 296.207 274.955 296.041 274.051 295.66C273.104 295.16 272.362 294.375 271.943 293.432C271.525 292.488 271.453 291.44 271.741 290.454ZM400.961 237.042C400.826 237.033 400.691 237.05 400.564 237.093C400.437 237.135 400.321 237.201 400.222 237.288C400.124 237.375 400.045 237.479 399.992 237.596C399.938 237.712 399.91 237.838 399.911 237.965C399.911 241.26 393.996 244.555 392.911 244.884C392.702 244.932 392.522 245.057 392.41 245.23C392.299 245.403 392.265 245.61 392.316 245.807C392.367 246.004 392.499 246.173 392.683 246.278C392.866 246.383 393.087 246.415 393.296 246.367C402.501 244.588 403.901 236.976 400.961 237.042ZM388.676 232.001C388.256 231.77 386.401 230.485 385.736 229.991C385.736 229.563 387.381 224.06 387.696 223.005C388.011 221.951 386.576 221.687 386.191 222.544C384.727 225.215 383.554 228.019 382.691 230.913C382.971 231.869 387.836 233.121 388.186 233.121C388.332 233.14 388.48 233.112 388.607 233.043C388.735 232.974 388.834 232.867 388.891 232.739C388.947 232.611 388.956 232.469 388.917 232.336C388.878 232.202 388.793 232.084 388.676 232.001ZM377.126 214.34C377.076 214.055 376.92 213.796 376.686 213.609C376.452 213.423 376.155 213.32 375.848 213.32C375.542 213.32 375.245 213.423 375.011 213.609C374.777 213.796 374.621 214.055 374.571 214.34C374.438 216.611 374.438 218.888 374.571 221.16C374.79 221.498 375.123 221.757 375.516 221.897C375.91 222.037 376.341 222.049 376.743 221.932C377.145 221.815 377.493 221.575 377.734 221.25C377.974 220.925 378.093 220.534 378.071 220.139C377.586 218.234 377.27 216.294 377.126 214.34ZM401.591 220.106C401.142 218.216 400.826 216.301 400.646 214.373C400.646 214.049 400.509 213.739 400.267 213.511C400.024 213.282 399.694 213.153 399.351 213.153C399.007 213.153 398.678 213.282 398.435 213.511C398.192 213.739 398.056 214.049 398.056 214.373C397.929 216.568 397.929 218.768 398.056 220.963C398.075 221.218 398.154 221.466 398.287 221.689C398.42 221.912 398.603 222.105 398.823 222.254C399.044 222.404 399.297 222.506 399.564 222.553C399.831 222.6 400.105 222.592 400.368 222.528C400.632 222.464 400.877 222.347 401.086 222.184C401.296 222.021 401.465 221.817 401.581 221.586C401.698 221.355 401.759 221.103 401.761 220.847C401.763 220.591 401.704 220.338 401.591 220.106Z" fill="black" fill-opacity="0.1"/>
<path d="M675.501 175.228C675.256 154.7 667.941 146.595 645.366 147.221C638.926 147.221 524.091 148.308 515.866 148.572C510.351 148.573 504.896 149.638 499.836 151.702C496.931 152.789 481.741 159.939 480.061 163.729C478.241 166.431 480.376 243.402 480.061 259.284C477.629 257.98 475.129 256.792 472.571 255.725C472.108 253.561 471.127 251.524 469.702 249.771C468.276 248.018 466.444 246.595 464.346 245.609C461.126 244.423 456.996 245.84 454.616 243.698C452.236 241.557 456.506 240.403 456.961 237.108C456.947 234.824 456.665 232.547 456.121 230.321C454.011 218.376 451.065 206.576 447.301 194.998C444.151 185.476 440.861 177.403 431.796 172.23C431.796 156.216 430.081 62.3745 429.136 57.399C428.204 52.4886 425.422 48.0593 421.301 44.9241C417.18 41.7889 411.996 40.158 406.701 40.3309C406.351 40.3309 165.481 40.3309 165.201 40.5945C155.576 45.9983 152.986 58.058 152.356 66.9545C152.146 71.4028 156.276 161.225 157.921 189.759C140.876 190.089 54.7759 192.263 49.8409 194.735C38.6759 197.305 26.3209 204.62 23.9059 216.515C22.4009 224.159 25.4459 371.017 26.4609 377.97C27.1878 385.479 30.752 392.494 36.5059 397.74C42.7709 402.913 51.3109 403.868 58.8359 404.132L218.541 401.298C202.931 434.578 184.941 481.762 173.041 511.121C172.985 511.204 172.955 511.302 172.955 511.401C172.955 511.5 172.985 511.597 173.041 511.681C176.261 514.659 179.777 517.34 183.541 519.688C177.836 538.041 178.466 539.062 177.206 540.545C166.391 553.033 153.336 560.315 140.456 561.501C134.471 562.127 128.556 563.116 126.456 568.585C124.741 573.561 129.291 576.889 134.611 578.273C138.111 579.162 161.981 584.138 165.516 584.533C168.648 585.028 171.862 584.354 174.476 582.655C176.996 580.909 185.291 571.683 188.476 568.915C182.701 595.275 178.676 586.873 192.431 592.507C192.623 592.604 192.835 592.659 193.053 592.668C193.27 592.678 193.487 592.642 193.688 592.563C193.889 592.485 194.069 592.365 194.215 592.213C194.36 592.06 194.468 591.88 194.531 591.683C196.981 585.093 213.571 547.431 220.326 537.645C221.971 577.449 221.691 575.373 222.286 575.538C224.631 576.098 227.186 576.625 229.811 577.119C229.811 582.655 229.986 588.322 230.476 594.517C230.476 594.715 230.196 595.044 229.916 595.571C221.236 613.496 211.506 620.811 200.936 625.226C196.246 627.203 189.771 629.905 189.946 636.001C189.946 641.273 195.686 642.954 201.251 642.756C209.616 642.492 220.431 641.438 225.331 641.207C239.331 640.416 239.681 637.912 245.631 626.61C246.996 624.007 248.606 620.91 249.516 619.394C251.161 637.912 248.991 640.647 251.686 640.515C259.001 640.153 262.186 642.031 262.186 639.56C262.466 632.772 265.686 606.082 267.366 599.525C267.366 598.768 266.806 598.339 265.966 598.174C267.016 592.046 269.466 579.986 269.781 577.778C271.531 577.548 273.281 577.284 274.646 576.988C275.031 576.988 274.646 578.734 280.561 555.768C323.051 571.551 368.376 575.34 409.046 566.345C410.481 571.584 420.876 607.302 426.546 622.953C428.478 628.066 431.051 632.944 434.211 637.484C435.016 638.209 436.381 639.494 437.711 639.494C439.041 639.494 440.511 637.747 440.861 635.968C441.211 634.189 435.716 582.227 433.861 563.478C442.177 561.539 450.24 558.743 457.906 555.142L469.246 590.596C469.578 591.124 470.077 591.541 470.674 591.788C471.271 592.035 471.935 592.099 472.573 591.972C473.211 591.844 473.79 591.532 474.229 591.078C474.668 590.624 474.945 590.052 475.021 589.443L473.936 546.97C479.235 543.719 484.309 540.153 489.126 536.294C491.313 538.285 493.773 539.991 496.441 541.369C496.715 541.511 497.038 541.546 497.339 541.466C497.641 541.386 497.896 541.197 498.051 540.94C500.961 536.797 504.227 532.885 507.816 529.243C507.116 533.494 505.751 542.192 505.576 544.894C505.571 545.069 505.604 545.242 505.673 545.404C505.741 545.566 505.844 545.713 505.975 545.836C506.106 545.96 506.262 546.057 506.434 546.121C506.606 546.186 506.791 546.217 506.976 546.212C510.693 546.103 514.404 546.559 517.966 547.563C506.556 552.736 501.341 557.119 502.041 560.743C503.408 567.216 505.328 573.574 507.781 579.755C509.671 584.896 511.631 590.234 517.511 592.474C544.461 603.216 584.501 595.374 611.556 584.665C634.516 576.197 637.876 562.49 635.846 543.115C635.426 539.425 630.876 538.996 621.321 539.227L644.596 511.516C651.596 503.641 645.506 503.905 643.301 488.451C645.409 491.392 647.942 494.042 650.826 496.326C650.997 496.452 651.194 496.544 651.405 496.595C651.616 496.646 651.836 496.656 652.051 496.623C652.996 496.458 652.261 496.919 660.941 482.223C661.106 481.956 661.168 481.642 661.117 481.336C661.066 481.031 660.905 480.75 660.661 480.543C656.846 477.577 647.641 470.658 647.641 470.658C652.386 469.601 657.061 468.281 661.641 466.704C662.733 466.439 663.721 465.886 664.49 465.109C665.259 464.333 665.776 463.366 665.981 462.322C666.436 459.752 666.471 407.987 666.541 400.936C666.541 399.783 664.581 399.453 664.371 400.705C660.276 426.834 641.481 448.582 617.471 455.073C618.241 452.14 620.201 445.781 619.116 444.034C615.157 441.689 610.945 439.745 606.551 438.235C610.926 435.896 621.041 429.8 621.776 427.922C622.231 426.834 619.991 375.993 619.886 370.424C619.869 370.195 619.774 369.976 619.617 369.8C619.46 369.624 619.247 369.5 619.009 369.445C618.772 369.39 618.522 369.407 618.296 369.495C618.07 369.582 617.879 369.734 617.751 369.93C610.974 382.527 600.95 393.323 588.596 401.331C587.161 402.254 576.836 407.427 576.031 408.119C573.441 410.458 576.661 413.325 578.026 415.137C579.006 416.389 582.366 420.64 583.031 421.53C570.711 422.946 567.456 418.959 566.826 421.53C565.615 424.886 563.982 428.094 561.961 431.085C562.682 433.973 563.606 436.813 564.726 439.586C562.675 439.904 560.582 439.904 558.531 439.586C558.165 439.512 557.783 439.569 557.46 439.746C557.136 439.922 556.894 440.206 556.781 440.542C555.801 443.54 555.031 446.044 554.331 448.384C550.088 441.61 545.413 435.085 540.331 428.844C537.846 410.986 528.886 390.128 509.951 387.36C524.196 381.759 533.541 367.36 535.781 352.763C542.501 352.763 639.591 352.499 643.511 352.763C664.756 353.323 674.241 345.679 676.236 325.283C677.041 317.144 675.501 176.711 675.501 175.228ZM192.186 567.531C192.274 567.182 192.218 566.814 192.03 566.502C191.842 566.191 191.535 565.958 191.171 565.851C188.336 564.862 186.166 567.201 184.591 568.882C180.604 573.451 176.226 577.705 171.501 581.601C168.876 582.787 138.321 576.823 134.506 575.703C132.452 575.265 130.666 574.08 129.536 572.408C129.094 571.192 129.142 569.865 129.671 568.68C130.2 567.496 131.174 566.536 132.406 565.982C135.101 564.434 137.096 564.565 144.656 563.247C152.216 561.929 159.706 560.644 172.866 548.98C174.699 547.327 176.407 545.554 177.976 543.675C180.161 548.249 183.839 552.046 188.476 554.516C194.687 557.112 201.624 557.748 208.251 556.328C204.751 562.918 195.091 583.512 192.676 589.805C190.751 589.08 188.791 588.421 186.866 587.894C189.034 581.203 190.81 574.405 192.186 567.531ZM499.556 387.097C494.633 387.295 489.743 387.958 484.961 389.074C469.284 390.742 453.522 391.6 437.746 391.644C435.436 378.464 436.136 380.902 435.541 377.245C435.296 375.663 434.946 373.488 436.171 372.796C452.936 365.745 470.366 359.353 487.061 352.466C490.561 354.872 490.841 354.575 491.156 354.377C491.306 354.225 491.389 354.025 491.389 353.817C491.389 353.61 491.306 353.409 491.156 353.257C489.79 351.958 488.353 350.726 486.851 349.567C473.415 338.255 464.056 323.283 460.076 306.732C460.029 306.535 459.902 306.364 459.721 306.256C459.541 306.148 459.322 306.111 459.113 306.155C458.904 306.199 458.723 306.319 458.608 306.489C458.493 306.659 458.454 306.865 458.501 307.061C461.466 324.273 470.923 339.902 485.136 351.082L436.871 369.864C435.476 370.249 434.249 371.046 433.371 372.137C430.955 371.519 428.772 370.275 427.071 368.546C417.971 361.659 414.331 366.371 402.571 375.136C401.434 375.943 400.358 376.824 399.351 377.772C393.134 372.567 386.939 367.338 380.766 362.088C379.191 359.913 364.841 313.322 358.961 294.606C363.506 284.231 370.84 275.147 380.241 268.246C381.328 271.371 382.698 274.403 384.336 277.307C386.961 279.68 390.356 278.527 393.646 277.769C392.739 279.54 392.217 281.463 392.108 283.426C392 285.389 392.309 287.353 393.016 289.202C395.494 294.433 399.364 298.972 404.251 302.382C416.221 312.267 415.626 312.004 416.326 312.004C416.649 311.989 416.955 311.863 417.187 311.651C417.419 311.439 417.561 311.154 417.586 310.85C418.776 299.351 422.696 296.188 433.756 292.53C439.805 290.671 444.923 286.794 448.146 281.63C451.369 276.465 452.475 270.369 451.256 264.49C458.571 264.542 465.86 263.655 472.921 261.854C473.254 261.783 473.545 261.591 473.728 261.319C473.912 261.048 473.974 260.719 473.901 260.404C473.901 259.844 473.656 259.185 473.481 258.493C524.546 281.854 555.661 354.641 514.466 381.693C509.986 384.517 504.891 386.364 499.556 387.097ZM511.316 390.853C520.311 392.665 527.836 399.783 532.736 412.304C556.116 471.778 501.621 543.84 433.966 560.579C433.546 556.592 431.236 533.461 430.781 531.747C430.445 530.235 429.522 528.895 428.191 527.991C423.886 525.75 416.501 528.222 412.581 530.396C408.844 532.732 405.504 535.587 402.676 538.864C402.676 539.919 407.576 559.788 408.626 563.841C366.086 572.216 321.871 568.641 281.471 553.56C287.701 529.177 295.961 495.799 298.271 485.453C322.351 492.504 356.196 491.845 356.546 491.812C356.658 491.784 356.757 491.722 356.827 491.636C356.898 491.549 356.936 491.443 356.936 491.334C356.936 491.225 356.898 491.119 356.827 491.033C356.757 490.946 356.658 490.884 356.546 490.856C337.121 484.761 320.356 469.043 309.366 446.572C292.461 412.995 257.391 413.391 243.741 430.097C224.001 454.216 220.816 524.399 220.501 532.868C219.276 534.976 212.241 547.926 209.581 553.198C188.581 557.91 182.596 546.608 180.041 541.764C179.621 540.94 179.831 543.115 186.341 521.467C189.841 523.081 214.726 531.352 214.761 528.914C215.041 500.906 222.251 434.281 241.781 418.959C255.781 408.152 286.056 410.03 299.461 419.388C307.983 426.711 314.954 435.488 320.006 445.254C331.241 467.956 350.596 484.794 372.086 489.011C399.631 486.738 431.586 445.418 440.721 418.992C457.591 398.86 485.416 387.327 511.316 390.853ZM566.091 524.861C566.137 525.057 566.265 525.229 566.445 525.337C566.626 525.445 566.844 525.481 567.053 525.437C567.262 525.394 567.444 525.274 567.559 525.104C567.674 524.934 567.712 524.728 567.666 524.531C565.461 513.921 559.231 504.761 555.311 494.876C548.521 477.973 553.456 459.817 559.196 442.65C561.756 443.101 564.402 442.778 566.756 441.728C568.681 440.311 567.141 437.906 564.971 431.843C566.755 429.302 568.157 426.541 569.136 423.638C574.606 424.857 580.295 424.924 585.796 423.836C586.009 423.785 586.207 423.687 586.373 423.55C586.539 423.413 586.668 423.241 586.749 423.049C586.831 422.856 586.864 422.648 586.844 422.441C586.824 422.234 586.753 422.035 586.636 421.859C584.291 418.959 578.096 411.018 577.781 410.425C577.466 409.832 577.781 409.898 578.796 409.47C595.525 402.303 609.244 390.095 617.786 374.773C618.206 385.548 619.571 425.648 619.186 427.263C613.748 430.968 608.014 434.273 602.036 437.148C601.775 437.283 601.563 437.489 601.426 437.738C601.289 437.988 601.234 438.27 601.268 438.549C601.302 438.827 601.423 439.091 601.615 439.305C601.808 439.519 602.064 439.674 602.351 439.751C607.303 441.345 612.103 443.329 616.701 445.682C617.331 446.637 615.126 454.183 614.741 456.127L611.241 456.786C610.893 456.872 610.593 457.081 610.404 457.369C610.215 457.657 610.151 458.003 610.226 458.335C611.136 464.167 613.201 478.533 613.201 478.533C603.156 469.735 603.226 464.859 601.056 464.661C600.841 464.636 600.622 464.662 600.42 464.736C600.218 464.811 600.04 464.933 599.901 465.089C583.443 483.067 574.204 505.909 573.791 529.638C573.83 529.817 573.933 529.976 574.083 530.091C574.233 530.206 574.42 530.269 574.613 530.269C574.807 530.269 574.994 530.206 575.144 530.091C575.293 529.976 575.397 529.817 575.436 529.638C576.754 507.186 585.601 485.705 600.706 468.286C604.186 473.931 608.756 478.915 614.181 482.981C614.412 483.175 614.702 483.294 615.01 483.323C615.317 483.353 615.627 483.29 615.894 483.144C616.162 482.998 616.373 482.776 616.499 482.51C616.625 482.245 616.659 481.948 616.596 481.663C616.596 481.663 614.076 465.617 613.096 459.093C636.931 455.106 657.406 436.028 664.301 411.71C664.301 425.253 663.811 458.829 663.811 459.158C663.811 461.3 663.811 463.343 661.781 464.299C656.04 466.197 650.199 467.814 644.281 469.142C644.038 469.202 643.818 469.323 643.642 469.491C643.466 469.659 643.341 469.868 643.28 470.097C643.219 470.326 643.225 470.566 643.296 470.792C643.367 471.018 643.502 471.222 643.686 471.383C645.331 472.635 654.781 479.917 657.896 482.256C657.896 482.256 653.626 489.934 651.456 493.723C647.907 490.632 644.968 486.972 642.776 482.915C642.634 482.685 642.415 482.504 642.154 482.402C641.893 482.299 641.603 482.28 641.329 482.347C641.055 482.415 640.812 482.565 640.637 482.774C640.462 482.984 640.365 483.242 640.361 483.508C641.341 505.519 648.831 502.652 642.636 509.868C621.286 535.141 617.541 543.313 594.546 549.705C599.166 529.935 614.986 521.928 621.321 507.661C624.821 499.852 624.051 491.186 626.816 483.344C628.741 477.901 631.888 472.912 636.043 468.716C640.198 464.52 645.264 461.216 650.896 459.027C651.1 458.961 651.268 458.822 651.363 458.64C651.459 458.457 651.473 458.247 651.403 458.055C651.334 457.862 651.186 457.704 650.992 457.614C650.799 457.525 650.575 457.511 650.371 457.577C643.036 460.013 636.564 464.319 631.676 470.015C626.787 475.71 623.675 482.572 622.686 489.835C621.181 499.951 621.496 504.926 614.776 513.789C607.356 523.51 595.211 532.11 591.291 550.529C585.204 551.955 578.975 552.773 572.706 552.967C571.971 547.069 568.121 543.609 565.391 543.477C562.871 539.326 536.306 501.269 526.506 492.932C537.343 474.572 542.326 453.659 540.856 432.7C545.056 438.532 552.231 449.471 553.491 451.613C541.276 495.964 561.226 502.619 566.091 524.861ZM510.896 526.311C510.895 526.078 510.823 525.851 510.689 525.655C510.556 525.46 510.365 525.305 510.141 525.208C509.917 525.111 509.668 525.076 509.423 525.108C509.178 525.14 508.949 525.237 508.761 525.388C504.285 529.57 500.221 534.125 496.616 538.996C494.555 537.864 492.62 536.539 490.841 535.042C499.3 528.122 506.971 520.392 513.731 511.977C550.901 553.956 549.116 552.736 550.166 551.946C550.248 551.893 550.318 551.825 550.372 551.746C550.426 551.667 550.462 551.579 550.478 551.487C550.495 551.394 550.491 551.3 550.467 551.209C550.444 551.118 550.401 551.032 550.341 550.957C547.891 547.464 522.936 518.007 515.341 509.737C518.947 505.044 522.244 500.148 525.211 495.074C539.211 507.957 560.946 541.863 562.976 545.059C561.043 547.676 560.14 550.845 560.421 554.021C555.999 555.184 551.353 555.376 546.841 554.582C541.486 553.593 521.466 544.334 508.341 543.972C509.181 540.38 510.511 529.408 511.001 526.311H510.896ZM419.266 530.495H419.861C422.591 529.902 426.861 529.012 427.876 531.615C428.401 533.395 438.971 631.685 438.971 634.716C439.027 635.194 438.972 635.677 438.808 636.133C438.645 636.588 438.378 637.004 438.026 637.352C428.926 634.057 406.526 546.641 405.651 539.227C409.178 535.119 413.914 532.082 419.266 530.495ZM46.5859 374.905C46.5859 367.36 41.2659 217.767 41.7909 212.363C42.7009 202.181 46.5859 197.601 55.1609 196.547C64.2259 194.899 148.856 192.626 158.096 192.395C158.306 195.69 158.481 197.997 158.551 198.425C158.939 201.017 160.252 203.408 162.275 205.205C164.298 207.001 166.909 208.096 169.681 208.31C169.681 207.981 167.371 208.31 239.681 208.541C239.681 218.821 240.346 267.126 240.381 269.399C219.801 270.124 198.591 270.915 194.531 271.278C193.971 271.278 193.481 272.233 193.691 272.694C199.781 286.863 226.906 344.394 234.501 359.155C235.209 360.833 236.427 362.276 238.001 363.307C238.981 364.691 240.136 366.239 241.501 367.788C230.406 376.124 226.416 385.35 219.976 398.86C190.331 399.453 70.1759 401.792 67.4809 401.694C59.9909 401.397 54.7059 399.354 51.4159 395.466C46.4109 389.865 46.6209 382.22 46.5859 374.905ZM451.501 243.303C452.236 245.807 455.001 247.158 459.271 247.257C466.621 246.96 469.771 252.924 471.101 259.778C463.946 261.094 456.688 261.855 449.401 262.052C449.19 262.054 448.982 262.102 448.795 262.192C448.607 262.282 448.444 262.412 448.318 262.572C448.193 262.732 448.108 262.917 448.071 263.112C448.035 263.308 448.046 263.509 448.106 263.699C449.223 267.46 449.234 271.437 448.137 275.204C447.039 278.97 444.875 282.385 441.876 285.084C432.461 293.618 417.376 288.906 415.171 308.577C412.021 306.007 400.366 296.682 397.986 293.947C393.891 289.499 392.246 282.118 396.446 277.472C405.439 276.088 414.529 275.328 423.641 275.199C423.845 275.199 424.041 275.122 424.185 274.986C424.33 274.85 424.411 274.666 424.411 274.474C424.411 274.281 424.33 274.097 424.185 273.961C424.041 273.825 423.845 273.749 423.641 273.749C413.157 273.049 402.621 273.759 392.351 275.858C388.431 276.879 386.506 277.604 384.756 274.144C383.881 272.398 378.666 257.439 377.756 254.671C376.146 251.079 377.126 252.167 380.066 250.453C382.946 252.745 386.18 254.611 389.656 255.989C389.656 256.384 391.476 261.623 391.756 262.579C391.875 263.37 392.295 264.094 392.939 264.616C393.583 265.137 394.407 265.42 395.256 265.412C403.418 266.118 411.641 264.993 419.252 262.13C426.863 259.266 433.644 254.745 439.041 248.937C439.148 248.799 439.197 248.629 439.178 248.458C439.16 248.288 439.075 248.131 438.94 248.016C438.805 247.901 438.63 247.838 438.448 247.837C438.266 247.837 438.091 247.9 437.956 248.015C432.535 253.173 426.022 257.2 418.841 259.834C411.659 262.468 403.969 263.65 396.271 263.304C393.821 263.139 394.136 263.633 392.071 256.714C401.521 259.218 403.901 255.824 400.541 258.954C400.431 259.077 400.371 259.233 400.37 259.393C400.368 259.554 400.426 259.71 400.534 259.835C400.642 259.959 400.792 260.045 400.959 260.077C401.127 260.108 401.3 260.084 401.451 260.009C414.182 251.048 423.47 238.429 427.911 224.06C427.943 223.967 427.955 223.869 427.946 223.772C427.936 223.674 427.906 223.58 427.857 223.493C427.808 223.407 427.741 223.331 427.66 223.27C427.579 223.209 427.486 223.164 427.386 223.138C425.566 222.544 426.791 225.938 418.251 239.085C414.751 225.905 417.096 211.968 413.316 198.722C413.265 198.534 413.137 198.373 412.959 198.274C412.782 198.175 412.57 198.146 412.371 198.194C412.171 198.242 412 198.363 411.895 198.53C411.79 198.697 411.76 198.896 411.811 199.084C412.424 201.887 412.822 204.728 413.001 207.585C405.546 200.633 389.796 189.529 377.371 192.066C374.694 192.143 372.157 193.21 370.31 195.036C368.463 196.861 367.454 199.298 367.501 201.819C364.491 197.997 366.591 192.165 369.321 188.935C376.531 180.072 389.341 175.755 402.116 172.46C413.421 169.627 428.541 170.022 437.116 179.644C440.836 184.445 443.523 189.885 445.026 195.657C449.497 208.665 452.614 222.05 454.336 235.626C454.469 236.173 454.442 236.744 454.257 237.278C454.072 237.812 453.736 238.289 453.286 238.657C452.587 239.22 452.055 239.944 451.742 240.758C451.43 241.573 451.346 242.449 451.501 243.303ZM237.056 358.364C233.766 351.774 201.251 283.897 196.071 272.694C207.656 272.694 338.381 268.18 340.656 268.114C345.101 281.558 371.001 362.747 371.001 363.439C371.001 363.439 340.061 364.164 323.366 364.79C295.191 351.412 269.116 352.862 250.146 362.318C239.436 361.89 238.946 362.088 237.056 358.364ZM370.056 221.688C369.566 211.803 370.056 204.916 371.701 204.224C377.721 201.654 388.956 200.929 401.451 204.653C403.026 205.147 408.066 207.618 413.141 209.628C413.701 220.172 413.141 231.342 416.641 241.557C413.547 246.664 409.573 251.252 404.881 255.132C383.706 257.768 371.001 241.82 369.986 221.688H370.056ZM402.186 418.729C401.346 420.245 415.591 430.327 417.131 431.415C422.171 435.896 416.011 438.334 410.901 434.018C382.901 410.327 359.031 383.176 327.916 366.964C346.046 366.404 368.481 365.778 372.331 365.745C376.216 369.271 421.331 409.041 432.986 418.465C400.436 418.696 402.501 418.202 402.116 418.729H402.186ZM436.556 418.268C436.206 417.971 377.056 367.656 374.781 365.152C373.451 363.043 348.916 284.655 343.281 268.872C346.738 271.092 349.302 274.341 350.561 278.098C352.661 283.733 376.496 358.859 376.601 359.221C376.887 361.046 377.753 362.746 379.086 364.098C388.291 372.434 427.351 405.779 440.056 415.664C439.321 416.521 438.586 417.378 437.886 418.268H436.556ZM434.001 386.603C427.911 386.141 425.986 385.482 424.481 387.229C423.991 387.953 422.591 389.568 420.806 389.206C420.496 389.138 420.205 389.01 419.95 388.832C419.695 388.653 419.482 388.426 419.325 388.167C419.167 387.907 419.068 387.619 419.034 387.322C418.999 387.024 419.031 386.723 419.126 386.438C420.841 384.922 422.626 383.604 424.236 381.99C424.322 381.876 424.365 381.738 424.358 381.598C424.352 381.459 424.296 381.325 424.199 381.219C424.102 381.113 423.971 381.04 423.825 381.013C423.68 380.985 423.529 381.004 423.396 381.067C421.611 382.154 419.896 383.901 417.866 385.054C417.698 385.056 417.533 385.093 417.382 385.161C417.231 385.229 417.097 385.328 416.991 385.449C416.572 385.609 416.119 385.676 415.667 385.645C415.216 385.613 414.779 385.484 414.389 385.267C414 385.05 413.669 384.752 413.422 384.395C413.175 384.038 413.019 383.632 412.966 383.209C412.966 380.573 415.976 378.826 417.726 376.882C418.426 376.223 417.376 375.235 416.641 375.861C414.766 377.351 413.022 378.982 411.426 380.737C409.409 381.341 407.351 381.815 405.266 382.154C404.321 382.154 405.266 382.714 401.136 379.386C405.442 375.584 410.131 372.185 415.136 369.238C423.641 363.966 425.216 373.093 432.881 374.147C432.874 378.322 433.248 382.489 434.001 386.603ZM441.876 413.753L406.631 384.098C407.909 383.861 409.171 383.553 410.411 383.176C410.383 383.891 410.531 384.603 410.846 385.255C411.16 385.907 411.632 386.481 412.222 386.932C412.813 387.382 413.508 387.697 414.25 387.852C414.993 388.006 415.763 387.996 416.501 387.822C416.641 388.521 416.954 389.178 417.416 389.742C417.877 390.305 418.473 390.757 419.155 391.062C419.838 391.368 420.587 391.517 421.342 391.497C422.097 391.478 422.837 391.291 423.501 390.952C428.331 388.876 423.501 388.085 431.306 388.744C432.321 388.744 433.406 388.942 434.456 388.975C434.771 390.524 435.086 391.94 435.436 393.291C435.52 393.561 435.696 393.797 435.936 393.964C436.176 394.13 436.468 394.218 436.766 394.214C499.346 392.962 468.616 384.823 441.806 413.753H441.876ZM357.876 291.048C353.921 278.559 351.856 268.477 343.876 265.907C343.876 266.302 346.851 265.478 243.251 269.202C243.251 253.155 242.516 214.34 242.411 208.442H367.886C366.906 222.709 367.886 238.097 378.386 248.707C377.126 249.168 374.886 250.157 374.361 250.98C375.652 256.306 377.384 261.528 379.541 266.599C370.15 272.837 362.638 281.261 357.736 291.048H357.876ZM343.491 189.199C343.491 184.586 342.371 159.775 342.126 155.228H351.051C351.051 159.907 351.716 184.619 351.926 189.166C349.126 189.1 346.291 189.133 343.491 189.199ZM292.216 190.188C292.251 181.225 291.026 105.44 290.851 95.5551H299.776C299.776 120.597 300.546 183.235 300.686 190.056L292.216 190.188ZM236.986 108.274H245.946C245.946 129.922 246.681 184.586 246.856 191.077H238.386C238.421 182.972 237.196 117.302 236.986 108.274ZM161.001 196.975C160.511 194.175 156.451 106.429 154.806 72.8197C154.421 62.4734 157.326 49.7546 164.711 43.8566C164.711 66.9216 167.861 194.207 168.561 205.74C166.501 205.18 164.672 204.041 163.321 202.474C161.969 200.907 161.16 198.988 161.001 196.975ZM482.126 169.594C481.838 167.443 482.385 165.267 483.666 163.465C486.406 161.434 489.348 159.658 492.451 158.16C488.951 164.091 489.861 162.444 491.716 266.566C488.829 264.494 485.826 262.569 482.721 260.799C482.371 244.193 482.196 183.828 482.231 169.594H482.126ZM512.716 206.201C514.342 204.028 516.503 202.258 519.014 201.041C521.526 199.825 524.312 199.198 527.136 199.216C541.381 199.216 546.561 215.164 549.361 228.146C551.811 238.328 551.986 250.321 559.861 258.625C596.471 289.861 599.236 246.268 621.496 247.949C628.496 248.707 633.151 254.737 638.156 259.086C640.295 261.348 643.297 262.725 646.508 262.916C649.719 263.107 652.88 262.098 655.306 260.107V306.929C646.696 306.929 537.356 306.172 525.351 306.303C522.428 300.545 518.986 295.033 515.061 289.828C515.481 285.841 512.891 209.76 512.821 206.201H512.716ZM526.716 308.544C542.816 308.775 644.981 309.038 655.586 309.038C655.601 310.293 655.683 311.547 655.831 312.795C655.856 313.06 655.985 313.307 656.191 313.489C656.398 313.672 656.668 313.776 656.951 313.783C659.016 313.783 658.071 316.781 657.721 227.421C657.721 227.203 657.629 226.993 657.465 226.839C657.3 226.684 657.078 226.597 656.846 226.597C656.614 226.597 656.391 226.684 656.227 226.839C656.063 226.993 655.971 227.203 655.971 227.421C655.971 233.286 655.586 252.661 655.551 256.483C654.748 257.674 653.656 258.669 652.366 259.386C651.075 260.103 649.623 260.523 648.127 260.609C646.631 260.696 645.135 260.448 643.761 259.886C642.386 259.323 641.173 258.462 640.221 257.373C630.106 247.488 620.096 239.25 605.466 251.969C593.496 263.6 586.916 273.419 570.466 263.37C563.805 260.028 558.785 254.381 556.466 247.619C550.936 228.937 552.476 200.105 529.096 196.283C525.97 195.983 522.813 196.408 519.903 197.522C516.992 198.637 514.416 200.406 512.401 202.676C512.401 197.667 512.016 192.791 511.806 187.716C511.806 187.507 511.717 187.305 511.56 187.157C511.402 187.009 511.189 186.926 510.966 186.926C510.743 186.926 510.529 187.009 510.372 187.157C510.214 187.305 510.126 187.507 510.126 187.716C510.126 193.186 511.946 269.564 512.506 286.336C507.112 279.691 500.91 273.664 494.026 268.378C494.026 255.824 492.836 174.306 492.696 169.264C492.486 160.104 496.371 154.799 505.331 152.592C512.681 150.681 644.841 148.769 657.406 150.384C665.736 151.372 670.496 159.05 671.686 165.706C673.156 173.976 673.576 310.686 673.611 312.498C673.891 328.643 671.861 347.063 654.011 349.336C649.986 349.863 550.411 350.094 535.956 349.962C536.403 335.669 533.261 321.479 526.786 308.544H526.716ZM424.236 52.0611C428.436 58.9806 426.056 57.0696 429.031 170.879C414.541 164.717 394.031 170.385 380.031 177.469V79.838C380.031 79.0801 381.851 79.3108 369.531 79.3108C368.761 79.3108 368.831 72.5231 371.421 182.939C369.32 184.723 367.495 186.775 365.996 189.034H354.236C354.236 184.751 352.906 154.371 352.766 154.107C352.725 153.936 352.623 153.783 352.476 153.675C352.329 153.567 352.147 153.51 351.961 153.514C348.179 153.395 344.393 153.472 340.621 153.745C340.509 153.817 340.42 153.916 340.365 154.033C340.309 154.149 340.289 154.277 340.306 154.404C340.306 157.699 340.936 184.454 341.181 189.199L327.986 189.463C328.651 133.184 328.896 136.15 327.986 136.084C318.501 136.446 318.291 136.281 318.291 136.94V189.66L302.891 189.957C302.891 182.609 301.701 99.5751 301.456 94.7643C301.466 94.5477 301.389 94.3354 301.24 94.1702C301.09 94.0051 300.88 93.8995 300.651 93.8747C300.651 93.8747 289.696 93.8747 289.346 94.2042C288.331 94.962 289.906 186.464 289.906 190.221L273.281 190.517V141.323C273.157 141.277 273.02 141.277 272.896 141.323C263.236 141.323 263.341 141.323 263.341 142.048V190.715L249.131 191.11C248.151 106.033 247.346 107.582 247.696 107.582C247.697 107.371 247.616 107.167 247.467 107.009C247.319 106.85 247.114 106.75 246.891 106.725C246.891 106.725 236.006 106.725 235.656 106.989C234.466 107.681 236.146 185.509 236.146 191.374L216.896 191.703C217.001 63.2971 217.386 69.1952 216.476 69.1952L207.901 69.4917C207.306 69.4917 207.516 61.6166 207.516 191.835C193.096 192.099 193.516 191.835 193.306 192.362C193.239 192.465 193.201 192.583 193.197 192.703C193.193 192.824 193.222 192.943 193.282 193.05C193.343 193.157 193.431 193.246 193.54 193.311C193.648 193.375 193.773 193.412 193.901 193.417C215.146 193.417 343.806 192.198 364.771 191.604C362.671 196.646 363.056 202.214 367.921 205.147V205.872C347.691 206.432 174.581 205.872 171.466 205.872C171.466 201.555 167.546 50.809 167.511 42.3738C191.766 42.3738 405.511 42.6704 411.076 43.5271C413.804 43.9431 416.4 44.9245 418.676 46.4004C420.952 47.8763 422.851 49.8098 424.236 52.0611ZM42.7359 200.007C38.7109 205.476 38.5009 212.594 38.5009 219.48C38.5009 220.996 43.4009 383.176 44.1359 387.13C44.5545 389.999 45.6206 392.751 47.2626 395.201C48.9047 397.65 51.0846 399.741 53.6559 401.331C49.5419 401.136 45.52 400.114 41.8609 398.333C34.0909 394.313 31.1509 386.042 30.1009 381.462C28.2459 373.225 25.7959 231.738 26.2159 224.423C25.9709 212.297 30.3459 205.74 42.6659 200.007H42.7359ZM567.736 572.638C581.745 571.718 595.469 568.461 608.266 563.017C617.366 559.063 628.706 552.802 633.396 547.827C634.131 563.379 630.771 573.429 613.796 580.777C591.326 590.662 538.021 602.788 514.991 588.322C512.926 586.444 507.991 572.177 506.031 565.587C516.076 571.88 545.336 574.319 567.666 572.638H567.736ZM251.196 615.803C248.256 615.572 246.856 618.34 245.876 620.35C237.686 636.825 237.791 637.879 229.461 638.406C226.836 638.571 202.126 640.482 200.306 640.482C193.936 640.911 190.401 636.792 194.916 631.75C197.49 629.923 200.346 628.478 203.386 627.467C213.116 623.216 228.516 611.981 231.911 598.076C235.424 601.961 240.217 604.629 245.526 605.654C252.099 606.318 258.729 605.04 264.496 601.997C263.166 609.114 260.086 631.289 259.701 638.242C257.655 638.04 255.598 637.952 253.541 637.978C253.506 636.1 252.841 615.935 251.126 615.803H251.196ZM264.076 598.834C259.528 601.862 254.071 603.443 248.501 603.348C245.554 603.139 242.685 602.361 240.072 601.063C237.459 599.765 235.157 597.974 233.311 595.802C233.311 594.781 232.926 583.742 233.031 577.811C244.371 578.653 255.754 578.862 267.121 578.437C266.561 581.337 264.776 593.1 264.006 598.834H264.076Z" fill="#F0F0EC"/>
<path d="M675.501 175.228C675.256 154.7 667.941 146.595 645.366 147.221C638.926 147.221 524.091 148.308 515.866 148.572C510.351 148.573 504.896 149.638 499.836 151.702C496.931 152.789 481.741 159.939 480.061 163.729C478.241 166.431 480.376 243.402 480.061 259.284C477.629 257.98 475.129 256.792 472.571 255.725C472.108 253.561 471.127 251.524 469.702 249.771C468.276 248.018 466.444 246.595 464.346 245.609C461.126 244.423 456.996 245.84 454.616 243.698C452.236 241.557 456.506 240.403 456.961 237.108C456.947 234.824 456.665 232.547 456.121 230.321C454.011 218.376 451.065 206.576 447.301 194.998C444.151 185.476 440.861 177.403 431.796 172.23C431.796 156.216 430.081 62.3745 429.136 57.399C428.204 52.4886 425.422 48.0593 421.301 44.9241C417.18 41.7889 411.996 40.158 406.701 40.3309C406.351 40.3309 165.481 40.3309 165.201 40.5945C155.576 45.9983 152.986 58.058 152.356 66.9545C152.146 71.4028 156.276 161.225 157.921 189.759C140.876 190.089 54.7759 192.263 49.8409 194.735C38.6759 197.305 26.3209 204.62 23.9059 216.515C22.4009 224.159 25.4459 371.017 26.4609 377.97C27.1878 385.479 30.752 392.494 36.5059 397.74C42.7709 402.913 51.3109 403.868 58.8359 404.132L218.541 401.298C202.931 434.578 184.941 481.762 173.041 511.121C172.985 511.204 172.955 511.302 172.955 511.401C172.955 511.5 172.985 511.597 173.041 511.681C176.261 514.659 179.777 517.34 183.541 519.688C177.836 538.041 178.466 539.062 177.206 540.545C166.391 553.033 153.336 560.315 140.456 561.501C134.471 562.127 128.556 563.116 126.456 568.585C124.741 573.561 129.291 576.889 134.611 578.273C138.111 579.162 161.981 584.138 165.516 584.533C168.648 585.028 171.862 584.354 174.476 582.655C176.996 580.909 185.291 571.683 188.476 568.915C182.701 595.275 178.676 586.873 192.431 592.507C192.623 592.604 192.835 592.659 193.053 592.668C193.27 592.678 193.487 592.642 193.688 592.563C193.889 592.485 194.069 592.365 194.215 592.213C194.36 592.06 194.468 591.88 194.531 591.683C196.981 585.093 213.571 547.431 220.326 537.645C221.971 577.449 221.691 575.373 222.286 575.538C224.631 576.098 227.186 576.625 229.811 577.119C229.811 582.655 229.986 588.322 230.476 594.517C230.476 594.715 230.196 595.044 229.916 595.571C221.236 613.496 211.506 620.811 200.936 625.226C196.246 627.203 189.771 629.905 189.946 636.001C189.946 641.273 195.686 642.954 201.251 642.756C209.616 642.492 220.431 641.438 225.331 641.207C239.331 640.416 239.681 637.912 245.631 626.61C246.996 624.007 248.606 620.91 249.516 619.394C251.161 637.912 248.991 640.647 251.686 640.515C259.001 640.153 262.186 642.031 262.186 639.56C262.466 632.772 265.686 606.082 267.366 599.525C267.366 598.768 266.806 598.339 265.966 598.174C267.016 592.046 269.466 579.986 269.781 577.778C271.531 577.548 273.281 577.284 274.646 576.988C275.031 576.988 274.646 578.734 280.561 555.768C323.051 571.551 368.376 575.34 409.046 566.345C410.481 571.584 420.876 607.302 426.546 622.953C428.478 628.066 431.051 632.944 434.211 637.484C435.016 638.209 436.381 639.494 437.711 639.494C439.041 639.494 440.511 637.747 440.861 635.968C441.211 634.189 435.716 582.227 433.861 563.478C442.177 561.539 450.24 558.743 457.906 555.142L469.246 590.596C469.578 591.124 470.077 591.541 470.674 591.788C471.271 592.035 471.935 592.099 472.573 591.972C473.211 591.844 473.79 591.532 474.229 591.078C474.668 590.624 474.945 590.052 475.021 589.443L473.936 546.97C479.235 543.719 484.309 540.153 489.126 536.294C491.313 538.285 493.773 539.991 496.441 541.369C496.715 541.511 497.038 541.546 497.339 541.466C497.641 541.386 497.896 541.197 498.051 540.94C500.961 536.797 504.227 532.885 507.816 529.243C507.116 533.494 505.751 542.192 505.576 544.894C505.571 545.069 505.604 545.242 505.673 545.404C505.741 545.566 505.844 545.713 505.975 545.836C506.106 545.96 506.262 546.057 506.434 546.121C506.606 546.186 506.791 546.217 506.976 546.212C510.693 546.103 514.404 546.559 517.966 547.563C506.556 552.736 501.341 557.119 502.041 560.743C503.408 567.216 505.328 573.574 507.781 579.755C509.671 584.896 511.631 590.234 517.511 592.474C544.461 603.216 584.501 595.374 611.556 584.665C634.516 576.197 637.876 562.49 635.846 543.115C635.426 539.425 630.876 538.996 621.321 539.227L644.596 511.516C651.596 503.641 645.506 503.905 643.301 488.451C645.409 491.392 647.942 494.042 650.826 496.326C650.997 496.452 651.194 496.544 651.405 496.595C651.616 496.646 651.836 496.656 652.051 496.623C652.996 496.458 652.261 496.919 660.941 482.223C661.106 481.956 661.168 481.642 661.117 481.336C661.066 481.031 660.905 480.75 660.661 480.543C656.846 477.577 647.641 470.658 647.641 470.658C652.386 469.601 657.061 468.281 661.641 466.704C662.733 466.439 663.721 465.886 664.49 465.109C665.259 464.333 665.776 463.366 665.981 462.322C666.436 459.752 666.471 407.987 666.541 400.936C666.541 399.783 664.581 399.453 664.371 400.705C660.276 426.834 641.481 448.582 617.471 455.073C618.241 452.14 620.201 445.781 619.116 444.034C615.157 441.689 610.945 439.745 606.551 438.235C610.926 435.896 621.041 429.8 621.776 427.922C622.231 426.834 619.991 375.993 619.886 370.424C619.869 370.195 619.774 369.976 619.617 369.8C619.46 369.624 619.247 369.5 619.009 369.445C618.772 369.39 618.522 369.407 618.296 369.495C618.07 369.582 617.879 369.734 617.751 369.93C610.974 382.527 600.95 393.323 588.596 401.331C587.161 402.254 576.836 407.427 576.031 408.119C573.441 410.458 576.661 413.325 578.026 415.137C579.006 416.389 582.366 420.64 583.031 421.53C570.711 422.946 567.456 418.959 566.826 421.53C565.615 424.886 563.982 428.094 561.961 431.085C562.682 433.973 563.606 436.813 564.726 439.586C562.675 439.904 560.582 439.904 558.531 439.586C558.165 439.512 557.783 439.569 557.46 439.746C557.136 439.922 556.894 440.206 556.781 440.542C555.801 443.54 555.031 446.044 554.331 448.384C550.088 441.61 545.413 435.085 540.331 428.844C537.846 410.986 528.886 390.128 509.951 387.36C524.196 381.759 533.541 367.36 535.781 352.763C542.501 352.763 639.591 352.499 643.511 352.763C664.756 353.323 674.241 345.679 676.236 325.283C677.041 317.144 675.501 176.711 675.501 175.228ZM192.186 567.531C192.274 567.182 192.218 566.814 192.03 566.502C191.842 566.191 191.535 565.958 191.171 565.851C188.336 564.862 186.166 567.201 184.591 568.882C180.604 573.451 176.226 577.705 171.501 581.601C168.876 582.787 138.321 576.823 134.506 575.703C132.452 575.265 130.666 574.08 129.536 572.408C129.094 571.192 129.142 569.865 129.671 568.68C130.2 567.496 131.174 566.536 132.406 565.982C135.101 564.434 137.096 564.565 144.656 563.247C152.216 561.929 159.706 560.644 172.866 548.98C174.699 547.327 176.407 545.554 177.976 543.675C180.161 548.249 183.839 552.046 188.476 554.516C194.687 557.112 201.624 557.748 208.251 556.328C204.751 562.918 195.091 583.512 192.676 589.805C190.751 589.08 188.791 588.421 186.866 587.894C189.034 581.203 190.81 574.405 192.186 567.531ZM499.556 387.097C494.633 387.295 489.743 387.958 484.961 389.074C469.284 390.742 453.522 391.6 437.746 391.644C435.436 378.464 436.136 380.902 435.541 377.245C435.296 375.663 434.946 373.488 436.171 372.796C452.936 365.745 470.366 359.353 487.061 352.466C490.561 354.872 490.841 354.575 491.156 354.377C491.306 354.225 491.389 354.025 491.389 353.817C491.389 353.61 491.306 353.409 491.156 353.257C489.79 351.958 488.353 350.726 486.851 349.567C473.415 338.255 464.056 323.283 460.076 306.732C460.029 306.535 459.902 306.364 459.721 306.256C459.541 306.148 459.322 306.111 459.113 306.155C458.904 306.199 458.723 306.319 458.608 306.489C458.493 306.659 458.454 306.865 458.501 307.061C461.466 324.273 470.923 339.902 485.136 351.082L436.871 369.864C435.476 370.249 434.249 371.046 433.371 372.137C430.955 371.519 428.772 370.275 427.071 368.546C417.971 361.659 414.331 366.371 402.571 375.136C401.434 375.943 400.358 376.824 399.351 377.772C393.134 372.567 386.939 367.338 380.766 362.088C379.191 359.913 364.841 313.322 358.961 294.606C363.506 284.231 370.84 275.147 380.241 268.246C381.328 271.371 382.698 274.403 384.336 277.307C386.961 279.68 390.356 278.527 393.646 277.769C392.739 279.54 392.217 281.463 392.108 283.426C392 285.389 392.309 287.353 393.016 289.202C395.494 294.433 399.364 298.972 404.251 302.382C416.221 312.267 415.626 312.004 416.326 312.004C416.649 311.989 416.955 311.863 417.187 311.651C417.419 311.439 417.561 311.154 417.586 310.85C418.776 299.351 422.696 296.188 433.756 292.53C439.805 290.671 444.923 286.794 448.146 281.63C451.369 276.465 452.475 270.369 451.256 264.49C458.571 264.542 465.86 263.655 472.921 261.854C473.254 261.783 473.545 261.591 473.728 261.319C473.912 261.048 473.974 260.719 473.901 260.404C473.901 259.844 473.656 259.185 473.481 258.493C524.546 281.854 555.661 354.641 514.466 381.693C509.986 384.517 504.891 386.364 499.556 387.097ZM511.316 390.853C520.311 392.665 527.836 399.783 532.736 412.304C556.116 471.778 501.621 543.84 433.966 560.579C433.546 556.592 431.236 533.461 430.781 531.747C430.445 530.235 429.522 528.895 428.191 527.991C423.886 525.75 416.501 528.222 412.581 530.396C408.844 532.732 405.504 535.587 402.676 538.864C402.676 539.919 407.576 559.788 408.626 563.841C366.086 572.216 321.871 568.641 281.471 553.56C287.701 529.177 295.961 495.799 298.271 485.453C322.351 492.504 356.196 491.845 356.546 491.812C356.658 491.784 356.757 491.722 356.827 491.636C356.898 491.549 356.936 491.443 356.936 491.334C356.936 491.225 356.898 491.119 356.827 491.033C356.757 490.946 356.658 490.884 356.546 490.856C337.121 484.761 320.356 469.043 309.366 446.572C292.461 412.995 257.391 413.391 243.741 430.097C224.001 454.216 220.816 524.399 220.501 532.868C219.276 534.976 212.241 547.926 209.581 553.198C188.581 557.91 182.596 546.608 180.041 541.764C179.621 540.94 179.831 543.115 186.341 521.467C189.841 523.081 214.726 531.352 214.761 528.914C215.041 500.906 222.251 434.281 241.781 418.959C255.781 408.152 286.056 410.03 299.461 419.388C307.983 426.711 314.954 435.488 320.006 445.254C331.241 467.956 350.596 484.794 372.086 489.011C399.631 486.738 431.586 445.418 440.721 418.992C457.591 398.86 485.416 387.327 511.316 390.853ZM566.091 524.861C566.137 525.057 566.265 525.229 566.445 525.337C566.626 525.445 566.844 525.481 567.053 525.437C567.262 525.394 567.444 525.274 567.559 525.104C567.674 524.934 567.712 524.728 567.666 524.531C565.461 513.921 559.231 504.761 555.311 494.876C548.521 477.973 553.456 459.817 559.196 442.65C561.756 443.101 564.402 442.778 566.756 441.728C568.681 440.311 567.141 437.906 564.971 431.843C566.755 429.302 568.157 426.541 569.136 423.638C574.606 424.857 580.295 424.924 585.796 423.836C586.009 423.785 586.207 423.687 586.373 423.55C586.539 423.413 586.668 423.241 586.749 423.049C586.831 422.856 586.864 422.648 586.844 422.441C586.824 422.234 586.753 422.035 586.636 421.859C584.291 418.959 578.096 411.018 577.781 410.425C577.466 409.832 577.781 409.898 578.796 409.47C595.525 402.303 609.244 390.095 617.786 374.773C618.206 385.548 619.571 425.648 619.186 427.263C613.748 430.968 608.014 434.273 602.036 437.148C601.775 437.283 601.563 437.489 601.426 437.738C601.289 437.988 601.234 438.27 601.268 438.549C601.302 438.827 601.423 439.091 601.615 439.305C601.808 439.519 602.064 439.674 602.351 439.751C607.303 441.345 612.103 443.329 616.701 445.682C617.331 446.637 615.126 454.183 614.741 456.127L611.241 456.786C610.893 456.872 610.593 457.081 610.404 457.369C610.215 457.657 610.151 458.003 610.226 458.335C611.136 464.167 613.201 478.533 613.201 478.533C603.156 469.735 603.226 464.859 601.056 464.661C600.841 464.636 600.622 464.662 600.42 464.736C600.218 464.811 600.04 464.933 599.901 465.089C583.443 483.067 574.204 505.909 573.791 529.638C573.83 529.817 573.933 529.976 574.083 530.091C574.233 530.206 574.42 530.269 574.613 530.269C574.807 530.269 574.994 530.206 575.144 530.091C575.293 529.976 575.397 529.817 575.436 529.638C576.754 507.186 585.601 485.705 600.706 468.286C604.186 473.931 608.756 478.915 614.181 482.981C614.412 483.175 614.702 483.294 615.01 483.323C615.317 483.353 615.627 483.29 615.894 483.144C616.162 482.998 616.373 482.776 616.499 482.51C616.625 482.245 616.659 481.948 616.596 481.663C616.596 481.663 614.076 465.617 613.096 459.093C636.931 455.106 657.406 436.028 664.301 411.71C664.301 425.253 663.811 458.829 663.811 459.158C663.811 461.3 663.811 463.343 661.781 464.299C656.04 466.197 650.199 467.814 644.281 469.142C644.038 469.202 643.818 469.323 643.642 469.491C643.466 469.659 643.341 469.868 643.28 470.097C643.219 470.326 643.225 470.566 643.296 470.792C643.367 471.018 643.502 471.222 643.686 471.383C645.331 472.635 654.781 479.917 657.896 482.256C657.896 482.256 653.626 489.934 651.456 493.723C647.907 490.632 644.968 486.972 642.776 482.915C642.634 482.685 642.415 482.504 642.154 482.402C641.893 482.299 641.603 482.28 641.329 482.347C641.055 482.415 640.812 482.565 640.637 482.774C640.462 482.984 640.365 483.242 640.361 483.508C641.341 505.519 648.831 502.652 642.636 509.868C621.286 535.141 617.541 543.313 594.546 549.705C599.166 529.935 614.986 521.928 621.321 507.661C624.821 499.852 624.051 491.186 626.816 483.344C628.741 477.901 631.888 472.912 636.043 468.716C640.198 464.52 645.264 461.216 650.896 459.027C651.1 458.961 651.268 458.822 651.363 458.64C651.459 458.457 651.473 458.247 651.403 458.055C651.334 457.862 651.186 457.704 650.992 457.614C650.799 457.525 650.575 457.511 650.371 457.577C643.036 460.013 636.564 464.319 631.676 470.015C626.787 475.71 623.675 482.572 622.686 489.835C621.181 499.951 621.496 504.926 614.776 513.789C607.356 523.51 595.211 532.11 591.291 550.529C585.204 551.955 578.975 552.773 572.706 552.967C571.971 547.069 568.121 543.609 565.391 543.477C562.871 539.326 536.306 501.269 526.506 492.932C537.343 474.572 542.326 453.659 540.856 432.7C545.056 438.532 552.231 449.471 553.491 451.613C541.276 495.964 561.226 502.619 566.091 524.861ZM510.896 526.311C510.895 526.078 510.823 525.851 510.689 525.655C510.556 525.46 510.365 525.305 510.141 525.208C509.917 525.111 509.668 525.076 509.423 525.108C509.178 525.14 508.949 525.237 508.761 525.388C504.285 529.57 500.221 534.125 496.616 538.996C494.555 537.864 492.62 536.539 490.841 535.042C499.3 528.122 506.971 520.392 513.731 511.977C550.901 553.956 549.116 552.736 550.166 551.946C550.248 551.893 550.318 551.825 550.372 551.746C550.426 551.667 550.462 551.579 550.478 551.487C550.495 551.394 550.491 551.3 550.467 551.209C550.444 551.118 550.401 551.032 550.341 550.957C547.891 547.464 522.936 518.007 515.341 509.737C518.947 505.044 522.244 500.148 525.211 495.074C539.211 507.957 560.946 541.863 562.976 545.059C561.043 547.676 560.14 550.845 560.421 554.021C555.999 555.184 551.353 555.376 546.841 554.582C541.486 553.593 521.466 544.334 508.341 543.972C509.181 540.38 510.511 529.408 511.001 526.311H510.896ZM419.266 530.495H419.861C422.591 529.902 426.861 529.012 427.876 531.615C428.401 533.395 438.971 631.685 438.971 634.716C439.027 635.194 438.972 635.677 438.808 636.133C438.645 636.588 438.378 637.004 438.026 637.352C428.926 634.057 406.526 546.641 405.651 539.227C409.178 535.119 413.914 532.082 419.266 530.495ZM46.5859 374.905C46.5859 367.36 41.2659 217.767 41.7909 212.363C42.7009 202.181 46.5859 197.601 55.1609 196.547C64.2259 194.899 148.856 192.626 158.096 192.395C158.306 195.69 158.481 197.997 158.551 198.425C158.939 201.017 160.252 203.408 162.275 205.205C164.298 207.001 166.909 208.096 169.681 208.31C169.681 207.981 167.371 208.31 239.681 208.541C239.681 218.821 240.346 267.126 240.381 269.399C219.801 270.124 198.591 270.915 194.531 271.278C193.971 271.278 193.481 272.233 193.691 272.694C199.781 286.863 226.906 344.394 234.501 359.155C235.209 360.833 236.427 362.276 238.001 363.307C238.981 364.691 240.136 366.239 241.501 367.788C230.406 376.124 226.416 385.35 219.976 398.86C190.331 399.453 70.1759 401.792 67.4809 401.694C59.9909 401.397 54.7059 399.354 51.4159 395.466C46.4109 389.865 46.6209 382.22 46.5859 374.905ZM451.501 243.303C452.236 245.807 455.001 247.158 459.271 247.257C466.621 246.96 469.771 252.924 471.101 259.778C463.946 261.094 456.688 261.855 449.401 262.052C449.19 262.054 448.982 262.102 448.795 262.192C448.607 262.282 448.444 262.412 448.318 262.572C448.193 262.732 448.108 262.917 448.071 263.112C448.035 263.308 448.046 263.509 448.106 263.699C449.223 267.46 449.234 271.437 448.137 275.204C447.039 278.97 444.875 282.385 441.876 285.084C432.461 293.618 417.376 288.906 415.171 308.577C412.021 306.007 400.366 296.682 397.986 293.947C393.891 289.499 392.246 282.118 396.446 277.472C405.439 276.088 414.529 275.328 423.641 275.199C423.845 275.199 424.041 275.122 424.185 274.986C424.33 274.85 424.411 274.666 424.411 274.474C424.411 274.281 424.33 274.097 424.185 273.961C424.041 273.825 423.845 273.749 423.641 273.749C413.157 273.049 402.621 273.759 392.351 275.858C388.431 276.879 386.506 277.604 384.756 274.144C383.881 272.398 378.666 257.439 377.756 254.671C376.146 251.079 377.126 252.167 380.066 250.453C382.946 252.745 386.18 254.611 389.656 255.989C389.656 256.384 391.476 261.623 391.756 262.579C391.875 263.37 392.295 264.094 392.939 264.616C393.583 265.137 394.407 265.42 395.256 265.412C403.418 266.118 411.641 264.993 419.252 262.13C426.863 259.266 433.644 254.745 439.041 248.937C439.148 248.799 439.197 248.629 439.178 248.458C439.16 248.288 439.075 248.131 438.94 248.016C438.805 247.901 438.63 247.838 438.448 247.837C438.266 247.837 438.091 247.9 437.956 248.015C432.535 253.173 426.022 257.2 418.841 259.834C411.659 262.468 403.969 263.65 396.271 263.304C393.821 263.139 394.136 263.633 392.071 256.714C401.521 259.218 403.901 255.824 400.541 258.954C400.431 259.077 400.371 259.233 400.37 259.393C400.368 259.554 400.426 259.71 400.534 259.835C400.642 259.959 400.792 260.045 400.959 260.077C401.127 260.108 401.3 260.084 401.451 260.009C414.182 251.048 423.47 238.429 427.911 224.06C427.943 223.967 427.955 223.869 427.946 223.772C427.936 223.674 427.906 223.58 427.857 223.493C427.808 223.407 427.741 223.331 427.66 223.27C427.579 223.209 427.486 223.164 427.386 223.138C425.566 222.544 426.791 225.938 418.251 239.085C414.751 225.905 417.096 211.968 413.316 198.722C413.265 198.534 413.137 198.373 412.959 198.274C412.782 198.175 412.57 198.146 412.371 198.194C412.171 198.242 412 198.363 411.895 198.53C411.79 198.697 411.76 198.896 411.811 199.084C412.424 201.887 412.822 204.728 413.001 207.585C405.546 200.633 389.796 189.529 377.371 192.066C374.694 192.143 372.157 193.21 370.31 195.036C368.463 196.861 367.454 199.298 367.501 201.819C364.491 197.997 366.591 192.165 369.321 188.935C376.531 180.072 389.341 175.755 402.116 172.46C413.421 169.627 428.541 170.022 437.116 179.644C440.836 184.445 443.523 189.885 445.026 195.657C449.497 208.665 452.614 222.05 454.336 235.626C454.469 236.173 454.442 236.744 454.257 237.278C454.072 237.812 453.736 238.289 453.286 238.657C452.587 239.22 452.055 239.944 451.742 240.758C451.43 241.573 451.346 242.449 451.501 243.303ZM237.056 358.364C233.766 351.774 201.251 283.897 196.071 272.694C207.656 272.694 338.381 268.18 340.656 268.114C345.101 281.558 371.001 362.747 371.001 363.439C371.001 363.439 340.061 364.164 323.366 364.79C295.191 351.412 269.116 352.862 250.146 362.318C239.436 361.89 238.946 362.088 237.056 358.364ZM370.056 221.688C369.566 211.803 370.056 204.916 371.701 204.224C377.721 201.654 388.956 200.929 401.451 204.653C403.026 205.147 408.066 207.618 413.141 209.628C413.701 220.172 413.141 231.342 416.641 241.557C413.547 246.664 409.573 251.252 404.881 255.132C383.706 257.768 371.001 241.82 369.986 221.688H370.056ZM402.186 418.729C401.346 420.245 415.591 430.327 417.131 431.415C422.171 435.896 416.011 438.334 410.901 434.018C382.901 410.327 359.031 383.176 327.916 366.964C346.046 366.404 368.481 365.778 372.331 365.745C376.216 369.271 421.331 409.041 432.986 418.465C400.436 418.696 402.501 418.202 402.116 418.729H402.186ZM436.556 418.268C436.206 417.971 377.056 367.656 374.781 365.152C373.451 363.043 348.916 284.655 343.281 268.872C346.738 271.092 349.302 274.341 350.561 278.098C352.661 283.733 376.496 358.859 376.601 359.221C376.887 361.046 377.753 362.746 379.086 364.098C388.291 372.434 427.351 405.779 440.056 415.664C439.321 416.521 438.586 417.378 437.886 418.268H436.556ZM434.001 386.603C427.911 386.141 425.986 385.482 424.481 387.229C423.991 387.953 422.591 389.568 420.806 389.206C420.496 389.138 420.205 389.01 419.95 388.832C419.695 388.653 419.482 388.426 419.325 388.167C419.167 387.907 419.068 387.619 419.034 387.322C418.999 387.024 419.031 386.723 419.126 386.438C420.841 384.922 422.626 383.604 424.236 381.99C424.322 381.876 424.365 381.738 424.358 381.598C424.352 381.459 424.296 381.325 424.199 381.219C424.102 381.113 423.971 381.04 423.825 381.013C423.68 380.985 423.529 381.004 423.396 381.067C421.611 382.154 419.896 383.901 417.866 385.054C417.698 385.056 417.533 385.093 417.382 385.161C417.231 385.229 417.097 385.328 416.991 385.449C416.572 385.609 416.119 385.676 415.667 385.645C415.216 385.613 414.779 385.484 414.389 385.267C414 385.05 413.669 384.752 413.422 384.395C413.175 384.038 413.019 383.632 412.966 383.209C412.966 380.573 415.976 378.826 417.726 376.882C418.426 376.223 417.376 375.235 416.641 375.861C414.766 377.351 413.022 378.982 411.426 380.737C409.409 381.341 407.351 381.815 405.266 382.154C404.321 382.154 405.266 382.714 401.136 379.386C405.442 375.584 410.131 372.185 415.136 369.238C423.641 363.966 425.216 373.093 432.881 374.147C432.874 378.322 433.248 382.489 434.001 386.603ZM441.876 413.753L406.631 384.098C407.909 383.861 409.171 383.553 410.411 383.176C410.383 383.891 410.531 384.603 410.846 385.255C411.16 385.907 411.632 386.481 412.222 386.932C412.813 387.382 413.508 387.697 414.25 387.852C414.993 388.006 415.763 387.996 416.501 387.822C416.641 388.521 416.954 389.178 417.416 389.742C417.877 390.305 418.473 390.757 419.155 391.062C419.838 391.368 420.587 391.517 421.342 391.497C422.097 391.478 422.837 391.291 423.501 390.952C428.331 388.876 423.501 388.085 431.306 388.744C432.321 388.744 433.406 388.942 434.456 388.975C434.771 390.524 435.086 391.94 435.436 393.291C435.52 393.561 435.696 393.797 435.936 393.964C436.176 394.13 436.468 394.218 436.766 394.214C499.346 392.962 468.616 384.823 441.806 413.753H441.876ZM357.876 291.048C353.921 278.559 351.856 268.477 343.876 265.907C343.876 266.302 346.851 265.478 243.251 269.202C243.251 253.155 242.516 214.34 242.411 208.442H367.886C366.906 222.709 367.886 238.097 378.386 248.707C377.126 249.168 374.886 250.157 374.361 250.98C375.652 256.306 377.384 261.528 379.541 266.599C370.15 272.837 362.638 281.261 357.736 291.048H357.876ZM343.491 189.199C343.491 184.586 342.371 159.775 342.126 155.228H351.051C351.051 159.907 351.716 184.619 351.926 189.166C349.126 189.1 346.291 189.133 343.491 189.199ZM292.216 190.188C292.251 181.225 291.026 105.44 290.851 95.5551H299.776C299.776 120.597 300.546 183.235 300.686 190.056L292.216 190.188ZM236.986 108.274H245.946C245.946 129.922 246.681 184.586 246.856 191.077H238.386C238.421 182.972 237.196 117.302 236.986 108.274ZM161.001 196.975C160.511 194.175 156.451 106.429 154.806 72.8197C154.421 62.4734 157.326 49.7546 164.711 43.8566C164.711 66.9216 167.861 194.207 168.561 205.74C166.501 205.18 164.672 204.041 163.321 202.474C161.969 200.907 161.16 198.988 161.001 196.975ZM482.126 169.594C481.838 167.443 482.385 165.267 483.666 163.465C486.406 161.434 489.348 159.658 492.451 158.16C488.951 164.091 489.861 162.444 491.716 266.566C488.829 264.494 485.826 262.569 482.721 260.799C482.371 244.193 482.196 183.828 482.231 169.594H482.126ZM512.716 206.201C514.342 204.028 516.503 202.258 519.014 201.041C521.526 199.825 524.312 199.198 527.136 199.216C541.381 199.216 546.561 215.164 549.361 228.146C551.811 238.328 551.986 250.321 559.861 258.625C596.471 289.861 599.236 246.268 621.496 247.949C628.496 248.707 633.151 254.737 638.156 259.086C640.295 261.348 643.297 262.725 646.508 262.916C649.719 263.107 652.88 262.098 655.306 260.107V306.929C646.696 306.929 537.356 306.172 525.351 306.303C522.428 300.545 518.986 295.033 515.061 289.828C515.481 285.841 512.891 209.76 512.821 206.201H512.716ZM526.716 308.544C542.816 308.775 644.981 309.038 655.586 309.038C655.601 310.293 655.683 311.547 655.831 312.795C655.856 313.06 655.985 313.307 656.191 313.489C656.398 313.672 656.668 313.776 656.951 313.783C659.016 313.783 658.071 316.781 657.721 227.421C657.721 227.203 657.629 226.993 657.465 226.839C657.3 226.684 657.078 226.597 656.846 226.597C656.614 226.597 656.391 226.684 656.227 226.839C656.063 226.993 655.971 227.203 655.971 227.421C655.971 233.286 655.586 252.661 655.551 256.483C654.748 257.674 653.656 258.669 652.366 259.386C651.075 260.103 649.623 260.523 648.127 260.609C646.631 260.696 645.135 260.448 643.761 259.886C642.386 259.323 641.173 258.462 640.221 257.373C630.106 247.488 620.096 239.25 605.466 251.969C593.496 263.6 586.916 273.419 570.466 263.37C563.805 260.028 558.785 254.381 556.466 247.619C550.936 228.937 552.476 200.105 529.096 196.283C525.97 195.983 522.813 196.408 519.903 197.522C516.992 198.637 514.416 200.406 512.401 202.676C512.401 197.667 512.016 192.791 511.806 187.716C511.806 187.507 511.717 187.305 511.56 187.157C511.402 187.009 511.189 186.926 510.966 186.926C510.743 186.926 510.529 187.009 510.372 187.157C510.214 187.305 510.126 187.507 510.126 187.716C510.126 193.186 511.946 269.564 512.506 286.336C507.112 279.691 500.91 273.664 494.026 268.378C494.026 255.824 492.836 174.306 492.696 169.264C492.486 160.104 496.371 154.799 505.331 152.592C512.681 150.681 644.841 148.769 657.406 150.384C665.736 151.372 670.496 159.05 671.686 165.706C673.156 173.976 673.576 310.686 673.611 312.498C673.891 328.643 671.861 347.063 654.011 349.336C649.986 349.863 550.411 350.094 535.956 349.962C536.403 335.669 533.261 321.479 526.786 308.544H526.716ZM424.236 52.0611C428.436 58.9806 426.056 57.0696 429.031 170.879C414.541 164.717 394.031 170.385 380.031 177.469V79.838C380.031 79.0801 381.851 79.3108 369.531 79.3108C368.761 79.3108 368.831 72.5231 371.421 182.939C369.32 184.723 367.495 186.775 365.996 189.034H354.236C354.236 184.751 352.906 154.371 352.766 154.107C352.725 153.936 352.623 153.783 352.476 153.675C352.329 153.567 352.147 153.51 351.961 153.514C348.179 153.395 344.393 153.472 340.621 153.745C340.509 153.817 340.42 153.916 340.365 154.033C340.309 154.149 340.289 154.277 340.306 154.404C340.306 157.699 340.936 184.454 341.181 189.199L327.986 189.463C328.651 133.184 328.896 136.15 327.986 136.084C318.501 136.446 318.291 136.281 318.291 136.94V189.66L302.891 189.957C302.891 182.609 301.701 99.5751 301.456 94.7643C301.466 94.5477 301.389 94.3354 301.24 94.1702C301.09 94.0051 300.88 93.8995 300.651 93.8747C300.651 93.8747 289.696 93.8747 289.346 94.2042C288.331 94.962 289.906 186.464 289.906 190.221L273.281 190.517V141.323C273.157 141.277 273.02 141.277 272.896 141.323C263.236 141.323 263.341 141.323 263.341 142.048V190.715L249.131 191.11C248.151 106.033 247.346 107.582 247.696 107.582C247.697 107.371 247.616 107.167 247.467 107.009C247.319 106.85 247.114 106.75 246.891 106.725C246.891 106.725 236.006 106.725 235.656 106.989C234.466 107.681 236.146 185.509 236.146 191.374L216.896 191.703C217.001 63.2971 217.386 69.1952 216.476 69.1952L207.901 69.4917C207.306 69.4917 207.516 61.6166 207.516 191.835C193.096 192.099 193.516 191.835 193.306 192.362C193.239 192.465 193.201 192.583 193.197 192.703C193.193 192.824 193.222 192.943 193.282 193.05C193.343 193.157 193.431 193.246 193.54 193.311C193.648 193.375 193.773 193.412 193.901 193.417C215.146 193.417 343.806 192.198 364.771 191.604C362.671 196.646 363.056 202.214 367.921 205.147V205.872C347.691 206.432 174.581 205.872 171.466 205.872C171.466 201.555 167.546 50.809 167.511 42.3738C191.766 42.3738 405.511 42.6704 411.076 43.5271C413.804 43.9431 416.4 44.9245 418.676 46.4004C420.952 47.8763 422.851 49.8098 424.236 52.0611ZM42.7359 200.007C38.7109 205.476 38.5009 212.594 38.5009 219.48C38.5009 220.996 43.4009 383.176 44.1359 387.13C44.5545 389.999 45.6206 392.751 47.2626 395.201C48.9047 397.65 51.0846 399.741 53.6559 401.331C49.5419 401.136 45.52 400.114 41.8609 398.333C34.0909 394.313 31.1509 386.042 30.1009 381.462C28.2459 373.225 25.7959 231.738 26.2159 224.423C25.9709 212.297 30.3459 205.74 42.6659 200.007H42.7359ZM567.736 572.638C581.745 571.718 595.469 568.461 608.266 563.017C617.366 559.063 628.706 552.802 633.396 547.827C634.131 563.379 630.771 573.429 613.796 580.777C591.326 590.662 538.021 602.788 514.991 588.322C512.926 586.444 507.991 572.177 506.031 565.587C516.076 571.88 545.336 574.319 567.666 572.638H567.736ZM251.196 615.803C248.256 615.572 246.856 618.34 245.876 620.35C237.686 636.825 237.791 637.879 229.461 638.406C226.836 638.571 202.126 640.482 200.306 640.482C193.936 640.911 190.401 636.792 194.916 631.75C197.49 629.923 200.346 628.478 203.386 627.467C213.116 623.216 228.516 611.981 231.911 598.076C235.424 601.961 240.217 604.629 245.526 605.654C252.099 606.318 258.729 605.04 264.496 601.997C263.166 609.114 260.086 631.289 259.701 638.242C257.655 638.04 255.598 637.952 253.541 637.978C253.506 636.1 252.841 615.935 251.126 615.803H251.196ZM264.076 598.834C259.528 601.862 254.071 603.443 248.501 603.348C245.554 603.139 242.685 602.361 240.072 601.063C237.459 599.765 235.157 597.974 233.311 595.802C233.311 594.781 232.926 583.742 233.031 577.811C244.371 578.653 255.754 578.862 267.121 578.437C266.561 581.337 264.776 593.1 264.006 598.834H264.076Z" fill="black" fill-opacity="0.1"/>
<path d="M612.501 173.515C612.699 173.477 612.877 173.376 613.004 173.229C613.132 173.082 613.202 172.898 613.202 172.708C613.202 172.518 613.132 172.333 613.004 172.186C612.877 172.039 612.699 171.938 612.501 171.9H606.621C562.626 173.185 564.061 173.152 564.096 174.306C564.131 175.459 562.766 175.723 612.501 173.515ZM613.971 181.225C606.131 181.225 575.471 181.621 567.596 182.214C567.32 182.259 567.069 182.394 566.889 182.596C566.708 182.798 566.609 183.054 566.609 183.318C566.609 183.581 566.708 183.837 566.889 184.039C567.069 184.241 567.32 184.376 567.596 184.421C575.611 184.421 606.096 182.939 614.006 182.642C614.177 182.603 614.329 182.511 614.436 182.379C614.544 182.248 614.6 182.086 614.596 181.92C614.592 181.755 614.528 181.595 614.414 181.469C614.3 181.342 614.144 181.256 613.971 181.225ZM606.271 193.351C600.811 193.549 583.276 193.351 566.546 193.351C566.175 193.351 565.819 193.49 565.556 193.737C565.294 193.984 565.146 194.319 565.146 194.669C565.146 195.018 565.294 195.354 565.556 195.601C565.819 195.848 566.175 195.987 566.546 195.987C570.046 196.217 602.876 194.932 606.306 194.801C606.51 194.796 606.704 194.716 606.845 194.577C606.987 194.438 607.063 194.252 607.059 194.059C607.054 193.867 606.968 193.684 606.821 193.552C606.673 193.419 606.475 193.346 606.271 193.351ZM493.501 28.6997C489.4 29.6479 485.648 31.6258 482.647 34.4226C479.645 37.2194 477.506 40.7304 476.456 44.5816C472.571 58.5853 486.046 73.8412 501.551 71.4029C504.939 70.7293 508.146 69.4116 510.975 67.5306C513.803 65.6496 516.194 63.2448 518.001 60.4635C519.767 57.3938 520.769 53.9869 520.933 50.4995C521.096 47.0122 520.417 43.5353 518.946 40.331C516.846 34.6636 510.616 25.6024 493.501 28.6997ZM501.971 56.4765C495.216 60.8589 487.306 52.885 490.421 47.9754C496.021 39.2107 505.961 45.8337 506.206 49.1287C506.202 50.5916 505.81 52.0304 505.064 53.3138C504.318 54.5973 503.243 55.6845 501.936 56.4765H501.971ZM501.551 41.4843C499.189 40.7845 496.647 40.8416 494.323 41.6464C491.999 42.4512 490.024 43.9585 488.706 45.9325C487.629 47.7097 487.223 49.7776 487.554 51.7998C487.884 53.8219 488.932 55.6793 490.526 57.0696C491.796 58.2174 493.358 59.0391 495.062 59.4563C496.766 59.8734 498.555 59.872 500.258 59.4521C501.961 59.0322 503.522 58.208 504.79 57.0582C506.058 55.9084 506.991 54.4715 507.501 52.885C510.488 54.7292 513.829 56.0053 517.336 56.6413C516.097 59.4876 514.196 62.0364 511.774 64.1005C509.351 66.1646 506.468 67.6916 503.336 68.5692C489.336 72.3914 476.876 60.4305 478.451 47.5141C478.912 44.5059 480.093 41.6356 481.905 39.12C483.717 36.6043 486.112 34.509 488.91 32.9922C491.708 31.4753 494.835 30.5766 498.055 30.3639C501.276 30.1511 504.506 30.6299 507.501 31.764C504.73 34.5213 502.68 37.8498 501.516 41.4843H501.551Z" fill="#F0F0EC"/>
<path d="M612.501 173.515C612.699 173.477 612.877 173.376 613.004 173.229C613.132 173.082 613.202 172.898 613.202 172.708C613.202 172.518 613.132 172.333 613.004 172.186C612.877 172.039 612.699 171.938 612.501 171.9H606.621C562.626 173.185 564.061 173.152 564.096 174.306C564.131 175.459 562.766 175.723 612.501 173.515ZM613.971 181.225C606.131 181.225 575.471 181.621 567.596 182.214C567.32 182.259 567.069 182.394 566.889 182.596C566.708 182.798 566.609 183.054 566.609 183.318C566.609 183.581 566.708 183.837 566.889 184.039C567.069 184.241 567.32 184.376 567.596 184.421C575.611 184.421 606.096 182.939 614.006 182.642C614.177 182.603 614.329 182.511 614.436 182.379C614.544 182.248 614.6 182.086 614.596 181.92C614.592 181.755 614.528 181.595 614.414 181.469C614.3 181.342 614.144 181.256 613.971 181.225ZM606.271 193.351C600.811 193.549 583.276 193.351 566.546 193.351C566.175 193.351 565.819 193.49 565.556 193.737C565.294 193.984 565.146 194.319 565.146 194.669C565.146 195.018 565.294 195.354 565.556 195.601C565.819 195.848 566.175 195.987 566.546 195.987C570.046 196.217 602.876 194.932 606.306 194.801C606.51 194.796 606.704 194.716 606.845 194.577C606.987 194.438 607.063 194.252 607.059 194.059C607.054 193.867 606.968 193.684 606.821 193.552C606.673 193.419 606.475 193.346 606.271 193.351ZM493.501 28.6997C489.4 29.6479 485.648 31.6258 482.647 34.4226C479.645 37.2194 477.506 40.7304 476.456 44.5816C472.571 58.5853 486.046 73.8412 501.551 71.4029C504.939 70.7293 508.146 69.4116 510.975 67.5306C513.803 65.6496 516.194 63.2448 518.001 60.4635C519.767 57.3938 520.769 53.9869 520.933 50.4995C521.096 47.0122 520.417 43.5353 518.946 40.331C516.846 34.6636 510.616 25.6024 493.501 28.6997ZM501.971 56.4765C495.216 60.8589 487.306 52.885 490.421 47.9754C496.021 39.2107 505.961 45.8337 506.206 49.1287C506.202 50.5916 505.81 52.0304 505.064 53.3138C504.318 54.5973 503.243 55.6845 501.936 56.4765H501.971ZM501.551 41.4843C499.189 40.7845 496.647 40.8416 494.323 41.6464C491.999 42.4512 490.024 43.9585 488.706 45.9325C487.629 47.7097 487.223 49.7776 487.554 51.7998C487.884 53.8219 488.932 55.6793 490.526 57.0696C491.796 58.2174 493.358 59.0391 495.062 59.4563C496.766 59.8734 498.555 59.872 500.258 59.4521C501.961 59.0322 503.522 58.208 504.79 57.0582C506.058 55.9084 506.991 54.4715 507.501 52.885C510.488 54.7292 513.829 56.0053 517.336 56.6413C516.097 59.4876 514.196 62.0364 511.774 64.1005C509.351 66.1646 506.468 67.6916 503.336 68.5692C489.336 72.3914 476.876 60.4305 478.451 47.5141C478.912 44.5059 480.093 41.6356 481.905 39.12C483.717 36.6043 486.112 34.509 488.91 32.9922C491.708 31.4753 494.835 30.5766 498.055 30.3639C501.276 30.1511 504.506 30.6299 507.501 31.764C504.73 34.5213 502.68 37.8498 501.516 41.4843H501.551Z" fill="black" fill-opacity="0.1"/>
<path d="M462.001 85.2748C470.541 84.8464 626.921 83.7261 638.331 80.53C647.116 79.0143 650.126 75.1921 649.671 66.8557C649.671 64.0879 650.161 32.3571 649.251 26.7226C648.446 19.7702 644.491 16.4752 636.161 16.0468C629.161 15.4208 466.936 17.7932 459.271 19.3418C453.041 20.4951 448.771 22.6368 447.931 29.2268C447.546 31.2368 449.226 68.4373 449.436 72.0618C449.926 79.9039 454.091 84.5499 462.001 85.2748ZM475.651 83.0342C473.59 82.8004 471.61 82.138 469.855 81.0951C468.099 80.0523 466.612 78.6549 465.501 77.0043C463.034 73.0042 461.764 68.4495 461.826 63.8243C461.441 58.2228 460.321 37.4643 460.181 32.4559C460.181 30.413 460.181 23.6253 465.501 21.187C473.726 20.3962 626.956 18.2545 633.501 18.4522C637.001 18.4522 641.726 18.7158 644.386 21.2529C648.306 24.9763 647.046 31.1379 647.291 66.5592C648.061 75.5875 644.421 77.5645 635.461 78.7836C627.411 79.9369 477.051 83.0342 475.721 83.0342H475.651ZM457.801 28.2713C457.346 31.2368 459.201 59.5738 459.376 63.3301C459.796 72.6549 462.631 79.2779 468.231 83.1001H464.731C456.191 83.1001 452.306 79.2449 451.921 71.0404C451.711 66.3615 450.101 31.5004 450.451 29.5234C451.186 23.5265 455.491 22.2085 461.196 21.5495C459.427 23.4444 458.273 25.7773 457.871 28.2713H457.801Z" fill="#F0F0EC"/>
<path d="M462.001 85.2748C470.541 84.8464 626.921 83.7261 638.331 80.53C647.116 79.0143 650.126 75.1921 649.671 66.8557C649.671 64.0879 650.161 32.3571 649.251 26.7226C648.446 19.7702 644.491 16.4752 636.161 16.0468C629.161 15.4208 466.936 17.7932 459.271 19.3418C453.041 20.4951 448.771 22.6368 447.931 29.2268C447.546 31.2368 449.226 68.4373 449.436 72.0618C449.926 79.9039 454.091 84.5499 462.001 85.2748ZM475.651 83.0342C473.59 82.8004 471.61 82.138 469.855 81.0951C468.099 80.0523 466.612 78.6549 465.501 77.0043C463.034 73.0042 461.764 68.4495 461.826 63.8243C461.441 58.2228 460.321 37.4643 460.181 32.4559C460.181 30.413 460.181 23.6253 465.501 21.187C473.726 20.3962 626.956 18.2545 633.501 18.4522C637.001 18.4522 641.726 18.7158 644.386 21.2529C648.306 24.9763 647.046 31.1379 647.291 66.5592C648.061 75.5875 644.421 77.5645 635.461 78.7836C627.411 79.9369 477.051 83.0342 475.721 83.0342H475.651ZM457.801 28.2713C457.346 31.2368 459.201 59.5738 459.376 63.3301C459.796 72.6549 462.631 79.2779 468.231 83.1001H464.731C456.191 83.1001 452.306 79.2449 451.921 71.0404C451.711 66.3615 450.101 31.5004 450.451 29.5234C451.186 23.5265 455.491 22.2085 461.196 21.5495C459.427 23.4444 458.273 25.7773 457.871 28.2713H457.801Z" fill="black" fill-opacity="0.1"/>
<path d="M540.401 36.8051C541.696 36.8051 581.876 35.8496 581.526 35.8496C581.707 35.8136 581.869 35.7203 581.985 35.5853C582.101 35.4503 582.165 35.2819 582.165 35.1082C582.165 34.9345 582.101 34.7661 581.985 34.6311C581.869 34.4962 581.707 34.4029 581.526 34.3668C578.551 34.3668 543.866 33.8067 540.331 34.3668C540.062 34.4588 539.83 34.6284 539.668 34.8515C539.507 35.0746 539.424 35.3399 539.432 35.6098C539.44 35.8796 539.537 36.1404 539.712 36.3549C539.886 36.5695 540.127 36.727 540.401 36.8051ZM593.846 47.1514C588.806 47.6127 538.196 45.9982 537.846 48.4035C537.846 48.8648 538.301 49.2273 538.651 49.2932C543.061 49.7874 593.671 48.766 594.021 48.733C594.132 48.7222 594.239 48.6911 594.336 48.6413C594.434 48.5916 594.52 48.5243 594.59 48.4432C594.66 48.3621 594.712 48.2688 594.744 48.1688C594.775 48.0687 594.785 47.9637 594.774 47.8599C594.762 47.756 594.729 47.6553 594.677 47.5635C594.624 47.4717 594.552 47.3906 594.466 47.3248C594.38 47.259 594.281 47.2099 594.175 47.1801C594.068 47.1504 593.957 47.1406 593.846 47.1514ZM592.831 59.8042C584.186 59.8042 540.611 59.6065 538.336 59.969C538.113 60.0248 537.914 60.1488 537.773 60.3217C537.632 60.4945 537.555 60.7065 537.555 60.9245C537.555 61.1426 537.632 61.3546 537.773 61.5274C537.914 61.7003 538.113 61.8243 538.336 61.8801C540.751 62.2425 589.296 61.1882 592.866 61.0893C593.02 61.0526 593.156 60.9677 593.252 60.8485C593.348 60.7294 593.398 60.5831 593.394 60.4336C593.39 60.2842 593.332 60.1405 593.23 60.0261C593.128 59.9117 592.987 59.8335 592.831 59.8042ZM98.0015 270.882C121.697 269.07 134.262 240.337 115.852 224.39C115.187 223.829 116.447 222.577 97.0565 248.97C73.6065 228.047 74.8665 228.838 74.3415 229.2C55.7915 246.433 74.1665 272.727 98.0015 270.882Z" fill="#F0F0EC"/>
<path d="M540.401 36.8051C541.696 36.8051 581.876 35.8496 581.526 35.8496C581.707 35.8136 581.869 35.7203 581.985 35.5853C582.101 35.4503 582.165 35.2819 582.165 35.1082C582.165 34.9345 582.101 34.7661 581.985 34.6311C581.869 34.4962 581.707 34.4029 581.526 34.3668C578.551 34.3668 543.866 33.8067 540.331 34.3668C540.062 34.4588 539.83 34.6284 539.668 34.8515C539.507 35.0746 539.424 35.3399 539.432 35.6098C539.44 35.8796 539.537 36.1404 539.712 36.3549C539.886 36.5695 540.127 36.727 540.401 36.8051ZM593.846 47.1514C588.806 47.6127 538.196 45.9982 537.846 48.4035C537.846 48.8648 538.301 49.2273 538.651 49.2932C543.061 49.7874 593.671 48.766 594.021 48.733C594.132 48.7222 594.239 48.6911 594.336 48.6413C594.434 48.5916 594.52 48.5243 594.59 48.4432C594.66 48.3621 594.712 48.2688 594.744 48.1688C594.775 48.0687 594.785 47.9637 594.774 47.8599C594.762 47.756 594.729 47.6553 594.677 47.5635C594.624 47.4717 594.552 47.3906 594.466 47.3248C594.38 47.259 594.281 47.2099 594.175 47.1801C594.068 47.1504 593.957 47.1406 593.846 47.1514ZM592.831 59.8042C584.186 59.8042 540.611 59.6065 538.336 59.969C538.113 60.0248 537.914 60.1488 537.773 60.3217C537.632 60.4945 537.555 60.7065 537.555 60.9245C537.555 61.1426 537.632 61.3546 537.773 61.5274C537.914 61.7003 538.113 61.8243 538.336 61.8801C540.751 62.2425 589.296 61.1882 592.866 61.0893C593.02 61.0526 593.156 60.9677 593.252 60.8485C593.348 60.7294 593.398 60.5831 593.394 60.4336C593.39 60.2842 593.332 60.1405 593.23 60.0261C593.128 59.9117 592.987 59.8335 592.831 59.8042ZM98.0015 270.882C121.697 269.07 134.262 240.337 115.852 224.39C115.187 223.829 116.447 222.577 97.0565 248.97C73.6065 228.047 74.8665 228.838 74.3415 229.2C55.7915 246.433 74.1665 272.727 98.0015 270.882Z" fill="black" fill-opacity="0.1"/>
<path d="M95.4105 238.163C96.0755 238.855 95.7605 238.954 111.616 213.78C111.654 213.724 111.679 213.661 111.691 213.596C111.703 213.531 111.7 213.464 111.684 213.399C111.668 213.334 111.638 213.274 111.596 213.22C111.554 213.167 111.501 213.122 111.441 213.088C105.849 210.318 99.4435 209.362 93.2165 210.369C86.9895 211.376 81.2895 214.289 77.0005 218.657C76.5805 219.151 75.9505 218.195 95.4105 238.163ZM58.8355 360.243C59.7332 360.237 60.6091 359.982 61.353 359.509C62.0969 359.036 62.6755 358.366 63.016 357.584C63.3564 356.802 63.4436 355.943 63.2665 355.114C63.0893 354.286 62.6558 353.525 62.0205 352.928C63.7705 350.259 75.1105 332.696 78.4355 327.952C79.2972 328.327 80.259 328.449 81.1954 328.302C82.1319 328.155 82.9996 327.746 83.6855 327.128L99.8555 338.858C99.5918 339.592 99.5448 340.38 99.7195 341.138C99.8941 341.896 100.284 342.594 100.847 343.16C101.41 343.725 102.126 344.136 102.918 344.349C103.71 344.562 104.548 344.568 105.344 344.367C106.139 344.167 106.862 343.766 107.434 343.21C108.007 342.653 108.409 341.96 108.596 341.205C108.784 340.45 108.75 339.662 108.499 338.923C108.248 338.185 107.789 337.525 107.171 337.013L112.91 329.896C113.938 330.338 115.103 330.408 116.181 330.092C117.26 329.776 118.177 329.096 118.756 328.182L135.486 333.52C135.395 334.229 135.494 334.948 135.774 335.611C136.054 336.275 136.505 336.862 137.087 337.319C137.669 337.777 138.364 338.09 139.107 338.231C139.85 338.371 140.619 338.335 141.344 338.124C142.068 337.914 142.726 337.536 143.256 337.026C143.786 336.516 144.172 335.889 144.38 335.202C144.587 334.516 144.609 333.791 144.443 333.094C144.277 332.398 143.929 331.751 143.431 331.214C144.831 326.502 156.941 291.674 158.166 288.379C159.341 288.282 160.431 287.763 161.211 286.929C164.536 289.4 174.511 296.419 177.731 298.461C177.547 299.143 177.544 299.858 177.723 300.541C177.902 301.224 178.256 301.855 178.756 302.379C179.256 302.902 179.884 303.302 180.587 303.542C181.289 303.782 182.044 303.856 182.784 303.756C183.524 303.657 184.226 303.387 184.829 302.971C185.432 302.555 185.917 302.006 186.241 301.372C186.565 300.738 186.718 300.038 186.686 299.335C186.655 298.632 186.44 297.947 186.061 297.341C195.371 283.37 195.791 283.601 194.811 282.975C194.626 282.867 194.406 282.828 194.193 282.864C193.979 282.901 193.788 283.011 193.656 283.173C192.011 285.413 184.241 295.694 184.241 295.694C183.413 295.31 182.483 295.165 181.568 295.276C180.653 295.387 179.793 295.75 179.096 296.32C175.841 294.178 165.516 287.225 162.226 284.82C162.366 284.06 162.286 283.278 161.993 282.557C161.701 281.836 161.206 281.203 160.563 280.724C159.92 280.246 159.151 279.94 158.338 279.839C157.525 279.738 156.699 279.846 155.946 280.151C155.192 280.455 154.541 280.946 154.059 281.571C153.578 282.196 153.285 282.932 153.211 283.7C153.138 284.469 153.286 285.242 153.64 285.938C153.995 286.634 154.543 287.227 155.226 287.654C152.216 295.364 143.466 322.054 141.226 329.83C140.384 329.626 139.5 329.647 138.671 329.892C137.842 330.136 137.102 330.594 136.536 331.214C133.036 330.093 122.536 327.095 119.35 326.139C119.35 325.012 118.875 323.931 118.028 323.134C117.181 322.337 116.033 321.889 114.836 321.889C113.638 321.889 112.49 322.337 111.643 323.134C110.796 323.931 110.321 325.012 110.321 326.139C110.328 327.08 110.66 327.994 111.266 328.742L105.001 336.09C104.4 335.966 103.78 335.961 103.177 336.075C102.575 336.188 102.004 336.418 101.501 336.749L84.8055 324.854C84.9877 323.834 84.7686 322.787 84.1893 321.908C83.61 321.029 82.7102 320.379 81.6585 320.08C80.6068 319.781 79.4753 319.854 78.4761 320.284C77.4769 320.713 76.6785 321.472 76.2305 322.416C75.8824 323.095 75.7406 323.852 75.8209 324.602C75.9012 325.352 76.2004 326.067 76.6855 326.667C73.3955 331.313 61.4605 349.27 59.7455 351.873C59.1173 351.725 58.4625 351.705 57.8256 351.816C57.1887 351.927 56.5845 352.165 56.0541 352.515C55.5238 352.865 55.0796 353.319 54.7517 353.844C54.4239 354.37 54.2201 354.956 54.1541 355.563C54.0882 356.17 54.1616 356.782 54.3695 357.36C54.5774 357.937 54.9148 358.466 55.3588 358.91C55.8029 359.354 56.3432 359.703 56.9431 359.933C57.543 360.163 58.1884 360.268 58.8355 360.243ZM119.736 371.907C119.476 371.907 119.226 372.004 119.043 372.177C118.859 372.35 118.756 372.585 118.756 372.83C118.756 373.074 118.859 373.309 119.043 373.482C119.226 373.655 119.476 373.752 119.736 373.752C125.861 373.752 197.751 371.116 200.236 371.083C200.399 371.049 200.545 370.963 200.649 370.841C200.754 370.718 200.811 370.565 200.811 370.408C200.811 370.25 200.754 370.098 200.649 369.975C200.545 369.852 200.399 369.766 200.236 369.732C190.471 369.765 126.001 371.248 119.736 371.907ZM150.501 348.348C150.723 348.348 150.937 348.264 151.094 348.116C151.252 347.968 151.341 347.767 151.341 347.557C151.341 347.347 151.252 347.146 151.094 346.998C150.937 346.849 150.723 346.766 150.501 346.766C147.736 346.766 137.726 346.206 135.381 346.305C134.972 346.305 134.58 346.458 134.292 346.729C134.003 347.001 133.841 347.37 133.841 347.755C133.841 348.139 134.003 348.508 134.292 348.78C134.58 349.052 134.972 349.204 135.381 349.204C137.691 349.468 147.596 348.578 150.501 348.348ZM113.086 352.565H98.0005C97.6743 352.58 97.3582 352.676 97.0854 352.845C96.8126 353.014 96.5931 353.249 96.4499 353.526C96.3067 353.802 96.2452 354.109 96.2717 354.416C96.2982 354.722 96.4118 355.016 96.6005 355.267C97.5455 356.585 98.2805 355.564 113.156 354.378C113.34 354.294 113.495 354.162 113.601 353.998C113.707 353.833 113.759 353.642 113.752 353.45C113.744 353.257 113.677 353.071 113.559 352.914C113.441 352.757 113.276 352.636 113.086 352.565ZM53.4105 370.161C54.1455 370.161 64.7855 369.073 67.1305 368.974C67.3904 368.974 67.6397 368.877 67.8235 368.704C68.0073 368.531 68.1105 368.296 68.1105 368.052C68.1105 367.807 68.0073 367.572 67.8235 367.399C67.6397 367.226 67.3904 367.129 67.1305 367.129C65.7655 367.129 53.9355 367.59 53.1305 367.953C52.9168 368.074 52.7448 368.251 52.6352 368.462C52.5256 368.673 52.483 368.909 52.5126 369.142C52.5421 369.375 52.6426 369.595 52.8019 369.776C52.9612 369.957 53.1725 370.09 53.4105 370.161Z" fill="#F0F0EC"/>
<path d="M95.4105 238.163C96.0755 238.855 95.7605 238.954 111.616 213.78C111.654 213.724 111.679 213.661 111.691 213.596C111.703 213.531 111.7 213.464 111.684 213.399C111.668 213.334 111.638 213.274 111.596 213.22C111.554 213.167 111.501 213.122 111.441 213.088C105.849 210.318 99.4435 209.362 93.2165 210.369C86.9895 211.376 81.2895 214.289 77.0005 218.657C76.5805 219.151 75.9505 218.195 95.4105 238.163ZM58.8355 360.243C59.7332 360.237 60.6091 359.982 61.353 359.509C62.0969 359.036 62.6755 358.366 63.016 357.584C63.3564 356.802 63.4436 355.943 63.2665 355.114C63.0893 354.286 62.6558 353.525 62.0205 352.928C63.7705 350.259 75.1105 332.696 78.4355 327.952C79.2972 328.327 80.259 328.449 81.1954 328.302C82.1319 328.155 82.9996 327.746 83.6855 327.128L99.8555 338.858C99.5918 339.592 99.5448 340.38 99.7195 341.138C99.8941 341.896 100.284 342.594 100.847 343.16C101.41 343.725 102.126 344.136 102.918 344.349C103.71 344.562 104.548 344.568 105.344 344.367C106.139 344.167 106.862 343.766 107.434 343.21C108.007 342.653 108.409 341.96 108.596 341.205C108.784 340.45 108.75 339.662 108.499 338.923C108.248 338.185 107.789 337.525 107.171 337.013L112.91 329.896C113.938 330.338 115.103 330.408 116.181 330.092C117.26 329.776 118.177 329.096 118.756 328.182L135.486 333.52C135.395 334.229 135.494 334.948 135.774 335.611C136.054 336.275 136.505 336.862 137.087 337.319C137.669 337.777 138.364 338.09 139.107 338.231C139.85 338.371 140.619 338.335 141.344 338.124C142.068 337.914 142.726 337.536 143.256 337.026C143.786 336.516 144.172 335.889 144.38 335.202C144.587 334.516 144.609 333.791 144.443 333.094C144.277 332.398 143.929 331.751 143.431 331.214C144.831 326.502 156.941 291.674 158.166 288.379C159.341 288.282 160.431 287.763 161.211 286.929C164.536 289.4 174.511 296.419 177.731 298.461C177.547 299.143 177.544 299.858 177.723 300.541C177.902 301.224 178.256 301.855 178.756 302.379C179.256 302.902 179.884 303.302 180.587 303.542C181.289 303.782 182.044 303.856 182.784 303.756C183.524 303.657 184.226 303.387 184.829 302.971C185.432 302.555 185.917 302.006 186.241 301.372C186.565 300.738 186.718 300.038 186.686 299.335C186.655 298.632 186.44 297.947 186.061 297.341C195.371 283.37 195.791 283.601 194.811 282.975C194.626 282.867 194.406 282.828 194.193 282.864C193.979 282.901 193.788 283.011 193.656 283.173C192.011 285.413 184.241 295.694 184.241 295.694C183.413 295.31 182.483 295.165 181.568 295.276C180.653 295.387 179.793 295.75 179.096 296.32C175.841 294.178 165.516 287.225 162.226 284.82C162.366 284.06 162.286 283.278 161.993 282.557C161.701 281.836 161.206 281.203 160.563 280.724C159.92 280.246 159.151 279.94 158.338 279.839C157.525 279.738 156.699 279.846 155.946 280.151C155.192 280.455 154.541 280.946 154.059 281.571C153.578 282.196 153.285 282.932 153.211 283.7C153.138 284.469 153.286 285.242 153.64 285.938C153.995 286.634 154.543 287.227 155.226 287.654C152.216 295.364 143.466 322.054 141.226 329.83C140.384 329.626 139.5 329.647 138.671 329.892C137.842 330.136 137.102 330.594 136.536 331.214C133.036 330.093 122.536 327.095 119.35 326.139C119.35 325.012 118.875 323.931 118.028 323.134C117.181 322.337 116.033 321.889 114.836 321.889C113.638 321.889 112.49 322.337 111.643 323.134C110.796 323.931 110.321 325.012 110.321 326.139C110.328 327.08 110.66 327.994 111.266 328.742L105.001 336.09C104.4 335.966 103.78 335.961 103.177 336.075C102.575 336.188 102.004 336.418 101.501 336.749L84.8055 324.854C84.9877 323.834 84.7686 322.787 84.1893 321.908C83.61 321.029 82.7102 320.379 81.6585 320.08C80.6068 319.781 79.4753 319.854 78.4761 320.284C77.4769 320.713 76.6785 321.472 76.2305 322.416C75.8824 323.095 75.7406 323.852 75.8209 324.602C75.9012 325.352 76.2004 326.067 76.6855 326.667C73.3955 331.313 61.4605 349.27 59.7455 351.873C59.1173 351.725 58.4625 351.705 57.8256 351.816C57.1887 351.927 56.5845 352.165 56.0541 352.515C55.5238 352.865 55.0796 353.319 54.7517 353.844C54.4239 354.37 54.2201 354.956 54.1541 355.563C54.0882 356.17 54.1616 356.782 54.3695 357.36C54.5774 357.937 54.9148 358.466 55.3588 358.91C55.8029 359.354 56.3432 359.703 56.9431 359.933C57.543 360.163 58.1884 360.268 58.8355 360.243ZM119.736 371.907C119.476 371.907 119.226 372.004 119.043 372.177C118.859 372.35 118.756 372.585 118.756 372.83C118.756 373.074 118.859 373.309 119.043 373.482C119.226 373.655 119.476 373.752 119.736 373.752C125.861 373.752 197.751 371.116 200.236 371.083C200.399 371.049 200.545 370.963 200.649 370.841C200.754 370.718 200.811 370.565 200.811 370.408C200.811 370.25 200.754 370.098 200.649 369.975C200.545 369.852 200.399 369.766 200.236 369.732C190.471 369.765 126.001 371.248 119.736 371.907ZM150.501 348.348C150.723 348.348 150.937 348.264 151.094 348.116C151.252 347.968 151.341 347.767 151.341 347.557C151.341 347.347 151.252 347.146 151.094 346.998C150.937 346.849 150.723 346.766 150.501 346.766C147.736 346.766 137.726 346.206 135.381 346.305C134.972 346.305 134.58 346.458 134.292 346.729C134.003 347.001 133.841 347.37 133.841 347.755C133.841 348.139 134.003 348.508 134.292 348.78C134.58 349.052 134.972 349.204 135.381 349.204C137.691 349.468 147.596 348.578 150.501 348.348ZM113.086 352.565H98.0005C97.6743 352.58 97.3582 352.676 97.0854 352.845C96.8126 353.014 96.5931 353.249 96.4499 353.526C96.3067 353.802 96.2452 354.109 96.2717 354.416C96.2982 354.722 96.4118 355.016 96.6005 355.267C97.5455 356.585 98.2805 355.564 113.156 354.378C113.34 354.294 113.495 354.162 113.601 353.998C113.707 353.833 113.759 353.642 113.752 353.45C113.744 353.257 113.677 353.071 113.559 352.914C113.441 352.757 113.276 352.636 113.086 352.565ZM53.4105 370.161C54.1455 370.161 64.7855 369.073 67.1305 368.974C67.3904 368.974 67.6397 368.877 67.8235 368.704C68.0073 368.531 68.1105 368.296 68.1105 368.052C68.1105 367.807 68.0073 367.572 67.8235 367.399C67.6397 367.226 67.3904 367.129 67.1305 367.129C65.7655 367.129 53.9355 367.59 53.1305 367.953C52.9168 368.074 52.7448 368.251 52.6352 368.462C52.5256 368.673 52.483 368.909 52.5126 369.142C52.5421 369.375 52.6426 369.595 52.8019 369.776C52.9612 369.957 53.1725 370.09 53.4105 370.161Z" fill="black" fill-opacity="0.1"/>
<path d="M176.926 313.025H177.486C192.361 311.773 191.836 312.728 192.466 312.069C192.582 311.94 192.658 311.783 192.686 311.616C192.714 311.449 192.693 311.277 192.624 311.121C192.555 310.964 192.442 310.829 192.297 310.729C192.152 310.628 191.98 310.568 191.801 310.554C186.586 310.554 181.686 310.125 176.996 310.323C175.001 310.356 175.176 313.025 176.926 313.025ZM98.6659 284.26C98.2853 284.26 97.9203 284.402 97.6512 284.655C97.3821 284.909 97.2309 285.252 97.2309 285.611C97.2309 285.969 97.3821 286.313 97.6512 286.566C97.9203 286.819 98.2853 286.962 98.6659 286.962C103.671 286.962 123.166 285.281 127.891 284.82C128.115 284.779 128.317 284.667 128.462 284.501C128.607 284.336 128.687 284.128 128.687 283.914C128.687 283.699 128.607 283.491 128.462 283.326C128.317 283.16 128.115 283.048 127.891 283.008C123.026 283.37 103.496 283.864 98.6659 284.26ZM96.2859 291.97C96.0044 292.036 95.758 292.196 95.5932 292.421C95.4283 292.645 95.3563 292.919 95.3907 293.19C95.4251 293.461 95.5635 293.711 95.7799 293.893C95.9963 294.075 96.2758 294.176 96.5659 294.178C102.096 294.178 123.796 292.332 129.256 292.299C129.497 292.299 129.729 292.209 129.899 292.049C130.07 291.888 130.166 291.67 130.166 291.443C130.166 291.216 130.07 290.998 129.899 290.837C129.729 290.676 129.497 290.586 129.256 290.586C118.245 290.358 107.231 290.82 96.2859 291.97ZM126.456 297.242C117.296 297.118 108.136 297.459 99.0159 298.263C97.3359 298.461 97.2659 300.866 99.0159 300.866C102.131 300.866 119.141 299.219 126.491 298.955C126.61 298.953 126.728 298.929 126.838 298.884C126.947 298.839 127.046 298.774 127.129 298.693C127.212 298.612 127.277 298.516 127.321 298.411C127.364 298.306 127.386 298.195 127.383 298.082C127.381 297.97 127.355 297.859 127.307 297.756C127.26 297.652 127.191 297.559 127.104 297.481C127.018 297.403 126.917 297.342 126.805 297.301C126.694 297.26 126.575 297.24 126.456 297.242ZM137.971 226.268C139.686 226.268 157.151 224.554 160.581 224.324C160.822 224.324 161.054 224.233 161.224 224.073C161.395 223.912 161.491 223.694 161.491 223.467C161.491 223.24 161.395 223.022 161.224 222.861C161.054 222.7 160.822 222.61 160.581 222.61C158.866 222.61 140.141 223.137 138.076 223.269C136.011 223.401 136.011 226.268 137.971 226.268ZM141.576 232.924C147.071 232.924 168.491 231.012 173.916 230.683C174.114 230.645 174.292 230.544 174.419 230.397C174.547 230.25 174.617 230.066 174.617 229.876C174.617 229.686 174.547 229.501 174.419 229.354C174.292 229.207 174.114 229.106 173.916 229.068C168.456 229.299 146.896 229.398 141.541 229.925C141.16 229.982 140.813 230.167 140.564 230.444C140.315 230.722 140.18 231.075 140.185 231.439C140.189 231.802 140.332 232.152 140.587 232.424C140.842 232.697 141.193 232.874 141.576 232.924Z" fill="#F0F0EC"/>
<path d="M176.926 313.025H177.486C192.361 311.773 191.836 312.728 192.466 312.069C192.582 311.94 192.658 311.783 192.686 311.616C192.714 311.449 192.693 311.277 192.624 311.121C192.555 310.964 192.442 310.829 192.297 310.729C192.152 310.628 191.98 310.568 191.801 310.554C186.586 310.554 181.686 310.125 176.996 310.323C175.001 310.356 175.176 313.025 176.926 313.025ZM98.6659 284.26C98.2853 284.26 97.9203 284.402 97.6512 284.655C97.3821 284.909 97.2309 285.252 97.2309 285.611C97.2309 285.969 97.3821 286.313 97.6512 286.566C97.9203 286.819 98.2853 286.962 98.6659 286.962C103.671 286.962 123.166 285.281 127.891 284.82C128.115 284.779 128.317 284.667 128.462 284.501C128.607 284.336 128.687 284.128 128.687 283.914C128.687 283.699 128.607 283.491 128.462 283.326C128.317 283.16 128.115 283.048 127.891 283.008C123.026 283.37 103.496 283.864 98.6659 284.26ZM96.2859 291.97C96.0044 292.036 95.758 292.196 95.5932 292.421C95.4283 292.645 95.3563 292.919 95.3907 293.19C95.4251 293.461 95.5635 293.711 95.7799 293.893C95.9963 294.075 96.2758 294.176 96.5659 294.178C102.096 294.178 123.796 292.332 129.256 292.299C129.497 292.299 129.729 292.209 129.899 292.049C130.07 291.888 130.166 291.67 130.166 291.443C130.166 291.216 130.07 290.998 129.899 290.837C129.729 290.676 129.497 290.586 129.256 290.586C118.245 290.358 107.231 290.82 96.2859 291.97ZM126.456 297.242C117.296 297.118 108.136 297.459 99.0159 298.263C97.3359 298.461 97.2659 300.866 99.0159 300.866C102.131 300.866 119.141 299.219 126.491 298.955C126.61 298.953 126.728 298.929 126.838 298.884C126.947 298.839 127.046 298.774 127.129 298.693C127.212 298.612 127.277 298.516 127.321 298.411C127.364 298.306 127.386 298.195 127.383 298.082C127.381 297.97 127.355 297.859 127.307 297.756C127.26 297.652 127.191 297.559 127.104 297.481C127.018 297.403 126.917 297.342 126.805 297.301C126.694 297.26 126.575 297.24 126.456 297.242ZM137.971 226.268C139.686 226.268 157.151 224.554 160.581 224.324C160.822 224.324 161.054 224.233 161.224 224.073C161.395 223.912 161.491 223.694 161.491 223.467C161.491 223.24 161.395 223.022 161.224 222.861C161.054 222.7 160.822 222.61 160.581 222.61C158.866 222.61 140.141 223.137 138.076 223.269C136.011 223.401 136.011 226.268 137.971 226.268ZM141.576 232.924C147.071 232.924 168.491 231.012 173.916 230.683C174.114 230.645 174.292 230.544 174.419 230.397C174.547 230.25 174.617 230.066 174.617 229.876C174.617 229.686 174.547 229.501 174.419 229.354C174.292 229.207 174.114 229.106 173.916 229.068C168.456 229.299 146.896 229.398 141.541 229.925C141.16 229.982 140.813 230.167 140.564 230.444C140.315 230.722 140.18 231.075 140.185 231.439C140.189 231.802 140.332 232.152 140.587 232.424C140.842 232.697 141.193 232.874 141.576 232.924Z" fill="black" fill-opacity="0.1"/>
</svg>
