<svg width="312" height="23" viewBox="0 0 312 23" fill="none" xmlns="http://www.w3.org/2000/svg">
<path d="M292.218 11.7097C291.792 11.7282 291.362 11.741 290.944 11.7688C290.673 11.7862 290.557 11.7352 290.376 11.7085C290.316 11.6992 290.251 11.6807 290.195 11.683C289.774 11.7016 289.352 11.7224 288.93 11.7433C288.801 11.7885 288.72 11.8487 288.522 11.8708C288.328 11.8916 288.1 11.8916 287.885 11.902C287.601 11.9148 287.317 11.9276 287.033 11.9391C286.891 11.9449 286.775 11.967 286.727 12.0087C286.719 12.0156 286.813 12.033 286.865 12.0434C287.037 12.0782 287.205 12.1176 287.394 12.1443C287.575 12.1698 287.799 12.128 287.992 12.1605C288.427 12.2335 288.431 12.2323 288.763 12.2184C289.047 12.2057 289.331 12.1918 289.615 12.1825C289.671 12.1802 289.735 12.1976 289.795 12.2068C289.976 12.2323 290.092 12.2903 290.359 12.2683C290.561 12.2509 290.785 12.2474 290.996 12.2381C291.172 12.2717 291.336 12.31 291.525 12.3366C291.701 12.3621 291.753 12.3818 291.658 12.4155C291.572 12.4467 291.452 12.4595 291.293 12.4618C291.151 12.463 291.009 12.4734 290.867 12.4792C290.794 12.4827 290.725 12.485 290.656 12.4885C290.385 12.5012 290.385 12.5012 289.89 12.427C289.696 12.3981 289.477 12.4386 289.292 12.4108C289.167 12.3923 289.06 12.3645 288.939 12.3448C288.887 12.3366 288.806 12.3355 288.741 12.3378C288.526 12.3459 288.311 12.3517 288.104 12.3668C287.958 12.3772 287.872 12.4097 287.889 12.4421C287.893 12.4549 287.997 12.4734 288.057 12.4746C288.195 12.4769 288.341 12.4606 288.474 12.4688C288.603 12.4769 288.737 12.5 288.831 12.5255C289.025 12.5789 289.244 12.5313 289.43 12.5452C289.623 12.5603 289.782 12.6067 289.967 12.6345C290.015 12.6414 290.105 12.6298 290.178 12.6264C290.389 12.6183 290.6 12.6113 290.811 12.6032C290.987 12.6368 291.177 12.6669 291.336 12.7052C291.624 12.7747 291.934 12.8014 292.308 12.7677C292.519 12.7492 292.726 12.7562 292.893 12.8014C293.065 12.8477 293.263 12.8431 293.483 12.8338C293.685 12.8245 293.892 12.799 294.098 12.8315C294.546 12.9033 294.55 12.9068 295.079 12.879C295.238 12.8709 295.359 12.8686 295.479 12.8952C295.591 12.9196 295.712 12.9404 295.828 12.9636C296.039 12.9555 296.254 12.9474 296.465 12.9381C296.736 12.9254 296.886 12.9416 296.951 13.0065C296.99 13.0459 297.007 13.0818 297.102 13.1085C297.213 13.1409 297.334 13.1398 297.497 13.1305C297.652 13.1224 297.764 13.1096 297.829 13.0679C297.855 13.0505 297.906 13.0343 297.954 13.0204C297.992 13.01 298.053 12.9937 298.087 12.9961C298.152 13.0007 298.238 13.0134 298.259 13.0285C298.47 13.1687 298.47 13.1699 298.685 13.2105C298.922 13.2557 299.167 13.2962 299.382 13.3472C299.576 13.3924 299.769 13.3727 299.98 13.3727C300.139 13.3727 300.243 13.4028 300.23 13.433C300.221 13.4504 300.161 13.4758 300.109 13.4782C299.688 13.5013 299.262 13.521 298.836 13.5373C298.784 13.5396 298.72 13.5187 298.659 13.5083C298.539 13.4874 298.431 13.455 298.302 13.448C298.173 13.4411 298.022 13.4585 297.88 13.4643C297.738 13.47 297.588 13.4851 297.459 13.4759C297.33 13.4666 297.226 13.433 297.106 13.411C297.05 13.4005 296.973 13.3855 296.925 13.3889C296.611 13.4168 296.379 13.3785 296.155 13.3275C296.108 13.3171 296.026 13.3101 295.966 13.3124C295.467 13.3321 294.972 13.3553 294.473 13.3773C294.27 13.3866 294.107 13.346 294.064 13.2777C294.042 13.2394 293.999 13.2012 293.999 13.1629C293.999 13.0934 293.763 13.0552 293.59 13.0633C293.306 13.0749 293.018 13.0841 292.738 13.1015C292.51 13.1154 292.317 13.1015 292.162 13.0598C291.981 13.0123 291.775 13.0216 291.568 13.0343C291.413 13.0436 291.37 13.0818 291.379 13.178C291.387 13.2557 291.314 13.28 291.034 13.2927C290.682 13.309 290.324 13.3252 289.967 13.3379C289.911 13.3403 289.847 13.3206 289.791 13.3101C289.671 13.2893 289.563 13.2557 289.434 13.2487C289.305 13.2406 289.154 13.258 289.012 13.2649C288.87 13.2707 288.72 13.2869 288.59 13.2788C288.461 13.2707 288.354 13.236 288.238 13.2139C288.182 13.2035 288.113 13.1884 288.057 13.1908C287.773 13.2 287.489 13.2139 287.205 13.2267C286.887 13.2406 286.887 13.2406 286.435 13.1687C286.228 13.1363 286.022 13.1618 285.819 13.1711C285.604 13.1803 285.402 13.185 285.234 13.1386C285.122 13.1085 284.998 13.0899 284.864 13.0957C284.507 13.1096 284.154 13.127 283.797 13.1409C283.737 13.1432 283.655 13.1375 283.608 13.127C283.38 13.0783 283.156 13.0401 282.838 13.0644C282.562 13.0853 282.265 13.0865 281.99 13.1062C281.839 13.1166 281.77 13.1537 281.801 13.1826C281.818 13.1977 281.908 13.2151 281.968 13.2151C282.106 13.2163 282.257 13.1989 282.386 13.2058C282.652 13.2197 282.786 13.3171 283.134 13.2904C283.341 13.2742 283.556 13.2684 283.771 13.2638C283.827 13.2626 283.887 13.2846 283.948 13.2962C284.12 13.3275 284.27 13.3681 284.52 13.3472C284.727 13.331 284.946 13.3264 285.157 13.3171C285.492 13.302 285.492 13.3032 285.927 13.3739C286.134 13.4075 286.34 13.3808 286.542 13.3727C286.693 13.3669 286.835 13.3553 286.955 13.3716C287.14 13.3959 287.274 13.4515 287.502 13.448C287.717 13.4446 287.928 13.4283 288.143 13.4225C288.276 13.4191 288.401 13.4376 288.509 13.4689C288.621 13.5002 288.741 13.5141 288.887 13.5071C289.098 13.4979 289.313 13.4863 289.528 13.4805C289.589 13.4793 289.658 13.4898 289.714 13.499C289.834 13.5199 289.95 13.5442 290.066 13.5662C290.277 13.5593 290.492 13.557 290.699 13.5431C290.858 13.5326 290.97 13.5373 291.099 13.5605C291.263 13.5917 291.396 13.6474 291.663 13.6207C291.796 13.608 291.951 13.6114 292.084 13.5999C292.248 13.5848 292.36 13.5906 292.476 13.6253C292.695 13.6914 292.971 13.6926 293.255 13.6671C293.565 13.6393 293.797 13.6717 294.029 13.7227C294.275 13.776 294.275 13.7748 294.464 13.9035C294.52 13.9406 294.679 13.958 294.812 13.951C295.036 13.9394 295.23 13.9452 295.393 13.9892C295.565 14.0368 295.772 14.031 295.983 14.0182C296.262 14.0008 296.542 13.9858 296.77 14.053C296.882 14.0854 297.003 14.0935 297.153 14.0854C297.579 14.0646 298.01 14.0518 298.427 14.0263C298.681 14.0101 298.827 14.0472 298.999 14.0785C299.231 14.1214 299.485 14.1596 299.485 14.2512C299.485 14.2662 299.546 14.2836 299.597 14.2952C299.709 14.3195 299.83 14.3404 299.946 14.3636C300.118 14.3983 300.286 14.4273 300.522 14.4088C300.729 14.3937 300.948 14.3891 301.159 14.3786C301.37 14.3682 301.564 14.3624 301.753 14.4064C301.972 14.4563 302.205 14.5038 302.454 14.5409C302.631 14.5675 302.863 14.5223 303.053 14.5583C303.169 14.5803 303.28 14.6058 303.405 14.6243C303.457 14.6324 303.539 14.6266 303.608 14.6243C303.75 14.6197 303.896 14.6162 304.034 14.6046C304.193 14.5919 304.313 14.5942 304.434 14.6209C304.546 14.6452 304.658 14.6788 304.787 14.6858C304.98 14.6962 305.195 14.6498 305.389 14.7031C305.488 14.7298 305.613 14.7553 305.742 14.7634C305.871 14.7715 306.022 14.7541 306.159 14.7553C306.219 14.7553 306.293 14.7738 306.327 14.7889C306.348 14.797 306.318 14.819 306.288 14.8306C306.25 14.8445 306.194 14.8631 306.138 14.8654C305.712 14.8862 305.286 14.9036 304.86 14.9233C304.606 14.9349 304.606 14.9349 304.094 14.8619C303.973 14.8445 303.84 14.848 303.689 14.8561C303.487 14.8665 303.281 14.8862 303.07 14.8654C302.794 14.7866 302.454 14.7796 302.093 14.8097C301.942 14.8225 301.805 14.8225 301.693 14.8005C301.456 14.7564 301.207 14.7159 300.996 14.6637C300.832 14.6232 300.755 14.6197 300.686 14.6753C300.664 14.6927 300.643 14.7112 300.647 14.7275C300.673 14.7854 300.72 14.8422 300.746 14.9001C300.755 14.9164 300.72 14.9349 300.699 14.9523C300.63 15.001 300.54 14.9975 300.389 14.9569C300.238 14.9164 300.058 14.8897 299.817 14.9083C299.61 14.9245 299.386 14.9222 299.18 14.9396C298.862 14.9651 298.638 14.928 298.41 14.8781C298.362 14.8677 298.281 14.8619 298.22 14.8642C297.579 14.8909 296.942 14.921 296.301 14.9477C296.164 14.9535 296.039 14.9361 295.931 14.9048C295.819 14.8735 295.695 14.8573 295.557 14.8631C294.989 14.8874 294.421 14.9094 293.853 14.9396C293.621 14.9523 293.436 14.9372 293.276 14.8967C293.156 14.8665 293.044 14.8573 292.893 14.8607C292.73 14.8642 292.614 14.8758 292.532 14.9094C292.455 14.9419 292.51 14.9616 292.683 14.9871C292.868 15.0149 293.04 15.0508 293.216 15.0833C293.358 15.0786 293.5 15.0693 293.638 15.0705C293.698 15.0705 293.754 15.0914 293.814 15.103C293.986 15.1366 294.145 15.1702 294.391 15.1516C294.597 15.1354 294.817 15.1319 295.028 15.1215C295.32 15.1088 295.32 15.1088 295.793 15.1818C295.914 15.2003 296.043 15.1991 296.198 15.1887C296.331 15.1806 296.469 15.1968 296.564 15.2316C296.602 15.2455 296.59 15.2687 296.508 15.3452C296.508 15.402 296.598 15.3765 296.628 15.3394C296.676 15.2861 296.585 15.2687 296.413 15.2977C296.293 15.3185 296.232 15.3487 296.263 15.373C296.28 15.3857 296.362 15.402 296.508 15.3452C296.887 15.2756 297.175 15.2675 297.45 15.249C297.614 15.2385 297.717 15.2432 297.846 15.2733C298.001 15.3092 298.156 15.3475 298.41 15.329C298.685 15.3081 298.978 15.3058 299.257 15.2884C299.516 15.2722 299.649 15.3232 299.812 15.3533C300.01 15.3892 300.23 15.3486 300.41 15.3695C300.6 15.3904 300.733 15.4414 300.953 15.4506C301.271 15.4193 301.473 15.4773 301.714 15.5155C301.904 15.5445 302.127 15.519 302.33 15.5063C302.558 15.4923 302.747 15.5051 302.906 15.5468C303.087 15.5943 303.289 15.5839 303.496 15.5735C303.978 15.5503 303.995 15.5468 304.274 15.6106C304.477 15.6569 304.67 15.6361 304.873 15.6303C305.049 15.6616 305.221 15.6952 305.406 15.723C305.454 15.7299 305.544 15.7183 305.617 15.7149C305.828 15.7056 306.043 15.6963 306.254 15.687C306.396 15.6813 306.546 15.6639 306.676 15.6708C306.805 15.6789 306.912 15.7126 307.028 15.7346C307.145 15.7566 307.265 15.7786 307.377 15.8018C307.549 15.8365 307.712 15.8655 307.953 15.8481C308.16 15.8331 308.375 15.8284 308.59 15.818C308.861 15.8053 308.853 15.8087 309.356 15.8783C309.627 15.9165 309.907 15.8702 310.182 15.8655C310.32 15.8632 310.453 15.876 310.548 15.9096C310.587 15.9235 310.574 15.9467 310.587 15.9664C309.877 15.9976 309.163 16.0243 308.461 16.0625C308.19 16.0776 308.048 16.0359 307.902 16.0011C307.661 15.9455 307.342 16.0266 307.114 15.9548C306.977 15.9119 306.779 15.8875 306.542 15.9084C306.404 15.92 306.258 15.9188 306.116 15.9293C305.755 15.9548 305.423 15.9559 305.135 15.876C305.036 15.8481 304.894 15.8331 304.791 15.8064C304.67 15.7774 304.554 15.7612 304.412 15.767C303.771 15.7948 303.134 15.8226 302.497 15.8528C302.441 15.8551 302.385 15.8725 302.338 15.8852C302.218 15.9177 302.256 15.9432 302.45 15.964C302.515 15.971 302.566 15.986 302.627 15.9976C302.743 16.0196 302.85 16.0544 302.979 16.0625C303.108 16.0706 303.259 16.0544 303.401 16.0486C303.543 16.0428 303.694 16.0254 303.823 16.0324C303.952 16.0405 304.059 16.0741 304.18 16.095C304.236 16.1054 304.305 16.1228 304.361 16.1216C304.645 16.1147 304.924 16.1019 305.208 16.0915C305.385 16.1228 305.535 16.168 305.746 16.1784C305.88 16.1854 306.022 16.1726 306.159 16.1749C306.219 16.1761 306.297 16.1935 306.327 16.2086C306.344 16.2178 306.288 16.241 306.245 16.2526C306.082 16.2966 305.858 16.2885 305.656 16.3024C305.436 16.3175 305.238 16.3129 305.071 16.2677C304.959 16.2375 304.834 16.2213 304.696 16.2271C304.339 16.2422 303.986 16.2596 303.629 16.2723C303.569 16.2746 303.496 16.2642 303.44 16.2561C302.988 16.1854 302.988 16.1831 302.669 16.1981C302.201 16.2202 302.201 16.2201 301.886 16.1587C301.826 16.1471 301.762 16.1251 301.71 16.1263C301.211 16.1448 300.716 16.1634 300.221 16.19C300.058 16.1981 299.946 16.1981 299.825 16.168C299.722 16.1425 299.602 16.1135 299.473 16.1066C299.339 16.0996 299.193 16.117 299.051 16.1228C298.909 16.1286 298.758 16.1437 298.633 16.1344C298.504 16.1251 298.392 16.0927 298.281 16.0695C298.164 16.0452 298.04 16.0463 297.88 16.0556C297.39 16.0822 297.386 16.0788 296.899 16.0069C296.843 15.9988 296.77 15.9895 296.71 15.9918C296.353 16.0058 296 16.0231 295.643 16.037C295.505 16.0428 295.372 16.0278 295.277 15.9942C295.238 15.9803 295.251 15.9571 295.226 15.9119C295.195 15.9014 295.23 15.92 295.238 15.9374C295.303 15.9351 295.38 15.9374 295.428 15.9281C295.548 15.9061 295.608 15.8771 295.578 15.8528C295.561 15.84 295.479 15.8238 295.428 15.8238C295.333 15.8238 295.251 15.8493 295.226 15.9119C294.954 15.9501 294.666 15.9582 294.386 15.9768C294.223 15.9884 294.12 15.9826 293.991 15.9524C293.836 15.9154 293.676 15.8794 293.423 15.898C293.147 15.9188 292.855 15.9223 292.571 15.9385C292.244 15.9571 292.102 15.8528 291.826 15.8551C291.542 15.8574 291.258 15.8771 290.974 15.891C290.725 15.9026 290.725 15.9026 290.208 15.8273C290.019 15.7995 289.795 15.84 289.61 15.811C289.486 15.7925 289.378 15.7647 289.257 15.745C289.206 15.7369 289.124 15.7369 289.06 15.7392C288.702 15.7531 288.341 15.7624 287.997 15.7879C287.605 15.818 287.308 15.7856 287.029 15.7172C286.676 15.7299 286.319 15.7369 285.97 15.7589C285.716 15.7751 285.57 15.7369 285.398 15.7056C285.338 15.6952 285.286 15.6778 285.221 15.6731C285.157 15.6685 285.079 15.6778 285.01 15.6813C284.726 15.694 284.434 15.6998 284.158 15.7207C283.819 15.7473 283.689 15.6523 283.427 15.6407C283.251 15.6975 283.156 15.7751 282.807 15.7809C282.523 15.7856 282.239 15.8041 281.955 15.8168C281.813 15.8226 281.671 15.8296 281.529 15.8354C281.301 15.8458 281.194 15.891 281.241 15.9606C281.267 15.9988 281.288 16.037 281.31 16.0753C281.353 16.1437 281.245 16.2016 281.065 16.2097C280.566 16.2317 280.071 16.2549 279.572 16.2746C279.438 16.2804 279.309 16.2607 279.202 16.2294C279.09 16.1981 278.965 16.1842 278.827 16.19C278.328 16.212 277.833 16.2352 277.334 16.2549C277.278 16.2572 277.205 16.2456 277.149 16.2364C277.029 16.2155 276.912 16.1912 276.796 16.1692C276.512 16.1796 276.233 16.1865 275.953 16.2004C275.501 16.2213 275.501 16.2225 275.17 16.1587C275.11 16.1471 275.049 16.1251 274.993 16.1263C274.778 16.1309 274.567 16.1425 274.352 16.1529C273.72 16.1831 273.72 16.1831 273.535 16.1483C273.367 16.1158 273.216 16.0764 272.962 16.095C272.687 16.1158 272.394 16.1228 272.11 16.1344C271.9 16.1425 271.689 16.1518 271.478 16.1541C271.422 16.1553 271.362 16.1332 271.301 16.1216C271.129 16.0857 270.962 16.0567 270.725 16.0764C270.587 16.088 270.441 16.0904 270.299 16.0961C269.929 16.1124 269.929 16.1124 269.322 16.0428C269.262 16.0359 269.189 16.0278 269.129 16.0312C268.629 16.0521 268.135 16.0753 267.635 16.095C267.575 16.0973 267.502 16.0903 267.442 16.0845C266.762 16.0173 266.762 16.0173 266.039 16.0498C265.764 16.0614 265.755 16.066 265.467 16.0046C265.338 15.9779 265.23 15.9652 265.08 15.9733C264.512 16.0011 263.939 16.0197 263.376 16.0521C263.122 16.066 262.975 16.0312 262.803 16C262.743 15.9895 262.679 15.9664 262.627 15.9675C262.059 15.9895 261.491 16.0162 260.923 16.0382C260.871 16.0405 260.807 16.0173 260.746 16.0069C260.63 15.986 260.518 15.9548 260.389 15.9478C260.256 15.9409 260.11 15.9582 259.963 15.964C259.606 15.9791 259.606 15.9779 259.193 15.9096C259.137 15.9003 259.064 15.8875 259.008 15.8899C258.44 15.913 257.868 15.9327 257.304 15.9664C256.981 15.9849 256.762 15.9513 256.534 15.9026C256.487 15.8922 256.405 15.8875 256.345 15.8899C255.704 15.9165 255.067 15.9466 254.426 15.9733C254.292 15.9791 254.163 15.9594 254.055 15.9293C253.883 15.8817 253.681 15.8875 253.466 15.898C252.971 15.9223 252.967 15.9212 252.674 15.8655C252.614 15.8539 252.562 15.8389 252.498 15.8331C252.438 15.8273 252.36 15.8308 252.296 15.8331C252.012 15.8447 251.728 15.8574 251.444 15.8702C251.16 15.8829 250.871 15.8899 250.592 15.9096C250.247 15.9339 250.084 15.8586 249.843 15.8238C249.49 15.8389 249.129 15.8481 248.78 15.8725C248.513 15.891 248.389 15.84 248.212 15.8134C248.152 15.8041 248.087 15.7844 248.031 15.7867C247.39 15.8122 246.749 15.84 246.112 15.8713C245.957 15.8783 245.854 15.869 245.725 15.8412C245.437 15.7786 245.424 15.7809 244.942 15.8041C244.731 15.8145 244.529 15.8238 244.348 15.7763C244.189 15.7334 243.995 15.723 243.767 15.7369C243.488 15.7543 243.199 15.7635 242.915 15.7751C242.631 15.7879 242.347 15.8053 242.063 15.811C241.835 15.8168 241.698 15.7624 241.517 15.7346C241.461 15.7265 241.384 15.7253 241.319 15.7276C241.035 15.738 240.742 15.7461 240.467 15.7658C240.131 15.7902 239.946 15.7265 239.71 15.6894C239.658 15.6813 239.572 15.6859 239.507 15.6894C239.008 15.7102 238.513 15.7334 238.014 15.7554C237.838 15.7241 237.657 15.694 237.481 15.6627C237.197 15.6743 236.913 15.687 236.629 15.6986C236.414 15.7079 236.194 15.7114 235.992 15.7288C235.729 15.7519 235.6 15.6975 235.424 15.6708C235.364 15.6616 235.299 15.6419 235.243 15.6442C234.886 15.6569 234.529 15.6708 234.176 15.6905C233.841 15.7102 233.707 15.6059 233.432 15.6071C233.148 15.6082 232.855 15.6233 232.58 15.6442C232.261 15.6685 232.038 15.6314 231.81 15.5816C231.762 15.5712 231.68 15.5654 231.62 15.5677C231.263 15.5816 230.91 15.599 230.553 15.6129C230.493 15.6152 230.42 15.6094 230.36 15.6025C229.68 15.5341 229.68 15.5329 229.383 15.5468C229.172 15.5561 228.957 15.5677 228.742 15.5735C228.681 15.5758 228.608 15.5654 228.552 15.5561C228.105 15.4854 228.105 15.4842 227.782 15.4981C227.498 15.5109 227.214 15.5236 226.93 15.5364C226.754 15.5051 226.573 15.475 226.396 15.4437C226.044 15.4587 225.682 15.4703 225.334 15.4912C225.17 15.5005 225.063 15.497 224.938 15.468C224.783 15.4332 224.628 15.3927 224.37 15.4124C224.094 15.4332 223.802 15.4356 223.522 15.4529C223.187 15.4738 223.049 15.3684 222.778 15.3695C222.494 15.3707 222.201 15.3857 221.926 15.4066C221.607 15.4309 221.384 15.3939 221.156 15.344C221.108 15.3336 221.027 15.3278 220.966 15.3301C220.183 15.3637 219.404 15.3973 218.621 15.4332C218.139 15.4553 218.139 15.4564 217.223 15.3927C217.158 15.388 217.089 15.3834 217.025 15.3857C216.741 15.3962 216.448 15.4043 216.173 15.424C215.837 15.4483 215.652 15.3857 215.415 15.3475C215.364 15.3394 215.282 15.344 215.213 15.3463C214.998 15.3544 214.787 15.3649 214.572 15.3742C214.288 15.3869 214.004 15.3996 213.72 15.4124C213.544 15.3823 213.363 15.351 213.187 15.3208C212.834 15.3359 212.472 15.344 212.124 15.3684C211.857 15.3869 211.732 15.3382 211.556 15.3104C211.496 15.3011 211.431 15.2814 211.375 15.2826C210.734 15.3081 210.093 15.3347 209.456 15.3672C209.194 15.3811 209.073 15.3289 208.897 15.3023C208.836 15.2942 208.768 15.2791 208.712 15.2814C208.286 15.2977 207.86 15.3174 207.434 15.3371C207.193 15.3486 207.193 15.3486 206.668 15.2768C206.608 15.2687 206.539 15.2606 206.479 15.2629C205.127 15.3208 203.781 15.3823 202.429 15.4402C202.292 15.446 202.167 15.4286 202.059 15.3973C201.948 15.366 201.823 15.3498 201.685 15.3556C201.117 15.3799 200.545 15.402 199.981 15.4321C199.749 15.4448 199.564 15.4298 199.404 15.3892C199.284 15.3591 199.172 15.3475 199.022 15.3544C198.738 15.3684 198.454 15.3799 198.17 15.3927C197.886 15.4054 197.602 15.4182 197.318 15.4309C197.034 15.4437 196.745 15.4506 196.466 15.4703C196.121 15.4947 195.954 15.4228 195.717 15.3869C195.291 15.4043 194.865 15.4217 194.443 15.4402C193.875 15.4645 193.307 15.4912 192.739 15.5144C192.688 15.5167 192.623 15.4958 192.563 15.4854C192.386 15.4564 192.257 15.4159 191.995 15.4286C190.721 15.49 189.439 15.5422 188.161 15.6025C187.894 15.6152 187.778 15.5654 187.597 15.5387C187.537 15.5306 187.468 15.5144 187.412 15.5167C186.702 15.5457 185.992 15.5781 185.282 15.6094C184.994 15.6221 184.994 15.6221 184.512 15.5503C184.456 15.5422 184.383 15.5317 184.323 15.5341C183.398 15.5735 182.477 15.6152 181.552 15.6558C181.414 15.6616 181.289 15.6453 181.177 15.614C181.07 15.5827 180.941 15.5654 180.807 15.5712C179.955 15.6082 179.099 15.6442 178.251 15.6847C178.023 15.6963 177.834 15.6859 177.671 15.6442C177.554 15.614 177.438 15.6013 177.292 15.6082C176.014 15.665 174.736 15.7195 173.458 15.7798C173.213 15.7914 173.041 15.7693 172.886 15.7311C172.761 15.701 172.653 15.6952 172.498 15.6998C172.335 15.7056 172.236 15.7183 172.146 15.7531C172.03 15.7983 171.956 15.8551 171.681 15.8586C171.397 15.862 171.109 15.876 170.829 15.8957C170.562 15.9154 170.437 15.8632 170.27 15.8319C170.145 15.8099 170.029 15.8064 169.869 15.8168C169.723 15.8261 169.633 15.8458 169.547 15.8829C169.357 15.9617 169.34 15.9617 169.108 15.9119C168.983 15.8852 168.871 15.8644 168.733 15.869C168.165 15.8922 167.598 15.9177 167.03 15.9443C166.703 15.9594 166.698 15.9617 166.453 15.9038C166.333 15.8748 166.216 15.8609 166.074 15.8678C164.512 15.9374 162.95 16.0046 161.389 16.0776C161.148 16.0892 160.984 16.0648 160.812 16.0301C160.756 16.0185 160.7 16.0023 160.635 15.9976C160.571 15.993 160.498 15.9976 160.429 16C159.293 16.0498 158.153 16.0973 157.021 16.1529C156.763 16.1657 156.625 16.1286 156.449 16.0985C156.389 16.088 156.337 16.0718 156.272 16.0672C156.208 16.0637 156.13 16.0718 156.061 16.0753C154.926 16.1251 153.785 16.1726 152.654 16.2283C152.383 16.241 152.266 16.1923 152.09 16.1668C152.03 16.1576 151.965 16.1402 151.909 16.1425C151.552 16.1552 151.199 16.1726 150.842 16.1877C149.99 16.2259 149.138 16.2619 148.286 16.3013C147.959 16.3163 147.817 16.2132 147.542 16.2178C147.185 16.2236 146.832 16.2468 146.475 16.263C146.191 16.2758 145.907 16.2874 145.623 16.3013C145.343 16.314 145.343 16.314 144.646 16.2468C144.586 16.241 144.513 16.2329 144.452 16.2352C143.458 16.2781 142.46 16.321 141.47 16.3673C141.242 16.3778 141.053 16.372 140.889 16.3291C140.773 16.299 140.653 16.2839 140.511 16.2908C139.018 16.3569 137.529 16.423 136.036 16.4879C135.98 16.4902 135.907 16.4786 135.851 16.4693C135.73 16.4485 135.614 16.4241 135.498 16.4021C135.412 16.4288 135.3 16.4531 135.244 16.4832C135.167 16.5238 135.063 16.5354 134.9 16.5423C134.736 16.5493 134.633 16.547 134.504 16.5168C134.349 16.4797 134.19 16.4508 133.936 16.4624C132.374 16.5354 130.812 16.6014 129.25 16.6733C128.992 16.6849 128.872 16.6339 128.691 16.6072C128.631 16.5991 128.562 16.5864 128.506 16.5887C127.865 16.6153 127.228 16.6443 126.587 16.6721C124.81 16.7509 123.033 16.8263 121.26 16.9097C120.937 16.9248 120.718 16.8958 120.49 16.846C120.442 16.8355 120.36 16.8297 120.3 16.8321C117.813 16.941 115.326 17.0511 112.843 17.1612C112.71 17.167 112.581 17.1484 112.473 17.1183C112.361 17.087 112.237 17.0719 112.099 17.0777C110.963 17.1276 109.827 17.1774 108.691 17.2284C108.407 17.2412 108.403 17.2423 108.11 17.1867C108.05 17.1751 107.985 17.1531 107.938 17.1554C107.839 17.1612 107.744 17.1901 107.675 17.2296C107.607 17.2713 107.499 17.2829 107.34 17.291C107.176 17.2991 107.069 17.2956 106.944 17.2678C106.785 17.233 106.638 17.1994 106.38 17.211C103.114 17.3594 99.8485 17.5019 96.5826 17.6491C96.3202 17.6607 96.1997 17.612 96.0189 17.5853C95.9587 17.5772 95.8985 17.5656 95.8339 17.5633C95.7651 17.561 95.6919 17.568 95.6231 17.5714C90.2961 17.8067 84.9692 18.0431 79.6422 18.2784C79.3238 18.2923 79.3281 18.2923 78.9796 18.3989C78.9365 18.4116 78.8805 18.429 78.8203 18.4313C77.1895 18.5055 75.5545 18.5774 73.9194 18.6492C73.2094 18.6805 72.4994 18.713 71.7894 18.7431C71.5356 18.7535 71.5356 18.7535 70.9289 18.8787C70.8772 18.8891 70.8169 18.903 70.7567 18.9053C67.9168 19.0317 65.0769 19.158 62.2326 19.282C62.0089 19.2913 61.8282 19.3121 61.7249 19.3677C61.6518 19.4072 61.5571 19.4303 61.4151 19.4373C59.4272 19.5254 57.4393 19.6146 55.4471 19.7004C55.2104 19.7108 55.0684 19.7432 54.9522 19.7919C54.9135 19.8081 54.879 19.8267 54.8231 19.8383C54.7714 19.8487 54.694 19.8522 54.6295 19.8556C52.9255 19.931 51.2216 20.0086 49.5134 20.0805C49.2595 20.0909 49.1562 20.1338 49.0314 20.179C48.9884 20.194 48.9582 20.2149 48.9023 20.2253C48.8464 20.2346 48.7646 20.2346 48.6958 20.2369C47.2758 20.2995 45.8559 20.3633 44.4359 20.4258C44.1606 20.42 44.1003 20.4873 43.9669 20.5278C43.9196 20.5417 43.8852 20.5603 43.8293 20.5695C43.769 20.5788 43.6915 20.5776 43.6183 20.58C42.4824 20.6298 41.3464 20.6831 40.2062 20.7295C39.9437 20.7399 39.892 20.799 39.75 20.8396C39.7027 20.8523 39.6554 20.872 39.5995 20.8755C38.8895 20.9091 38.1796 20.9404 37.4696 20.9705C37.2329 20.9809 37.2329 20.9798 36.8155 21.0945C36.7682 21.1073 36.7122 21.1212 36.652 21.1247C35.5892 21.1733 34.5221 21.2197 33.455 21.2672C33.3173 21.273 33.2226 21.3008 33.1538 21.3402C33.0849 21.3796 32.986 21.4051 32.8483 21.4109C31.9963 21.4492 31.1443 21.4886 30.2923 21.5233C30.0556 21.5326 29.9008 21.5616 29.7975 21.6137C29.7201 21.6531 29.6254 21.6728 29.4748 21.6798C28.6228 21.7169 27.7709 21.7574 26.9146 21.7899C26.665 21.7991 26.5359 21.8385 26.4326 21.8872C26.3509 21.9266 26.2562 21.9405 26.097 21.9475C24.535 22.0147 22.9688 22.0819 21.4112 22.1561C21.1487 22.1688 21.0153 22.1283 20.8432 22.0993C20.5979 22.0587 20.3699 22.0147 20.3699 21.9243C20.3699 21.9104 20.2968 21.8942 20.2451 21.8826C19.8622 21.7957 19.8621 21.7957 19.8019 21.703C19.7675 21.6462 19.7288 21.5882 19.6986 21.5303C19.6427 21.4352 19.505 21.4109 19.1091 21.4283C18.9671 21.4341 18.8251 21.4422 18.6831 21.4468C18.4723 21.4549 18.3131 21.4167 18.2744 21.3472C18.2528 21.3089 18.2271 21.2707 18.2056 21.2324C18.4207 21.2232 18.4163 21.222 18.795 21.0818C18.9542 21.0227 18.9543 21.0227 18.6488 20.9636C18.5326 20.9415 18.4207 20.9172 18.2959 20.8963C18.24 20.8871 18.1668 20.8813 18.1066 20.8836C17.7495 20.8975 17.3966 20.9137 17.0438 20.93C16.4758 20.9555 16.4757 20.9554 15.8992 20.8372C15.8518 20.828 15.7787 20.8106 15.7873 20.8013C15.8346 20.7584 15.9508 20.7399 16.0971 20.7353C16.3122 20.7283 16.523 20.7167 16.7339 20.7074C16.8759 20.7016 17.0179 20.6947 17.1599 20.6889C17.2933 20.6449 17.431 20.602 17.5558 20.5568C17.7537 20.4873 17.7537 20.4849 17.4826 20.4363C17.3105 20.4038 17.1255 20.3748 16.949 20.3447C16.7382 20.354 16.5231 20.3644 16.3122 20.3725C16.0454 20.3829 15.9379 20.3609 15.869 20.2856C15.8088 20.2195 15.8819 20.1628 16.0885 20.1489C16.2993 20.1349 16.4973 20.1257 16.6049 20.0666C16.7082 20.0098 16.8888 19.9878 17.1126 19.9831C17.2546 19.9796 17.3966 19.9715 17.5386 19.9646C17.7236 19.9553 17.8226 19.8962 17.7839 19.8302C17.7624 19.7873 17.7193 19.7513 17.5515 19.7421C16.8071 19.7015 16.7985 19.7027 16.4284 19.6239C16.394 19.6169 16.3682 19.5961 16.3811 19.5856C16.4026 19.5682 16.45 19.5427 16.5016 19.5393C16.9965 19.5138 17.4913 19.4906 17.9861 19.4732C18.1496 19.4674 18.2701 19.4593 18.326 19.4164C18.4035 19.3573 18.3691 19.3028 18.2185 19.2623C18.1711 19.2495 18.0936 19.2333 18.042 19.2345C17.474 19.2553 16.9103 19.282 16.3424 19.3028C16.2907 19.3052 16.1961 19.2855 16.1746 19.2704C16.1316 19.2426 16.1961 19.2055 16.3467 19.1928C16.5446 19.1754 16.7468 19.1742 16.8802 19.1163C17.0653 19.034 17.2933 18.9587 17.4998 18.8799C17.5342 18.8659 17.5903 18.8393 17.5773 18.837C17.4698 18.8115 17.345 18.7918 17.2331 18.7674C17.0438 18.7269 17.0437 18.6701 17.0868 18.6156C17.1212 18.5716 17.2503 18.5542 17.4095 18.5542C17.4783 18.5542 17.5644 18.5542 17.6203 18.5438C17.7666 18.5183 17.814 18.4858 17.7408 18.4615C17.6978 18.4476 17.6204 18.4279 17.5687 18.4302C16.6479 18.4684 15.7227 18.5055 14.8062 18.553C14.5351 18.5669 14.4104 18.5229 14.2469 18.4916C14.1221 18.4673 14.0059 18.458 13.851 18.4754C13.7047 18.4916 13.5627 18.4823 13.4724 18.4441C13.3992 18.4128 13.5283 18.3862 13.8768 18.356C13.9414 18.3502 14.0145 18.3467 14.0618 18.3352C14.5609 18.21 14.5609 18.2088 14.9052 18.1926C15.2408 18.1775 15.2409 18.1764 15.4173 18.1092C15.499 18.0779 15.5893 18.0466 15.6668 18.0141C15.6969 18.0014 15.7486 17.9782 15.7314 17.9713C15.6367 17.9353 15.5076 17.9272 15.357 17.9353C15.0214 17.955 14.6256 17.9388 14.4491 18.0489C14.3803 18.0906 14.2727 18.1022 14.1178 18.1092C12.5602 18.1764 11.0025 18.2482 9.44051 18.3131C9.18664 18.3236 9.07053 18.3665 8.97157 18.414C8.88551 18.4534 8.79082 18.465 8.62731 18.4719C8.4638 18.4789 8.33465 18.4823 8.23999 18.4441C8.18405 18.4209 8.2314 18.3885 8.36049 18.356C8.54551 18.3097 8.51107 18.2517 8.45083 18.1973C8.4078 18.1613 8.27441 18.1358 8.13242 18.1381C7.92158 18.1428 7.7194 18.1555 7.54298 18.1092C7.43971 18.0825 7.3106 18.064 7.19442 18.0408C6.97067 17.9933 6.74691 17.9446 6.4328 17.9759C6.21765 17.9643 6.06705 17.9226 5.89494 17.8901C5.60664 17.8368 5.58083 17.8287 5.78737 17.7719C6.01972 17.7082 5.83897 17.6247 5.96805 17.5622C6.10575 17.4949 6.29514 17.4359 6.46295 17.3733C6.50598 17.357 6.54472 17.342 6.58775 17.3258C6.48878 17.3026 6.39844 17.2736 6.28226 17.2574C6.13166 17.2365 6.0542 17.211 6.06281 17.1392C6.03269 17.1287 6.04551 17.1554 6.07993 17.1623C6.11866 17.1693 6.21339 17.1635 6.26073 17.1554C6.38121 17.1334 6.44138 17.1044 6.41126 17.0801C6.39405 17.0673 6.31236 17.0511 6.26073 17.0511C6.16606 17.0511 6.08432 17.0766 6.0585 17.1392C5.57658 17.1867 5.07736 17.2099 4.57823 17.2284C4.52659 17.2307 4.46209 17.2075 4.40185 17.196C4.20391 17.1565 4.20389 17.1577 3.623 17.1461C3.56276 17.145 3.48105 17.1287 3.45093 17.1125C3.32614 17.0418 3.33048 16.9642 3.27024 16.8888C3.38211 16.8402 3.4939 16.7927 3.61008 16.7451C3.84243 16.6489 4.1437 16.5643 4.32442 16.4589C4.2857 16.4021 4.23406 16.3453 4.42338 16.299C4.96124 16.241 4.95697 16.241 5.10327 16.1854C5.52065 16.0278 5.93371 15.869 6.3683 15.7137C6.48448 15.6731 6.48449 15.6511 6.27795 15.6337C6.21341 15.6291 6.14447 15.6279 6.07563 15.6303C5.86048 15.6384 5.64534 15.6592 5.4345 15.6546C5.22366 15.6511 5.06875 15.6001 4.89664 15.5688C4.72022 15.5364 4.54381 15.5028 4.36739 15.4692C4.16515 15.4727 3.96296 15.5051 3.76072 15.4529C3.60582 15.4124 3.4122 15.3834 3.23578 15.3498C3.36917 15.2617 3.61878 15.1945 3.81241 15.1169C3.98882 15.0462 3.99303 15.0473 4.46635 14.9929C4.6901 14.9674 4.76756 14.8364 4.57823 14.7982C4.35017 14.7518 4.10926 14.7089 3.87691 14.6649C3.67467 14.6684 3.46818 14.6997 3.27454 14.6475C3.12394 14.6081 2.95179 14.5814 2.70223 14.5965C2.28054 14.622 1.85027 14.6348 1.42428 14.6556C1.27798 14.6626 1.11873 14.6579 1.05419 14.6185C1.01116 14.5907 1.13595 14.5525 1.27795 14.5444C1.49309 14.5328 1.6867 14.5189 1.79427 14.4609C1.89754 14.403 2.08685 14.3856 2.3106 14.3775C2.37084 14.3752 2.43973 14.3613 2.46985 14.3473C2.62476 14.2801 2.79689 14.2222 3.12821 14.2245C3.2659 14.2013 3.339 14.1723 3.29598 14.1445C3.27016 14.1295 3.17984 14.1098 3.12821 14.1121C2.77107 14.1237 2.41394 14.1353 2.06541 14.1561C1.9019 14.1654 1.77705 14.1677 1.67378 14.1329C1.60063 14.1098 1.63935 14.0785 1.77704 14.0449C1.89752 14.0159 1.93198 13.9823 1.92338 13.9429C1.90186 13.8513 1.77275 13.8247 1.35968 13.8305C1.06278 13.8351 0.989623 13.82 0.925079 13.7412C0.907868 13.7227 0.864914 13.6972 0.895035 13.6845C1.08006 13.6056 1.20055 13.5083 1.54908 13.4712C1.68677 13.4573 1.83301 13.4573 1.91907 13.4272C2.00513 13.397 2.08262 13.3623 2.17298 13.3333C2.28486 13.2985 2.36223 13.2661 2.3106 13.2441C2.22454 13.2047 2.08689 13.2012 1.92769 13.2151C1.78999 13.2267 1.6437 13.2278 1.5017 13.2348C1.24783 13.2475 1.04134 13.2174 1.01122 13.1664C0.929466 13.032 0.843383 12.8987 0.770234 12.7643C0.761628 12.7481 0.783084 12.7272 0.817507 12.7133C0.937988 12.6646 1.06712 12.6183 1.19191 12.5707C1.33821 12.5163 1.5706 12.5267 1.76853 12.5163C2.04822 12.5012 2.04813 12.5024 2.42248 12.3911C2.56877 12.3471 2.82266 12.3645 2.97326 12.3251C3.02059 12.3123 3.09374 12.2914 3.08083 12.2799C3.06362 12.2648 2.97761 12.2532 2.91306 12.2462C2.85282 12.2393 2.77969 12.2358 2.71515 12.2393C1.93202 12.2729 1.15322 12.3088 0.370095 12.3413C0.236705 12.3471 0.0904027 12.3216 0.0430709 12.2857C-0.00426087 12.252 0.00860578 12.2115 0 12.1732C0.124784 12.1257 0.266725 12.0817 0.374297 12.0307C0.456052 11.9913 0.550732 11.9739 0.714242 11.9716C0.929386 11.9681 1.14025 11.9542 1.38121 11.9438C1.82871 11.7746 2.26758 11.5973 2.7495 11.4281C2.94313 11.3597 2.89587 11.2901 2.9346 11.2171C2.97333 11.1499 3.2616 11.1604 3.45523 11.1407C3.61014 11.1244 3.6617 11.0873 3.60146 11.0618C3.56704 11.0468 3.48963 11.0294 3.42939 11.0294C3.2874 11.0294 3.1454 11.0398 3.00341 11.0456C2.86141 11.0514 2.69791 11.0479 2.58173 11.0676C2.46986 11.0862 2.39667 11.1256 2.32352 11.1592C2.24176 11.1963 2.13427 11.209 1.97076 11.2113C1.75992 11.2137 1.54909 11.2241 1.33824 11.2322C1.10589 11.187 0.864877 11.143 0.641126 11.0955C0.598097 11.0862 0.589445 11.0595 0.593748 11.0421C0.602354 10.9969 0.537828 10.9691 0.395832 10.9471C0.275351 10.9286 0.176376 10.9019 0.0645013 10.8787C0.150559 10.8474 0.245256 10.8173 0.314103 10.7837C0.464704 10.713 0.654052 10.662 0.981071 10.6643C1.11016 10.6191 1.2134 10.5635 1.38121 10.5322C1.54042 10.5021 1.81151 10.5322 1.93199 10.4638C1.99223 10.4302 2.08264 10.392 2.19882 10.3781C2.38385 10.3561 2.6248 10.3677 2.73238 10.3028C2.79692 10.2657 2.89155 10.2321 3.01633 10.2228C3.15832 10.2124 3.30459 10.21 3.40785 10.188C3.46379 10.1764 3.52404 10.1579 3.52404 10.1417C3.52404 10.1312 3.43805 10.115 3.37781 10.1081C3.32187 10.0999 3.24864 10.0942 3.1841 10.0965C2.96895 10.1034 2.75811 10.1162 2.54297 10.1231C2.48273 10.1254 2.4139 10.1173 2.34936 10.1104C2.16003 10.0918 2.17292 10.0687 2.32352 10.0269C2.47412 9.98638 2.58175 9.93422 2.70653 9.8867C2.84423 9.87859 3.01632 9.88207 3.11098 9.86005C3.27019 9.82412 3.38203 9.77197 3.51112 9.72677C3.65312 9.71982 3.79941 9.71751 3.93279 9.70476C3.98873 9.70012 4.01457 9.67463 4.0619 9.65956C4.14796 9.63059 4.22117 9.58887 4.33735 9.57496C4.52667 9.5541 4.75903 9.56221 4.8709 9.49847C4.93544 9.46139 5.03437 9.42199 5.15485 9.41967C5.49048 9.41504 5.63248 9.35128 5.80459 9.29102C5.93368 9.24582 6.20907 9.26901 6.35107 9.22381C6.44573 9.19484 6.51462 9.15891 6.60928 9.13109C6.64801 9.1195 6.72974 9.11372 6.79428 9.11024C7.14712 9.09286 7.50424 9.0801 7.85708 9.06156C7.91302 9.05808 7.96469 9.04071 8.00772 9.0268C8.09808 8.99667 8.15396 8.95494 8.26583 8.93524C8.37771 8.91554 8.53689 8.91554 8.67459 8.90975C9.11778 8.89237 9.15224 8.89699 9.35448 8.79848C9.51799 8.71852 9.91821 8.77531 10.0516 8.68723C10.129 8.63624 10.271 8.59452 10.5249 8.58873C10.882 8.58062 11.2348 8.5586 11.592 8.54353C11.9104 8.52962 11.9061 8.52962 12.2503 8.42184C12.4052 8.37317 12.6333 8.38013 12.8356 8.37085C13.0507 8.36158 13.2486 8.34768 13.3519 8.28974C13.4551 8.23295 13.6444 8.2144 13.8639 8.20628C14.0661 8.19817 14.2942 8.20397 14.4534 8.15762C14.8407 8.04636 14.8364 8.0452 15.1075 8.03361C15.5335 8.01507 15.9595 7.99652 16.3854 7.97682C16.6694 7.96407 16.9663 7.96176 17.2331 7.93626C17.4267 7.91772 17.5128 7.85282 17.6375 7.80763C17.9904 7.79024 18.3432 7.77285 18.696 7.75663C19.1909 7.73345 19.69 7.71259 20.1891 7.69057C20.4043 7.64654 20.4345 7.54919 20.7959 7.54455C21.011 7.54223 21.2219 7.52717 21.437 7.5179C21.7942 7.50167 22.147 7.48081 22.5041 7.4727C22.7752 7.4669 22.8225 7.40432 22.9645 7.36491C23.0118 7.35101 23.0549 7.33131 23.1108 7.32784C23.6702 7.29539 24.2467 7.28843 24.7932 7.24092C24.8491 7.23628 24.9008 7.21194 24.9137 7.19456C24.9223 7.18529 24.8491 7.16791 24.8018 7.1598C24.7459 7.15053 24.6727 7.14126 24.6125 7.14357C22.8354 7.22122 21.0584 7.30003 19.2813 7.37768C19.0317 7.38926 19.0317 7.3881 18.425 7.51558C18.3734 7.52601 18.3131 7.53759 18.2485 7.54107C17.9645 7.55498 17.6762 7.5631 17.3966 7.58048C17.1685 7.59439 16.9792 7.58047 16.8157 7.53875C16.6995 7.50862 16.579 7.49935 16.4327 7.50167C16.2692 7.50515 16.1617 7.5179 16.067 7.54919C15.9422 7.59207 15.8777 7.64769 15.6152 7.65928C14.4061 7.70912 13.1969 7.76474 11.9921 7.81805C11.8243 7.80183 11.7425 7.77749 11.7856 7.74852C11.8114 7.73114 11.863 7.70796 11.9147 7.70564C12.4095 7.6813 12.9086 7.66045 13.4035 7.63727C13.4723 7.63379 13.567 7.6361 13.6057 7.62451C13.795 7.57236 13.8639 7.48776 14.2211 7.48197C14.4276 7.47849 14.6384 7.46111 14.8364 7.44489C14.8923 7.44025 14.9439 7.41591 14.9568 7.39853C14.9612 7.38926 14.8923 7.37187 14.8407 7.36375C14.6513 7.33015 14.4319 7.37072 14.2426 7.34754C14.1781 7.33943 14.0876 7.32784 14.0747 7.31393C14.0661 7.30118 14.1393 7.28032 14.1909 7.26757C14.2383 7.25598 14.3028 7.24555 14.3673 7.24208C14.9353 7.21542 15.5034 7.18761 16.0713 7.16675C16.3037 7.15863 16.4672 7.12966 16.5704 7.07635C16.6479 7.03694 16.7425 7.01609 16.8888 7.0103C17.8828 6.96742 18.8768 6.9199 19.875 6.8805C20.1246 6.87123 20.2537 6.83299 20.357 6.78315C20.4387 6.74375 20.5334 6.72984 20.6926 6.72289C22.1169 6.66263 23.5325 6.59541 24.9568 6.53747C25.2192 6.52704 25.2967 6.4772 25.4301 6.43432C25.4774 6.41926 25.5075 6.40071 25.5677 6.39144C25.628 6.38217 25.7054 6.38332 25.7786 6.381C26.9145 6.33117 28.0506 6.27787 29.1908 6.23151C29.4576 6.22108 29.5092 6.16313 29.6469 6.12257C29.6942 6.10982 29.7373 6.08896 29.7932 6.08549C30.6452 6.04609 31.4971 6.009 32.3491 5.97076C32.9171 5.94526 33.485 5.91976 34.053 5.89543C34.3327 5.88384 34.3327 5.88267 34.7114 5.77257C34.7544 5.75983 34.8147 5.74476 34.8706 5.74128C36.5057 5.66711 38.1365 5.59643 39.7716 5.52342C39.9093 5.51763 40.0082 5.49096 40.0771 5.45155C40.1459 5.41215 40.245 5.3855 40.3784 5.3797C41.6563 5.32176 42.9342 5.26497 44.2165 5.21051C44.4489 5.20123 44.6123 5.17342 44.7156 5.12127C44.793 5.08186 44.8877 5.06101 45.034 5.05522C46.312 4.99959 47.59 4.94048 48.8722 4.88717C49.1175 4.87674 49.2379 4.83734 49.3584 4.79098C49.4015 4.77476 49.4359 4.7481 49.4875 4.74578C50.1244 4.71333 50.7569 4.67972 51.398 4.6577C51.6648 4.64843 51.7552 4.59976 51.8627 4.5534C51.9488 4.51631 52.0478 4.50357 52.2113 4.49893C52.5684 4.4885 52.9213 4.46881 53.2698 4.44911C53.3214 4.44563 53.386 4.42013 53.3903 4.40391C53.3989 4.37378 53.2999 4.35291 53.1364 4.34248C51.4324 4.41781 49.7242 4.49314 48.0203 4.56847C47.7406 4.58121 47.7406 4.58122 47.3619 4.69132C47.3189 4.70406 47.2586 4.71913 47.1984 4.72261C45.5633 4.79562 43.9325 4.86747 42.2974 4.94049C42.1597 4.94628 42.0608 4.97293 41.9919 5.01234C41.9231 5.05174 41.824 5.07839 41.6907 5.08419C40.1287 5.15372 38.5668 5.22442 37.0005 5.29048C36.7682 5.29975 36.6047 5.32639 36.5014 5.3797C36.424 5.41911 36.3293 5.43997 36.183 5.44577C34.6899 5.51067 33.2011 5.57904 31.7037 5.64162C31.5531 5.64741 31.4412 5.6138 31.4499 5.58251C31.4542 5.56629 31.5186 5.53964 31.5702 5.53733C32.3491 5.49908 33.1237 5.45967 33.9068 5.4307C34.1693 5.42143 34.2467 5.37044 34.38 5.32756C34.4231 5.31249 34.4575 5.29279 34.5135 5.28468C34.5737 5.27541 34.6511 5.27657 34.7243 5.27425C36.5702 5.19197 38.4162 5.10853 40.2665 5.03088C40.5333 5.01929 40.5848 4.9625 40.7225 4.92194C40.7698 4.90803 40.8129 4.88718 40.8688 4.88486C41.4368 4.85705 42.0048 4.83271 42.5728 4.80837C43.5667 4.76433 44.5607 4.72029 45.5589 4.67625C45.8472 4.6635 45.8472 4.6635 46.2173 4.55456C46.2603 4.54181 46.3206 4.5256 46.3766 4.52328C49.0056 4.40623 51.6347 4.28918 54.2638 4.17329C54.4015 4.16749 54.5004 4.14084 54.5693 4.10144C54.6381 4.06319 54.7371 4.03538 54.8705 4.02842C58.4246 3.87081 61.9745 3.71319 65.5287 3.5579C65.7611 3.54747 65.9245 3.52313 66.0278 3.46866C66.101 3.42926 66.1999 3.4084 66.3462 3.40145C70.2533 3.22877 74.1603 3.0561 78.0716 2.88226C80.7007 2.76637 83.3298 2.64816 85.9588 2.53459C86.1998 2.52416 86.3288 2.48822 86.4493 2.44071C86.488 2.42448 86.5268 2.39783 86.5784 2.39551C87.1421 2.36654 87.7057 2.33989 88.2694 2.31323C88.4458 2.34452 88.6223 2.37466 88.7987 2.40595C88.9321 2.36191 89.0612 2.31671 89.1946 2.27267C90.0466 2.23906 90.8856 2.18691 91.7462 2.17069C91.8021 2.16953 91.8623 2.19155 91.9226 2.20314C92.3227 2.27615 92.5508 2.27036 92.8047 2.17301C92.8951 2.13824 92.9725 2.10695 93.1102 2.10116C93.5362 2.0803 93.9665 2.06639 94.3882 2.04205C94.6163 2.0293 94.8055 2.04089 94.9691 2.08261C95.0852 2.11274 95.2058 2.1255 95.3478 2.11854C96.1309 2.08378 96.9097 2.05016 97.6928 2.01308C97.7488 2.01076 97.8003 1.99105 97.8434 1.97715C97.9337 1.94701 98.0112 1.91457 98.0973 1.88328C98.2134 1.90298 98.3425 1.91805 98.4372 1.94355C98.5577 1.97368 98.6695 1.97367 98.833 1.96556C101.957 1.82533 105.085 1.68858 108.209 1.54719C108.476 1.53561 108.592 1.58428 108.773 1.60978C108.833 1.61905 108.893 1.63064 108.958 1.63295C109.027 1.63527 109.1 1.62832 109.169 1.62485C111.514 1.52055 113.859 1.41739 116.204 1.31309C116.514 1.29919 116.514 1.29919 116.974 1.37104C117.03 1.38031 117.103 1.39074 117.163 1.38726C118.231 1.34207 119.298 1.2934 120.36 1.24704C120.498 1.24125 120.614 1.25979 120.739 1.28644C120.984 1.33859 121.002 1.3386 121.182 1.26211C121.268 1.22618 121.359 1.20415 121.501 1.19372C121.656 1.18213 121.78 1.18562 121.901 1.20648C122.073 1.23546 122.198 1.28412 122.46 1.27137C123.596 1.21691 124.736 1.17171 125.868 1.11608C126.126 1.10334 126.264 1.14274 126.436 1.17171C126.496 1.18214 126.552 1.19837 126.617 1.20184C126.681 1.20532 126.759 1.1972 126.828 1.19372C128.248 1.13114 129.672 1.06973 131.087 1.00251C131.354 0.989765 131.47 1.03959 131.651 1.06508C131.711 1.07436 131.78 1.09059 131.836 1.08827C132.688 1.05235 133.545 1.01409 134.396 0.975846C134.702 0.961939 134.702 0.963098 135.167 1.03379C135.223 1.04306 135.296 1.05234 135.356 1.05002C136.35 1.00714 137.348 0.963099 138.342 0.919061C138.648 0.905154 138.648 0.905157 139.53 0.96542C139.594 0.970056 139.663 0.977018 139.728 0.9747C140.864 0.924867 142.004 0.876186 143.14 0.822876C143.368 0.812446 143.557 0.821715 143.721 0.863435C143.837 0.893567 143.957 0.906322 144.099 0.899368C145.377 0.842582 146.66 0.788115 147.933 0.727852C148.179 0.716263 148.338 0.741749 148.51 0.775357C148.566 0.786946 148.622 0.803174 148.686 0.80781C148.751 0.812446 148.824 0.807807 148.893 0.80433C150.171 0.747543 151.453 0.694236 152.727 0.632814C152.985 0.620066 153.123 0.659466 153.295 0.688439C153.355 0.698869 153.419 0.719731 153.471 0.718572C153.97 0.69887 154.469 0.681493 154.964 0.65252C155.231 0.636295 155.347 0.689596 155.528 0.715092C155.588 0.723204 155.657 0.740596 155.713 0.738278C156.78 0.693081 157.847 0.645569 158.91 0.596895C159.061 0.589941 159.172 0.600362 159.293 0.630493C159.452 0.671055 159.637 0.687281 159.87 0.674533C160.364 0.647878 160.864 0.62934 161.363 0.607321C161.655 0.594573 161.655 0.594577 162.55 0.65484C162.615 0.659476 162.684 0.666424 162.748 0.664106C163.6 0.627021 164.456 0.591097 165.304 0.550536C165.532 0.538946 165.721 0.549374 165.885 0.591094C166.001 0.621226 166.117 0.633981 166.264 0.627028C167.047 0.59226 167.826 0.55749 168.609 0.522723C168.893 0.509975 169.177 0.48795 169.461 0.48795C169.667 0.489109 169.818 0.544734 170.003 0.572548C170.055 0.58066 170.141 0.5714 170.209 0.569082C171.203 0.525043 172.202 0.484478 173.191 0.434645C173.449 0.421897 173.587 0.461297 173.759 0.49027C173.82 0.5007 173.884 0.521562 173.936 0.520403C174.293 0.507655 174.646 0.490269 175.003 0.475204C175.429 0.456661 175.859 0.442754 176.281 0.417258C176.625 0.396398 176.754 0.497219 177.029 0.500696C177.24 0.504173 177.455 0.484475 177.666 0.475204C178.092 0.456661 178.518 0.435803 178.944 0.419578C179.095 0.413784 179.211 0.395233 179.258 0.353512C179.267 0.3454 179.194 0.328024 179.147 0.317594C178.574 0.199385 178.574 0.199379 177.998 0.224875C177.64 0.2411 177.288 0.257327 176.93 0.271234C176.87 0.273552 176.801 0.264281 176.741 0.257328C176.569 0.237627 176.586 0.214451 176.733 0.17273C176.879 0.131009 176.991 0.0800216 177.115 0.0325063C177.292 0.062638 177.464 0.0927589 177.641 0.122891C177.783 0.117096 177.925 0.110153 178.067 0.104358C178.776 0.0742265 179.486 0.0429337 180.196 0.0151199C180.248 0.012802 180.313 0.0359836 180.373 0.0475727C180.545 0.0811811 180.7 0.110146 180.949 0.0973979C181.586 0.0637895 182.227 0.0394524 182.864 0.0104797C183.144 -0.00226831 183.144 -0.00226718 183.634 0.0695852C183.69 0.0776976 183.763 0.0869694 183.824 0.0846516C184.465 0.0579967 185.102 0.0290273 185.743 0.00121351C185.88 -0.00458104 186.014 0.0104842 186.113 0.0440926C186.152 0.0579995 186.143 0.0811732 186.307 0.271234C186.814 0.425369 187.163 0.409152 187.516 0.395246C187.666 0.389451 187.8 0.383651 187.899 0.360473C187.95 0.347725 188.015 0.329179 188.015 0.314113C188.015 0.302524 187.92 0.283978 187.86 0.281661C187.434 0.258482 187.029 0.307163 186.612 0.317594C186.418 0.322229 186.251 0.281667 186.216 0.215609C186.208 0.197066 186.195 0.177366 186.182 0.158824C186.169 0.140281 186.16 0.120581 186.147 0.102038C185.98 0.0962435 185.881 0.1171 185.807 0.156503C185.747 0.188953 185.661 0.226038 185.545 0.243422C185.429 0.261964 185.27 0.258494 185.128 0.264288C184.99 0.270083 184.839 0.285147 184.71 0.277035C184.581 0.267763 184.478 0.234149 184.357 0.213289C184.301 0.202859 184.233 0.187799 184.177 0.190116C183.682 0.209818 183.191 0.229512 182.701 0.255008C182.443 0.268915 182.313 0.220248 182.15 0.190116C182.021 0.166938 181.892 0.172725 181.87 0.226035C181.814 0.353515 182.012 0.406822 182.451 0.382485C182.813 0.361625 183.14 0.358159 183.424 0.436965C183.462 0.447395 183.553 0.452029 183.609 0.449711C183.961 0.435804 184.31 0.418419 184.663 0.404512C184.727 0.402194 184.796 0.406822 184.856 0.411458C185.734 0.474039 185.734 0.475204 186.031 0.461297C186.173 0.454344 186.311 0.448549 186.298 0.272394C186.569 0.0834921 186.999 0.0707464 187.417 0.0429326C187.688 0.0255489 187.804 0.0765432 187.98 0.103198C188.041 0.112469 188.105 0.131009 188.161 0.128691C189.086 0.0904467 190.007 0.0498792 190.928 0.00699957C191.083 4.61128e-05 191.195 0.0070007 191.315 0.0371323C191.47 0.0753764 191.642 0.0997186 191.887 0.0858116C192.378 0.0579978 192.877 0.0406181 193.376 0.0174399C193.63 0.00585085 193.63 0.00583897 194.142 0.0776914C194.198 0.0858037 194.271 0.0950756 194.331 0.0927577C194.83 0.0730563 195.325 0.0487265 195.82 0.0278662C195.958 0.0220716 196.083 0.0382947 196.19 0.0695852C196.298 0.100876 196.427 0.117099 196.56 0.111304C197.059 0.0904439 197.554 0.0672731 198.049 0.0464127C198.109 0.0440949 198.182 0.0522067 198.238 0.060319C198.763 0.132171 198.763 0.13216 199.004 0.12057C199.357 0.103187 199.719 0.0950835 200.067 0.0719053C200.407 0.0487271 200.583 0.115938 200.816 0.153023C201.453 0.126368 202.094 0.104355 202.726 0.0719053C202.984 0.0579984 203.122 0.096239 203.294 0.126371C203.355 0.136801 203.415 0.158822 203.471 0.157663C203.686 0.153028 203.897 0.140282 204.108 0.131011C204.318 0.12174 204.534 0.112469 204.744 0.103198C204.985 0.136806 205.145 0.215611 205.489 0.188956C205.695 0.172732 205.915 0.169255 206.126 0.159984C206.336 0.150712 206.552 0.141442 206.762 0.132171C206.904 0.126376 207.051 0.122894 207.188 0.112464C207.442 0.0950807 207.567 0.151874 207.748 0.17737C207.808 0.185482 207.877 0.19938 207.933 0.197062C208.359 0.180838 208.789 0.166932 209.206 0.140277C209.529 0.119417 209.749 0.154188 209.977 0.202863C210.024 0.213293 210.106 0.219087 210.166 0.216769C210.665 0.197068 211.16 0.172724 211.655 0.151863C211.788 0.146069 211.917 0.164611 212.025 0.194742C212.137 0.226033 212.261 0.24111 212.399 0.235315C212.894 0.214455 213.393 0.19127 213.888 0.17041C213.948 0.168092 214.021 0.177365 214.077 0.186636C214.559 0.258489 214.559 0.259649 214.843 0.245742C214.912 0.242265 214.985 0.239938 215.054 0.236461C215.407 0.220237 215.773 0.21445 216.117 0.186636C216.513 0.155346 216.801 0.19475 217.081 0.260808C217.434 0.246901 217.795 0.238787 218.139 0.215609C218.397 0.198225 218.535 0.242262 218.707 0.271234C218.768 0.281665 218.832 0.302525 218.884 0.300207C219.383 0.280506 219.882 0.263128 220.372 0.234155C220.639 0.217931 220.755 0.270072 220.936 0.296727C220.996 0.305998 221.061 0.322231 221.117 0.319914C221.401 0.310642 221.685 0.296729 221.969 0.283981C222.3 0.268915 222.3 0.270073 222.739 0.340766C222.946 0.374374 223.152 0.347718 223.354 0.339606C223.57 0.330335 223.772 0.323384 223.944 0.370899C224.051 0.40103 224.181 0.419574 224.314 0.414938C224.598 0.404508 224.886 0.394083 225.166 0.376699C225.39 0.362792 225.583 0.372058 225.747 0.414938C225.863 0.44507 225.983 0.460144 226.125 0.453191C226.762 0.425377 227.403 0.396394 228.04 0.369739C228.096 0.367421 228.174 0.377855 228.225 0.388285C228.346 0.409146 228.462 0.432319 228.578 0.455497C228.858 0.445067 229.146 0.440443 229.421 0.424218C229.714 0.407994 229.981 0.402197 230.209 0.465937C230.256 0.479844 230.325 0.499535 230.381 0.498376C230.596 0.49374 230.807 0.482155 231.018 0.472883C231.229 0.463612 231.444 0.454342 231.655 0.445071C231.9 0.474043 232.055 0.557484 232.399 0.530829C232.606 0.514604 232.825 0.511127 233.036 0.501856C233.247 0.492585 233.462 0.482156 233.673 0.474044C233.742 0.471726 233.819 0.465928 233.879 0.470563C233.944 0.475199 234 0.491427 234.056 0.503016C234.228 0.536625 234.387 0.570237 234.632 0.550536C234.839 0.534311 235.058 0.530833 235.269 0.520403C235.557 0.507655 235.557 0.507657 236.035 0.580668C236.229 0.6108 236.448 0.571399 236.633 0.596895C236.758 0.614278 236.865 0.643245 236.986 0.662946C237.038 0.671059 237.119 0.67453 237.18 0.672213C237.464 0.661782 237.752 0.651357 238.032 0.633974C238.26 0.620067 238.449 0.633972 238.608 0.675693C238.724 0.705824 238.84 0.718579 238.987 0.711626C239.697 0.679176 240.407 0.651353 241.112 0.615427C241.353 0.602679 241.547 0.622386 241.68 0.664106C241.908 0.735959 242.231 0.65136 242.468 0.709306C242.614 0.745232 242.76 0.786955 243.027 0.769571C243.518 0.739439 244.017 0.723206 244.512 0.702345C244.688 0.733636 244.865 0.764933 245.045 0.796224C245.329 0.783476 245.613 0.77072 245.897 0.759131C246.108 0.749859 246.323 0.73943 246.534 0.731318C246.603 0.729 246.676 0.724363 246.741 0.730158C246.805 0.735953 246.857 0.751022 246.917 0.762611C247.214 0.819397 247.214 0.820562 247.704 0.797384C247.915 0.786954 248.118 0.78 248.294 0.826357C248.457 0.869236 248.651 0.877343 248.875 0.864595C249.296 0.841417 249.723 0.824035 250.153 0.80781C250.286 0.802015 250.411 0.821718 250.523 0.851849C250.691 0.899364 250.897 0.89473 251.108 0.881982C251.388 0.865757 251.663 0.849536 251.9 0.914435C251.947 0.928342 252.02 0.948032 252.072 0.946873C252.425 0.937602 252.782 0.930654 253.126 0.908635C253.47 0.886615 253.638 0.958465 253.875 0.993233C254.228 0.978167 254.585 0.963099 254.938 0.948034C255.006 0.944557 255.088 0.934133 255.148 0.939927C255.402 0.964265 255.549 1.05118 255.897 1.02453C256.099 1.00946 256.319 1.00483 256.53 1.00135C256.586 1.00019 256.659 1.01989 256.698 1.03495C256.719 1.04306 256.697 1.06508 256.672 1.07667C256.594 1.10912 256.5 1.13926 256.431 1.17287C256.422 1.17751 256.504 1.19836 256.551 1.20763C256.667 1.22849 256.801 1.22502 256.956 1.21575C257.089 1.20764 257.227 1.22386 257.321 1.25863C257.36 1.27253 257.347 1.29571 257.265 1.3722C257.265 1.42898 257.356 1.40348 257.386 1.3664C257.433 1.31309 257.343 1.29571 257.171 1.32468C257.05 1.34554 256.99 1.37567 257.02 1.40001C257.037 1.41276 257.119 1.42898 257.265 1.3722C257.644 1.30266 257.928 1.28992 258.212 1.27717C258.285 1.2737 258.371 1.2621 258.423 1.26905C258.608 1.29687 258.78 1.33048 258.961 1.36177C259.167 1.35482 259.361 1.33743 259.563 1.38262C259.847 1.44636 259.86 1.44057 260.135 1.42782C260.277 1.42087 260.419 1.41509 260.561 1.40929C260.703 1.4035 260.815 1.42088 260.94 1.44753C261.194 1.502 261.215 1.50199 261.383 1.42782C261.482 1.38263 261.551 1.36756 261.676 1.38842C262.089 1.45912 262.093 1.46375 262.446 1.44289C262.739 1.42551 263.014 1.42087 263.229 1.48693C263.376 1.53329 263.423 1.52286 263.539 1.47418C263.849 1.34554 263.991 1.34786 264.572 1.44057C264.843 1.48461 265.123 1.4371 265.398 1.4313C265.63 1.42667 265.794 1.45448 265.811 1.52749C265.824 1.57269 265.863 1.60514 266.018 1.62021C266.078 1.626 266.151 1.63411 266.211 1.63179C266.568 1.61789 266.921 1.60166 267.278 1.58543C267.459 1.57732 267.558 1.52286 267.524 1.45101C267.485 1.37452 267.554 1.3467 267.812 1.32468C267.967 1.31193 268.092 1.31426 268.216 1.33512C268.354 1.3583 268.315 1.37916 268.195 1.42088C267.907 1.52286 267.941 1.58543 268.311 1.65613C268.44 1.68046 268.543 1.70249 268.573 1.73842C268.591 1.75696 268.573 1.7813 268.612 1.7952C268.823 1.87285 269.116 1.92269 269.443 1.95977C269.757 1.92848 269.972 1.98062 270.213 2.02234C270.402 2.05479 270.626 2.02699 270.828 2.0154C271.056 2.00265 271.246 2.01192 271.409 2.0548C271.525 2.08493 271.646 2.09883 271.788 2.09304C272.072 2.08029 272.36 2.07218 272.64 2.05364C272.881 2.03741 273.061 2.06059 273.212 2.1C273.401 2.14983 273.612 2.11622 273.81 2.12317C274.077 2.13128 274.21 2.23442 274.559 2.20661C274.765 2.19038 274.98 2.18459 275.196 2.17996C275.252 2.1788 275.32 2.1985 275.368 2.21241C275.596 2.27615 275.863 2.27267 276.155 2.25413C276.357 2.24138 276.555 2.22979 276.753 2.27383C277.08 2.348 277.442 2.41291 277.786 2.48128C277.833 2.53459 277.799 2.59716 278.044 2.62845C278.173 2.64468 278.294 2.66902 278.393 2.69568C278.513 2.72697 278.625 2.73508 278.78 2.72697C279.06 2.71075 279.352 2.70726 279.628 2.6864C279.882 2.66786 280.041 2.70611 280.196 2.74204C280.32 2.77101 280.437 2.78491 280.587 2.76405C280.742 2.74435 280.854 2.75709 280.979 2.78838C281.155 2.83126 281.168 2.82663 281.753 2.83938C281.813 2.84054 281.887 2.85791 281.921 2.87298C281.938 2.88109 281.9 2.90428 281.869 2.91587C281.831 2.92978 281.77 2.946 281.714 2.94947C281.078 2.9796 280.437 3.00626 279.8 3.03639C279.735 3.03987 279.666 3.04799 279.619 3.05958C279.567 3.07233 279.503 3.0897 279.503 3.10592C279.503 3.11751 279.589 3.13142 279.649 3.13954C279.838 3.16619 280.062 3.12563 280.247 3.15576C280.372 3.17546 280.475 3.20327 280.6 3.22181C280.652 3.22993 280.733 3.22877 280.798 3.22645C281.013 3.21834 281.224 3.20675 281.439 3.1998C281.499 3.19864 281.568 3.21024 281.624 3.21951C282.037 3.28904 282.037 3.28904 282.394 3.27397C282.536 3.26818 282.687 3.25079 282.82 3.25775C282.949 3.2647 283.061 3.29599 283.177 3.31569C283.418 3.35741 283.646 3.39797 283.664 3.48837C283.672 3.52314 283.814 3.55326 283.956 3.55558C284.094 3.5579 284.24 3.54516 284.382 3.53821C284.718 3.5243 284.718 3.5243 285.152 3.59499C285.273 3.61469 285.402 3.61701 285.557 3.60542C285.617 3.60078 285.69 3.60542 285.755 3.61122C285.966 3.6286 285.966 3.65062 285.828 3.69234C285.634 3.75376 285.652 3.75956 286.194 3.81171C286.4 3.83141 286.559 3.8685 286.732 3.90095C287.011 3.9531 287.007 3.95309 286.822 4.02146C286.779 4.03653 286.74 4.05276 286.697 4.06898C286.572 4.11418 286.473 4.16285 286.215 4.16749C285.931 4.17212 285.647 4.19067 285.363 4.20342C285.088 4.21617 285.015 4.24397 285.041 4.32278C285.071 4.41781 285.127 4.42824 285.622 4.42708C285.764 4.42708 285.888 4.43635 285.996 4.46764C285.944 4.50473 285.85 4.5337 285.712 4.54065C285.359 4.55804 285.002 4.57311 284.649 4.58817C284.365 4.60092 284.081 4.61366 283.797 4.62641C283.621 4.63452 283.509 4.69479 283.556 4.76201C283.582 4.80025 283.603 4.8385 283.625 4.87674C283.672 4.95323 283.763 4.97293 284.051 4.96946C284.124 4.9683 284.193 4.95902 284.262 4.96134C284.541 4.96945 284.675 5.06564 285.01 5.04594C285.29 5.02971 285.583 5.02624 285.858 5.00538C286.112 4.98683 286.254 5.02857 286.43 5.05986C286.491 5.07029 286.555 5.09229 286.607 5.09114C286.964 5.07839 287.321 5.06565 287.67 5.04363C287.833 5.03436 287.932 5.04131 288.061 5.06912C288.371 5.13634 288.38 5.13286 288.84 5.112C289.176 5.09578 289.18 5.09809 289.61 5.16879C289.731 5.18849 289.86 5.18848 290.015 5.17921C290.217 5.16762 290.428 5.14908 290.639 5.16647C290.703 5.1711 290.785 5.18501 290.807 5.20008C290.819 5.21051 290.759 5.23601 290.708 5.24412C290.329 5.30438 289.886 5.29395 289.473 5.31829C289.344 5.32524 289.214 5.30322 289.107 5.27193C288.995 5.24064 288.874 5.2279 288.728 5.23369C288.444 5.24644 288.156 5.25455 287.876 5.27309C287.635 5.28932 287.467 5.26266 287.3 5.22673C287.244 5.21514 287.179 5.19312 287.123 5.19428C286.486 5.21746 285.845 5.24064 285.213 5.27309C284.959 5.287 284.813 5.24992 284.64 5.21863C284.58 5.2082 284.52 5.18617 284.464 5.18733C284.249 5.19197 284.038 5.20471 283.823 5.21399C283.04 5.24875 282.261 5.28352 281.478 5.31597C281.426 5.31829 281.362 5.29395 281.301 5.28352C281.185 5.26266 281.065 5.24295 280.944 5.22325C280.729 5.23252 280.518 5.24411 280.303 5.25107C280.148 5.2557 280.01 5.27193 279.989 5.31597C279.976 5.34494 280.118 5.37159 280.269 5.36928C280.415 5.36696 280.561 5.35305 280.682 5.36812C281.28 5.44229 281.28 5.44345 281.654 5.42838C281.981 5.41447 281.947 5.40288 282.235 5.46662C282.36 5.49443 282.472 5.51067 282.614 5.50371C282.967 5.48749 283.324 5.47126 283.681 5.45735C283.737 5.45504 283.81 5.46663 283.866 5.4759C284.288 5.54544 284.288 5.54775 284.636 5.53037C285.092 5.50951 285.109 5.50371 285.415 5.57441C285.626 5.62308 285.819 5.58947 286.022 5.58715C286.254 5.63235 286.508 5.67292 286.719 5.72391C286.968 5.78417 287.231 5.77373 287.515 5.75635C287.726 5.7436 287.932 5.73897 288.104 5.78648C288.268 5.83052 288.466 5.83516 288.689 5.82357C288.892 5.81314 289.098 5.79112 289.309 5.81661C289.365 5.82357 289.451 5.84096 289.447 5.85139C289.442 5.86761 289.386 5.89079 289.331 5.89775C288.935 5.94526 288.5 5.9441 288.083 5.96612C288.027 5.96959 287.954 5.95684 287.898 5.94757C287.777 5.92671 287.661 5.90238 287.545 5.88036C287.334 5.88731 287.119 5.88962 286.912 5.90353C286.753 5.91396 286.633 5.91281 286.516 5.885C286.409 5.8595 286.293 5.82821 286.164 5.82009C286.035 5.81198 285.884 5.82937 285.742 5.83632C285.6 5.84327 285.437 5.83979 285.325 5.85833C285.213 5.87687 285.144 5.91744 285.071 5.94989C284.989 5.98582 284.877 5.99741 284.714 6.00089C284.563 6.00437 284.443 5.99973 284.331 5.96728C284.283 5.95337 284.219 5.94294 284.154 5.93366C284.094 5.92555 284.025 5.9128 283.969 5.91512C283.328 5.94177 282.691 5.97076 282.05 5.99857C281.732 6.01248 281.736 6.01247 281.073 5.94409C281.013 5.9383 280.94 5.93019 280.88 5.9325C280.523 5.94641 280.17 5.96264 279.813 5.97886C279.451 5.99509 279.455 5.99277 278.84 5.91976C278.728 5.90585 278.565 5.9244 278.431 5.92208C278.152 5.91628 278.014 5.81894 277.687 5.83748C277.407 5.8537 277.115 5.85718 276.835 5.87804C276.581 5.89658 276.435 5.85602 276.263 5.82473C276.202 5.8143 276.138 5.79112 276.086 5.79344C275.445 5.81894 274.808 5.84791 273.956 5.85139C273.745 5.85139 273.84 5.87573 273.978 5.88384C274.176 5.89659 274.24 5.87225 274.133 5.82589C274.055 5.79344 273.943 5.77721 273.853 5.78532C273.806 5.78996 273.745 5.81198 273.956 5.85139C274.18 5.89542 274.167 5.91976 274.206 5.93366C274.301 5.96727 274.434 5.98118 274.572 5.97654C274.787 5.96843 274.998 5.95684 275.213 5.94989C275.273 5.94757 275.346 5.95569 275.402 5.96496C275.875 6.03681 275.88 6.04145 276.383 6.01364C276.542 6.00552 276.659 6.00552 276.783 6.02754C276.955 6.05767 277.08 6.10866 277.343 6.09243C277.691 6.07042 278.048 6.05768 278.406 6.04493C278.461 6.04261 278.522 6.06347 278.586 6.07274C278.763 6.10056 278.892 6.15271 279.154 6.13069C279.357 6.1133 279.576 6.10866 279.791 6.10518C279.847 6.10402 279.933 6.12257 279.959 6.13763C280.01 6.16429 279.946 6.19559 279.8 6.21761C279.739 6.22688 279.658 6.22456 279.589 6.22803C279.305 6.24078 279.021 6.25468 278.737 6.26511C278.586 6.27091 278.444 6.2883 278.427 6.33118C278.414 6.36015 278.569 6.38564 278.715 6.38332C278.931 6.37985 279.146 6.37057 279.352 6.35551C279.718 6.33001 280.036 6.33696 280.333 6.40997C280.544 6.46097 280.531 6.44243 280.755 6.59309C280.811 6.63134 280.979 6.63481 281.125 6.63249C281.478 6.6267 281.641 6.64408 281.611 6.68001C281.572 6.72405 281.448 6.73795 281.288 6.74374C281.004 6.75301 280.72 6.76809 280.437 6.78083C280.368 6.78431 280.29 6.79126 280.226 6.78894C280.161 6.78662 280.101 6.77272 280.045 6.76229C279.924 6.74027 279.821 6.70665 279.692 6.69854C279.563 6.69043 279.412 6.70781 279.27 6.71477C279.128 6.72056 278.978 6.73795 278.849 6.72983C278.72 6.72172 278.612 6.68696 278.496 6.6661C278.44 6.65567 278.371 6.63944 278.315 6.6406C278.031 6.64987 277.747 6.66494 277.463 6.67653C277.115 6.6916 277.115 6.6916 276.693 6.61974C276.573 6.59888 276.448 6.60005 276.289 6.60932C275.944 6.62786 275.94 6.62437 275.312 6.55716C275.252 6.5502 275.178 6.5421 275.118 6.54557C274.477 6.57223 273.84 6.6012 273.203 6.62901C272.657 6.65335 272.657 6.65336 272.356 6.76925C272.132 6.85501 272.128 6.855 272.347 6.8944C272.523 6.92685 272.683 6.97437 272.876 6.99175C273.057 7.00797 273.281 6.95583 273.479 7.00914C273.578 7.03579 273.707 7.06477 273.832 7.0694C274.029 7.0752 274.24 7.04158 274.43 7.09257C274.524 7.11807 274.666 7.14473 274.787 7.14589C274.998 7.14821 275.213 7.12966 275.424 7.12155C275.488 7.11923 275.561 7.11923 275.622 7.12503C275.686 7.13198 275.742 7.14589 275.798 7.15748C275.97 7.19688 276.155 7.21542 276.379 7.19572C276.745 7.16327 277.072 7.17949 277.356 7.25366C277.394 7.26409 277.489 7.26526 277.549 7.26062C277.704 7.24904 277.838 7.24787 277.954 7.26989C278.001 7.27916 278.07 7.29538 278.061 7.30581C278.048 7.32319 277.997 7.34637 277.941 7.35217C277.536 7.39157 277.102 7.39621 276.684 7.41707C276.628 7.41939 276.56 7.40432 276.504 7.39389C276.383 7.37303 276.28 7.33827 276.151 7.33016C276.022 7.32204 275.871 7.33711 275.729 7.3429C275.587 7.3487 275.437 7.36608 275.307 7.35913C275.178 7.35102 275.058 7.32204 274.955 7.29654C274.834 7.26757 274.718 7.2641 274.559 7.27569C274.352 7.29076 274.137 7.29307 273.926 7.30118C273.81 7.27916 273.694 7.25482 273.573 7.23396C273.517 7.22353 273.449 7.21079 273.388 7.21195C273.104 7.22122 272.82 7.23512 272.536 7.24786C272.252 7.26061 272.252 7.26062 271.771 7.18877C271.715 7.18066 271.641 7.17139 271.581 7.17371C271.224 7.18761 270.871 7.20498 270.514 7.21889C270.376 7.22469 270.252 7.20846 270.14 7.17717C270.032 7.14588 269.903 7.1285 269.77 7.13429C269.202 7.15863 268.634 7.18181 268.066 7.21078C267.838 7.22237 267.644 7.21195 267.489 7.17023C267.308 7.12271 267.106 7.1343 266.895 7.14357C266.418 7.16675 266.413 7.16558 266.108 7.10648C266.048 7.09489 265.987 7.07287 265.931 7.07403C265.437 7.09141 264.938 7.10764 264.447 7.13545C264.189 7.15052 264.051 7.10996 263.879 7.07983C263.819 7.0694 263.754 7.04738 263.703 7.0497C263.345 7.06244 262.988 7.07404 262.64 7.09721C262.291 7.12039 262.158 7.01262 261.895 7.01378C261.538 7.01494 261.185 7.04159 260.833 7.05782C260.549 7.07056 260.265 7.08331 259.981 7.09605C259.697 7.1088 259.413 7.11923 259.129 7.13429C258.978 7.14241 258.866 7.13197 258.741 7.103C258.582 7.06476 258.393 7.03464 258.221 6.99987C257.958 6.95004 257.958 6.95003 257.64 6.96394C257.571 6.96741 257.498 6.96973 257.429 6.9732C256.908 6.9987 256.908 6.99639 256.246 6.92338C256.216 6.9199 256.138 6.93265 256.108 6.94192C256.018 6.97206 255.936 7.0045 255.854 7.03579C255.738 7.01725 255.596 7.00682 255.519 6.98016C255.299 6.90483 254.955 7.00797 254.731 6.9338C254.649 6.90599 254.507 6.88165 254.378 6.8747C254.245 6.86774 254.094 6.88397 253.957 6.89092C253.599 6.90831 253.599 6.90715 253.294 7.0103C253.139 7.06129 252.915 7.05201 252.713 7.0636C252.502 7.07635 252.3 7.0833 252.123 7.03579C251.964 6.99291 251.771 6.98248 251.543 6.99639C251.263 7.01377 250.975 7.0242 250.691 7.03463C250.63 7.03695 250.557 7.03116 250.497 7.0242C249.839 6.95583 249.839 6.95467 249.52 6.96974C249.378 6.97669 249.232 6.979 249.094 6.98943C248.862 7.00797 248.686 6.98364 248.518 6.94655C248.462 6.93496 248.397 6.91295 248.341 6.91411C248.057 6.91991 247.778 6.93033 247.498 6.94076C247.283 6.94888 247.068 6.95351 246.861 6.96974C246.517 6.99639 246.349 6.92105 246.112 6.88628C245.76 6.90135 245.402 6.91178 245.05 6.93264C244.886 6.94192 244.779 6.93845 244.654 6.91063C244.495 6.87586 244.348 6.83646 244.09 6.85385C243.746 6.87702 243.384 6.88514 243.032 6.89904C242.795 6.86312 242.623 6.7901 242.283 6.81675C242.076 6.83298 241.857 6.83645 241.646 6.84573C241.362 6.85847 241.078 6.87007 240.794 6.88398C240.489 6.89789 240.493 6.89441 240.024 6.82603C239.753 6.78547 239.473 6.83067 239.198 6.83762C238.982 6.84341 238.875 6.89672 238.927 6.9651C238.978 7.03347 238.862 7.08678 238.664 7.09605C238.169 7.11807 237.67 7.14124 237.175 7.16095C237.115 7.16326 237.042 7.15515 236.986 7.14704C236.457 7.07403 236.457 7.0752 236.22 7.08563C235.867 7.10301 235.506 7.11227 235.157 7.13429C234.916 7.14936 234.74 7.12503 234.585 7.08563C234.464 7.0555 234.353 7.04854 234.198 7.0555C232.494 7.13314 230.79 7.20499 229.09 7.28496C228.836 7.29655 228.69 7.26294 228.518 7.23165C228.458 7.22122 228.402 7.1992 228.341 7.1992C228.199 7.1992 228.057 7.20963 227.915 7.21659C227.279 7.2444 226.642 7.278 226.001 7.29886C225.73 7.30813 225.656 7.36145 225.54 7.40549C225.45 7.4391 225.347 7.453 225.187 7.45763C225.033 7.46227 224.921 7.45647 224.8 7.42634C224.645 7.38694 224.469 7.3626 224.228 7.37882C223.948 7.39736 223.664 7.40549 223.376 7.41823C223.23 7.42403 223.118 7.44488 223.07 7.48661C223.062 7.49356 223.152 7.51095 223.204 7.52138C223.376 7.55615 223.539 7.59671 223.733 7.62104C223.931 7.64538 224.146 7.61756 224.353 7.6106C224.426 7.60828 224.495 7.60134 224.563 7.6025C224.628 7.60366 224.706 7.60945 224.753 7.61988C224.977 7.67203 225.213 7.70796 225.523 7.67667C225.79 7.69173 225.928 7.78792 226.267 7.76243C226.474 7.74736 226.689 7.74041 226.904 7.73461C226.96 7.73346 227.02 7.75432 227.081 7.76475C227.253 7.79372 227.391 7.84007 227.649 7.82037C227.924 7.79951 228.217 7.79604 228.496 7.77981C228.651 7.77054 228.763 7.77865 228.884 7.80879C229.038 7.84703 229.215 7.87599 229.456 7.85745C229.662 7.84123 229.882 7.83775 230.093 7.82732C230.368 7.81457 230.368 7.81573 230.859 7.88758C230.915 7.8957 230.988 7.90497 231.048 7.90265C231.405 7.88874 231.758 7.87136 232.115 7.85745C232.253 7.85166 232.386 7.86672 232.481 7.90033C232.52 7.91424 232.507 7.93743 232.519 7.95713C231.81 7.98842 231.1 8.01507 230.394 8.05331C230.127 8.06838 230.007 8.02086 229.83 7.99421C229.77 7.98494 229.705 7.96524 229.649 7.96756C229.15 7.98726 228.656 8.00811 228.161 8.03361C228.006 8.04172 227.89 8.03708 227.773 8.00347C227.477 7.91424 227.115 7.96291 226.779 7.97566C226.521 7.98493 226.44 8.02087 226.47 8.09735C226.508 8.18775 226.663 8.21556 227.059 8.19934C227.201 8.19354 227.343 8.18543 227.485 8.18079C227.623 8.17616 227.748 8.19122 227.86 8.22251C227.967 8.2538 228.096 8.27003 228.23 8.26539C228.514 8.25496 228.802 8.24453 229.077 8.22715C229.305 8.21324 229.495 8.22483 229.654 8.26771C229.83 8.31522 230.037 8.30479 230.243 8.29436C230.725 8.27118 230.73 8.27235 231.031 8.3303C231.091 8.34188 231.151 8.36391 231.207 8.36275C231.702 8.34536 232.201 8.3303 232.687 8.30248C232.941 8.28858 233.088 8.32566 233.255 8.35579C233.316 8.36622 233.376 8.3894 233.432 8.38708C233.789 8.37433 234.146 8.36158 234.495 8.33956C234.658 8.32913 234.757 8.33608 234.89 8.36389C235.209 8.43227 235.217 8.42995 235.669 8.40793C235.807 8.40098 235.958 8.38824 236.087 8.39751C236.216 8.40678 236.319 8.44039 236.439 8.46125C236.495 8.47052 236.564 8.48326 236.624 8.48094C236.908 8.47167 237.192 8.45777 237.476 8.44503C237.743 8.43228 237.743 8.43344 238.242 8.50529C238.445 8.53542 238.656 8.50992 238.858 8.50065C239.077 8.49022 239.275 8.49023 239.443 8.53542C239.611 8.58062 239.813 8.57829 240.028 8.56902C240.23 8.55975 240.437 8.53427 240.643 8.56556C241.117 8.63741 241.117 8.63856 241.409 8.62465C241.835 8.60495 242.257 8.58641 242.687 8.56902C242.743 8.56671 242.816 8.58062 242.872 8.58989C242.993 8.61075 243.096 8.64551 243.225 8.65362C243.354 8.66289 243.505 8.64899 243.643 8.64203C244.086 8.62002 244.116 8.61191 244.413 8.68839C244.662 8.75098 244.972 8.66058 245.204 8.73243C245.338 8.77299 245.519 8.80544 245.768 8.78574C245.975 8.76951 246.19 8.76488 246.405 8.75561C246.745 8.74054 246.745 8.74171 247.175 8.81124C247.231 8.82052 247.304 8.8321 247.36 8.82978C247.644 8.82051 247.933 8.8124 248.208 8.79154C248.531 8.7672 248.737 8.81124 248.978 8.85412C249.167 8.88773 249.391 8.85991 249.593 8.84832C249.813 8.83673 250.011 8.84021 250.174 8.8854C250.346 8.93176 250.549 8.92597 250.764 8.9167C250.966 8.90858 251.173 8.88193 251.379 8.91438C251.822 8.98623 251.822 8.98623 252.145 8.97232C252.429 8.95957 252.713 8.94567 252.997 8.9364C253.053 8.93408 253.122 8.94915 253.178 8.95957C253.298 8.98044 253.401 9.01521 253.531 9.02332C253.66 9.03143 253.81 9.01637 253.952 9.01057C254.094 9.00478 254.245 8.98739 254.374 8.99435C254.503 9.0013 254.623 9.03028 254.727 9.05577C254.847 9.08591 254.959 9.08938 255.123 9.07779C255.329 9.06272 255.544 9.05925 255.755 9.05113C255.871 9.07315 255.992 9.09517 256.104 9.1195C256.22 9.145 256.345 9.14268 256.504 9.13457C257.033 9.10676 257.037 9.11024 257.481 9.18209C257.683 9.21454 257.894 9.18788 258.096 9.17977C258.311 9.1705 258.513 9.16587 258.681 9.21222C258.845 9.25626 259.047 9.26205 259.262 9.24814C259.4 9.23887 259.546 9.23309 259.688 9.22961C259.753 9.22845 259.83 9.23308 259.877 9.24236C260.105 9.29103 260.329 9.33507 260.643 9.30378C260.919 9.31305 261.056 9.40808 261.388 9.38954C261.667 9.37332 261.96 9.36983 262.235 9.34897C262.489 9.33042 262.67 9.36288 262.799 9.40345C263.031 9.4753 263.358 9.37795 263.591 9.44865C263.724 9.48921 263.896 9.52166 264.154 9.50427C264.438 9.48573 264.529 9.51006 264.61 9.58307C264.658 9.62479 264.649 9.6584 264.563 9.69085C264.477 9.72446 264.382 9.71867 264.245 9.68043C264.086 9.63755 263.896 9.62942 263.668 9.63869C263.444 9.64797 263.307 9.58772 263.122 9.56454C262.937 9.5402 262.717 9.58076 262.524 9.54947C262.068 9.47646 262.068 9.47646 261.758 9.49037C261.547 9.49964 261.327 9.50427 261.121 9.5205C260.876 9.5402 260.716 9.50427 260.549 9.47182C260.488 9.46023 260.428 9.43821 260.376 9.43937C259.882 9.45675 259.382 9.47298 258.892 9.50195C258.634 9.51702 258.496 9.4753 258.324 9.44633C258.264 9.43589 258.199 9.41504 258.148 9.41735C257.722 9.43358 257.3 9.45444 256.874 9.47414C256.792 9.50543 256.702 9.53555 256.624 9.56916C256.543 9.60393 256.431 9.619 256.267 9.61784C255.996 9.61784 255.729 9.66652 255.458 9.6051C255.179 9.54251 255.157 9.54599 254.886 9.56106C254.542 9.58076 254.176 9.57612 253.853 9.62132C253.797 9.62943 253.737 9.65144 253.737 9.66767C253.733 9.6781 253.823 9.69317 253.879 9.70244C254.068 9.73025 254.288 9.68969 254.477 9.71867C254.602 9.73721 254.705 9.76502 254.83 9.78472C254.882 9.79283 254.959 9.79168 255.028 9.79052C255.101 9.78936 255.17 9.78125 255.239 9.78241C255.303 9.78357 255.372 9.79051 255.424 9.80094C255.661 9.84498 255.91 9.88555 256.121 9.9377C256.327 9.98869 256.521 9.95393 256.728 9.95161C257.554 10.0327 257.554 10.0339 258.109 10.0084C258.247 10.0026 258.389 9.99565 258.531 9.99681C258.591 9.99681 258.647 10.0177 258.707 10.0292C258.879 10.064 259.043 10.0953 259.284 10.0768C259.49 10.0605 259.71 10.0571 259.92 10.0466C260.204 10.0339 260.204 10.0339 260.686 10.1069C260.807 10.1254 260.936 10.1231 261.091 10.1139C261.224 10.1057 261.362 10.1231 261.456 10.1567C261.495 10.1706 261.482 10.1938 261.495 10.2135C261.069 10.2321 260.639 10.2448 260.226 10.2726C259.959 10.29 259.839 10.2402 259.662 10.2135C259.602 10.2043 259.537 10.1846 259.481 10.1869C259.06 10.2043 258.638 10.2239 258.216 10.2471C258.165 10.2494 258.1 10.2761 258.096 10.2923C258.087 10.3225 258.195 10.3514 258.35 10.3503C258.556 10.3491 258.759 10.3294 258.944 10.3769C259.099 10.4186 259.292 10.4372 259.52 10.4187C259.658 10.4082 259.804 10.4082 259.942 10.3989C260.308 10.3711 260.639 10.3769 260.914 10.4557C261.125 10.4766 261.332 10.4569 261.534 10.4465C261.685 10.4384 261.831 10.4302 261.938 10.4523C262.166 10.4986 262.39 10.545 262.704 10.5137C263.044 10.5461 263.302 10.6145 263.586 10.6701C263.72 10.6968 263.823 10.7119 263.978 10.6945C264.043 10.6875 264.12 10.6875 264.189 10.684C264.331 10.6782 264.481 10.6609 264.61 10.6678C264.74 10.6759 264.847 10.7095 264.963 10.7304C265.019 10.7408 265.084 10.7582 265.14 10.757C265.355 10.7513 265.566 10.7397 265.777 10.7304C265.987 10.7223 266.198 10.7142 266.409 10.7061C266.585 10.7362 266.766 10.7663 266.943 10.7965C267.227 10.7837 267.511 10.771 267.79 10.7594C268.104 10.7455 268.104 10.7466 268.556 10.8185C268.758 10.8509 268.974 10.8301 269.167 10.815C269.49 10.7907 269.705 10.8347 269.933 10.8811C269.981 10.8903 270.067 10.8961 270.122 10.8915C270.346 10.8753 270.54 10.888 270.703 10.9309C270.819 10.961 270.936 10.9749 271.078 10.9691C271.573 10.9471 272.067 10.9239 272.562 10.9042C272.622 10.9019 272.691 10.9123 272.747 10.9216C273.186 10.9923 273.19 10.9958 273.513 10.9772C273.801 10.961 274.068 10.9541 274.296 11.0178C274.344 11.0317 274.417 11.0514 274.468 11.0503C274.821 11.0387 275.178 11.0259 275.527 11.0062C275.686 10.9969 275.798 11.0004 275.923 11.0271C276.082 11.0607 276.224 11.1013 276.486 11.0862C277.214 11.0433 277.218 11.0502 278.079 11.1302C278.139 11.136 278.221 11.1267 278.289 11.1221C278.436 11.1105 278.543 11.1267 278.672 11.1534C278.961 11.2137 278.969 11.2102 279.245 11.1974C279.455 11.187 279.675 11.1847 279.881 11.1673C280.2 11.1418 280.411 11.187 280.647 11.2299C280.837 11.2635 281.056 11.2357 281.258 11.2252C281.478 11.2137 281.676 11.2171 281.839 11.2612C281.951 11.2913 282.072 11.3075 282.214 11.3017C282.708 11.2809 283.203 11.2577 283.698 11.2368C283.758 11.2345 283.832 11.2438 283.887 11.2519C284.378 11.3238 284.378 11.3272 284.864 11.3006C285.019 11.2925 285.148 11.2901 285.264 11.3145C285.376 11.3377 285.497 11.3597 285.613 11.3817C285.824 11.3736 286.039 11.3713 286.245 11.3574C286.405 11.3469 286.516 11.3516 286.641 11.3759C286.805 11.4072 286.942 11.4617 287.201 11.435C287.334 11.4223 287.489 11.4257 287.622 11.4142C287.782 11.3991 287.889 11.4084 288.014 11.4385C288.169 11.4744 288.328 11.5115 288.578 11.4929C288.853 11.4721 289.146 11.4686 289.425 11.4524C289.58 11.4431 289.688 11.4524 289.813 11.4825C289.967 11.5208 290.144 11.5451 290.385 11.53C290.875 11.5011 290.88 11.5069 291.357 11.5799C291.478 11.5984 291.607 11.5961 291.762 11.5868C291.895 11.5787 292.033 11.5961 292.127 11.6297C292.218 11.6668 292.209 11.69 292.218 11.7097ZM253.875 1.25747C253.733 1.26326 253.591 1.27021 253.384 1.16939C253.371 1.15201 253.38 1.13115 253.35 1.11608C253.281 1.08479 253.173 1.06278 253.044 1.0593C252.812 1.05466 252.532 1.09406 252.537 1.12419C252.541 1.14969 252.614 1.1717 252.756 1.19256C252.816 1.20067 252.864 1.21458 252.92 1.22385C253.083 1.25051 253.212 1.30267 253.449 1.27601C253.406 1.20416 253.427 1.24009 253.449 1.27601C253.427 1.32005 253.492 1.35134 253.647 1.36409C253.69 1.36757 253.754 1.36525 253.789 1.35829C253.922 1.3328 253.944 1.29804 253.845 1.20648C253.827 1.22155 253.84 1.24819 253.879 1.25515C253.918 1.2621 254.012 1.25631 254.06 1.2482C254.18 1.22618 254.241 1.19721 254.21 1.17287C254.193 1.16012 254.111 1.1439 254.06 1.1439C253.969 1.1439 253.888 1.16939 253.875 1.25747ZM288.668 14.6973C288.354 14.7194 287.992 14.7112 287.678 14.7564C287.622 14.7646 287.566 14.7854 287.562 14.8016C287.558 14.8121 287.644 14.8271 287.696 14.8353C287.812 14.8538 287.941 14.848 288.091 14.8422C288.319 14.8341 288.453 14.8874 288.629 14.9141C288.685 14.9222 288.758 14.928 288.819 14.9256C289.167 14.9117 289.511 14.8967 289.86 14.8805C289.92 14.877 289.985 14.8689 290.036 14.8584C290.208 14.8248 290.191 14.8028 290.023 14.7773C289.838 14.7495 289.692 14.7031 289.503 14.6811C289.232 14.6498 288.956 14.6915 288.668 14.6973ZM264.232 15.5433C264.021 15.5526 263.814 15.5619 263.604 15.5712C263.535 15.5746 263.462 15.5758 263.397 15.5804C263.264 15.5885 263.165 15.6129 263.1 15.6511C263.199 15.6812 263.32 15.6986 263.453 15.6952C263.664 15.6882 263.87 15.6731 264.081 15.6697C264.309 15.665 264.443 15.7172 264.619 15.7438C264.675 15.7519 264.744 15.7531 264.808 15.7543C265.127 15.7589 265.32 15.6986 265.26 15.614C265.217 15.548 265.054 15.5086 264.856 15.5167C264.649 15.5248 264.438 15.5341 264.232 15.5433ZM290.14 12.9845C290.191 12.9648 290.247 12.9509 290.273 12.9335C290.35 12.8744 290.32 12.8303 290.178 12.784C290.006 12.7272 289.795 12.7654 289.602 12.7712C289.554 12.7724 289.503 12.7967 289.477 12.8118C289.46 12.8222 289.46 12.8442 289.486 12.85C289.696 12.8964 289.92 12.9393 290.14 12.9845ZM252.812 9.56106C252.605 9.57033 252.395 9.57728 252.188 9.59003C252.136 9.59351 252.089 9.61552 252.059 9.63059C252.003 9.6584 252.063 9.69664 252.24 9.70012C252.442 9.70476 252.653 9.68506 252.864 9.67579C253.13 9.6642 253.29 9.62131 253.191 9.58423C253.096 9.5483 252.967 9.54136 252.812 9.56106ZM26.3121 7.08447C26.4498 7.07867 26.5918 7.07403 26.7295 7.06592C26.8586 7.05781 26.9576 7.03231 27.0222 6.99407C26.9146 6.96394 26.7941 6.94771 26.6607 6.95119C26.4498 6.95814 26.2433 6.96741 26.0368 6.979C25.9077 6.98596 25.783 7.01145 25.7528 7.05086C25.7227 7.08099 26.0109 7.09837 26.3121 7.08447ZM234.615 6.90599C234.671 6.91642 234.727 6.93728 234.783 6.93728C234.921 6.93728 235.063 6.93033 235.192 6.91874C235.248 6.9141 235.291 6.89324 235.316 6.87702C235.334 6.86659 235.329 6.84805 235.304 6.83878C235.179 6.78315 234.68 6.80285 234.598 6.86659C234.589 6.87818 234.611 6.89324 234.615 6.90599ZM221.039 0.559802C221.052 0.578344 221.057 0.596885 221.074 0.615427C221.108 0.650194 221.203 0.675695 221.341 0.693079C221.448 0.664106 221.504 0.631662 221.5 0.596895C221.496 0.578352 221.483 0.559798 221.465 0.541255C221.431 0.506488 221.336 0.481001 221.199 0.463617C221.091 0.491431 221.039 0.523875 221.039 0.559802ZM300.083 15.745C300.045 15.7601 300.006 15.7751 299.963 15.789C300.079 15.8226 300.187 15.8331 300.269 15.8145C300.32 15.8029 300.35 15.7856 300.389 15.7705C300.273 15.7369 300.17 15.7276 300.083 15.745ZM297.407 15.9026C297.463 15.913 297.515 15.9269 297.575 15.9339C297.674 15.9455 297.764 15.9258 297.833 15.8841C297.777 15.8736 297.726 15.8597 297.665 15.8528C297.566 15.8412 297.476 15.8609 297.407 15.9026ZM299.102 15.6905C299.072 15.7183 299.133 15.7415 299.292 15.7612C299.331 15.7462 299.382 15.7322 299.408 15.716C299.451 15.6894 299.378 15.665 299.223 15.6465C299.18 15.6604 299.141 15.6755 299.102 15.6905ZM290.019 14.4412C289.989 14.469 290.049 14.4922 290.208 14.5119C290.247 14.4968 290.299 14.4829 290.325 14.4667C290.368 14.4401 290.294 14.4157 290.14 14.3972C290.097 14.4111 290.058 14.4262 290.019 14.4412ZM277.644 6.24078C277.605 6.25584 277.566 6.27091 277.523 6.28482C277.64 6.31843 277.747 6.32885 277.829 6.31031C277.881 6.29872 277.911 6.28134 277.949 6.26627C277.833 6.23266 277.73 6.22339 277.644 6.24078ZM265.789 1.89023C265.893 1.89834 265.979 1.88212 266.052 1.83924C265.996 1.82881 265.944 1.8149 265.884 1.80795C265.785 1.79636 265.695 1.81607 265.626 1.85779C265.682 1.86938 265.738 1.8798 265.789 1.89023ZM259.494 1.61789C259.456 1.63295 259.417 1.64802 259.374 1.66193C259.49 1.69553 259.598 1.70596 259.679 1.68742C259.731 1.67583 259.761 1.65845 259.8 1.64338C259.684 1.60977 259.58 1.60166 259.494 1.61789ZM216.805 0.558642C216.767 0.573707 216.728 0.588774 216.685 0.602681C216.801 0.636289 216.909 0.646716 216.99 0.628173C217.042 0.616584 217.072 0.5992 217.111 0.584134C216.995 0.550526 216.891 0.542417 216.805 0.558642ZM4.2469 9.98753C4.19096 9.9771 4.13507 9.96668 4.08344 9.95509C3.95865 9.98638 3.91994 10.0153 3.98879 10.0374C4.03182 10.0513 4.09631 10.0594 4.15225 10.0698C4.28133 10.0385 4.31144 10.0107 4.2469 9.98753Z" fill="#FFE492"/>
<path d="M29.2039 5.89618C28.709 5.9182 28.2185 5.946 27.7237 5.95991C27.4612 5.96686 27.3666 6.0167 27.259 6.06305C27.173 6.10014 27.074 6.11173 26.9148 6.11868C25.5723 6.17547 24.2341 6.23573 22.8959 6.29484C22.728 6.27977 22.6463 6.25544 22.685 6.22646C22.7065 6.20908 22.7582 6.18474 22.8098 6.18242C23.7263 6.13954 24.6385 6.0955 25.5593 6.06189C25.8218 6.05262 25.895 6.00163 26.0284 5.95991C26.0714 5.946 26.1059 5.92514 26.1618 5.91703C26.2177 5.90776 26.2995 5.90892 26.3726 5.9066C27.8528 5.84055 29.333 5.77565 30.8132 5.70959C30.981 5.72466 31.0628 5.74899 31.0241 5.77797C31.0026 5.79535 30.9509 5.81969 30.8993 5.82201C30.3313 5.84634 29.7675 5.87068 29.2039 5.89618Z" fill="#FFE492"/>
<path d="M300.428 12.0677C300.204 12.0816 299.92 12.1014 299.687 12.0339C299.576 12.0014 299.455 11.9909 299.309 11.9979C299.098 12.0095 298.883 12.0188 298.668 12.0258C298.612 12.027 298.539 12.0142 298.483 12.0037C298.362 11.9828 298.259 11.9479 298.13 11.9386C298.001 11.9293 297.846 11.9549 297.712 11.9491C297.536 11.9409 297.463 11.9095 297.51 11.8805C297.536 11.8642 297.588 11.841 297.644 11.8375C298.44 11.7944 298.444 11.7944 298.668 11.8363C298.84 11.8689 298.999 11.9049 299.244 11.8851C299.451 11.8688 299.67 11.8654 299.881 11.8549C300.174 11.8409 300.174 11.8421 300.647 11.9154C300.767 11.934 300.897 11.9328 301.051 11.9223C301.185 11.9142 301.314 11.9328 301.422 11.9642C301.353 12.0037 301.254 12.0293 301.12 12.0363C300.905 12.0479 300.694 12.056 300.428 12.0677Z" fill="#FFE492"/>
<path d="M292.053 11.7097C292.595 11.6853 293.142 11.6645 293.684 11.6367C293.908 11.6251 294.084 11.6378 294.239 11.6772C294.407 11.7201 294.596 11.7166 294.803 11.7085C294.932 11.7039 295.056 11.7224 295.143 11.7549C295.177 11.7676 295.168 11.7908 295.181 11.8094C294.708 11.8302 294.23 11.8522 293.753 11.8708C293.697 11.8731 293.628 11.8615 293.576 11.8522C293.46 11.8325 293.361 11.7978 293.236 11.7908C292.969 11.7746 292.703 11.8059 292.432 11.8117C292.303 11.814 292.178 11.7966 292.092 11.7653C292.057 11.7502 292.066 11.7282 292.053 11.7097Z" fill="#FFE492"/>
<path d="M96.1469 1.74621C96.7106 1.72064 97.2742 1.69623 97.8379 1.67065C98.0057 1.68693 98.0832 1.71018 98.0488 1.73925C98.0272 1.75669 97.9756 1.7811 97.924 1.78343C96.7966 1.83575 95.6693 1.88573 94.5463 1.93573C94.3784 1.91945 94.301 1.8962 94.3354 1.86713C94.3569 1.84969 94.4086 1.82528 94.4602 1.82295C95.0196 1.79621 95.5832 1.77179 96.1469 1.74621Z" fill="#FFE492"/>
<path d="M9.09549 8.18689C8.84162 8.18921 8.57489 8.23223 8.2909 8.19968C8.23496 8.19386 8.15749 8.17525 8.16179 8.16479C8.1704 8.14735 8.22204 8.12526 8.27798 8.11828C8.52324 8.08922 8.82878 8.08573 8.95356 8.00435C9.0138 7.96249 9.12568 7.94855 9.27628 7.94041C9.43549 7.93111 9.54733 7.93459 9.67211 7.959C9.83562 7.99039 9.97333 8.04853 10.2315 8.0183C10.2444 8.0369 10.2745 8.05783 10.2616 8.07527C10.2486 8.0927 10.1928 8.10898 10.1412 8.12177C10.0938 8.1334 10.0292 8.14386 9.96898 8.14735C9.68499 8.1613 9.40099 8.17294 9.09549 8.18689Z" fill="#FFE492"/>
<path d="M232.849 7.95276C233.06 7.94349 233.28 7.93885 233.486 7.92263C233.65 7.90988 233.753 7.91798 233.882 7.9458C234.101 7.99447 234.114 7.98984 234.652 7.9968C234.712 7.99796 234.786 8.01533 234.82 8.0304C234.842 8.03851 234.811 8.06054 234.786 8.07213C234.747 8.0872 234.691 8.10689 234.639 8.10689C234.299 8.11037 233.955 8.17875 233.624 8.09994C233.456 8.06054 233.271 8.04199 233.043 8.05937C232.905 8.0698 232.759 8.07444 232.617 8.07908C232.479 8.08371 232.337 8.07096 232.251 8.0362C232.126 7.9852 232.2 7.96551 232.423 7.96898C232.565 7.9713 232.707 7.95855 232.849 7.95276Z" fill="#FFE492"/>
<path d="M310.821 15.9415C311.092 15.9299 311.363 15.916 311.639 15.9068C311.695 15.9045 311.763 15.9172 311.815 15.9253C312.022 15.9601 311.991 16.0192 312 16.0713C312.004 16.1258 311.527 16.1698 311.325 16.1328C311.101 16.091 310.899 16.0435 310.589 16.069C310.468 16.0783 310.326 16.0574 310.249 16.0238C310.133 15.9751 310.197 15.9554 310.417 15.9589C310.546 15.9612 310.683 15.9485 310.821 15.9415Z" fill="#FFE492"/>
<path d="M174.208 0.166437C174.488 0.153689 174.767 0.133997 175.047 0.132838C175.211 0.131679 175.292 0.169916 175.254 0.19773C175.232 0.215113 175.18 0.239451 175.129 0.241769C174.569 0.269583 174.01 0.292765 173.451 0.318261C173.287 0.302036 173.205 0.277703 173.244 0.249889C173.266 0.232506 173.317 0.209327 173.369 0.20585C173.649 0.189625 173.928 0.179185 174.208 0.166437Z" fill="#FFE492"/>
<path d="M305.387 12.1689C305.658 12.1574 305.933 12.14 306.204 12.1342C306.346 12.1319 306.458 12.1585 306.475 12.1886C306.484 12.2025 306.415 12.2269 306.359 12.2327C305.972 12.2721 305.554 12.2767 305.15 12.2964C305.021 12.3022 304.883 12.2837 304.806 12.2512C304.689 12.2014 304.754 12.1829 304.974 12.1863C305.111 12.1875 305.249 12.1747 305.387 12.1689Z" fill="#FFE492"/>
<path d="M240.002 8.10963C240.14 8.10383 240.282 8.08877 240.415 8.0934C240.557 8.0992 240.648 8.13281 240.691 8.16641C240.738 8.20466 240.734 8.24059 240.691 8.27304C240.622 8.32867 240.553 8.32635 240.394 8.28926C240.148 8.23132 240.131 8.23827 239.645 8.24059C239.589 8.24059 239.52 8.2232 239.477 8.20813C239.413 8.18495 239.447 8.14904 239.598 8.12817C239.71 8.11311 239.865 8.11542 240.002 8.10963Z" fill="#FFE492"/>
<path d="M296.103 11.7883C296.305 11.779 296.507 11.764 296.709 11.764C296.851 11.7628 296.963 11.7894 296.976 11.8184C296.98 11.8323 296.916 11.8555 296.864 11.8625C296.619 11.8937 296.343 11.8961 296.077 11.9065C295.952 11.9111 295.814 11.8926 295.737 11.8601C295.621 11.8115 295.689 11.7894 295.9 11.7964C295.965 11.7987 296.034 11.7918 296.103 11.7883Z" fill="#FFE492"/>
<path d="M263.593 10.3669C263.292 10.3808 263.008 10.3635 263.029 10.3333C263.059 10.2939 263.184 10.2684 263.313 10.2615C263.52 10.2499 263.726 10.2406 263.937 10.2337C264.07 10.229 264.191 10.2464 264.299 10.2765C264.234 10.3136 264.135 10.3403 264.006 10.3484C263.873 10.3565 263.731 10.3611 263.593 10.3669Z" fill="#FFE492"/>
<path d="M261.637 10.2185C261.84 10.2092 262.042 10.1941 262.244 10.1941C262.386 10.193 262.498 10.2196 262.511 10.2486C262.515 10.2625 262.451 10.2857 262.399 10.2926C262.154 10.3239 261.878 10.3262 261.612 10.3367C261.487 10.3413 261.349 10.3228 261.272 10.2903C261.156 10.2416 261.224 10.2196 261.435 10.2266C261.5 10.2289 261.569 10.2219 261.637 10.2185Z" fill="#FFE492"/>
<path d="M238.053 8.10001C238.255 8.09073 238.457 8.07566 238.659 8.0745C238.801 8.07334 238.913 8.10001 238.926 8.12898C238.93 8.14289 238.866 8.16491 238.814 8.17302C238.569 8.20431 238.294 8.20663 238.027 8.21706C237.902 8.22169 237.764 8.20315 237.687 8.1707C237.571 8.12202 237.64 8.1 237.85 8.10695C237.915 8.10927 237.984 8.10232 238.053 8.10001Z" fill="#FFE492"/>
<path d="M236.361 8.0313C236.576 8.02203 236.645 8.01624 236.714 8.01624C236.843 8.01624 236.976 8.03015 237.054 8.06375C237.17 8.11243 237.101 8.12634 236.89 8.12866C236.619 8.13098 236.352 8.15532 236.081 8.15995C235.939 8.16227 235.827 8.13445 235.819 8.10547C235.814 8.09157 235.879 8.06723 235.93 8.06259C236.111 8.04521 236.309 8.03478 236.361 8.0313Z" fill="#FFE492"/>
<path d="M260.024 1.21336C259.886 1.21915 259.74 1.23538 259.611 1.22958C259.439 1.22147 259.37 1.19018 259.413 1.16121C259.439 1.14499 259.486 1.12181 259.538 1.11833C259.813 1.10211 260.093 1.09167 260.368 1.08008C260.532 1.09746 260.605 1.1218 260.562 1.15077C260.536 1.16699 260.489 1.18901 260.437 1.19365C260.304 1.20524 260.162 1.20756 260.024 1.21336Z" fill="#FFE492"/>
<path d="M93.0098 1.88239C93.1432 1.88123 93.2636 1.89629 93.3669 1.92527C93.3023 1.96235 93.2077 1.98669 93.0786 1.99712C93.0141 2.00175 92.9409 2.00522 92.8721 2.00638C92.7387 2.0087 92.6182 1.99248 92.5149 1.9635C92.5794 1.92642 92.6784 1.90208 92.8032 1.89165C92.8677 1.88702 92.9409 1.88586 93.0098 1.88239Z" fill="#FFE492"/>
<path d="M304.749 12.1645C304.745 12.1309 305.007 12.0926 305.244 12.0938C305.368 12.0949 305.497 12.1112 305.571 12.1425C305.683 12.19 305.618 12.2085 305.407 12.205C305.278 12.2027 305.14 12.2224 305.011 12.2189C304.865 12.2178 304.779 12.1923 304.749 12.1645Z" fill="#FFE492"/>
<path d="M241.278 8.24886C241.274 8.23611 241.253 8.22105 241.266 8.20946C241.347 8.14572 241.842 8.12602 241.971 8.18165C241.993 8.19208 242.001 8.20946 241.984 8.21989C241.958 8.23611 241.911 8.25697 241.859 8.26161C241.726 8.27319 241.588 8.27899 241.451 8.28015C241.39 8.28015 241.334 8.26045 241.278 8.24886Z" fill="#FFE492"/>
<path d="M11.3532 7.99983C10.8454 8.02417 10.8368 8.02184 10.9272 7.9639C11.0089 7.91175 11.1596 7.88046 11.379 7.88046C11.4436 7.88046 11.5124 7.87815 11.5683 7.88278C11.6286 7.88858 11.7147 7.90015 11.7276 7.91406C11.7534 7.94071 11.6802 7.96969 11.5511 7.98939C11.4951 7.99866 11.422 7.99636 11.3532 7.99983Z" fill="#FFE492"/>
<path d="M99.267 1.7186C99.1164 1.7383 98.9874 1.73135 98.8927 1.69427C98.798 1.65718 98.9486 1.61314 99.2111 1.60271C99.28 1.60039 99.3531 1.59113 99.4176 1.59576C99.4822 1.59924 99.5468 1.61314 99.5855 1.62704C99.6544 1.65022 99.6113 1.68152 99.4736 1.70817C99.4177 1.7186 99.3358 1.71628 99.267 1.7186Z" fill="#FFE492"/>
<path d="M303.852 12.077C303.89 12.0619 303.929 12.0469 303.972 12.033C304.131 12.0527 304.2 12.0758 304.157 12.1025C304.131 12.1187 304.08 12.1326 304.041 12.1477C303.882 12.128 303.817 12.1037 303.852 12.077Z" fill="#FFE492"/>
<path d="M18.1387 21.1927C18.1387 21.1787 18.1989 21.1565 18.2462 21.1519C18.3366 21.1437 18.4484 21.16 18.5259 21.1927C18.6335 21.2395 18.569 21.264 18.371 21.2512C18.2334 21.2418 18.1387 21.2184 18.1387 21.1927Z" fill="#FFE492"/>
<path d="M243.336 7.17049C243.392 7.18103 243.448 7.19156 243.5 7.20326C243.427 7.24655 243.337 7.26527 243.242 7.25357C243.182 7.24655 243.13 7.2325 243.074 7.22197C243.147 7.17868 243.233 7.1623 243.336 7.17049Z" fill="#FFE492"/>
<path d="M242.284 7.11804C242.37 7.10049 242.473 7.10986 242.594 7.14379C242.555 7.159 242.521 7.17656 242.473 7.18826C242.391 7.20698 242.284 7.19761 242.168 7.1625C242.202 7.14846 242.241 7.13325 242.284 7.11804Z" fill="#FFE492"/>
<path d="M240.618 7.1692C240.674 7.17973 240.73 7.19026 240.781 7.20196C240.708 7.24526 240.622 7.26397 240.523 7.25227C240.463 7.24525 240.411 7.23121 240.355 7.22067C240.429 7.17738 240.515 7.15984 240.618 7.1692Z" fill="#FFE492"/>
<path d="M239.739 7.1074C239.804 7.13058 239.769 7.15839 239.645 7.18968C239.589 7.17925 239.524 7.17115 239.481 7.15724C239.412 7.13522 239.447 7.10624 239.576 7.07495C239.627 7.08654 239.683 7.09697 239.739 7.1074Z" fill="#FFE492"/>
</svg>
