<svg width="399" height="349" viewBox="0 0 399 349" fill="none" xmlns="http://www.w3.org/2000/svg">
<g style="mix-blend-mode:multiply" opacity="0.2">
<path d="M137.86 401.518C132.932 401.518 127.045 400.281 119.206 397.48C98.4026 389.884 77.0696 367.069 54.5459 342.943C42.143 329.693 29.3433 315.99 16.4773 304.759C-2.30893 284.469 -34.1596 270.487 -64.9849 256.935C-87.5085 247.042 -108.775 237.679 -125.246 226.121L-125.28 226.095C-137.649 217.111 -143.437 208.429 -142.974 199.571C-142.081 182.284 -117.375 166.889 -88.7323 149.072L-85.9871 147.356C-64.7534 134.081 -38.0954 116.314 0.502396 89.79L3.77678 87.6196C38.3064 64.7043 81.3031 36.1865 137 18.8991C248.56 -21.1521 346.196 9.86423 377.021 43.48C409.169 82.7741 406.391 124.491 366.437 203.003C324.598 284.847 231.924 348.116 194.021 371.511C178.509 379.234 168.785 386.073 161.707 391.07C152.711 397.379 146.857 401.518 137.86 401.518ZM-122.336 223.698C-106.229 235.004 -85.1603 244.266 -62.8681 254.083C-31.679 267.787 0.601624 281.97 19.7848 302.715C32.6838 313.945 45.5497 327.725 57.9857 341.025C80.2117 364.798 101.214 387.259 120.992 394.502C140.539 401.442 145.137 398.212 158.796 388.622C166.007 383.549 175.896 376.584 191.507 368.811C228.947 345.668 320.96 282.879 362.435 201.767C401.827 124.39 404.704 83.4302 373.449 45.2466C343.517 12.6403 248.163 -17.4423 138.72 21.8518C83.5853 38.9878 40.8862 67.3037 6.58806 90.0423L3.34679 92.2127C-35.2841 118.762 -61.9751 136.554 -83.275 149.854L-86.0202 151.57C-113.869 168.883 -137.881 183.848 -138.708 199.647C-139.105 207.546 -133.747 215.395 -122.336 223.698Z" fill="#9C9C9C"/>
<path d="M131.441 378.653C124.628 378.653 117.418 376.988 107.495 374.035L107.297 373.984C88.246 366.691 73.1641 349.101 57.2222 330.501C46.3408 317.781 35.0624 304.658 21.5019 293.226C2.38488 274.676 -21.6602 260.241 -44.8784 246.285C-60.4895 236.922 -75.2407 228.064 -88.1066 218.272L-88.3381 218.07C-114.533 190.839 -95.7468 178.826 -61.6802 156.996C-57.9759 154.624 -54.0731 152.125 -50.0049 149.45C-42.0009 144.933 -33.4677 139.885 -24.4053 134.535C15.8462 110.737 71.0142 78.1556 148.838 51.7071C243.96 23.9211 317.452 44.0098 348.145 76.2376C378.904 109.828 366.964 150.258 332.401 217.792C294.531 286.084 225.406 330.299 188.263 354.047L184.129 356.697C156.512 372.344 144.671 378.653 131.441 378.653ZM109.149 371.006C136.237 379.032 140.834 377.114 181.483 354.148L185.518 351.574C222.363 328.002 290.959 284.115 328.432 216.606C362.433 150.207 374.306 110.535 344.672 78.1808C314.971 46.9878 243.398 27.631 150.492 54.7608C73.2302 81.0074 18.3268 113.462 -21.7925 137.135C-30.8549 142.485 -39.3881 147.532 -47.3259 152.024C-51.2948 154.624 -55.1976 157.122 -58.902 159.52C-93.0016 181.375 -108.613 191.369 -84.9646 216.051C-72.2971 225.666 -57.6782 234.423 -42.2324 243.711C-18.7827 257.768 5.42774 272.329 24.7763 291.106C38.4691 302.639 49.8466 315.889 60.8273 328.709C76.4053 346.88 91.1565 364.066 109.149 371.006Z" fill="#9C9C9C"/>
<path d="M125.894 359.574C117.196 359.574 109.125 357.202 99.0708 353.164C82.269 345.441 68.7746 329.466 54.4865 312.583C46.0195 302.538 37.2217 292.166 27.1671 282.651C13.1105 267.711 -3.55902 254.941 -19.6332 242.575C-32.8298 232.43 -45.2989 222.865 -55.122 212.997L-55.2543 212.846C-75.1651 187.255 -54.5928 175.318 -17.2188 153.64L-16.7888 153.387L-9.87624 149.778C29.4823 129.311 83.3935 101.273 157.249 80.9569C244.433 59.7325 299.932 81.3607 321 106.295C343.524 132.895 338 168.605 301.949 229.553C275.688 272.027 232.824 310.21 174.58 343.044C152.056 354.703 138.33 359.574 125.894 359.574ZM-51.6492 211.054C-41.9915 220.72 -29.6547 230.209 -16.5903 240.228C-0.383881 252.67 16.3848 265.566 30.5737 280.632C40.7276 290.197 49.5584 300.671 58.0916 310.791C72.0821 327.372 85.3119 343.018 101.188 350.312C124.075 359.549 135.486 359.372 172.099 340.369C229.715 307.863 272.116 270.109 298.046 228.165C333.403 168.378 339.025 133.576 317.395 108.036C295.533 82.1682 237.983 64.7042 158.605 84.0106C85.3449 104.175 31.6982 132.062 -7.46182 152.453L-14.639 156.214C-52.2776 178.044 -69.5094 188.038 -51.6492 211.054Z" fill="#9C9C9C"/>
<path d="M122.787 342.212C113.063 342.212 103.935 339.663 93.7477 334.666L93.6816 334.64C78.335 326.615 65.9652 311.523 52.8678 295.573C46.8152 288.179 40.531 280.557 33.7177 273.289C24.6222 262.639 14.5345 252.797 4.7776 243.308C-7.19533 231.648 -18.5398 220.619 -25.9485 209.919C-38.8806 187.332 -19.962 175.521 12.7155 158.688C46.3852 142.788 98.4112 120.125 162.179 106.75C223.069 97.1849 268.678 104.857 290.739 128.327C314.552 153.615 308.632 193.717 274.499 238.361C238.746 290.905 182.222 321.719 165.751 329.896C148.221 338.174 135.025 342.212 122.787 342.212ZM96.0629 331.915C115.114 341.227 130.063 342.893 163.435 327.12C179.642 319.069 235.438 288.659 270.729 236.771C304.002 193.237 310.021 154.423 287.233 130.245C266.198 107.885 222.142 100.693 163.138 109.955C100.032 123.204 48.3697 145.691 14.9976 161.464C-18.639 178.776 -33.291 189.073 -22.1449 208.531C-14.9678 218.853 -3.75556 229.755 8.11814 241.314C17.9412 250.879 28.0951 260.746 37.2236 271.472C44.07 278.74 50.3541 286.438 56.4398 293.857C69.3388 309.479 81.4771 324.268 96.0629 331.915Z" fill="#9C9C9C"/>
<path d="M120.734 326.362C110.415 326.362 100.923 323.661 91.0664 318.26L90.8018 318.084C53.0639 288.935 8.44656 222.183 -0.119705 209.11L-0.251981 208.807C-6.93301 190.081 8.14889 179.078 38.2797 165.324C66.6575 153.16 111.473 137.109 163.995 129.613C212.35 123.809 248.567 131.632 266.03 151.645C285.411 173.879 279.491 207.672 249.823 244.366C223.695 279.749 185.196 305.213 157.877 317.226C143.589 323.333 131.682 326.362 120.734 326.362ZM93.7124 315.686C112.598 325.958 129.433 325.604 155.727 314.374C182.55 302.588 220.354 277.553 246.119 242.701C274.497 207.596 280.583 174.258 262.458 153.462C245.987 134.56 211.259 127.216 164.723 132.844C112.829 140.263 68.5097 156.163 40.4295 168.176C11.5887 181.324 -2.00494 191.091 3.81615 207.823C28.4235 245.376 64.9046 293.377 93.7124 315.686Z" fill="#9C9C9C"/>
<path d="M122.831 311.533C111.421 311.533 101.548 308.74 94.0666 303.33C64.1407 281.966 32.9849 236.899 23.7953 209.798C22.2922 203.532 24.4444 197.417 30.1153 191.579C47.6063 173.588 99.4301 158.062 168.779 150.06C207.895 147.267 237.069 154.992 251.007 171.826C266.79 190.9 261.119 218.655 235.463 247.945C202.087 285.011 162.152 308.665 128.639 311.282C126.657 311.458 124.71 311.533 122.831 311.533ZM184.015 152.752C179.301 152.752 174.416 152.928 169.36 153.306C101.309 161.157 50.5442 176.179 33.7707 193.492C28.783 198.625 26.9041 203.884 28.1681 209.143C37.1869 235.691 67.796 280.029 97.2095 301.015C104.964 306.601 115.691 309.042 128.195 308.061C160.409 305.544 199.149 282.419 231.774 246.184C256.097 218.404 261.905 191.252 247.249 173.537C236.01 159.974 213.839 152.752 184.015 152.752Z" fill="#9C9C9C"/>
<path d="M120.108 297.869C109.855 297.869 100.825 295.346 93.7806 290.45C68.644 273.061 45.3927 236.291 44.0698 211.786V211.735C43.9044 189.148 93.119 170.599 161.054 167.671C189.994 167.141 211.459 174.511 221.547 188.492C233.123 204.518 228.36 226.751 208.483 249.515C183.908 277.175 153.149 295.144 126.16 297.592C124.077 297.768 122.059 297.869 120.108 297.869ZM48.3694 211.685C49.6924 235.458 72.2491 271.143 96.6911 288.027C104.133 293.201 114.121 295.371 125.631 294.336C151.396 291.989 181.031 274.55 204.911 247.673C223.862 225.969 228.559 204.947 217.776 190.031C208.483 177.186 188.439 170.372 161.219 170.902C96.7903 173.703 48.2371 191.243 48.3694 211.685Z" fill="#9C9C9C"/>
<path d="M120.846 284.721C111.883 284.721 103.879 282.626 97.4297 278.513C74.7737 264.153 58.6665 235.08 62.2054 214.991C66.0421 195.71 107.286 181.88 155.971 183.47C177.337 184.404 193.081 191.117 200.357 202.347C208.692 215.218 204.888 232.304 189.873 249.187C172.145 268.948 148.761 282.096 127.329 284.368C125.113 284.62 122.963 284.721 120.846 284.721ZM148.265 186.625C105.07 186.625 69.7795 198.814 66.4721 215.47C63.1646 234.222 78.908 262.512 100.175 276.014C107.187 280.456 116.348 282.223 126.734 281.137C147.008 278.992 169.267 266.348 186.334 247.345C200.456 231.471 204.161 215.597 196.521 203.786C189.972 193.666 175.485 187.609 155.773 186.725C153.259 186.675 150.746 186.625 148.265 186.625Z" fill="#9C9C9C"/>
<path d="M122.87 272.154C115.66 272.154 109.111 270.564 103.621 267.459C84.603 256.683 73.92 235.005 79.8072 219.13C85.7937 203.433 116.884 193.994 150.52 197.629C165.437 199.319 176.384 204.973 181.346 213.553C186.968 223.269 184.19 235.585 173.738 247.346C161.732 260.772 145.625 269.655 129.551 271.699C127.302 272.002 125.053 272.154 122.87 272.154ZM83.9415 220.039C78.5835 234.449 88.7704 254.967 106.168 264.835C112.352 268.343 120.191 269.605 128.857 268.494C143.575 266.601 159.053 258.021 170.233 245.528C179.824 234.727 182.437 223.572 177.443 214.891C173.11 207.37 163.32 202.398 149.925 200.884C118.868 197.502 89.2665 206.108 83.9415 220.039Z" fill="#9C9C9C"/>
<path d="M124.531 259.989C119.537 259.989 114.708 259.004 110.474 256.884C96.3185 249.894 89.7036 235.054 95.6901 223.824C101.71 212.644 123.175 206.612 143.582 210.398C153.008 212.139 159.887 216.404 162.963 222.36C166.337 228.922 164.617 236.897 158.267 244.215C149.502 254.26 136.504 259.989 124.531 259.989ZM112.79 254.159C124.994 260.19 143.78 254.941 154.695 242.424C160.251 236.013 161.839 229.124 158.961 223.571C156.415 218.625 150.594 215.067 142.556 213.578C124.134 210.171 104.885 215.319 99.659 225.06C94.4002 234.928 100.287 247.976 112.79 254.159Z" fill="#9C9C9C"/>
<path d="M125.776 248.052C123.064 248.052 120.418 247.572 118.003 246.563C109.735 243.105 106.394 235.156 110.595 228.821C114.729 222.562 126.073 219.559 135.83 222.133C140.527 223.37 143.967 225.843 145.455 229.124C147.043 232.581 146.282 236.619 143.338 240.178C139.138 245.2 132.358 248.052 125.776 248.052ZM128.422 224.48C122.435 224.48 116.779 226.676 114.365 230.31C111.223 235.08 113.737 241.086 120.021 243.686C126.272 246.31 135.103 243.938 139.667 238.411C141.949 235.66 142.544 232.758 141.354 230.184C140.295 227.862 137.815 226.096 134.375 225.187C132.424 224.708 130.406 224.48 128.422 224.48Z" fill="#9C9C9C"/>
</g>
</svg>
