<svg width="109" height="53" viewBox="0 0 109 53" fill="none" xmlns="http://www.w3.org/2000/svg">
<path d="M18.7611 12.1298C20.7622 10.2633 23.632 9.25713 26.2238 9.53521C28.8724 9.81936 31.4434 11.4151 33.1341 13.7282C34.0724 15.012 34.3894 16.6281 35.1302 18.031C35.8756 19.3141 36.4438 20.7181 36.8154 22.1946C36.4536 22.8947 36.0251 23.5018 35.5485 24.1038L35.0995 24.7637C35.7205 24.8827 37.053 26.5363 37.4078 27.101C37.649 27.4843 37.6465 27.7227 37.6173 28.179L38.8427 26.847C38.7971 28.0574 37.8402 29.6405 37.0834 30.4244C36.3136 31.2219 35.4033 31.8451 34.731 32.7606C33.875 32.946 32.7806 33.1023 31.9165 32.9589C31.1663 33.323 30.3975 33.758 29.6916 34.223C28.9745 34.5127 28.2556 34.8667 27.5291 35.1148C27.83 35.5842 28.2408 35.8576 28.6642 36.1696L28.7504 36.1797C29.1463 36.5088 29.5605 36.7889 30.0341 36.9502L29.7522 37.1444C29.0781 37.403 28.3002 37.6135 27.6825 38.01C27.6283 38.1465 27.5841 38.2688 27.5584 38.4166L27.4621 38.5033C27.4361 38.3784 27.4252 38.2639 27.4197 38.1366C27.1802 38.1694 27.0168 38.2351 26.8045 38.3581L26.8035 38.443C26.9991 38.6104 27.2213 38.7606 27.2944 39.0395C26.8299 38.7679 26.3442 38.3536 25.9466 37.9705C25.1692 38.3789 24.4125 38.5994 23.5763 38.7945C26.1705 41.3928 29.1911 41.9919 32.5405 42.3543C31.4878 43.1873 30.1973 43.8171 28.8828 43.7362C25.8175 44.1454 22.5791 43.0105 20.0943 40.9817C19.1936 40.3251 18.4121 39.5753 17.6917 38.6793L17.4728 38.4484C16.6591 38.2555 15.9091 37.9928 15.1709 37.5542C13.4778 36.5479 12.0703 34.8603 11.4966 32.7791C11.005 31.4764 10.8937 29.8669 11.1383 28.482C11.2639 28.9395 11.3376 29.4116 11.4185 29.8811C11.4782 29.7429 11.5914 29.6133 11.678 29.4933C12.2203 31.3296 13.3447 32.3161 14.8305 33.1684C14.5546 31.8195 14.3793 30.4265 14.4292 29.0391C14.5356 26.0816 15.6076 23.6936 17.5165 21.7042C18.4858 20.6327 19.6938 19.8072 20.8134 18.953C21.699 18.2177 22.717 17.9269 23.6615 17.3397C22.2414 17.3003 20.9533 17.4613 19.6126 18.0106C15.9881 20.5367 14.3743 23.1726 13.3041 27.8428C12.9866 26.4639 12.7995 25.0368 12.908 23.6088C12.8258 21.0908 13.9782 18.3293 15.1328 16.2493C14.983 16.1208 14.8295 15.9916 14.6917 15.8469C14.4219 15.5636 14.2596 15.189 14.254 14.771C14.2467 14.3691 14.3871 13.9818 14.6416 13.7009C14.8927 13.42 15.2346 13.2675 15.5879 13.2787C16.0847 13.2943 16.4102 13.5676 16.7337 13.9646C17.378 13.3106 18.0709 12.7197 18.7611 12.1298ZM23.1007 22.219C22.3206 23.2176 21.546 24.1639 21.2307 25.4836C21.241 26.2372 21.2552 26.9907 21.2733 27.7441C21.1347 28.9077 21.4372 30.9797 22.0936 31.9075C22.2069 32.0678 22.2749 32.1206 22.4505 32.1622C22.5153 31.9612 22.5432 31.7908 22.6618 31.6183C22.5266 30.722 22.246 29.6163 22.3576 28.7099C23.2037 29.2699 24.0138 30.7855 25.0065 31.6116C25.4307 31.8612 25.874 32.1562 26.2426 32.5034C29.1258 31.0222 31.8182 28.7753 33.9884 26.1648C33.7086 25.6217 33.5986 24.887 33.4264 24.2862C32.8918 22.4194 31.9021 21.2184 30.3816 20.3404C29.2083 19.8417 27.9826 19.6313 26.7371 19.5351C25.7671 19.8799 24.7491 20.4226 23.9982 21.2101C23.6981 21.5423 23.3824 21.8671 23.1007 22.219ZM20.3739 31.3631C20.3325 32.0933 20.5114 32.8062 20.6389 33.5144C20.6951 33.811 20.7609 34.1101 20.8016 34.4099C21.2055 34.3644 21.6092 34.2985 22.0122 34.2425C21.7746 33.9552 21.5687 33.6181 21.3558 33.3065C21.0164 32.666 20.7309 31.9925 20.3739 31.3631Z" fill="#E46924"/>
<path d="M22.3572 28.7099C23.2033 29.2699 24.0134 30.7855 25.006 31.6116C24.4471 32.1545 23.584 32.5306 22.8933 32.8014L22.8508 32.6828C22.7592 32.3425 22.7186 31.9689 22.6614 31.6183C22.5262 30.722 22.2456 29.6163 22.3572 28.7099Z" fill="#278DB5"/>
<path d="M21.2732 27.7441C21.5813 28.022 22.018 28.541 22.3575 28.7099C22.246 29.6163 22.5266 30.722 22.6618 31.6183C22.5431 31.7908 22.5153 31.9612 22.4505 32.1622C22.2748 32.1206 22.2069 32.0678 22.0935 31.9075C21.4371 30.9797 21.1347 28.9077 21.2732 27.7441Z" fill="#DEEAE7" fill-opacity="0.984314"/>
<path d="M18.761 12.1298C20.7621 10.2633 23.6319 9.25713 26.2238 9.53521C28.8723 9.81936 31.4433 11.4151 33.134 13.7282C34.0723 15.012 34.3893 16.6281 35.1301 18.031C35.8755 19.3141 36.4438 20.7181 36.8153 22.1946C36.4536 22.8947 36.025 23.5018 35.5484 24.1038L35.0995 24.7637C34.8031 25.1761 34.5068 25.5604 34.1661 25.9282L33.9883 26.1648C33.7086 25.6217 33.5985 24.887 33.4263 24.2862C32.8917 22.4194 31.902 21.2184 30.3816 20.3404C29.2082 19.8417 27.9826 19.6314 26.737 19.5351C25.7671 19.8799 24.749 20.4226 23.9982 21.2101C23.698 21.5423 23.3823 21.8671 23.1006 22.219C22.9346 21.9521 22.7728 21.6201 22.5229 21.4461C21.6613 22.0536 19.9473 23.4194 19.3273 24.3086C19.3328 24.0884 19.4317 23.8964 19.4342 23.6612C19.1493 23.2106 17.9825 22.1954 17.5165 21.7042C18.4858 20.6327 19.6937 19.8072 20.8133 18.953C21.6989 18.2177 22.717 17.9269 23.6614 17.3397C22.2413 17.3003 20.9532 17.4613 19.6125 18.0106C15.988 20.5367 14.3742 23.1726 13.304 27.8428C12.9865 26.4639 12.7994 25.0368 12.908 23.6088C12.8258 21.0908 13.9782 18.3293 15.1328 16.2493C14.9829 16.1208 14.8295 15.9916 14.6916 15.8469C14.4218 15.5636 14.2596 15.189 14.2539 14.771C14.2466 14.3691 14.387 13.9818 14.6416 13.7009C14.8926 13.42 15.2345 13.2675 15.5878 13.2787C16.0847 13.2943 16.4101 13.5676 16.7336 13.9646C17.3779 13.3106 18.0708 12.7197 18.761 12.1298Z" fill="#64BE49"/>
<path d="M18.7607 12.1298C20.7618 10.2633 23.6316 9.25713 26.2235 9.53521C28.872 9.81936 31.443 11.4151 33.1337 13.7282C34.072 15.012 34.389 16.6281 35.1298 18.031C34.8431 18.7433 35.2427 19.799 35.0929 20.5957C34.55 21.2787 34.0604 22.0117 33.5079 22.6887C33.2134 21.3569 32.8634 20.0553 32.3222 18.8221C30.3736 14.2908 26.2077 11.5243 21.756 11.8052C21.0023 11.8566 19.4125 12.3872 18.779 12.1374C18.7728 12.1349 18.7669 12.1323 18.7607 12.1298Z" fill="#97DE56"/>
<path d="M20.813 18.953C21.6543 19.5926 25.244 17.753 26.7367 19.5351C25.7667 19.8799 24.7487 20.4226 23.9978 21.2101C23.6977 21.5423 23.382 21.8671 23.1002 22.219C22.9342 21.9521 22.7724 21.6201 22.5225 21.4461C21.661 22.0536 19.9469 23.4194 19.3269 24.3086C19.3324 24.0884 19.4313 23.8964 19.4338 23.6612C19.149 23.2106 17.9821 22.1954 17.5161 21.7042C18.4854 20.6327 19.6934 19.8072 20.813 18.953Z" fill="#25C9BA"/>
<path d="M22.5229 21.4461C22.6109 21.3714 22.7026 21.2946 22.7997 21.2354C23.2269 20.9745 23.5624 21.0659 23.9982 21.2101C23.6981 21.5423 23.3824 21.8671 23.1007 22.219C22.9346 21.9521 22.7729 21.6201 22.5229 21.4461Z" fill="#1CB2B0"/>
<path d="M12.908 23.6088L12.9679 23.6397C13.228 23.4726 14.0582 21.7641 14.3434 21.3275C14.512 21.0697 14.7254 20.8384 14.9289 20.6155C16.0676 19.3684 17.9898 17.9838 19.6125 18.0106C15.988 20.5367 14.3742 23.1726 13.304 27.8428C12.9865 26.4639 12.7994 25.0368 12.908 23.6088Z" fill="#276A4B"/>
<path d="M23.6611 17.3397C25.5715 17.2907 28.6509 18.1642 30.0556 19.6784C30.2427 19.8801 30.3308 20.0542 30.3812 20.3404C29.2079 19.8417 27.9822 19.6314 26.7367 19.5351C25.244 17.753 21.6544 19.5926 20.813 18.953C21.6986 18.2177 22.7166 17.9269 23.6611 17.3397Z" fill="#86A49A"/>
<path d="M35.1299 18.031C35.8753 19.3141 36.4436 20.7181 36.8151 22.1946C36.4534 22.8947 36.0248 23.5018 35.5482 24.1038L34.854 23.7227C35.1603 22.7677 35.1049 21.5952 35.093 20.5957C35.2428 19.799 34.8432 18.7433 35.1299 18.031Z" fill="#86A49A"/>
<path d="M15.1325 16.2493C14.9827 16.1208 14.8292 15.9916 14.6914 15.8469C14.4216 15.5636 14.2593 15.189 14.2537 14.771C14.2464 14.3691 14.3868 13.9818 14.6413 13.7009C14.8924 13.42 15.2343 13.2675 15.5876 13.2787C16.0844 13.2943 16.4099 13.5676 16.7334 13.9646C16.1898 14.7173 15.6747 15.4957 15.1325 16.2493Z" fill="#DEEAE7"/>
<path d="M34.8541 23.7226L35.5483 24.1038L35.0994 24.7637C34.803 25.1761 34.5067 25.5604 34.166 25.9282C34.2645 25.1686 34.5926 24.4248 34.8541 23.7226Z" fill="#B6B5B6"/>
<path d="M22.5227 21.4461C22.7726 21.6201 22.9343 21.9521 23.1004 22.219C22.3203 23.2176 21.5458 24.1639 21.2304 25.4836C21.2407 26.2372 21.2549 26.9907 21.273 27.7441C21.1344 28.9077 21.4369 30.9797 22.0933 31.9075C22.2067 32.0678 22.2746 32.1206 22.4503 32.1622C22.5151 31.9612 22.5429 31.7908 22.6616 31.6183C22.7187 31.9689 22.7593 32.3425 22.851 32.6828L22.8934 32.8014C22.9998 33.1698 23.0896 33.5842 23.2953 33.8985C22.9098 34.0605 22.4236 34.2058 22.0119 34.2425C21.7743 33.9552 21.5685 33.6181 21.3555 33.3065C21.0161 32.666 20.7306 31.9925 20.3736 31.3631C20.3322 32.0933 20.5112 32.8062 20.6386 33.5144C19.9021 33.6166 19.174 33.658 18.4325 33.682C18.1415 33.7421 17.4662 33.7814 17.2993 34.0728C17.2236 34.205 17.2307 34.4146 17.2238 34.5693C16.5647 34.488 15.9066 34.3961 15.2499 34.2936L14.9322 33.2907L14.8302 33.1684C14.5543 31.8195 14.379 30.4265 14.4289 29.0391C14.5353 26.0816 15.6073 23.6936 17.5163 21.7042C17.9823 22.1954 19.1491 23.2106 19.434 23.6612C19.4315 23.8964 19.3326 24.0884 19.3271 24.3086C19.947 23.4194 21.6611 22.0536 22.5227 21.4461Z" fill="#1E7DA3"/>
<path d="M14.8302 33.1684C14.5543 31.8195 14.379 30.4265 14.4289 29.0391C14.5353 26.0816 15.6073 23.6936 17.5163 21.7042C17.9823 22.1954 19.1491 23.2106 19.434 23.6612C19.4315 23.8964 19.3326 24.0884 19.3271 24.3086C18.4302 25.8262 17.5181 27.7065 17.1903 29.5146C17.0161 30.475 17.0176 31.4989 17.0444 32.474C17.0536 32.8083 17.1081 33.1797 17.0865 33.5106C17.0822 33.5771 17.0554 33.6378 17.0257 33.6941L17.1218 33.67C17.1487 33.6632 17.175 33.6544 17.2016 33.6456C17.5355 33.5338 18.0686 33.6988 18.4325 33.682C18.1415 33.7421 17.4662 33.7814 17.2993 34.0728C17.2236 34.205 17.2307 34.4146 17.2238 34.5693C16.5647 34.488 15.9066 34.3961 15.2499 34.2936L14.9322 33.2907L14.8302 33.1684Z" fill="#278DB5"/>
<path d="M14.9321 33.2907C15.6091 33.446 16.3353 33.6786 17.0257 33.6941L17.1218 33.67C17.1486 33.6632 17.175 33.6544 17.2015 33.6456C17.5354 33.5338 18.0686 33.6988 18.4325 33.682C18.1415 33.7421 17.4662 33.7814 17.2993 34.0728C17.2235 34.205 17.2307 34.4146 17.2237 34.5693C16.5646 34.488 15.9066 34.3961 15.2498 34.2936L14.9321 33.2907Z" fill="#20468E"/>
<path d="M21.2303 25.4836C21.2406 26.2372 21.2549 26.9907 21.2729 27.7441C21.1344 28.9077 21.4368 30.9797 22.0933 31.9075C22.2066 32.0678 22.2745 32.1206 22.4502 32.1622C22.515 31.9612 22.5428 31.7908 22.6615 31.6183C22.7187 31.9689 22.7593 32.3425 22.8509 32.6828L22.8933 32.8014C22.9997 33.1698 23.0896 33.5842 23.2952 33.8985C22.9098 34.0605 22.4235 34.2058 22.0119 34.2425C21.7742 33.9552 21.5684 33.6181 21.3555 33.3065C21.0161 32.666 20.7305 31.9925 20.3736 31.3631C20.2818 31.0548 20.2566 30.7567 20.2481 30.4327C20.2163 29.2032 20.4839 26.3773 21.2303 25.4836Z" fill="#B6B5B6"/>
<path d="M22.8509 32.6828L22.8934 32.8014C22.9998 33.1698 23.0896 33.5842 23.2952 33.8985C22.9098 34.0605 22.4235 34.2058 22.0119 34.2425C21.7742 33.9552 21.5684 33.6181 21.3555 33.3065C21.8102 32.9917 22.3872 33.0005 22.8509 32.6828Z" fill="#A3A3A3"/>
<path d="M16.1108 36.0585L17.9691 36.4559C19.2585 36.6133 20.5261 36.6208 21.8206 36.5766L22.6155 37.7942C22.9195 38.1343 23.2219 38.5222 23.5762 38.7945C26.1704 41.3928 29.191 41.9919 32.5404 42.3543C31.4877 43.1873 30.1973 43.8171 28.8828 43.7362C25.8174 44.1454 22.5791 43.0105 20.0943 40.9817C19.1936 40.3251 18.412 39.5753 17.6917 38.6793L17.4727 38.4484C17.0283 37.6409 16.5071 36.9032 16.1108 36.0585Z" fill="#20468E"/>
<path d="M23.0356 39.182C22.9414 38.9249 22.7767 38.6812 22.6632 38.4306C22.5538 38.1892 22.5417 38.0467 22.6156 37.7943C22.9196 38.1343 23.222 38.5222 23.5763 38.7945C26.1705 41.3928 29.1911 41.9919 32.5405 42.3543C31.4878 43.1873 30.1974 43.8171 28.8829 43.7362C28.7132 43.5377 26.9277 42.9869 26.3912 42.639C25.0748 41.7852 24.0355 40.445 23.0356 39.182Z" fill="#112546"/>
<path d="M17.9688 36.4559C19.2582 36.6133 20.5258 36.6208 21.8203 36.5766L22.6152 37.7942C22.5413 38.0467 22.5534 38.1892 22.6628 38.4306C22.7763 38.6812 22.941 38.9248 23.0352 39.182C21.7364 39.1606 20.3377 39.2803 19.1061 38.7522C18.7397 37.9787 18.3605 37.2133 17.9688 36.4559Z" fill="#173A72"/>
<path d="M17.6914 38.6793C18.1662 38.6037 18.5677 38.7348 19.0152 38.9035C19.2772 39.2814 20.1719 40.3658 20.1306 40.849C20.1265 40.8976 20.1137 40.939 20.094 40.9817C19.1933 40.3251 18.4118 39.5753 17.6914 38.6793Z" fill="#2166A1"/>
<path d="M24.48 36.0499C25.5187 35.8149 26.5217 35.4806 27.5291 35.1148C27.83 35.5842 28.2408 35.8576 28.6643 36.1696L28.7504 36.1797C29.1463 36.5088 29.5605 36.7889 30.0341 36.9502L29.7522 37.1444C29.0781 37.403 28.3002 37.6135 27.6825 38.01C27.6283 38.1465 27.5841 38.2688 27.5584 38.4166L27.4621 38.5033C27.4361 38.3784 27.4252 38.2639 27.4197 38.1366C27.1802 38.1694 27.0168 38.2351 26.8045 38.3581L26.8036 38.443C26.9991 38.6104 27.2213 38.7606 27.2944 39.0395C26.8299 38.7679 26.3442 38.3536 25.9466 37.9705L25.5661 37.4953C25.177 37.0258 24.8043 36.5818 24.48 36.0499Z" fill="#2166A1"/>
<path d="M24.48 36.0499C25.5187 35.8149 26.5217 35.4806 27.5291 35.1148C27.83 35.5842 28.2408 35.8576 28.6643 36.1696C27.5929 36.5741 26.5778 36.9144 25.5661 37.4953C25.177 37.0258 24.8043 36.5818 24.48 36.0499Z" fill="#20468E"/>
<path d="M38.8426 26.847C38.7971 28.0574 37.8402 29.6405 37.0833 30.4244C36.3136 31.2219 35.4033 31.8451 34.7309 32.7606C33.875 32.946 32.7806 33.1023 31.9165 32.9589C32.6823 32.3336 33.5101 31.8054 34.282 31.1889C35.4386 30.2651 36.5363 29.2126 37.6173 28.179L38.8426 26.847Z" fill="#3B863B"/>
<path d="M11.4966 32.7791C11.9222 33.0316 12.249 33.6142 12.5933 33.9947C13.5069 35.0036 14.9005 35.6636 16.1109 36.0585C16.5071 36.9032 17.0283 37.6409 17.4728 38.4484C16.6591 38.2555 15.9091 37.9928 15.1709 37.5542C13.4778 36.5479 12.0703 34.8603 11.4966 32.7791Z" fill="#B6B5B6"/>
<path d="M21.8203 36.5766C22.7016 36.4498 23.63 36.3563 24.4796 36.0499C24.8039 36.5818 25.1767 37.0258 25.5658 37.4953L25.9463 37.9705C25.1689 38.3789 24.4122 38.5994 23.576 38.7945C23.2216 38.5222 22.9192 38.1343 22.6153 37.7942L21.8203 36.5766Z" fill="#B6B5B6"/>
<path d="M11.4185 29.8811C11.4781 29.7429 11.5913 29.6133 11.678 29.4933C12.2202 31.3296 13.3446 32.3161 14.8305 33.1685L14.9324 33.2907L15.2501 34.2936C14.6629 34.1056 14.1016 33.8264 13.5824 33.4642C12.3041 32.5731 11.7572 31.4872 11.4185 29.8811Z" fill="#B6B5B6"/>
<path d="M25.0063 31.6116C25.4306 31.8612 25.8739 32.1562 26.2424 32.5034C25.3921 33.1516 24.2571 33.4999 23.2954 33.8985C23.0898 33.5842 22.9999 33.1698 22.8936 32.8014C23.5843 32.5306 24.4474 32.1545 25.0063 31.6116Z" fill="#2166A1"/>
<path d="M20.6385 33.5144C20.6947 33.811 20.7604 34.1101 20.8012 34.4099C19.6405 34.5796 18.3901 34.7446 17.2236 34.5693C17.2306 34.4146 17.2235 34.205 17.2992 34.0728C17.4661 33.7814 18.1414 33.7421 18.4324 33.682C19.1738 33.658 19.902 33.6166 20.6385 33.5144Z" fill="#173A72"/>
<path d="M43.5849 23.4232C43.8498 24.1989 44.1411 24.9181 44.1956 25.7584C44.7587 28.9399 43.869 32.5325 42.3049 35.1884C40.9854 37.4291 38.965 39.6315 36.651 40.4757C36.7728 41.058 36.7602 41.7301 36.4772 42.2541C36.2692 42.6392 35.9338 42.9399 35.5415 43.0426C35.2255 43.1251 34.866 43.0896 34.5899 42.8869C34.3447 42.707 34.1867 42.4124 34.1319 42.0908C34.0835 41.8061 34.15 41.4166 34.2133 41.1366C34.2045 41.1374 34.1957 41.1383 34.1869 41.1391C31.9082 41.3181 29.0895 40.7598 27.2941 39.0395C27.221 38.7606 26.9988 38.6104 26.8032 38.443L26.8042 38.3581C27.0165 38.2351 27.1799 38.1694 27.4194 38.1366C27.4248 38.2639 27.4358 38.3784 27.4618 38.5033L27.5581 38.4166C27.5838 38.2688 27.628 38.1465 27.6822 38.01C28.2998 37.6135 29.0777 37.403 29.7519 37.1444L30.0338 36.9502C29.5602 36.7889 29.146 36.5088 28.7501 36.1797L28.6639 36.1696C28.2405 35.8576 27.8297 35.5842 27.5287 35.1148C28.2553 34.8667 28.9742 34.5127 29.6912 34.223C30.2318 34.3584 30.7785 34.4483 31.3256 34.5429C31.7631 34.5841 32.1996 34.6262 32.6384 34.6448C32.8969 34.6365 33.1715 34.6461 33.4276 34.6088L33.7247 34.5487C33.8886 34.5594 34.0537 34.5652 34.2177 34.5571C36.5007 34.4433 38.9683 33.1413 40.5141 31.2475C42.3508 28.6415 42.9234 26.6002 43.5849 23.4232Z" fill="#278DB5"/>
<path d="M29.6913 34.223C30.2319 34.3584 30.7786 34.4483 31.3256 34.5429C31.7631 34.5841 32.1996 34.6262 32.6385 34.6448C32.897 34.6365 33.1716 34.6461 33.4276 34.6088C33.431 34.9364 33.4404 35.2654 33.4368 35.593C34.3368 36.1239 35.0237 37.0316 35.9237 37.5195L35.8308 37.6924C33.7591 38.13 31.7656 37.6847 29.752 37.1444L30.0338 36.9502C29.5602 36.7889 29.1461 36.5088 28.7502 36.1797L28.664 36.1696C28.2406 35.8576 27.8298 35.5842 27.5288 35.1148C28.2553 34.8667 28.9742 34.5127 29.6913 34.223Z" fill="#2166A1"/>
<path d="M29.6913 34.223C30.2319 34.3584 30.7786 34.4483 31.3256 34.5429C31.7631 34.5841 32.1996 34.6262 32.6385 34.6448L32.902 34.7489C32.9026 34.9298 32.8539 34.9826 32.7409 35.1092C32.053 35.8799 30.8903 36.4391 30.0338 36.9502C29.5602 36.7889 29.1461 36.5088 28.7502 36.1797L28.664 36.1696C28.2406 35.8576 27.8298 35.5842 27.5288 35.1148C28.2553 34.8667 28.9742 34.5127 29.6913 34.223Z" fill="#20468E"/>
<path d="M29.6913 34.223C30.2319 34.3584 30.7786 34.4483 31.3256 34.5429C31.0418 35.2364 29.5133 35.8894 28.89 36.1363C28.8445 36.1542 28.7971 36.1674 28.7502 36.1797L28.664 36.1696C28.2406 35.8576 27.8298 35.5842 27.5288 35.1148C28.2553 34.8667 28.9742 34.5127 29.6913 34.223Z" fill="#173A72"/>
<path d="M43.585 23.4232C43.8498 24.1989 44.1411 24.9181 44.1956 25.7584C44.1887 25.7709 44.1814 25.7835 44.1744 25.796C43.9612 26.1872 43.8912 26.7611 43.7416 27.1986C43.2857 28.5305 42.1172 30.8188 40.8294 31.1844C40.7258 31.2138 40.6202 31.2326 40.5142 31.2475C42.3508 28.6415 42.9234 26.6002 43.585 23.4232Z" fill="#276A4B"/>
<path d="M34.2132 41.1366C35.0385 40.9814 35.8532 40.7606 36.651 40.4757C36.7728 41.058 36.7602 41.7301 36.4771 42.2541C36.2692 42.6392 35.9337 42.9399 35.5415 43.0426C35.2255 43.1251 34.866 43.0896 34.5899 42.8869C34.3446 42.707 34.1867 42.4124 34.1319 42.0908C34.0835 41.8061 34.1499 41.4166 34.2132 41.1366Z" fill="#DEEAE7"/>
<path d="M35.9235 37.5195C36.1499 37.4624 36.5559 37.3054 36.7743 37.3832C36.5226 37.583 36.1315 37.6397 35.8306 37.6924L35.9235 37.5195Z" fill="#1E7DA3"/>
<path d="M39.5923 13.6017C40.519 12.9377 43.3548 10.5944 44.2966 10.8415C44.5598 10.9106 44.7835 11.0243 44.9259 11.2943C45.3803 12.1571 46.6542 18.2457 46.8027 19.5319C46.8714 19.8156 47.058 20.3389 46.9699 20.6119C46.799 20.6301 46.6911 20.4979 46.5524 20.391C45.7555 19.9147 45.0251 19.2435 44.2275 18.7435C44.0176 19.2246 43.7932 19.681 43.5434 20.1372C43.418 20.4514 43.2842 20.7651 43.1729 21.0859L43.1187 21.2122C42.5072 21.9618 41.9855 22.8005 41.3973 23.5738C40.5576 24.6776 39.6586 25.7202 38.8423 26.847L37.6169 28.179C37.6461 27.7227 37.6486 27.4843 37.4074 27.101C37.0526 26.5363 35.7201 24.8827 35.0991 24.7637L35.5481 24.1038C36.0247 23.5018 36.4532 22.8947 36.815 22.1946L36.9179 22.0163C36.8884 20.2477 36.9283 18.5387 36.5039 16.8213L36.4784 15.9929L36.3777 15.8094C36.6223 15.5851 36.8808 15.3963 37.1469 15.2065C37.6985 14.7539 38.3618 14.3898 38.9528 13.9997L39.5923 13.6017Z" fill="#F1982A"/>
<path d="M39.5923 13.6017C40.5191 12.9377 43.3549 10.5944 44.2967 10.8415C44.5598 10.9106 44.7836 11.0243 44.9259 11.2943C45.3803 12.1571 46.6542 18.2457 46.8027 19.5319C46.8715 19.8156 47.0581 20.3389 46.9699 20.6119C46.799 20.6301 46.6912 20.4979 46.5525 20.391C45.7555 19.9147 45.0252 19.2435 44.2276 18.7435C43.2788 18.5492 42.4315 17.8355 41.555 17.4013C40.908 17.0809 40.2213 16.9052 39.538 16.7135C39.2926 16.6324 39.0491 16.5444 38.8077 16.4496C38.7299 16.2713 37.5119 15.6113 37.147 15.2065C37.6985 14.7539 38.3619 14.3898 38.9528 13.9997L39.5923 13.6017Z" fill="url(#paint0_linear_71_683)"/>
<path d="M46.8029 19.5319C46.8716 19.8156 47.0582 20.3389 46.9701 20.6119C46.7992 20.6301 46.6913 20.4979 46.5526 20.391C46.5327 20.2245 46.4797 19.9716 46.5215 19.8111C46.5646 19.6452 46.6796 19.6111 46.8029 19.5319Z" fill="#F1982A"/>
<path d="M37.1472 15.2065C37.5121 15.6113 38.7302 16.2713 38.8079 16.4496C39.0493 16.5444 39.2928 16.6324 39.5382 16.7135C39.2524 17.2971 38.9852 17.8923 38.7376 18.4979C38.2968 19.6443 37.7491 21.1485 36.9182 22.0163C36.8887 20.2477 36.9286 18.5387 36.5042 16.8213L36.4787 15.9929L36.3779 15.8094C36.6225 15.5851 36.8811 15.3963 37.1472 15.2065Z" fill="#97DE56"/>
<path d="M37.1472 15.2065C37.5121 15.6113 38.7302 16.2713 38.8079 16.4496C38.028 16.3559 37.2374 16.2185 36.4787 15.9929L36.3779 15.8094C36.6225 15.5851 36.8811 15.3963 37.1472 15.2065Z" fill="#F1982A"/>
<path d="M39.5379 16.7135C40.2212 16.9052 40.9079 17.0809 41.5549 17.4013C42.4314 17.8355 43.2787 18.5492 44.2275 18.7435C44.0175 19.2246 43.7931 19.681 43.5434 20.1372C43.147 19.9825 42.757 19.6757 42.3699 19.4765C41.1827 18.865 40.0344 18.5978 38.7373 18.4979C38.9849 17.8923 39.252 17.2971 39.5379 16.7135Z" fill="#E46924"/>
<path d="M27.6938 8.96484C28.5229 8.79266 29.5156 8.53053 30.3497 8.76045C33.426 8.78279 36.7639 10.3918 38.9161 12.8573L38.9478 12.8936C39.1548 13.0998 39.4504 13.3379 39.5924 13.6017L38.9529 13.9997C38.362 14.3898 37.6986 14.7539 37.1471 15.2065C36.8809 15.3963 36.6224 15.5851 36.3778 15.8094L36.4785 15.9929L36.5041 16.8213C34.6253 12.8425 31.5414 10.7235 27.8332 9.39761L27.6938 8.96484Z" fill="#97DE56"/>
<path d="M27.6938 8.96484C28.5229 8.79266 29.5156 8.53053 30.3497 8.76045L30.3679 8.77491C30.9387 9.22084 31.6859 9.37 32.2966 9.7537C34.1021 10.8882 35.9327 13.4228 36.3682 15.7276C36.3726 15.7513 36.3755 15.787 36.3778 15.8094L36.4785 15.9929L36.5041 16.8213C34.6253 12.8425 31.5414 10.7235 27.8332 9.39761L27.6938 8.96484Z" fill="#3B863B"/>
<path d="M38.948 12.8936C39.155 13.0998 39.4506 13.3379 39.5926 13.6017L38.9531 13.9997C38.8351 13.5923 38.8144 13.2955 38.948 12.8936Z" fill="#B0E262"/>
<path d="M43.1191 21.2122C43.0912 21.6433 43.0763 21.9763 43.1859 22.3945C42.9437 23.3591 42.7611 24.3605 42.4405 25.2958C41.4872 28.0743 39.4857 30.5321 37.1881 31.983C37.0577 32.0654 36.9249 32.1375 36.7842 32.1952C36.0532 32.2517 35.4351 32.6375 34.731 32.7606C35.4033 31.8451 36.3136 31.2219 37.0834 30.4244C37.8402 29.6405 38.7971 28.0574 38.8427 26.847C39.659 25.7202 40.558 24.6776 41.3977 23.5738C41.9859 22.8005 42.5076 21.9619 43.1191 21.2122Z" fill="#64BE49"/>
<path d="M34.7308 32.7606C35.435 32.6375 36.0531 32.2517 36.7841 32.1952C35.8087 33.255 34.9297 33.885 33.7249 34.5487L33.4277 34.6088C33.1717 34.6461 32.8971 34.6365 32.6386 34.6448C32.1998 34.6262 31.7632 34.5841 31.3257 34.5429C30.7787 34.4483 30.232 34.3584 29.6914 34.223C30.3974 33.758 31.1662 33.323 31.9164 32.9589C32.7804 33.1023 33.8749 32.946 34.7308 32.7606Z" fill="#A3A3A3"/>
<path d="M11.6574 26.7573L11.8059 27.0764C11.6574 27.9042 11.6034 28.6447 11.6779 29.4933C11.5913 29.6133 11.4781 29.7429 11.4184 29.8811C11.3375 29.4116 11.2638 28.9395 11.1382 28.482C11.2108 27.8791 11.4441 27.3104 11.6574 26.7573Z" fill="#A3A3A3"/>
<path d="M43.1729 21.0859C43.3744 21.1395 43.3537 20.9869 43.4902 21.2159C43.5343 21.6281 43.3938 22.0604 43.1855 22.3945C43.0759 21.9763 43.0909 21.6433 43.1187 21.2122L43.1729 21.0859Z" fill="#C2D2B0" fill-opacity="0.423529"/>
<path d="M11.6572 26.7573C11.7185 26.5594 11.7691 26.2854 11.928 26.1621C12.0243 26.4225 11.8713 26.8098 11.8057 27.0764L11.6572 26.7573Z" fill="#B6B5B6" fill-opacity="0.898039"/>
<path d="M27.8335 9.39761C27.6227 9.32244 27.4291 9.24623 27.2339 9.12621C27.3557 8.98717 27.5257 8.99571 27.6941 8.96485L27.8335 9.39761Z" fill="#64BE49" fill-opacity="0.94902"/>
<defs>
<linearGradient id="paint0_linear_71_683" x1="41.7842" y1="17.8236" x2="45.0654" y2="11.329" gradientUnits="userSpaceOnUse">
<stop stop-color="#F49E27"/>
<stop offset="1" stop-color="#FED26E"/>
</linearGradient>
</defs>
</svg>
