<svg width="156" height="51" viewBox="0 0 156 51" fill="none" xmlns="http://www.w3.org/2000/svg">
<path d="M150.222 51H5.77778C2.60144 51 0 48.1297 0 44.625V6.37499C0 2.87033 2.60144 -9.1151e-06 5.77778 -9.1151e-06H150.222C153.399 -9.1151e-06 156 2.87033 156 6.37499V44.625C156 48.1297 153.399 51 150.222 51Z" fill="black"/>
<path d="M150.222 1.02158C152.897 1.02158 155.074 3.42337 155.074 6.37499V44.625C155.074 47.5766 152.897 49.9784 150.222 49.9784H5.77778C3.10267 49.9784 0.925889 47.5766 0.925889 44.625V6.37499C0.925889 3.42337 3.10267 1.02158 5.77778 1.02158H150.222ZM150.222 -9.1151e-06H5.77778C2.60144 -9.1151e-06 0 2.87033 0 6.37499V44.625C0 48.1297 2.60144 51 5.77778 51H150.222C153.399 51 156 48.1297 156 44.625V6.37499C156 2.87033 153.399 -9.1151e-06 150.222 -9.1151e-06Z" fill="#A6A6A6"/>
<path d="M54.7951 13.0594C54.7951 14.124 54.5062 14.9767 53.9371 15.6126C53.2827 16.3664 52.4305 16.7457 51.3862 16.7457C50.3881 16.7457 49.5358 16.36 48.8367 15.5998C48.1362 14.8284 47.7866 13.8817 47.7866 12.7486C47.7866 11.6154 48.1362 10.6687 48.8367 9.90375C49.5358 9.13715 50.3881 8.75146 51.3862 8.75146C51.8831 8.75146 52.3568 8.86462 52.809 9.075C53.2596 9.28696 53.6265 9.57384 53.8923 9.92765L53.2885 10.6002C52.8248 9.99618 52.1936 9.69815 51.3862 9.69815C50.6582 9.69815 50.027 9.97865 49.4911 10.5444C48.961 11.1118 48.6952 11.8465 48.6952 12.7486C48.6952 13.6507 48.961 14.3917 49.4911 14.9591C50.027 15.5185 50.6582 15.8054 51.3862 15.8054C52.159 15.8054 52.809 15.5185 53.3217 14.9527C53.6597 14.5782 53.8518 14.0618 53.9024 13.402H51.3862V12.4808H54.7431C54.7835 12.6801 54.7951 12.8729 54.7951 13.0594Z" fill="white" stroke="white" stroke-width="0.16" stroke-miterlimit="10"/>
<path d="M60.1201 9.86548H56.9669V12.288H59.8096V13.2092H56.9669V15.6317H60.1201V16.5704H56.0742V8.92676H60.1201V9.86548Z" fill="white" stroke="white" stroke-width="0.16" stroke-miterlimit="10"/>
<path d="M63.878 16.5704H62.9854V9.86548H61.0513V8.92676H65.8136V9.86548H63.878V16.5704Z" fill="white" stroke="white" stroke-width="0.16" stroke-miterlimit="10"/>
<path d="M69.2603 16.5704V8.92676H70.1515V16.5704H69.2603Z" fill="white" stroke="white" stroke-width="0.16" stroke-miterlimit="10"/>
<path d="M74.1036 16.5704H73.2182V9.86548H71.2769V8.92676H76.045V9.86548H74.1036V16.5704Z" fill="white" stroke="white" stroke-width="0.16" stroke-miterlimit="10"/>
<path d="M85.0607 15.5871C84.3775 16.36 83.5311 16.7457 82.5214 16.7457C81.506 16.7457 80.6595 16.36 79.9763 15.5871C79.2945 14.8157 78.9551 13.869 78.9551 12.7486C78.9551 11.6282 79.2945 10.6815 79.9763 9.91012C80.6595 9.13715 81.506 8.75146 82.5214 8.75146C83.5253 8.75146 84.3718 9.13715 85.055 9.9165C85.7425 10.6942 86.082 11.6346 86.082 12.7486C86.082 13.869 85.7425 14.8157 85.0607 15.5871ZM80.6364 14.9464C81.1506 15.5185 81.7761 15.8054 82.5214 15.8054C83.261 15.8054 83.8922 15.5185 84.4006 14.9464C84.9134 14.3742 85.1734 13.6395 85.1734 12.7486C85.1734 11.8577 84.9134 11.123 84.4006 10.5508C83.8922 9.97865 83.261 9.69178 82.5214 9.69178C81.7761 9.69178 81.1506 9.97865 80.6364 10.5508C80.1236 11.123 79.8636 11.8577 79.8636 12.7486C79.8636 13.6395 80.1236 14.3742 80.6364 14.9464Z" fill="white" stroke="white" stroke-width="0.16" stroke-miterlimit="10"/>
<path d="M87.3369 16.5704V8.92676H88.4202L91.7887 14.8714H91.8277L91.7887 13.402V8.92676H92.6799V16.5704H91.7497L88.2224 10.3324H88.1834L88.2224 11.8083V16.5704H87.3369Z" fill="white" stroke="white" stroke-width="0.16" stroke-miterlimit="10"/>
<path d="M30.2292 32.2771L16.3361 41.0899L16.2926 41.1138C15.7998 41.4405 15.22 41.6237 14.604 41.6237C13.0603 41.6237 11.763 40.4683 11.3862 38.9066C11.3813 38.9013 11.3789 38.8986 11.3789 38.8986L23.7284 24.4922L30.2292 32.2771Z" fill="#EA4335"/>
<path d="M37.9579 25.2569C37.9579 26.6513 37.2476 27.8705 36.1968 28.492L30.2322 32.2768L23.4487 24.8186L30.2105 18.2051L36.204 22.0298L36.2185 22.0378C37.2549 22.6593 37.9579 23.8704 37.9579 25.2569Z" fill="#FBBC04"/>
<path d="M24.1515 24.8581L11.3817 38.898C11.3092 38.5952 11.2729 38.2844 11.2729 37.9577V12.4995C11.2729 12.1728 11.3092 11.8541 11.3817 11.5513L24.1515 24.8581Z" fill="#4285F4"/>
<path d="M11.3789 11.5513C11.763 9.98155 13.0603 8.82617 14.604 8.82617C15.2345 8.82617 15.8215 9.02538 16.3288 9.35207L30.2075 18.2047L23.8153 25.2246L11.3789 11.5513Z" fill="#34A853"/>
<path d="M78.7292 27.7341C76.0151 27.7341 73.7979 30.0132 73.7979 33.1576C73.7979 36.2766 76.0151 38.5796 78.7292 38.5796C81.4491 38.5796 83.6663 36.2766 83.6663 33.1576C83.6663 30.0132 81.4491 27.7341 78.7292 27.7341ZM78.7292 36.444C77.24 36.444 75.9588 35.0877 75.9588 33.1576C75.9588 31.2021 77.24 29.8697 78.7292 29.8697C80.2184 29.8697 81.5054 31.2021 81.5054 33.1576C81.5054 35.0877 80.2184 36.444 78.7292 36.444ZM67.9695 27.7341C65.2496 27.7341 63.0382 30.0132 63.0382 33.1576C63.0382 36.2766 65.2496 38.5796 67.9695 38.5796C70.688 38.5796 72.9009 36.2766 72.9009 33.1576C72.9009 30.0132 70.688 27.7341 67.9695 27.7341ZM67.9695 36.444C66.4789 36.444 65.1933 35.0877 65.1933 33.1576C65.1933 31.2021 66.4789 29.8697 67.9695 29.8697C69.4588 29.8697 70.74 31.2021 70.74 33.1576C70.74 35.0877 69.4588 36.444 67.9695 36.444ZM55.166 29.3964V31.701H60.1536C60.0078 32.9887 59.6178 33.9354 59.0198 34.5952C58.2918 35.3921 57.1579 36.2766 55.166 36.2766C52.0965 36.2766 49.693 33.5433 49.693 30.1566C49.693 26.7699 52.0965 24.0366 55.166 24.0366C56.8257 24.0366 58.0332 24.7522 58.9244 25.6798L60.3963 24.0557C59.1498 22.7425 57.4915 21.7336 55.166 21.7336C50.9569 21.7336 47.4194 25.5124 47.4194 30.1566C47.4194 34.8008 50.9569 38.5796 55.166 38.5796C57.441 38.5796 59.1498 37.7572 60.4931 36.2145C61.8696 34.6956 62.2986 32.56 62.2986 30.8355C62.2986 30.3 62.2582 29.8076 62.186 29.3964H55.166ZM107.521 31.183C107.115 29.9701 105.863 27.7341 103.312 27.7341C100.784 27.7341 98.6799 29.9319 98.6799 33.1576C98.6799 36.1953 100.763 38.5796 103.555 38.5796C105.813 38.5796 107.115 37.0607 107.651 36.1762L105.976 34.9442C105.417 35.8463 104.656 36.444 103.555 36.444C102.461 36.444 101.677 35.8909 101.174 34.8008L107.748 31.7998L107.521 31.183ZM100.819 32.9887C100.763 30.8977 102.291 29.8267 103.386 29.8267C104.244 29.8267 104.972 30.3001 105.215 30.9774L100.819 32.9887ZM95.4761 38.2497H97.637V22.3122H95.4761V38.2497ZM91.9372 28.9422H91.865C91.3796 28.3079 90.4538 27.7341 89.2809 27.7341C86.8195 27.7341 84.5691 30.1184 84.5691 33.1752C84.5691 36.2145 86.8195 38.5796 89.2809 38.5796C90.4538 38.5796 91.3796 38.001 91.865 37.3476H91.9372V38.1254C91.9372 40.1988 90.9333 41.3129 89.3141 41.3129C87.9939 41.3129 87.1749 40.261 86.8369 39.3765L84.9576 40.2419C85.4993 41.6794 86.9336 43.4485 89.3141 43.4485C91.8476 43.4485 93.9854 41.8037 93.9854 37.8018V28.064H91.9372V28.9422ZM89.4658 36.444C87.9765 36.444 86.73 35.0685 86.73 33.1752C86.73 31.2643 87.9765 29.8697 89.4658 29.8697C90.9333 29.8697 92.0903 31.2643 92.0903 33.1752C92.0903 35.0685 90.9333 36.444 89.4658 36.444ZM117.638 22.3122H112.47V38.2497H114.625V32.211H117.638C120.032 32.211 122.379 30.3 122.379 27.2608C122.379 24.2231 120.026 22.3122 117.638 22.3122ZM117.695 29.994H114.625V24.5291H117.695C119.304 24.5291 120.222 26.0033 120.222 27.2608C120.222 28.4943 119.304 29.994 117.695 29.994ZM131.017 27.7038C129.46 27.7038 127.84 28.4625 127.174 30.1439L129.087 31.0284C129.499 30.1439 130.255 29.857 131.056 29.857C132.174 29.857 133.308 30.5981 133.325 31.9066V32.0739C132.935 31.8253 132.1 31.4571 131.073 31.4571C129.013 31.4571 126.914 32.7082 126.914 35.0431C126.914 37.1787 128.602 38.5541 130.498 38.5541C131.948 38.5541 132.749 37.8321 133.251 36.9922H133.325V38.2242H135.406V32.1106C135.406 29.2848 133.494 27.7038 131.017 27.7038ZM130.757 36.4376C130.052 36.4376 129.07 36.0519 129.07 35.0877C129.07 33.8541 130.294 33.3808 131.355 33.3808C132.304 33.3808 132.749 33.6119 133.325 33.9163C133.156 35.3921 132.005 36.4376 130.757 36.4376ZM142.99 28.0529L140.512 34.9618H140.439L137.878 28.0529H135.554L139.402 37.7078L137.206 43.0803H139.458L145.387 28.0529H142.99ZM123.563 38.2497H125.724V22.3122H123.563V38.2497Z" fill="white"/>
</svg>
