<svg width="16" height="18" viewBox="0 0 16 18" fill="none" xmlns="http://www.w3.org/2000/svg">
<path d="M6.31238 14.1802L12.9921 7.50055L11.8202 6.32867L6.31238 11.7974L4.16394 9.64899L2.99207 10.8209L6.31238 14.1802ZM8.578 2.73492C8.42175 2.57867 8.22644 2.50055 7.99207 2.50055C7.75769 2.50055 7.56238 2.57867 7.40613 2.73492C7.24988 2.89117 7.17175 3.08649 7.17175 3.32086C7.17175 3.55524 7.24988 3.76357 7.40613 3.94586C7.56238 4.10211 7.75769 4.18024 7.99207 4.18024C8.22644 4.18024 8.42175 4.10211 8.578 3.94586C8.73425 3.76357 8.81238 3.55524 8.81238 3.32086C8.81238 3.08649 8.73425 2.89117 8.578 2.73492ZM13.8124 2.50055C14.2551 2.50055 14.6457 2.66982 14.9843 3.00836C15.3228 3.3469 15.4921 3.73753 15.4921 4.18024V15.8209C15.4921 16.2636 15.3228 16.6542 14.9843 16.9927C14.6457 17.3313 14.2551 17.5005 13.8124 17.5005H2.17175C1.72904 17.5005 1.33842 17.3313 0.999878 16.9927C0.661336 16.6542 0.492065 16.2636 0.492065 15.8209V4.18024C0.492065 3.73753 0.661336 3.3469 0.999878 3.00836C1.33842 2.66982 1.72904 2.50055 2.17175 2.50055H5.64832C5.83061 2.00576 6.13009 1.60211 6.54675 1.28961C6.96342 0.977112 7.44519 0.820862 7.99207 0.820862C8.53894 0.820862 9.02071 0.977112 9.43738 1.28961C9.85404 1.60211 10.1535 2.00576 10.3358 2.50055H13.8124Z" fill="#202224"/>
</svg>
