<svg width="25" height="25" viewBox="0 0 25 25" fill="none" xmlns="http://www.w3.org/2000/svg">
<path d="M8.6001 22.8C9.15238 22.8 9.6001 22.3523 9.6001 21.8C9.6001 21.2477 9.15238 20.8 8.6001 20.8C8.04781 20.8 7.6001 21.2477 7.6001 21.8C7.6001 22.3523 8.04781 22.8 8.6001 22.8Z" stroke="#155DFC" stroke-width="2" stroke-linecap="round" stroke-linejoin="round"/>
<path d="M19.6001 22.8C20.1524 22.8 20.6001 22.3523 20.6001 21.8C20.6001 21.2477 20.1524 20.8 19.6001 20.8C19.0478 20.8 18.6001 21.2477 18.6001 21.8C18.6001 22.3523 19.0478 22.8 19.6001 22.8Z" stroke="#155DFC" stroke-width="2" stroke-linecap="round" stroke-linejoin="round"/>
<path d="M2.65009 2.84998H4.65009L7.31009 15.27C7.40766 15.7248 7.66076 16.1315 8.0258 16.4198C8.39084 16.7082 8.84499 16.8603 9.31009 16.85H19.0901C19.5453 16.8492 19.9866 16.6933 20.3411 16.4078C20.6957 16.1224 20.9422 15.7245 21.0401 15.28L22.6901 7.84998H5.72009" stroke="#155DFC" stroke-width="2" stroke-linecap="round" stroke-linejoin="round"/>
</svg>
