<svg width="20" height="20" viewBox="0 0 20 20" fill="none" xmlns="http://www.w3.org/2000/svg">
<path d="M7.49179 2.50076H3.32525C2.86503 2.50076 2.49194 2.87385 2.49194 3.33407V9.16722C2.49194 9.62745 2.86503 10.0005 3.32525 10.0005H7.49179C7.95201 10.0005 8.32509 9.62745 8.32509 9.16722V3.33407C8.32509 2.87385 7.95201 2.50076 7.49179 2.50076Z" stroke="white" stroke-width="1.66661" stroke-linecap="round" stroke-linejoin="round"/>
<path d="M16.6582 2.50076H12.4916C12.0314 2.50076 11.6583 2.87385 11.6583 3.33407V5.83399C11.6583 6.29422 12.0314 6.6673 12.4916 6.6673H16.6582C17.1184 6.6673 17.4915 6.29422 17.4915 5.83399V3.33407C17.4915 2.87385 17.1184 2.50076 16.6582 2.50076Z" stroke="white" stroke-width="1.66661" stroke-linecap="round" stroke-linejoin="round"/>
<path d="M16.6582 10.0005H12.4916C12.0314 10.0005 11.6583 10.3736 11.6583 10.8338V16.667C11.6583 17.1272 12.0314 17.5003 12.4916 17.5003H16.6582C17.1184 17.5003 17.4915 17.1272 17.4915 16.667V10.8338C17.4915 10.3736 17.1184 10.0005 16.6582 10.0005Z" stroke="white" stroke-width="1.66661" stroke-linecap="round" stroke-linejoin="round"/>
<path d="M7.49179 13.3338H3.32525C2.86503 13.3338 2.49194 13.7068 2.49194 14.1671V16.667C2.49194 17.1272 2.86503 17.5003 3.32525 17.5003H7.49179C7.95201 17.5003 8.32509 17.1272 8.32509 16.667V14.1671C8.32509 13.7068 7.95201 13.3338 7.49179 13.3338Z" stroke="white" stroke-width="1.66661" stroke-linecap="round" stroke-linejoin="round"/>
</svg>
