<svg width="20" height="20" viewBox="0 0 20 20" fill="none" xmlns="http://www.w3.org/2000/svg">
<path d="M7.49203 2.50076H3.32549C2.86527 2.50076 2.49219 2.87385 2.49219 3.33407V9.16722C2.49219 9.62745 2.86527 10.0005 3.32549 10.0005H7.49203C7.95225 10.0005 8.32534 9.62745 8.32534 9.16722V3.33407C8.32534 2.87385 7.95225 2.50076 7.49203 2.50076Z" stroke="#202224" stroke-width="1.66661" stroke-linecap="round" stroke-linejoin="round"/>
<path d="M16.6585 2.50076H12.492C12.0318 2.50076 11.6587 2.87385 11.6587 3.33407V5.83399C11.6587 6.29422 12.0318 6.6673 12.492 6.6673H16.6585C17.1188 6.6673 17.4918 6.29422 17.4918 5.83399V3.33407C17.4918 2.87385 17.1188 2.50076 16.6585 2.50076Z" stroke="#202224" stroke-width="1.66661" stroke-linecap="round" stroke-linejoin="round"/>
<path d="M16.6585 10.0005H12.492C12.0318 10.0005 11.6587 10.3736 11.6587 10.8338V16.667C11.6587 17.1272 12.0318 17.5003 12.492 17.5003H16.6585C17.1188 17.5003 17.4918 17.1272 17.4918 16.667V10.8338C17.4918 10.3736 17.1188 10.0005 16.6585 10.0005Z" stroke="#202224" stroke-width="1.66661" stroke-linecap="round" stroke-linejoin="round"/>
<path d="M7.49203 13.3338H3.32549C2.86527 13.3338 2.49219 13.7068 2.49219 14.1671V16.667C2.49219 17.1272 2.86527 17.5003 3.32549 17.5003H7.49203C7.95225 17.5003 8.32534 17.1272 8.32534 16.667V14.1671C8.32534 13.7068 7.95225 13.3338 7.49203 13.3338Z" stroke="#202224" stroke-width="1.66661" stroke-linecap="round" stroke-linejoin="round"/>
</svg>
