<svg width="20" height="20" viewBox="0 0 20 20" fill="none" xmlns="http://www.w3.org/2000/svg">
<g clip-path="url(#clip0_1709_1269)">
<path d="M13.3329 17.4995V15.8329C13.3329 14.9488 12.9818 14.101 12.3566 13.4759C11.7315 12.8508 10.8837 12.4996 9.9997 12.4996H4.99986C4.11583 12.4996 3.26801 12.8508 2.64291 13.4759C2.0178 14.101 1.66663 14.9488 1.66663 15.8329V17.4995" stroke="black" stroke-width="1.66661" stroke-linecap="round" stroke-linejoin="round"/>
<path d="M13.3329 2.60657C14.0477 2.79187 14.6807 3.20927 15.1326 3.79325C15.5845 4.37723 15.8296 5.09473 15.8296 5.83313C15.8296 6.57154 15.5845 7.28904 15.1326 7.87302C14.6807 8.457 14.0477 8.8744 13.3329 9.0597" stroke="black" stroke-width="1.66661" stroke-linecap="round" stroke-linejoin="round"/>
<path d="M18.3328 17.4994V15.8328C18.3323 15.0943 18.0864 14.3768 17.634 13.7931C17.1815 13.2094 16.548 12.7925 15.8329 12.6079" stroke="black" stroke-width="1.66661" stroke-linecap="round" stroke-linejoin="round"/>
<path d="M7.49973 9.16634C9.34062 9.16634 10.833 7.674 10.833 5.83311C10.833 3.99222 9.34062 2.49988 7.49973 2.49988C5.65884 2.49988 4.1665 3.99222 4.1665 5.83311C4.1665 7.674 5.65884 9.16634 7.49973 9.16634Z" stroke="black" stroke-width="1.66661" stroke-linecap="round" stroke-linejoin="round"/>
</g>
<defs>
<clipPath id="clip0_1709_1269">
<rect width="19.9994" height="19.9994" fill="white"/>
</clipPath>
</defs>
</svg>
