<svg width="14" height="16" viewBox="0 0 14 16" fill="none" xmlns="http://www.w3.org/2000/svg">
<path d="M0 16V0L1.16667 0.9375L2.33333 0L3.5 0.9375L4.66667 0L5.83333 0.9375L7 0L8.16667 0.9375L9.33333 0L10.5 0.9375L11.6667 0L12.8333 0.9375L14 0V16L12.8333 15.0625L11.6667 16L10.5 15.0625L9.33333 16L8.16667 15.0625L7 16L5.83333 15.0625L4.66667 16L3.5 15.0625L2.33333 16L1.16667 15.0625L0 16ZM3 11.5H11V10H3V11.5ZM3 8.75H11V7.25H3V8.75ZM3 6H11V4.5H3V6ZM1.5 13.5H12.5V2.5H1.5V13.5Z" fill="black"/>
</svg>
