<svg width="28" height="28" viewBox="0 0 28 28" fill="none" xmlns="http://www.w3.org/2000/svg">
<path d="M18.6668 23.3333V4.66668C18.6668 4.04784 18.421 3.45435 17.9834 3.01676C17.5458 2.57918 16.9523 2.33334 16.3335 2.33334H11.6668C11.048 2.33334 10.4545 2.57918 10.0169 3.01676C9.57933 3.45435 9.3335 4.04784 9.3335 4.66668V23.3333" stroke="black" stroke-width="2.29167" stroke-linecap="round" stroke-linejoin="round"/>
<path d="M23.3335 7H4.66683C3.37817 7 2.3335 8.04467 2.3335 9.33333V21C2.3335 22.2887 3.37817 23.3333 4.66683 23.3333H23.3335C24.6222 23.3333 25.6668 22.2887 25.6668 21V9.33333C25.6668 8.04467 24.6222 7 23.3335 7Z" stroke="black" stroke-width="2.29167" stroke-linecap="round" stroke-linejoin="round"/>
</svg>
