<svg width="25" height="25" viewBox="0 0 25 25" fill="none" xmlns="http://www.w3.org/2000/svg">
<path d="M10.9671 3.15057C15.0593 2.65244 18.3018 4.33821 20.704 8.13418C21.9488 10.101 22.5411 12.3686 22.5664 14.7954C22.5905 17.0908 22.0178 19.2261 21.0209 21.2094C20.9017 21.4465 20.7736 21.5061 20.5627 21.3506C19.715 20.7255 18.8624 20.1095 18.0108 19.4914C17.9013 19.4119 17.8101 19.3107 17.8784 19.1579C17.9923 18.9032 18.118 18.6539 18.2569 18.4165C18.3413 18.2721 18.4697 18.3314 18.5771 18.3978C18.8274 18.5526 19.0782 18.7072 19.3225 18.8741C19.5137 19.0047 19.621 18.9411 19.7053 18.7163C20.0471 17.804 20.2465 16.8499 20.3527 15.8664C20.3761 15.6491 20.2896 15.5659 20.1115 15.5669C19.8038 15.5687 19.496 15.5592 19.1883 15.5646C18.9826 15.5682 18.8955 15.466 18.8774 15.2254C18.8087 14.3108 18.8253 14.2839 19.6219 14.2846C20.3568 14.2852 20.3637 14.2844 20.2884 13.4388C20.2163 12.6281 19.9939 11.8622 19.7328 11.1105C19.693 10.9959 19.6485 10.8942 19.5111 10.8861C19.2465 10.8705 18.7792 10.3011 18.7696 10.0096C18.7635 9.82398 18.9359 9.78955 19.0002 9.60513C18.4582 8.64056 17.73 7.86547 16.8946 7.18488C16.6381 7.47902 16.5123 7.82172 16.359 8.13903C16.2016 8.46477 16.0227 8.59096 15.7418 8.32868C15.7235 8.31159 15.7023 8.29861 15.6821 8.28431C15.1634 7.91714 15.1634 7.91716 15.4848 7.29808C15.9153 6.46876 15.9122 6.45383 15.1271 6.13994C14.5673 5.91614 13.9981 5.72964 13.4114 5.62874C12.9544 5.55015 12.8878 5.62205 12.884 6.14563C12.8823 6.39232 12.8703 6.63965 12.8816 6.88554C12.8964 7.20923 12.7654 7.33556 12.4991 7.31887C12.393 7.31222 12.2858 7.31352 12.1797 7.32175C11.8816 7.34487 11.7469 7.2055 11.7595 6.84239C11.7704 6.52912 11.7316 6.21378 11.7195 5.8991C11.7127 5.72252 11.6569 5.60414 11.4877 5.61579C10.6012 5.67685 9.77493 6.0015 8.96816 6.40339C8.8016 6.48636 8.8452 6.6388 8.91701 6.78291C9.04112 7.03197 9.15632 7.28743 9.28864 7.53045C9.42878 7.78784 9.40546 7.96565 9.17097 8.14128C8.54615 8.60927 8.52587 8.61213 8.15547 7.87977C7.77614 7.12977 7.77204 7.12395 7.17935 7.68315C6.59176 8.23753 6.05335 8.84683 5.62909 9.65157C5.94532 9.87117 6.24282 10.0867 6.54795 10.2867C6.7787 10.4379 6.83324 10.596 6.67746 10.8801C6.27694 11.6105 6.28702 11.6179 5.63931 11.1958C5.00435 10.7819 5.02108 10.7894 4.76117 11.5738C4.50846 12.3366 4.38363 13.124 4.30461 13.9297C4.27948 14.186 4.33437 14.2886 4.5566 14.2836C4.85238 14.2769 5.14859 14.2916 5.44423 14.2817C5.67186 14.2742 5.75379 14.3926 5.76828 14.6483C5.81999 15.5606 5.81904 15.5656 5.0361 15.5675C4.11999 15.5698 4.28229 15.483 4.38049 16.4836C4.45603 17.2532 4.72238 17.9608 4.92876 18.6879C5.00299 18.9493 5.12609 19.0026 5.32791 18.8647C5.55202 18.7115 5.7809 18.5677 6.00674 18.4179C6.20639 18.2854 6.35182 18.3193 6.47358 18.5661C6.91088 19.4522 6.96114 19.2498 6.23627 19.7684C5.53259 20.2719 4.85244 20.8182 4.13105 21.2905C3.8904 21.448 3.75929 21.4209 3.61952 21.1447C1.21136 16.386 1.66317 10.8191 4.83208 6.83311C6.48097 4.7591 8.52363 3.54114 10.9671 3.15057Z" fill="black"/>
<path d="M10.2168 14.893C10.4142 12.8877 11.9619 11.9286 13.4368 12.8705C13.5845 12.9648 13.6955 12.9457 13.8333 12.8769C15.3219 12.1347 16.8119 11.3961 18.3019 10.6578C18.4375 10.5906 18.5751 10.468 18.72 10.6415C18.7419 10.8456 18.5865 10.8911 18.4927 10.9733C17.2382 12.0726 15.983 13.1711 14.718 14.2543C14.5157 14.4276 14.4284 14.6073 14.4237 14.8985C14.4017 16.2513 13.4892 17.3326 12.3714 17.3547C11.2035 17.3779 10.2751 16.3332 10.2168 14.893Z" fill="black"/>
<path d="M12.9974 23.2804C11.5315 23.2807 10.1012 23.2822 8.67081 23.2804C8.19667 23.2799 8.16753 23.2437 8.16637 22.7002C8.16528 22.1937 8.17245 21.6872 8.16516 21.1809C8.1609 20.8846 8.26753 20.7709 8.52629 20.7714C11.0678 20.7771 13.6094 20.7764 16.1509 20.7684C16.3876 20.7676 16.4731 20.891 16.4743 21.134C16.4772 21.7225 16.4736 22.3111 16.4771 22.8996C16.4791 23.2523 16.281 23.2833 16.0473 23.2826C15.0425 23.2792 14.0377 23.2807 12.9974 23.2804Z" fill="black"/>
</svg>
