<svg width="21" height="21" viewBox="0 0 21 21" fill="none" xmlns="http://www.w3.org/2000/svg">
<g clip-path="url(#clip0_307_6239)">
<path d="M10.1556 19.0763C10.409 19.2225 10.6964 19.2995 10.9889 19.2995C11.2815 19.2995 11.5689 19.2225 11.8222 19.0763L17.6554 15.743C17.9085 15.5969 18.1187 15.3868 18.265 15.1337C18.4112 14.8807 18.4884 14.5937 18.4887 14.3014V7.63495C18.4884 7.34268 18.4112 7.05564 18.265 6.80261C18.1187 6.54958 17.9085 6.33945 17.6554 6.19332L11.8222 2.86009C11.5689 2.71382 11.2815 2.63681 10.9889 2.63681C10.6964 2.63681 10.409 2.71382 10.1556 2.86009L4.32244 6.19332C4.06934 6.33945 3.85911 6.54958 3.71285 6.80261C3.56659 7.05564 3.48944 7.34268 3.48914 7.63495V14.3014C3.48944 14.5937 3.56659 14.8807 3.71285 15.1337C3.85911 15.3868 4.06934 15.5969 4.32244 15.743L10.1556 19.0763Z" stroke="#202224" stroke-width="1.66661" stroke-linecap="round" stroke-linejoin="round"/>
<path d="M10.9889 19.3013V10.9682" stroke="#202224" stroke-width="1.66661" stroke-linecap="round" stroke-linejoin="round"/>
<path d="M3.73083 6.80167L10.9889 10.9682L18.247 6.80167" stroke="#202224" stroke-width="1.66661" stroke-linecap="round" stroke-linejoin="round"/>
<path d="M7.23901 4.52673L14.7388 8.81827" stroke="#202224" stroke-width="1.66661" stroke-linecap="round" stroke-linejoin="round"/>
</g>
<defs>
<clipPath id="clip0_307_6239">
<rect width="19.9994" height="19.9994" fill="white" transform="translate(0.989258 0.968506)"/>
</clipPath>
</defs>
</svg>
