<svg width="20" height="20" viewBox="0 0 20 20" fill="none" xmlns="http://www.w3.org/2000/svg">
<g clip-path="url(#clip0_307_6263)">
<path d="M13.325 17.5002V15.8336C13.325 14.9496 12.9738 14.1018 12.3487 13.4767C11.7236 12.8516 10.8758 12.5004 9.99176 12.5004H4.99192C4.10789 12.5004 3.26007 12.8516 2.63497 13.4767C2.00987 14.1018 1.65869 14.9496 1.65869 15.8336V17.5002" stroke="#202224" stroke-width="1.66661" stroke-linecap="round" stroke-linejoin="round"/>
<path d="M13.325 2.60736C14.0397 2.79266 14.6727 3.21006 15.1246 3.79404C15.5765 4.37802 15.8217 5.09552 15.8217 5.83393C15.8217 6.57233 15.5765 7.28983 15.1246 7.87381C14.6727 8.45779 14.0397 8.87519 13.325 9.06049" stroke="#202224" stroke-width="1.66661" stroke-linecap="round" stroke-linejoin="round"/>
<path d="M18.3249 17.5002V15.8336C18.3243 15.0951 18.0785 14.3777 17.626 13.794C17.1736 13.2103 16.54 12.7934 15.825 12.6087" stroke="#202224" stroke-width="1.66661" stroke-linecap="round" stroke-linejoin="round"/>
<path d="M7.4918 9.16716C9.33269 9.16716 10.825 7.67482 10.825 5.83393C10.825 3.99304 9.33269 2.5007 7.4918 2.5007C5.65091 2.5007 4.15857 3.99304 4.15857 5.83393C4.15857 7.67482 5.65091 9.16716 7.4918 9.16716Z" stroke="#202224" stroke-width="1.66661" stroke-linecap="round" stroke-linejoin="round"/>
</g>
<defs>
<clipPath id="clip0_307_6263">
<rect width="19.9994" height="19.9994" fill="white" transform="translate(-0.00793457 0.000793457)"/>
</clipPath>
</defs>
</svg>
