<svg width="20" height="20" viewBox="0 0 20 20" fill="none" xmlns="http://www.w3.org/2000/svg">
<path d="M7.80488 8.20513C6.73171 8.20513 5.81301 7.80342 5.04878 7C4.28455 6.19658 3.90244 5.23077 3.90244 4.10256C3.90244 2.97436 4.28455 2.00855 5.04878 1.20513C5.81301 0.401709 6.73171 0 7.80488 0C8.87805 0 9.79675 0.401709 10.561 1.20513C11.3252 2.00855 11.7073 2.97436 11.7073 4.10256C11.7073 5.23077 11.3252 6.19658 10.561 7C9.79675 7.80342 8.87805 8.20513 7.80488 8.20513ZM7.80488 6.15385C8.34146 6.15385 8.80081 5.95299 9.18293 5.55128C9.56504 5.14957 9.7561 4.66667 9.7561 4.10256C9.7561 3.53846 9.56504 3.05556 9.18293 2.65385C8.80081 2.25214 8.34146 2.05128 7.80488 2.05128C7.26829 2.05128 6.80894 2.25214 6.42683 2.65385C6.04472 3.05556 5.85366 3.53846 5.85366 4.10256C5.85366 4.66667 6.04472 5.14957 6.42683 5.55128C6.80894 5.95299 7.26829 6.15385 7.80488 6.15385ZM18.6341 20L15.5122 16.7179C15.1707 16.9231 14.8049 17.094 14.4146 17.2308C14.0244 17.3675 13.6098 17.4359 13.1707 17.4359C11.9512 17.4359 10.9146 16.9872 10.061 16.0897C9.20732 15.1923 8.78049 14.1026 8.78049 12.8205C8.78049 11.5385 9.20732 10.4487 10.061 9.55128C10.9146 8.65385 11.9512 8.20513 13.1707 8.20513C14.3902 8.20513 15.4268 8.65385 16.2805 9.55128C17.1341 10.4487 17.561 11.5385 17.561 12.8205C17.561 13.2821 17.4959 13.7179 17.3659 14.1282C17.2358 14.5385 17.0732 14.9231 16.878 15.2821L20 18.5641L18.6341 20ZM13.1707 15.3846C13.8537 15.3846 14.4309 15.1368 14.9024 14.641C15.374 14.1453 15.6098 13.5385 15.6098 12.8205C15.6098 12.1026 15.374 11.4957 14.9024 11C14.4309 10.5043 13.8537 10.2564 13.1707 10.2564C12.4878 10.2564 11.9106 10.5043 11.439 11C10.9675 11.4957 10.7317 12.1026 10.7317 12.8205C10.7317 13.5385 10.9675 14.1453 11.439 14.641C11.9106 15.1368 12.4878 15.3846 13.1707 15.3846ZM0 16.4103V13.5641C0 12.9829 0.138211 12.4444 0.414634 11.9487C0.691057 11.453 1.07317 11.0769 1.56098 10.8205C2.39024 10.3761 3.3252 10 4.36585 9.69231C5.4065 9.38462 6.56098 9.23077 7.82927 9.23077C7.63415 9.53846 7.46748 9.86752 7.32927 10.2179C7.19106 10.5684 7.0813 10.9316 7 11.3077C6.02439 11.3932 5.15447 11.5684 4.39024 11.8333C3.62602 12.0983 2.98374 12.3761 2.46341 12.6667C2.30081 12.7521 2.1748 12.8761 2.08537 13.0385C1.99593 13.2009 1.95122 13.3761 1.95122 13.5641V14.359H7C7.0813 14.735 7.19106 15.094 7.32927 15.4359C7.46748 15.7778 7.63415 16.1026 7.82927 16.4103H0Z" fill="black"/>
</svg>
