<svg width="21" height="21" viewBox="0 0 21 21" fill="none" xmlns="http://www.w3.org/2000/svg">
<g clip-path="url(#clip0_307_6217)">
<path d="M9.04814 3.59135C9.09405 3.10832 9.31841 2.65975 9.67737 2.33329C10.0363 2.00683 10.5041 1.82593 10.9893 1.82593C11.4745 1.82593 11.9423 2.00683 12.3013 2.33329C12.6603 2.65975 12.8846 3.10832 12.9305 3.59135C12.9581 3.90339 13.0605 4.20418 13.229 4.46827C13.3974 4.73237 13.627 4.95198 13.8984 5.10853C14.1697 5.26509 14.4748 5.35396 14.7877 5.36765C15.1007 5.38133 15.4123 5.31941 15.6963 5.18713C16.1372 4.98696 16.6368 4.95799 17.0979 5.10587C17.559 5.25376 17.9486 5.56791 18.1908 5.9872C18.433 6.40648 18.5106 6.90089 18.4084 7.37421C18.3062 7.84753 18.0315 8.26588 17.6379 8.54786C17.3815 8.72773 17.1723 8.96669 17.0278 9.24453C16.8834 9.52237 16.8079 9.83091 16.8079 10.1441C16.8079 10.4572 16.8834 10.7658 17.0278 11.0436C17.1723 11.3214 17.3815 11.5604 17.6379 11.7403C18.0315 12.0222 18.3062 12.4406 18.4084 12.9139C18.5106 13.3872 18.433 13.8816 18.1908 14.3009C17.9486 14.7202 17.559 15.0344 17.0979 15.1823C16.6368 15.3301 16.1372 15.3012 15.6963 15.101C15.4123 14.9687 15.1007 14.9068 14.7877 14.9205C14.4748 14.9342 14.1697 15.023 13.8984 15.1796C13.627 15.3361 13.3974 15.5558 13.229 15.8199C13.0605 16.0839 12.9581 16.3847 12.9305 16.6968C12.8846 17.1798 12.6603 17.6284 12.3013 17.9548C11.9423 18.2813 11.4745 18.4622 10.9893 18.4622C10.5041 18.4622 10.0363 18.2813 9.67737 17.9548C9.31841 17.6284 9.09405 17.1798 9.04814 16.6968C9.02059 16.3846 8.91822 16.0837 8.7497 15.8195C8.58118 15.5553 8.35147 15.3357 8.08003 15.1791C7.80859 15.0225 7.50341 14.9337 7.19035 14.9201C6.87728 14.9065 6.56555 14.9685 6.28156 15.101C5.84065 15.3012 5.34103 15.3301 4.87994 15.1823C4.41885 15.0344 4.02927 14.7202 3.78704 14.3009C3.54481 13.8816 3.46724 13.3872 3.56944 12.9139C3.67165 12.4406 3.9463 12.0222 4.33995 11.7403C4.5963 11.5604 4.80555 11.3214 4.95001 11.0436C5.09447 10.7658 5.16989 10.4572 5.16989 10.1441C5.16989 9.83091 5.09447 9.52237 4.95001 9.24453C4.80555 8.96669 4.5963 8.72773 4.33995 8.54786C3.94685 8.26574 3.67268 7.84755 3.57073 7.37455C3.46877 6.90155 3.54632 6.40755 3.78829 5.98854C4.03026 5.56953 4.41938 5.25545 4.88001 5.10734C5.34065 4.95923 5.83989 4.98767 6.28073 5.18713C6.56468 5.31941 6.87633 5.38133 7.18928 5.36765C7.50224 5.35396 7.80729 5.26509 8.07862 5.10853C8.34995 4.95198 8.57956 4.73237 8.74804 4.46827C8.91651 4.20418 9.01888 3.90339 9.04647 3.59135" stroke="#202224" stroke-width="1.66661" stroke-linecap="round" stroke-linejoin="round"/>
<path d="M10.9889 12.6444C12.3696 12.6444 13.4889 11.5251 13.4889 10.1445C13.4889 8.76378 12.3696 7.64453 10.9889 7.64453C9.60827 7.64453 8.48901 8.76378 8.48901 10.1445C8.48901 11.5251 9.60827 12.6444 10.9889 12.6444Z" stroke="#202224" stroke-width="1.66661" stroke-linecap="round" stroke-linejoin="round"/>
</g>
<defs>
<clipPath id="clip0_307_6217">
<rect width="19.9994" height="19.9994" fill="white" transform="translate(0.989258 0.144775)"/>
</clipPath>
</defs>
</svg>
