<svg width="20" height="20" viewBox="0 0 20 20" fill="none" xmlns="http://www.w3.org/2000/svg">
<g clip-path="url(#clip0_1709_1298)">
<path d="M8.05888 3.44658C8.1048 2.96354 8.32915 2.51497 8.68811 2.18851C9.04708 1.86205 9.51486 1.68115 10.0001 1.68115C10.4853 1.68115 10.9531 1.86205 11.312 2.18851C11.671 2.51497 11.8953 2.96354 11.9413 3.44658C11.9689 3.75861 12.0712 4.0594 12.2397 4.3235C12.4082 4.58759 12.6378 4.80721 12.9091 4.96376C13.1804 5.12031 13.4855 5.20919 13.7985 5.22287C14.1114 5.23655 14.4231 5.17463 14.707 5.04236C15.1479 4.84218 15.6475 4.81321 16.1086 4.9611C16.5697 5.10898 16.9593 5.42314 17.2015 5.84242C17.4438 6.2617 17.5213 6.75612 17.4191 7.22943C17.3169 7.70275 17.0423 8.12111 16.6486 8.40309C16.3923 8.58295 16.183 8.82191 16.0386 9.09975C15.8941 9.37759 15.8187 9.68614 15.8187 9.99929C15.8187 10.3124 15.8941 10.621 16.0386 10.8988C16.183 11.1767 16.3923 11.4156 16.6486 11.5955C17.0423 11.8775 17.3169 12.2958 17.4191 12.7691C17.5213 13.2425 17.4438 13.7369 17.2015 14.1562C16.9593 14.5754 16.5697 14.8896 16.1086 15.0375C15.6475 15.1854 15.1479 15.1564 14.707 14.9562C14.4231 14.8239 14.1114 14.762 13.7985 14.7757C13.4855 14.7894 13.1804 14.8783 12.9091 15.0348C12.6378 15.1914 12.4082 15.411 12.2397 15.6751C12.0712 15.9392 11.9689 16.24 11.9413 16.552C11.8953 17.035 11.671 17.4836 11.312 17.8101C10.9531 18.1365 10.4853 18.3174 10.0001 18.3174C9.51486 18.3174 9.04708 18.1365 8.68811 17.8101C8.32915 17.4836 8.1048 17.035 8.05888 16.552C8.03134 16.2399 7.92897 15.9389 7.76045 15.6748C7.59192 15.4106 7.36221 15.1909 7.09077 15.0343C6.81933 14.8777 6.51415 14.7889 6.20109 14.7753C5.88802 14.7617 5.57629 14.8238 5.2923 14.9562C4.85139 15.1564 4.35177 15.1854 3.89068 15.0375C3.42959 14.8896 3.04002 14.5754 2.79778 14.1562C2.55555 13.7369 2.47798 13.2425 2.58019 12.7691C2.68239 12.2958 2.95704 11.8775 3.3507 11.5955C3.60704 11.4156 3.81629 11.1767 3.96075 10.8988C4.10521 10.621 4.18063 10.3124 4.18063 9.99929C4.18063 9.68614 4.10521 9.37759 3.96075 9.09975C3.81629 8.82191 3.60704 8.58295 3.3507 8.40309C2.95759 8.12097 2.68342 7.70277 2.58147 7.22978C2.47952 6.75678 2.55706 6.26277 2.79903 5.84376C3.04101 5.42475 3.43012 5.11067 3.89075 4.96256C4.35139 4.81445 4.85064 4.84289 5.29147 5.04236C5.57542 5.17463 5.88707 5.23655 6.20002 5.22287C6.51298 5.20919 6.81803 5.12031 7.08936 4.96376C7.36069 4.80721 7.59031 4.58759 7.75878 4.3235C7.92725 4.0594 8.02962 3.75861 8.05722 3.44658" stroke="black" stroke-width="1.66661" stroke-linecap="round" stroke-linejoin="round"/>
<path d="M9.99968 12.4996C11.3803 12.4996 12.4996 11.3803 12.4996 9.99968C12.4996 8.61901 11.3803 7.49976 9.99968 7.49976C8.61901 7.49976 7.49976 8.61901 7.49976 9.99968C7.49976 11.3803 8.61901 12.4996 9.99968 12.4996Z" stroke="black" stroke-width="1.66661" stroke-linecap="round" stroke-linejoin="round"/>
</g>
<defs>
<clipPath id="clip0_1709_1298">
<rect width="19.9994" height="19.9994" fill="white"/>
</clipPath>
</defs>
</svg>
