<svg width="17" height="23" viewBox="0 0 17 23" fill="none" xmlns="http://www.w3.org/2000/svg">
<path d="M1.27557 12.6894C-2.13568 7.39082 1.71917 0.354027 8.05247 0.319141C14.2871 0.285032 18.0465 7.06295 14.8529 12.3648L14.6947 12.6155L7.97237 22.9535C7.95153 22.9854 7.90512 22.9859 7.88467 22.9542L1.27557 12.6894ZM8.04488 1.81967C2.9001 1.84783 -0.231836 7.56348 2.53925 11.8676L7.52506 19.6107C7.7214 19.9157 8.16689 19.9167 8.36461 19.6126L13.44 11.8082C16.2586 7.47357 13.1895 1.79176 8.04488 1.81967ZM5.33798 8.3466C5.3462 6.87169 6.54857 5.66934 8.02347 5.66111C9.49858 5.65304 10.688 6.84249 10.68 8.3176C10.6719 9.79272 9.46959 10.995 7.99447 11.0031C6.51937 11.0111 5.32991 9.82171 5.33798 8.3466Z" fill="#202224"/>
</svg>
