<svg width="22" height="22" viewBox="0 0 22 22" fill="none" xmlns="http://www.w3.org/2000/svg">
<g opacity="0.6">
<path d="M16.0512 18.2506C16.1355 18.3861 16.4035 19.0278 16.4571 19.1982H16.3542C16.2651 19.2111 16.161 19.1999 16.0704 19.1995L5.52527 19.1982C5.56269 19.0335 5.82386 18.4294 5.91418 18.2506C6.08661 18.2369 6.26614 18.2501 6.43956 18.2503L10.9906 18.2506C11.2253 18.2504 11.4616 18.2444 11.6961 18.2506H16.0512Z" fill="#62BFF6"/>
<path d="M16.0512 18.2506C16.1355 18.3861 16.4034 19.0278 16.457 19.1982H16.3541C16.2035 19.1784 16.0291 19.1973 15.8755 19.1975L10.9906 19.1982V18.2506C11.1328 18.2628 11.5632 18.2719 11.6961 18.2506H16.0512Z" fill="#4AA7F3"/>
<path d="M7.98399 14.316L10.4369 17.3465C10.6118 17.5653 10.7759 17.8093 10.9906 17.9908C10.9911 18.0773 10.9926 18.1641 10.9906 18.2506L6.43956 18.2503C6.26614 18.25 6.08662 18.2368 5.91418 18.2506L7.00692 15.6285C7.39476 14.7032 7.15955 14.8953 7.98399 14.316Z" fill="#FEFEFE"/>
<path d="M8.53483 13.895L10.6869 16.5876C10.7848 16.7103 10.8763 16.8448 10.9907 16.9527V16.9943C11.1464 16.8828 11.5597 16.3104 11.7078 16.1243L12.3986 15.2666C12.7456 14.827 13.0857 14.3832 13.4444 13.9529C13.5559 14.0655 13.8059 14.2518 13.9491 14.316C14.4333 14.7915 14.4809 14.5631 14.7879 15.3039L15.065 15.9545C15.3869 16.7054 15.7744 17.4942 16.0512 18.2506H11.6961C11.4616 18.2444 11.2253 18.2504 10.9907 18.2506C10.9926 18.1641 10.9911 18.0774 10.9907 17.9908C10.7759 17.8093 10.6118 17.5653 10.4369 17.3465L7.98401 14.316C8.16538 14.1741 8.34899 14.0311 8.53483 13.895Z" fill="#E0DFDF"/>
<path d="M5.24021 12.8304L6.54117 12.8308C6.76143 12.8304 6.97705 12.815 7.19747 12.8304C7.32574 12.8306 7.62265 12.8042 7.72547 12.8304C7.90783 13.0537 8.41336 13.6798 8.53479 13.895C8.34895 14.0311 8.16535 14.1741 7.98397 14.316C7.15953 14.8953 7.39474 14.7032 7.00691 15.6285L5.91417 18.2506C5.82385 18.4294 5.56269 19.0335 5.52526 19.1982H2.56848C2.69553 18.6769 3.15057 17.8101 3.37115 17.2779L5.0465 13.2848C5.11074 13.1333 5.16565 12.9772 5.24021 12.8304Z" fill="#2EB761"/>
<path d="M7.1974 12.8304C7.32566 12.8306 7.62257 12.8042 7.7254 12.8304C7.90776 13.0537 8.41328 13.6798 8.53471 13.895C8.34887 14.0311 8.16527 14.1741 7.9839 14.316C7.89061 14.2246 6.86069 12.9515 6.87229 12.8505L6.86099 12.8566L6.85962 12.8466C6.94998 12.7811 7.09685 12.8699 7.1974 12.8304Z" fill="#27A15F"/>
<path d="M14.2488 12.8494C14.487 12.8037 14.8497 12.8303 15.1002 12.8303L16.7276 12.8304C16.794 13.0217 16.881 13.2086 16.9604 13.3951L18.8719 17.85C19.0457 18.2593 19.3219 18.7911 19.4543 19.1982H16.457C16.4034 19.0278 16.1354 18.3861 16.0511 18.2506C15.7743 17.4942 15.3868 16.7054 15.0649 15.9545L14.7878 15.3039C14.4808 14.5631 14.4332 14.7915 13.949 14.316C13.8058 14.2518 13.5558 14.0655 13.4443 13.9529C13.6296 13.6541 14.0289 13.1322 14.2488 12.8494Z" fill="#2EB761"/>
<path d="M11.0104 2.58911C13.8518 2.59492 16.3722 5.03861 16.358 7.90295C16.3507 9.36161 15.0415 11.7148 14.2488 12.8494C14.029 13.1322 13.6296 13.6541 13.4444 13.9529C13.0856 14.3832 12.7456 14.827 12.3985 15.2665L11.7077 16.1242C11.5597 16.3104 11.1464 16.8828 10.9906 16.9943V16.9527C11.0087 16.4273 10.9909 15.8955 10.991 15.3695L10.9906 11.1455C10.9902 10.9752 10.9817 10.8056 10.9906 10.6353C11.7132 10.6911 12.5337 10.293 13.0171 9.77317C14.7112 7.95129 13.3528 4.94086 11.0104 5.04708V2.58911Z" fill="#202224"/>
<path d="M7.72551 12.8304C7.67287 12.729 7.59974 12.6341 7.53739 12.5383C6.60832 11.1094 5.68686 9.53594 5.69549 7.77796C5.70946 4.92377 8.18983 2.5745 11.0105 2.58912V5.04709C13.3529 4.94087 14.7113 7.9513 13.0172 9.77317C12.5338 10.2931 11.7133 10.6911 10.9907 10.6353C10.9818 10.8056 10.9903 10.9752 10.9907 11.1455L10.991 15.3695C10.991 15.8955 11.0088 16.4273 10.9907 16.9527C10.8763 16.8448 10.7848 16.7104 10.6869 16.5876L8.53483 13.895C8.4134 13.6798 7.90787 13.0537 7.72551 12.8304ZM11.0105 5.04709C9.42037 5.01318 8.20998 6.28721 8.19361 7.8535C8.17793 9.35105 9.49277 10.6677 10.9907 10.6353C11.7133 10.6911 12.5338 10.2931 13.0172 9.77317C14.7113 7.9513 13.3529 4.94087 11.0105 5.04709Z" fill="#202224"/>
</g>
</svg>
