<svg width="24" height="25" viewBox="0 0 24 25" fill="none" xmlns="http://www.w3.org/2000/svg">
<path d="M16 21.8V19.8C16 18.7391 15.5786 17.7217 14.8284 16.9716C14.0783 16.2214 13.0609 15.8 12 15.8H6C4.93913 15.8 3.92172 16.2214 3.17157 16.9716C2.42143 17.7217 2 18.7391 2 19.8V21.8" stroke="#155DFC" stroke-width="2" stroke-linecap="round" stroke-linejoin="round"/>
<path d="M16 3.92798C16.8578 4.15035 17.6174 4.65124 18.1597 5.35204C18.702 6.05284 18.9962 6.91387 18.9962 7.79998C18.9962 8.68609 18.702 9.54712 18.1597 10.2479C17.6174 10.9487 16.8578 11.4496 16 11.672" stroke="#155DFC" stroke-width="2" stroke-linecap="round" stroke-linejoin="round"/>
<path d="M22 21.8V19.8C21.9993 18.9137 21.7044 18.0528 21.1614 17.3523C20.6184 16.6518 19.8581 16.1516 19 15.93" stroke="#155DFC" stroke-width="2" stroke-linecap="round" stroke-linejoin="round"/>
<path d="M9 11.8C11.2091 11.8 13 10.0091 13 7.79999C13 5.59085 11.2091 3.79999 9 3.79999C6.79086 3.79999 5 5.59085 5 7.79999C5 10.0091 6.79086 11.8 9 11.8Z" stroke="#155DFC" stroke-width="2" stroke-linecap="round" stroke-linejoin="round"/>
</svg>
