<svg width="268" height="272" viewBox="0 0 268 272" fill="none" xmlns="http://www.w3.org/2000/svg">
<g filter="url(#filter0_d_1105_1734)">
<mask id="path-1-inside-1_1105_1734" fill="white">
<path d="M38 29C38 20.1634 45.1634 13 54 13H214C222.837 13 230 20.1634 230 29V192.6C230 201.437 222.837 208.6 214 208.6H54C45.1634 208.6 38 201.437 38 192.6V29Z"/>
</mask>
<path d="M38 29C38 20.1634 45.1634 13 54 13H214C222.837 13 230 20.1634 230 29V192.6C230 201.437 222.837 208.6 214 208.6H54C45.1634 208.6 38 201.437 38 192.6V29Z" fill="url(#paint0_linear_1105_1734)" shape-rendering="crispEdges"/>
<path d="M54 13V13.8H214V13V12.2H54V13ZM230 29H229.2V192.6H230H230.8V29H230ZM214 208.6V207.8H54V208.6V209.4H214V208.6ZM38 192.6H38.8V29H38H37.2V192.6H38ZM54 208.6V207.8C45.6053 207.8 38.8 200.995 38.8 192.6H38H37.2C37.2 201.878 44.7216 209.4 54 209.4V208.6ZM230 192.6H229.2C229.2 200.995 222.395 207.8 214 207.8V208.6V209.4C223.278 209.4 230.8 201.878 230.8 192.6H230ZM214 13V13.8C222.395 13.8 229.2 20.6053 229.2 29H230H230.8C230.8 19.7216 223.278 12.2 214 12.2V13ZM54 13V12.2C44.7216 12.2 37.2 19.7216 37.2 29H38H38.8C38.8 20.6053 45.6053 13.8 54 13.8V13Z" fill="#314158" fill-opacity="0.5" mask="url(#path-1-inside-1_1105_1734)"/>
<g clip-path="url(#clip0_1105_1734)">
<path d="M69.4666 49.8V48.4667C69.4666 47.7595 69.1857 47.0812 68.6856 46.5811C68.1855 46.081 67.5072 45.8 66.8 45.8H62.8C62.0927 45.8 61.4144 46.081 60.9143 46.5811C60.4143 47.0812 60.1333 47.7595 60.1333 48.4667V49.8" stroke="#197ADC" stroke-width="1.33333" stroke-linecap="round" stroke-linejoin="round"/>
<path d="M69.4668 37.8853C70.0386 38.0335 70.5451 38.3674 70.9066 38.8346C71.2681 39.3018 71.4643 39.8758 71.4643 40.4666C71.4643 41.0573 71.2681 41.6313 70.9066 42.0985C70.5451 42.5657 70.0386 42.8997 69.4668 43.0479" stroke="#197ADC" stroke-width="1.33333" stroke-linecap="round" stroke-linejoin="round"/>
<path d="M73.4668 49.8001V48.4667C73.4664 47.8759 73.2697 47.3019 72.9077 46.8349C72.5457 46.368 72.0389 46.0344 71.4668 45.8867" stroke="#197ADC" stroke-width="1.33333" stroke-linecap="round" stroke-linejoin="round"/>
<path d="M64.8 43.1334C66.2727 43.1334 67.4666 41.9395 67.4666 40.4667C67.4666 38.994 66.2727 37.8 64.8 37.8C63.3272 37.8 62.1333 38.994 62.1333 40.4667C62.1333 41.9395 63.3272 43.1334 64.8 43.1334Z" stroke="#197ADC" stroke-width="1.33333" stroke-linecap="round" stroke-linejoin="round"/>
</g>
<path d="M85.2883 44.7837L84.1809 47.6001H82.8274L86.7581 37.9683H88.2415L92.1106 47.6001H90.7776L89.677 44.7837H85.2883ZM87.4827 38.9526C87.4052 39.2078 87.3118 39.4927 87.2024 39.8071C87.0976 40.117 86.9996 40.3905 86.9084 40.6274L85.6848 43.7651H89.2874L88.05 40.5864C87.9862 40.4269 87.9019 40.2013 87.7971 39.9097C87.6923 39.618 87.5875 39.299 87.4827 38.9526ZM96.0208 39.0347V47.6001H94.7219V39.0347H91.4133V37.9683H99.3293V39.0347H96.0208ZM104.579 39.0347V47.6001H103.281V39.0347H99.9719V37.9683H107.888V39.0347H104.579ZM116.952 46.5337V47.6001H109.365V37.9683H116.672V39.0347H110.67V42.1245H116.262V43.1772H110.67V46.5337H116.952ZM119.865 41.2017V47.6001H118.702V37.9683H120.22L125.429 46.2261C125.374 45.3283 125.347 44.6812 125.347 44.2847V37.9683H126.523V47.6001H124.95L119.796 39.397C119.805 39.6978 119.819 39.9985 119.837 40.2993C119.855 40.6001 119.865 40.9009 119.865 41.2017ZM137.112 42.6851C137.112 43.7013 136.913 44.5763 136.517 45.3101C136.125 46.0438 135.576 46.6089 134.869 47.0054C134.168 47.4019 133.352 47.6001 132.422 47.6001H128.82V37.9683H132.005C133.637 37.9683 134.894 38.3784 135.779 39.1987C136.667 40.0145 137.112 41.1766 137.112 42.6851ZM135.799 42.6851C135.799 41.491 135.471 40.5819 134.815 39.9575C134.163 39.3286 133.217 39.0142 131.978 39.0142H130.125V46.5542H132.272C132.987 46.5542 133.607 46.397 134.131 46.0825C134.66 45.7681 135.07 45.3215 135.362 44.7427C135.653 44.1639 135.799 43.478 135.799 42.6851ZM140.277 44.7837L139.169 47.6001H137.816L141.746 37.9683H143.23L147.099 47.6001H145.766L144.665 44.7837H140.277ZM142.471 38.9526C142.393 39.2078 142.3 39.4927 142.191 39.8071C142.086 40.117 141.988 40.3905 141.897 40.6274L140.673 43.7651H144.276L143.038 40.5864C142.975 40.4269 142.89 40.2013 142.785 39.9097C142.681 39.618 142.576 39.299 142.471 38.9526ZM149.437 41.2017V47.6001H148.275V37.9683H149.792L155.001 46.2261C154.947 45.3283 154.919 44.6812 154.919 44.2847V37.9683H156.095V47.6001H154.523L149.368 39.397C149.378 39.6978 149.391 39.9985 149.409 40.2993C149.428 40.6001 149.437 40.9009 149.437 41.2017ZM162.712 46.6636C164.061 46.6636 165.075 45.9959 165.754 44.6606L166.821 45.1938C166.424 46.0233 165.866 46.6545 165.146 47.0874C164.43 47.5203 163.599 47.7368 162.651 47.7368C161.675 47.7368 160.837 47.534 160.135 47.1284C159.433 46.7228 158.893 46.1463 158.515 45.3989C158.141 44.647 157.954 43.7606 157.954 42.7397C157.954 41.7144 158.141 40.8348 158.515 40.1011C158.889 39.3674 159.426 38.8045 160.128 38.4126C160.83 38.0207 161.669 37.8247 162.644 37.8247C163.669 37.8247 164.526 38.0252 165.214 38.4263C165.902 38.8273 166.408 39.422 166.732 40.2104L165.494 40.6206C165.271 40.0601 164.911 39.6317 164.414 39.3354C163.922 39.0392 163.337 38.8911 162.657 38.8911C161.591 38.8911 160.762 39.2352 160.169 39.9233C159.577 40.6069 159.281 41.5457 159.281 42.7397C159.281 43.5236 159.42 44.2118 159.698 44.8042C159.98 45.3921 160.377 45.8501 160.887 46.1782C161.402 46.5018 162.01 46.6636 162.712 46.6636ZM176.097 46.5337V47.6001H168.509V37.9683H175.817V39.0347H169.815V42.1245H175.406V43.1772H169.815V46.5337H176.097Z" fill="white"/>
<path d="M58.8 75.8H66.8V83.8H58.8V75.8Z" fill="#00C950"/>
<path d="M83.3997 76.8667C83.3997 77.4728 83.2652 77.9992 82.9963 78.4458C82.7275 78.8924 82.3446 79.2388 81.8479 79.4849C81.3557 79.7264 80.7678 79.8472 80.0842 79.8472H77.2542V83.6001H75.9485V73.9683H80.0022C81.0823 73.9683 81.9185 74.2212 82.511 74.7271C83.1034 75.2329 83.3997 75.9461 83.3997 76.8667ZM82.0872 76.8804C82.0872 75.6362 81.3398 75.0142 79.845 75.0142H77.2542V78.8149H79.8997C80.6288 78.8149 81.1757 78.6554 81.5403 78.3364C81.9049 78.0129 82.0872 77.5275 82.0872 76.8804ZM86.3391 79.7446V83.6001H85.1086V77.9263C85.1086 77.6665 85.1041 77.3931 85.095 77.106C85.0904 76.8188 85.0813 76.5181 85.0676 76.2036H86.2297C86.2389 76.4132 86.2457 76.6024 86.2502 76.771C86.2594 76.9396 86.2662 77.0877 86.2708 77.2153C86.2753 77.3384 86.2776 77.4432 86.2776 77.5298C86.2821 77.6118 86.2844 77.6733 86.2844 77.7144H86.3118C86.4485 77.2677 86.5989 76.9214 86.7629 76.6753C86.9224 76.4474 87.1047 76.2902 87.3098 76.2036C87.5149 76.1125 87.7678 76.0669 88.0686 76.0669C88.2372 76.0669 88.4036 76.0897 88.5676 76.1353V77.2632C88.4127 77.2176 88.1939 77.1948 87.9114 77.1948C87.401 77.1948 87.0113 77.4159 86.7424 77.8579C86.4736 78.2954 86.3391 78.9243 86.3391 79.7446ZM90.6868 80.1616C90.6868 81.0093 90.8622 81.6632 91.2131 82.1235C91.564 82.5838 92.0767 82.814 92.7512 82.814C93.2844 82.814 93.7105 82.7069 94.0295 82.4927C94.3531 82.2785 94.5719 82.0073 94.6858 81.6792L95.7659 81.9868C95.3238 83.1535 94.3189 83.7368 92.7512 83.7368C91.6575 83.7368 90.8235 83.411 90.2493 82.7593C89.6796 82.1076 89.3948 81.1392 89.3948 79.854C89.3948 78.6326 89.6796 77.6961 90.2493 77.0444C90.8235 76.3927 91.6415 76.0669 92.7034 76.0669C93.7926 76.0669 94.6083 76.395 95.1506 77.0513C95.693 77.7075 95.9641 78.6896 95.9641 79.9976V80.1616H90.6868ZM94.6926 79.2183C94.6243 78.439 94.426 77.8716 94.0979 77.5161C93.7698 77.1561 93.2981 76.9761 92.6829 76.9761C92.0859 76.9761 91.6119 77.1766 91.261 77.5776C90.9146 77.9741 90.7278 78.521 90.7004 79.2183H94.6926ZM103.087 81.5562C103.087 82.2534 102.823 82.7912 102.294 83.1694C101.77 83.5477 101.034 83.7368 100.086 83.7368C99.1656 83.7368 98.4547 83.5864 97.9534 83.2856C97.4566 82.9803 97.1331 82.5063 96.9827 81.8638L98.0696 81.6519C98.1744 82.0483 98.3909 82.34 98.719 82.5269C99.0471 82.7091 99.5028 82.8003 100.086 82.8003C100.711 82.8003 101.166 82.7046 101.453 82.5132C101.745 82.3218 101.891 82.0347 101.891 81.6519C101.891 81.3602 101.791 81.1232 101.59 80.9409C101.39 80.7586 101.066 80.6082 100.619 80.4897C100.091 80.3485 99.6692 80.2323 99.3547 80.1411C99.0448 80.05 98.8056 79.9725 98.637 79.9087C98.4683 79.8403 98.3339 79.7765 98.2336 79.7173C97.9329 79.5441 97.6982 79.3322 97.5295 79.0815C97.3609 78.8309 97.2766 78.5233 97.2766 78.1587C97.2766 77.4842 97.5159 76.9715 97.9944 76.6206C98.4775 76.2651 99.1793 76.0874 100.1 76.0874C100.916 76.0874 101.563 76.231 102.041 76.5181C102.524 76.8052 102.83 77.2655 102.957 77.8989L101.85 78.0356C101.781 77.7075 101.597 77.4569 101.296 77.2837C101 77.106 100.601 77.0171 100.1 77.0171C99.5439 77.0171 99.1337 77.1014 98.8694 77.27C98.6051 77.4386 98.4729 77.6938 98.4729 78.0356C98.4729 78.2863 98.5481 78.4937 98.6985 78.6577C98.8489 78.8172 99.136 78.9494 99.5598 79.0542C100.129 79.1909 100.672 79.3413 101.187 79.5054C101.702 79.6649 102.071 79.8244 102.294 79.9839C102.554 80.1707 102.75 80.3918 102.882 80.647C103.019 80.8976 103.087 81.2007 103.087 81.5562ZM105.48 80.1616C105.48 81.0093 105.655 81.6632 106.006 82.1235C106.357 82.5838 106.87 82.814 107.544 82.814C108.077 82.814 108.503 82.7069 108.823 82.4927C109.146 82.2785 109.365 82.0073 109.479 81.6792L110.559 81.9868C110.117 83.1535 109.112 83.7368 107.544 83.7368C106.45 83.7368 105.616 83.411 105.042 82.7593C104.473 82.1076 104.188 81.1392 104.188 79.854C104.188 78.6326 104.473 77.6961 105.042 77.0444C105.616 76.3927 106.434 76.0669 107.496 76.0669C108.586 76.0669 109.401 76.395 109.944 77.0513C110.486 77.7075 110.757 78.6896 110.757 79.9976V80.1616H105.48ZM109.486 79.2183C109.417 78.439 109.219 77.8716 108.891 77.5161C108.563 77.1561 108.091 76.9761 107.476 76.9761C106.879 76.9761 106.405 77.1766 106.054 77.5776C105.708 77.9741 105.521 78.521 105.493 79.2183H109.486ZM113.587 79.314V83.6001H112.357V77.7827C112.357 77.3498 112.352 77.0034 112.343 76.7437C112.338 76.4793 112.329 76.2993 112.316 76.2036H113.478C113.487 76.2902 113.494 76.3996 113.498 76.5317C113.507 76.6639 113.514 76.8097 113.519 76.9692C113.523 77.1287 113.528 77.2951 113.532 77.4683H113.553C113.836 76.9578 114.161 76.5978 114.531 76.3882C114.904 76.174 115.367 76.0669 115.918 76.0669C116.729 76.0669 117.322 76.2743 117.696 76.689C118.074 77.1037 118.263 77.7645 118.263 78.6714V83.6001H117.026V78.9106C117.026 78.2043 116.912 77.7121 116.684 77.4341C116.456 77.1561 116.062 77.0171 115.501 77.0171C114.909 77.0171 114.442 77.2199 114.1 77.6255C113.758 78.0311 113.587 78.5939 113.587 79.314ZM122.966 83.5454C122.565 83.6548 122.15 83.7095 121.722 83.7095C121.23 83.7095 120.861 83.5705 120.615 83.2925C120.368 83.0099 120.245 82.5907 120.245 82.0347V77.0991H119.391V76.2036H120.293L120.656 74.5493H121.476V76.2036H122.843V77.0991H121.476V81.7681C121.476 82.1235 121.533 82.3742 121.647 82.52C121.765 82.6613 121.968 82.7319 122.255 82.7319C122.41 82.7319 122.647 82.7 122.966 82.6362V83.5454Z" fill="#CAD5E2"/>
<path d="M201.182 82.5542V83.6001H194.804V82.7319C195.037 82.1987 195.317 81.7271 195.645 81.3169C195.978 80.9067 196.331 80.5376 196.705 80.2095C197.078 79.8813 197.447 79.576 197.812 79.2935C197.994 79.1522 198.165 79.0109 198.325 78.8696C198.489 78.7284 198.644 78.5871 198.79 78.4458C199.081 78.1632 199.316 77.867 199.494 77.5571C199.676 77.2472 199.767 76.8963 199.767 76.5044C199.767 75.9757 199.612 75.5656 199.302 75.2739C198.992 74.9823 198.562 74.8364 198.01 74.8364C197.486 74.8364 197.053 74.98 196.711 75.2671C196.374 75.5496 196.176 75.9484 196.117 76.4634L194.859 76.3472C194.95 75.577 195.276 74.964 195.836 74.5083C196.402 74.0526 197.126 73.8247 198.01 73.8247C198.981 73.8247 199.726 74.0549 200.246 74.5151C200.77 74.9709 201.032 75.6203 201.032 76.4634C201.032 76.8371 200.945 77.2085 200.772 77.5776C200.603 77.9468 200.35 78.3159 200.013 78.6851C199.845 78.8674 199.598 79.1021 199.275 79.3892C198.951 79.6763 198.553 80.0135 198.079 80.4009C197.555 80.8293 197.138 81.2166 196.828 81.563C196.518 81.9048 196.294 82.2352 196.158 82.5542H201.182ZM209.071 80.9136C209.071 81.8022 208.788 82.495 208.223 82.9917C207.658 83.4884 206.847 83.7368 205.79 83.7368C204.76 83.7368 203.953 83.493 203.37 83.0054C202.791 82.5177 202.501 81.825 202.501 80.9272C202.501 80.2983 202.681 79.7697 203.042 79.3413C203.402 78.9129 203.862 78.6532 204.422 78.562V78.5347C203.898 78.4116 203.484 78.145 203.178 77.7349C202.877 77.3247 202.727 76.8439 202.727 76.2925C202.727 75.5588 203 74.964 203.547 74.5083C204.099 74.0526 204.837 73.8247 205.762 73.8247C206.71 73.8247 207.458 74.048 208.004 74.4946C208.556 74.9412 208.832 75.5451 208.832 76.3062C208.832 76.8576 208.679 77.3384 208.374 77.7485C208.068 78.1587 207.651 78.4162 207.123 78.521V78.5483C207.738 78.6486 208.216 78.9106 208.558 79.3345C208.9 79.7537 209.071 80.2801 209.071 80.9136ZM207.553 76.3745C207.553 75.2853 206.956 74.7407 205.762 74.7407C204.577 74.7407 203.985 75.2853 203.985 76.3745C203.985 76.9259 204.14 77.3475 204.45 77.6392C204.764 77.9263 205.206 78.0698 205.776 78.0698C206.355 78.0698 206.794 77.9377 207.095 77.6733C207.401 77.4045 207.553 76.9715 207.553 76.3745ZM207.792 80.7974C207.792 80.2004 207.615 79.7515 207.259 79.4507C206.904 79.1453 206.405 78.9927 205.762 78.9927C205.138 78.9927 204.65 79.1567 204.299 79.4849C203.948 79.8084 203.773 80.255 203.773 80.8247C203.773 81.4855 203.942 81.9823 204.279 82.3149C204.621 82.6476 205.129 82.814 205.803 82.814C206.473 82.814 206.972 82.6545 207.3 82.3354C207.628 82.0119 207.792 81.4992 207.792 80.7974Z" fill="#E2E8F0"/>
<path d="M58.8 103.8H66.8V111.8H58.8V103.8Z" fill="#FB2C36"/>
<path d="M77.2883 108.784L76.1809 111.6H74.8274L78.7581 101.968H80.2415L84.1106 111.6H82.7776L81.677 108.784H77.2883ZM79.4827 102.953C79.4052 103.208 79.3118 103.493 79.2024 103.807C79.0976 104.117 78.9996 104.39 78.9084 104.627L77.6848 107.765H81.2874L80.05 104.586C79.9862 104.427 79.9019 104.201 79.7971 103.91C79.6923 103.618 79.5875 103.299 79.4827 102.953ZM91.3362 107.868C91.3362 109.157 91.1083 110.126 90.6526 110.773C90.2014 111.416 89.5224 111.737 88.6155 111.737C88.0549 111.737 87.5878 111.637 87.2141 111.436C86.845 111.231 86.5442 110.903 86.3118 110.452H86.2981C86.2981 110.543 86.2935 110.675 86.2844 110.848C86.2753 111.021 86.2662 111.183 86.2571 111.333C86.248 111.479 86.2389 111.568 86.2297 111.6H85.0403C85.054 111.477 85.0631 111.29 85.0676 111.04C85.0767 110.784 85.0813 110.463 85.0813 110.076V101.456H86.3118V104.347C86.3118 104.493 86.3095 104.655 86.3049 104.833C86.3004 105.006 86.2935 105.193 86.2844 105.393H86.3118C86.5396 104.919 86.8404 104.58 87.2141 104.375C87.5924 104.169 88.0595 104.067 88.6155 104.067C89.5497 104.067 90.2356 104.381 90.6731 105.01C91.1152 105.639 91.3362 106.592 91.3362 107.868ZM90.0442 107.909C90.0442 106.874 89.9075 106.134 89.634 105.687C89.3606 105.24 88.9163 105.017 88.301 105.017C87.6083 105.017 87.1025 105.254 86.7834 105.728C86.469 106.202 86.3118 106.954 86.3118 107.984C86.3118 108.955 86.4667 109.672 86.7766 110.137C87.0865 110.597 87.5901 110.828 88.2874 110.828C88.9071 110.828 89.3538 110.6 89.6272 110.144C89.9052 109.684 90.0442 108.939 90.0442 107.909ZM98.425 109.556C98.425 110.253 98.1607 110.791 97.6321 111.169C97.108 111.548 96.372 111.737 95.4241 111.737C94.5035 111.737 93.7926 111.586 93.2913 111.286C92.7945 110.98 92.4709 110.506 92.3206 109.864L93.4075 109.652C93.5123 110.048 93.7288 110.34 94.0569 110.527C94.385 110.709 94.8407 110.8 95.4241 110.8C96.0484 110.8 96.5042 110.705 96.7913 110.513C97.0829 110.322 97.2288 110.035 97.2288 109.652C97.2288 109.36 97.1285 109.123 96.928 108.941C96.7275 108.759 96.4039 108.608 95.9573 108.49C95.4286 108.348 95.0071 108.232 94.6926 108.141C94.3827 108.05 94.1435 107.972 93.9749 107.909C93.8062 107.84 93.6718 107.777 93.5715 107.717C93.2708 107.544 93.0361 107.332 92.8674 107.082C92.6988 106.831 92.6145 106.523 92.6145 106.159C92.6145 105.484 92.8538 104.972 93.3323 104.621C93.8153 104.265 94.5172 104.087 95.4377 104.087C96.2535 104.087 96.9006 104.231 97.3792 104.518C97.8622 104.805 98.1676 105.265 98.2952 105.899L97.1877 106.036C97.1194 105.708 96.9348 105.457 96.634 105.284C96.3378 105.106 95.939 105.017 95.4377 105.017C94.8818 105.017 94.4716 105.101 94.2073 105.27C93.943 105.439 93.8108 105.694 93.8108 106.036C93.8108 106.286 93.886 106.494 94.0364 106.658C94.1868 106.817 94.4739 106.949 94.8977 107.054C95.4674 107.191 96.0097 107.341 96.5247 107.505C97.0396 107.665 97.4088 107.824 97.6321 107.984C97.8918 108.171 98.0878 108.392 98.22 108.647C98.3567 108.898 98.425 109.201 98.425 109.556ZM100.818 108.162C100.818 109.009 100.993 109.663 101.344 110.124C101.695 110.584 102.208 110.814 102.882 110.814C103.415 110.814 103.841 110.707 104.16 110.493C104.484 110.278 104.703 110.007 104.817 109.679L105.897 109.987C105.455 111.153 104.45 111.737 102.882 111.737C101.788 111.737 100.954 111.411 100.38 110.759C99.8105 110.108 99.5256 109.139 99.5256 107.854C99.5256 106.633 99.8105 105.696 100.38 105.044C100.954 104.393 101.772 104.067 102.834 104.067C103.923 104.067 104.739 104.395 105.281 105.051C105.824 105.708 106.095 106.69 106.095 107.998V108.162H100.818ZM104.823 107.218C104.755 106.439 104.557 105.872 104.229 105.516C103.901 105.156 103.429 104.976 102.814 104.976C102.217 104.976 101.743 105.177 101.392 105.578C101.045 105.974 100.859 106.521 100.831 107.218H104.823ZM108.925 107.314V111.6H107.695V105.783C107.695 105.35 107.69 105.003 107.681 104.744C107.676 104.479 107.667 104.299 107.654 104.204H108.816C108.825 104.29 108.832 104.4 108.836 104.532C108.845 104.664 108.852 104.81 108.857 104.969C108.861 105.129 108.866 105.295 108.87 105.468H108.891C109.173 104.958 109.499 104.598 109.868 104.388C110.242 104.174 110.705 104.067 111.256 104.067C112.067 104.067 112.66 104.274 113.033 104.689C113.412 105.104 113.601 105.764 113.601 106.671V111.6H112.364V106.911C112.364 106.204 112.25 105.712 112.022 105.434C111.794 105.156 111.4 105.017 110.839 105.017C110.247 105.017 109.78 105.22 109.438 105.625C109.096 106.031 108.925 106.594 108.925 107.314ZM118.304 111.545C117.903 111.655 117.488 111.709 117.06 111.709C116.568 111.709 116.198 111.57 115.952 111.292C115.706 111.01 115.583 110.591 115.583 110.035V105.099H114.729V104.204H115.631L115.993 102.549H116.814V104.204H118.181V105.099H116.814V109.768C116.814 110.124 116.871 110.374 116.985 110.52C117.103 110.661 117.306 110.732 117.593 110.732C117.748 110.732 117.985 110.7 118.304 110.636V111.545Z" fill="#CAD5E2"/>
<path d="M207.672 109.419V111.6H206.51V109.419H201.971V108.462L206.38 101.968H207.672V108.449H209.026V109.419H207.672ZM203.106 108.449H206.51V104.607C206.51 104.397 206.51 104.19 206.51 103.985C206.515 103.775 206.524 103.566 206.538 103.356C206.433 103.556 206.342 103.721 206.264 103.848C206.187 103.971 206.116 104.078 206.052 104.169L203.106 108.449Z" fill="#E2E8F0"/>
<path d="M58.8 131.8H66.8V139.8H58.8V131.8Z" fill="#F0B100"/>
<path d="M85.0198 134.74C85.0198 135.77 84.8238 136.658 84.4319 137.406C84.0445 138.153 83.4931 138.73 82.7776 139.135C82.0621 139.536 81.2144 139.737 80.2346 139.737C79.2502 139.737 78.4003 139.536 77.6848 139.135C76.9739 138.734 76.4247 138.16 76.0374 137.413C75.6545 136.665 75.4631 135.774 75.4631 134.74C75.4631 133.71 75.6523 132.83 76.0305 132.101C76.4133 131.367 76.9602 130.805 77.6711 130.413C78.3866 130.021 79.2457 129.825 80.2483 129.825C81.2327 129.825 82.0803 130.018 82.7913 130.406C83.5068 130.793 84.0559 131.354 84.4387 132.087C84.8261 132.817 85.0198 133.701 85.0198 134.74ZM83.6868 134.74C83.6868 133.541 83.386 132.6 82.7844 131.917C82.1874 131.233 81.342 130.891 80.2483 130.891C79.1454 130.891 78.2932 131.228 77.6917 131.903C77.0901 132.577 76.7893 133.523 76.7893 134.74C76.7893 135.542 76.926 136.239 77.1995 136.832C77.4729 137.419 77.8671 137.875 78.3821 138.199C78.8971 138.518 79.5146 138.677 80.2346 138.677C81.3466 138.677 82.1988 138.335 82.7913 137.652C83.3883 136.964 83.6868 135.993 83.6868 134.74ZM87.8977 135.314V139.6H86.6672V133.783C86.6672 133.35 86.6627 133.003 86.6536 132.744C86.649 132.479 86.6399 132.299 86.6262 132.204H87.7883C87.7974 132.29 87.8043 132.4 87.8088 132.532C87.818 132.664 87.8248 132.81 87.8293 132.969C87.8339 133.129 87.8385 133.295 87.843 133.468H87.8635C88.1461 132.958 88.4719 132.598 88.8411 132.388C89.2148 132.174 89.6773 132.067 90.2288 132.067C91.04 132.067 91.6324 132.274 92.0061 132.689C92.3844 133.104 92.5735 133.764 92.5735 134.671V139.6H91.3362V134.911C91.3362 134.204 91.2222 133.712 90.9944 133.434C90.7665 133.156 90.3723 133.017 89.8118 133.017C89.2193 133.017 88.7522 133.22 88.4104 133.625C88.0686 134.031 87.8977 134.594 87.8977 135.314ZM104.707 138.534V139.6H98.5344V129.968H99.8401V138.534H104.707ZM107.066 136.162C107.066 137.009 107.241 137.663 107.592 138.124C107.943 138.584 108.456 138.814 109.13 138.814C109.663 138.814 110.089 138.707 110.408 138.493C110.732 138.278 110.951 138.007 111.065 137.679L112.145 137.987C111.703 139.153 110.698 139.737 109.13 139.737C108.036 139.737 107.202 139.411 106.628 138.759C106.059 138.108 105.774 137.139 105.774 135.854C105.774 134.633 106.059 133.696 106.628 133.044C107.202 132.393 108.02 132.067 109.082 132.067C110.171 132.067 110.987 132.395 111.53 133.051C112.072 133.708 112.343 134.69 112.343 135.998V136.162H107.066ZM111.072 135.218C111.003 134.439 110.805 133.872 110.477 133.516C110.149 133.156 109.677 132.976 109.062 132.976C108.465 132.976 107.991 133.177 107.64 133.578C107.294 133.974 107.107 134.521 107.079 135.218H111.072ZM115.802 139.737C115.059 139.737 114.501 139.541 114.127 139.149C113.753 138.757 113.567 138.219 113.567 137.536C113.567 136.77 113.817 136.182 114.319 135.772C114.824 135.362 115.638 135.143 116.759 135.116L118.42 135.088V134.685C118.42 134.083 118.293 133.653 118.037 133.393C117.782 133.133 117.381 133.003 116.834 133.003C116.283 133.003 115.882 133.097 115.631 133.284C115.38 133.471 115.23 133.769 115.18 134.179L113.895 134.063C114.104 132.732 115.093 132.067 116.862 132.067C117.791 132.067 118.491 132.281 118.96 132.709C119.43 133.133 119.664 133.749 119.664 134.555V137.741C119.664 138.105 119.712 138.381 119.808 138.568C119.904 138.75 120.086 138.841 120.355 138.841C120.482 138.841 120.617 138.825 120.758 138.793V139.559C120.603 139.596 120.446 139.623 120.286 139.641C120.127 139.659 119.967 139.668 119.808 139.668C119.352 139.668 119.019 139.55 118.81 139.313C118.605 139.071 118.489 138.695 118.461 138.185H118.42C118.106 138.75 117.739 139.151 117.32 139.388C116.905 139.621 116.399 139.737 115.802 139.737ZM118.42 135.95L117.073 135.977C116.499 135.982 116.062 136.041 115.761 136.155C115.46 136.264 115.23 136.433 115.071 136.661C114.911 136.889 114.831 137.187 114.831 137.556C114.831 137.957 114.938 138.267 115.153 138.486C115.371 138.705 115.681 138.814 116.082 138.814C116.538 138.814 116.939 138.711 117.285 138.506C117.636 138.301 117.912 138.021 118.113 137.666C118.318 137.306 118.42 136.936 118.42 136.558V135.95ZM127.717 132.204L124.955 139.6H123.499L120.813 132.204H122.125L123.752 137.016C123.784 137.107 123.839 137.29 123.916 137.563C123.994 137.832 124.096 138.19 124.224 138.636C124.283 138.458 124.34 138.274 124.395 138.083C124.454 137.887 124.511 137.697 124.566 137.515C124.625 137.333 124.68 137.171 124.73 137.03L126.411 132.204H127.717ZM129.652 136.162C129.652 137.009 129.827 137.663 130.178 138.124C130.529 138.584 131.042 138.814 131.716 138.814C132.249 138.814 132.675 138.707 132.994 138.493C133.318 138.278 133.537 138.007 133.651 137.679L134.731 137.987C134.289 139.153 133.284 139.737 131.716 139.737C130.622 139.737 129.788 139.411 129.214 138.759C128.644 138.108 128.36 137.139 128.36 135.854C128.36 134.633 128.644 133.696 129.214 133.044C129.788 132.393 130.606 132.067 131.668 132.067C132.757 132.067 133.573 132.395 134.115 133.051C134.658 133.708 134.929 134.69 134.929 135.998V136.162H129.652ZM133.657 135.218C133.589 134.439 133.391 133.872 133.063 133.516C132.735 133.156 132.263 132.976 131.648 132.976C131.051 132.976 130.577 133.177 130.226 133.578C129.879 133.974 129.693 134.521 129.665 135.218H133.657Z" fill="#CAD5E2"/>
<path d="M208.821 136.941C208.821 137.83 208.538 138.518 207.973 139.005C207.408 139.493 206.601 139.737 205.553 139.737C204.578 139.737 203.799 139.518 203.215 139.081C202.637 138.639 202.292 137.987 202.183 137.125L203.455 137.009C203.619 138.149 204.318 138.718 205.553 138.718C206.173 138.718 206.658 138.566 207.009 138.26C207.365 137.955 207.542 137.501 207.542 136.9C207.542 136.376 207.34 135.968 206.934 135.676C206.533 135.38 205.952 135.232 205.191 135.232H204.494V134.166H205.164C205.838 134.166 206.36 134.02 206.729 133.728C207.103 133.432 207.29 133.024 207.29 132.504C207.29 131.989 207.137 131.584 206.832 131.288C206.531 130.987 206.082 130.836 205.485 130.836C204.943 130.836 204.503 130.975 204.166 131.253C203.833 131.531 203.639 131.923 203.584 132.429L202.347 132.333C202.438 131.545 202.764 130.93 203.325 130.488C203.89 130.046 204.614 129.825 205.499 129.825C206.465 129.825 207.214 130.05 207.748 130.501C208.285 130.948 208.554 131.572 208.554 132.375C208.554 132.99 208.381 133.491 208.035 133.878C207.693 134.261 207.194 134.521 206.538 134.658V134.685C207.258 134.763 207.818 135.004 208.219 135.41C208.62 135.815 208.821 136.326 208.821 136.941Z" fill="#E2E8F0"/>
<path d="M59 156H177V162H59V156Z" fill="url(#paint1_linear_1105_1734)"/>
<path d="M64.9524 181.497C64.9524 182.259 64.7102 182.853 64.2258 183.279C63.7415 183.704 63.0461 183.917 62.1399 183.917C61.2571 183.917 60.5657 183.708 60.0657 183.29C59.5696 182.872 59.3215 182.279 59.3215 181.509C59.3215 180.97 59.4758 180.517 59.7844 180.15C60.093 179.782 60.4875 179.56 60.968 179.482V179.458C60.5188 179.353 60.1633 179.124 59.9016 178.773C59.6438 178.421 59.5149 178.009 59.5149 177.536C59.5149 176.907 59.7493 176.398 60.218 176.007C60.6907 175.616 61.3235 175.421 62.1165 175.421C62.929 175.421 63.5696 175.613 64.0383 175.995C64.511 176.378 64.7473 176.896 64.7473 177.548C64.7473 178.021 64.6165 178.433 64.3547 178.784C64.093 179.136 63.7356 179.357 63.2825 179.447V179.47C63.8098 179.556 64.22 179.781 64.5129 180.144C64.8059 180.503 64.9524 180.954 64.9524 181.497ZM63.6516 177.607C63.6516 176.673 63.1399 176.206 62.1165 176.206C61.1008 176.206 60.593 176.673 60.593 177.607C60.593 178.079 60.7258 178.441 60.9915 178.691C61.261 178.937 61.6399 179.06 62.1282 179.06C62.6243 179.06 63.0012 178.947 63.259 178.72C63.5208 178.49 63.6516 178.118 63.6516 177.607ZM63.8567 181.398C63.8567 180.886 63.7043 180.501 63.3997 180.243C63.095 179.982 62.6672 179.851 62.1165 179.851C61.5813 179.851 61.1633 179.991 60.8625 180.273C60.5618 180.55 60.4114 180.933 60.4114 181.421C60.4114 181.988 60.5559 182.413 60.845 182.698C61.1379 182.984 61.5735 183.126 62.1516 183.126C62.7258 183.126 63.1536 182.99 63.4348 182.716C63.7161 182.439 63.8567 181.999 63.8567 181.398ZM71.6848 179.669C71.6848 181.048 71.4407 182.101 70.9524 182.827C70.468 183.554 69.7512 183.917 68.802 183.917C67.8528 183.917 67.1399 183.556 66.6633 182.833C66.1868 182.111 65.9485 181.056 65.9485 179.669C65.9485 178.251 66.179 177.189 66.6399 176.482C67.1047 175.775 67.8372 175.421 68.8372 175.421C69.8098 175.421 70.5266 175.779 70.9875 176.493C71.4524 177.208 71.6848 178.267 71.6848 179.669ZM70.6125 179.669C70.6125 178.872 70.552 178.226 70.4309 177.73C70.3137 177.23 70.1243 176.863 69.8625 176.628C69.6008 176.394 69.259 176.277 68.8372 176.277C68.4075 176.277 68.0579 176.392 67.7883 176.622C67.5188 176.853 67.3215 177.218 67.1965 177.718C67.0754 178.214 67.0149 178.865 67.0149 179.669C67.0149 180.45 67.0774 181.091 67.2024 181.591C67.3313 182.091 67.5286 182.46 67.7942 182.698C68.0598 182.937 68.3997 183.056 68.8137 183.056C69.4348 183.056 69.8899 182.779 70.179 182.224C70.468 181.669 70.6125 180.818 70.6125 179.669ZM74.468 175.474C75.6907 175.474 76.302 176.345 76.302 178.087C76.302 178.935 76.1458 179.587 75.8333 180.044C75.5247 180.501 75.0618 180.73 74.4446 180.73C73.8274 180.73 73.3625 180.503 73.05 180.05C72.7415 179.597 72.5872 178.943 72.5872 178.087C72.5872 177.216 72.7375 176.564 73.0383 176.13C73.3391 175.693 73.8157 175.474 74.468 175.474ZM80.6614 175.544L75.2473 183.8H74.3391L79.7415 175.544H80.6614ZM75.4407 178.087C75.4407 177.4 75.3665 176.898 75.218 176.581C75.0696 176.265 74.8196 176.107 74.468 176.107C74.1008 176.107 73.8391 176.263 73.6829 176.575C73.5266 176.884 73.4485 177.388 73.4485 178.087C73.4485 178.763 73.5266 179.263 73.6829 179.587C73.8391 179.907 74.0969 180.068 74.4563 180.068C74.7961 180.068 75.0442 179.904 75.2004 179.575C75.3606 179.247 75.4407 178.751 75.4407 178.087ZM82.4016 181.257C82.4016 182.097 82.2434 182.743 81.927 183.197C81.6106 183.646 81.1438 183.87 80.5266 183.87C79.9172 183.87 79.4563 183.652 79.1438 183.214C78.8352 182.773 78.6809 182.12 78.6809 181.257C78.6809 180.366 78.8293 179.704 79.1262 179.271C79.427 178.833 79.9016 178.615 80.55 178.615C81.1907 178.615 81.6594 178.839 81.9563 179.288C82.2532 179.734 82.4016 180.39 82.4016 181.257ZM81.5344 181.257C81.5344 180.558 81.4583 180.052 81.3059 179.74C81.1575 179.423 80.9055 179.265 80.55 179.265C80.1946 179.265 79.9368 179.419 79.7766 179.728C79.6204 180.036 79.5422 180.546 79.5422 181.257C79.5422 181.925 79.6184 182.421 79.7708 182.745C79.927 183.066 80.1829 183.226 80.5383 183.226C80.8821 183.226 81.134 183.064 81.2942 182.74C81.4543 182.411 81.5344 181.917 81.5344 181.257ZM87.6399 181.386L86.6907 183.8H85.5305L88.8997 175.544H90.1711L93.4875 183.8H92.345L91.4016 181.386H87.6399ZM89.5208 176.388C89.4543 176.607 89.3743 176.851 89.2805 177.12C89.1907 177.386 89.1067 177.62 89.0286 177.823L87.9797 180.513H91.0676L90.0071 177.788C89.9524 177.652 89.8801 177.458 89.7903 177.208C89.7004 176.958 89.6106 176.685 89.5208 176.388ZM96.7571 183.753C96.4133 183.847 96.0579 183.894 95.6907 183.894C95.2688 183.894 94.9524 183.775 94.7415 183.536C94.5305 183.294 94.425 182.935 94.425 182.458V178.228H93.6926V177.46H94.4661L94.7766 176.042H95.4797V177.46H96.6516V178.228H95.4797V182.23C95.4797 182.534 95.5286 182.749 95.6262 182.874C95.7278 182.995 95.9016 183.056 96.1477 183.056C96.2805 183.056 96.4836 183.029 96.7571 182.974V183.753ZM100.097 183.753C99.7532 183.847 99.3977 183.894 99.0305 183.894C98.6086 183.894 98.2922 183.775 98.0813 183.536C97.8704 183.294 97.7649 182.935 97.7649 182.458V178.228H97.0325V177.46H97.8059L98.1165 176.042H98.8196V177.46H99.9915V178.228H98.8196V182.23C98.8196 182.534 98.8684 182.749 98.9661 182.874C99.0676 182.995 99.2415 183.056 99.4875 183.056C99.6204 183.056 99.8235 183.029 100.097 182.974V183.753ZM101.808 180.853C101.808 181.579 101.958 182.14 102.259 182.534C102.56 182.929 102.999 183.126 103.577 183.126C104.034 183.126 104.4 183.034 104.673 182.851C104.95 182.667 105.138 182.435 105.236 182.154L106.161 182.417C105.782 183.417 104.921 183.917 103.577 183.917C102.64 183.917 101.925 183.638 101.433 183.079C100.945 182.521 100.7 181.691 100.7 180.589C100.7 179.542 100.945 178.74 101.433 178.181C101.925 177.622 102.626 177.343 103.536 177.343C104.47 177.343 105.169 177.624 105.634 178.187C106.099 178.749 106.331 179.591 106.331 180.712V180.853H101.808ZM105.241 180.044C105.183 179.376 105.013 178.89 104.732 178.585C104.45 178.277 104.046 178.122 103.519 178.122C103.007 178.122 102.601 178.294 102.3 178.638C102.003 178.978 101.843 179.447 101.82 180.044H105.241ZM108.757 180.126V183.8H107.702V178.814C107.702 178.443 107.698 178.146 107.691 177.923C107.687 177.697 107.679 177.542 107.667 177.46H108.663C108.671 177.534 108.677 177.628 108.681 177.741C108.689 177.855 108.695 177.98 108.698 178.116C108.702 178.253 108.706 178.396 108.71 178.544H108.728C108.97 178.107 109.249 177.798 109.566 177.618C109.886 177.435 110.282 177.343 110.755 177.343C111.45 177.343 111.958 177.521 112.279 177.876C112.603 178.232 112.765 178.798 112.765 179.575V183.8H111.704V179.781C111.704 179.175 111.607 178.753 111.411 178.515C111.216 178.277 110.878 178.157 110.398 178.157C109.89 178.157 109.49 178.331 109.197 178.679C108.904 179.027 108.757 179.509 108.757 180.126ZM118.443 183.8C118.435 183.757 118.425 183.677 118.413 183.56C118.406 183.439 118.398 183.306 118.39 183.161C118.386 183.017 118.384 182.89 118.384 182.781H118.361C118.165 183.187 117.906 183.478 117.581 183.654C117.261 183.829 116.863 183.917 116.386 183.917C115.585 183.917 114.995 183.648 114.616 183.109C114.241 182.57 114.054 181.753 114.054 180.659C114.054 179.554 114.247 178.726 114.634 178.175C115.025 177.62 115.609 177.343 116.386 177.343C116.866 177.343 117.267 177.431 117.587 177.607C117.907 177.782 118.165 178.062 118.361 178.445H118.372L118.361 177.736V175.105H119.415V182.493C119.415 182.825 119.417 183.101 119.421 183.32C119.429 183.534 119.439 183.695 119.45 183.8H118.443ZM115.161 180.624C115.161 181.511 115.279 182.146 115.513 182.529C115.747 182.911 116.128 183.103 116.656 183.103C117.253 183.103 117.687 182.896 117.956 182.482C118.226 182.068 118.361 181.425 118.361 180.554C118.361 179.714 118.226 179.099 117.956 178.708C117.687 178.318 117.257 178.122 116.667 178.122C116.136 178.122 115.751 178.32 115.513 178.714C115.279 179.105 115.161 179.741 115.161 180.624ZM122.656 183.917C122.019 183.917 121.54 183.749 121.22 183.413C120.9 183.077 120.74 182.616 120.74 182.031C120.74 181.374 120.954 180.87 121.384 180.519C121.818 180.167 122.515 179.98 123.476 179.956L124.9 179.933V179.587C124.9 179.072 124.79 178.702 124.572 178.48C124.353 178.257 124.009 178.146 123.54 178.146C123.068 178.146 122.724 178.226 122.509 178.386C122.294 178.546 122.165 178.802 122.122 179.154L121.021 179.054C121.2 177.913 122.048 177.343 123.564 177.343C124.361 177.343 124.96 177.527 125.363 177.894C125.765 178.257 125.966 178.784 125.966 179.476V182.206C125.966 182.519 126.007 182.755 126.089 182.915C126.171 183.072 126.327 183.15 126.558 183.15C126.667 183.15 126.782 183.136 126.904 183.109V183.765C126.771 183.796 126.636 183.82 126.499 183.835C126.363 183.851 126.226 183.859 126.089 183.859C125.698 183.859 125.413 183.757 125.234 183.554C125.058 183.347 124.958 183.025 124.935 182.587H124.9C124.63 183.072 124.316 183.415 123.956 183.618C123.601 183.818 123.167 183.917 122.656 183.917ZM124.9 180.671L123.745 180.695C123.253 180.698 122.878 180.749 122.62 180.847C122.363 180.941 122.165 181.085 122.029 181.281C121.892 181.476 121.823 181.732 121.823 182.048C121.823 182.392 121.915 182.657 122.099 182.845C122.286 183.032 122.552 183.126 122.896 183.126C123.286 183.126 123.63 183.038 123.927 182.863C124.228 182.687 124.464 182.447 124.636 182.142C124.812 181.833 124.9 181.517 124.9 181.193V180.671ZM128.796 180.126V183.8H127.741V178.814C127.741 178.443 127.738 178.146 127.73 177.923C127.726 177.697 127.718 177.542 127.706 177.46H128.702C128.71 177.534 128.716 177.628 128.72 177.741C128.728 177.855 128.734 177.98 128.738 178.116C128.741 178.253 128.745 178.396 128.749 178.544H128.767C129.009 178.107 129.288 177.798 129.605 177.618C129.925 177.435 130.322 177.343 130.794 177.343C131.49 177.343 131.997 177.521 132.318 177.876C132.642 178.232 132.804 178.798 132.804 179.575V183.8H131.743V179.781C131.743 179.175 131.646 178.753 131.45 178.515C131.255 178.277 130.917 178.157 130.437 178.157C129.929 178.157 129.529 178.331 129.236 178.679C128.943 179.027 128.796 179.509 128.796 180.126ZM136.829 183.917C135.943 183.917 135.265 183.638 134.796 183.079C134.331 182.517 134.099 181.698 134.099 180.624C134.099 179.558 134.333 178.745 134.802 178.187C135.271 177.624 135.943 177.343 136.818 177.343C137.466 177.343 138.003 177.511 138.429 177.847C138.859 178.183 139.128 178.646 139.238 179.236L138.154 179.318C138.099 178.966 137.96 178.687 137.738 178.48C137.515 178.273 137.198 178.169 136.788 178.169C136.23 178.169 135.825 178.355 135.575 178.726C135.325 179.097 135.2 179.722 135.2 180.601C135.2 181.445 135.333 182.07 135.599 182.476C135.865 182.882 136.265 183.085 136.8 183.085C137.175 183.085 137.488 182.984 137.738 182.781C137.991 182.577 138.148 182.265 138.206 181.843L139.273 181.913C139.218 182.32 139.081 182.673 138.863 182.974C138.648 183.275 138.366 183.507 138.019 183.671C137.675 183.835 137.279 183.917 136.829 183.917ZM141.206 180.853C141.206 181.579 141.357 182.14 141.657 182.534C141.958 182.929 142.398 183.126 142.976 183.126C143.433 183.126 143.798 183.034 144.072 182.851C144.349 182.667 144.536 182.435 144.634 182.154L145.56 182.417C145.181 183.417 144.32 183.917 142.976 183.917C142.038 183.917 141.323 183.638 140.831 183.079C140.343 182.521 140.099 181.691 140.099 180.589C140.099 179.542 140.343 178.74 140.831 178.181C141.323 177.622 142.025 177.343 142.935 177.343C143.868 177.343 144.568 177.624 145.032 178.187C145.497 178.749 145.73 179.591 145.73 180.712V180.853H141.206ZM144.64 180.044C144.581 179.376 144.411 178.89 144.13 178.585C143.849 178.277 143.445 178.122 142.917 178.122C142.406 178.122 141.999 178.294 141.698 178.638C141.402 178.978 141.241 179.447 141.218 180.044H144.64ZM151.712 180.372V183.8H150.593V175.544H154.478C155.407 175.544 156.124 175.753 156.628 176.171C157.136 176.585 157.39 177.163 157.39 177.906C157.39 178.519 157.21 179.034 156.851 179.452C156.495 179.87 156.003 180.134 155.374 180.243L157.718 183.8H156.429L154.284 180.372H151.712ZM156.265 177.917C156.265 177.437 156.101 177.072 155.773 176.822C155.448 176.568 154.98 176.441 154.366 176.441H151.712V179.488H154.413C155.003 179.488 155.458 179.351 155.779 179.077C156.103 178.8 156.265 178.413 156.265 177.917ZM160.706 183.917C160.07 183.917 159.591 183.749 159.271 183.413C158.95 183.077 158.79 182.616 158.79 182.031C158.79 181.374 159.005 180.87 159.435 180.519C159.868 180.167 160.566 179.98 161.527 179.956L162.95 179.933V179.587C162.95 179.072 162.841 178.702 162.622 178.48C162.404 178.257 162.06 178.146 161.591 178.146C161.118 178.146 160.775 178.226 160.56 178.386C160.345 178.546 160.216 178.802 160.173 179.154L159.072 179.054C159.251 177.913 160.099 177.343 161.615 177.343C162.411 177.343 163.011 177.527 163.413 177.894C163.816 178.257 164.017 178.784 164.017 179.476V182.206C164.017 182.519 164.058 182.755 164.14 182.915C164.222 183.072 164.378 183.15 164.609 183.15C164.718 183.15 164.833 183.136 164.954 183.109V183.765C164.822 183.796 164.687 183.82 164.55 183.835C164.413 183.851 164.277 183.859 164.14 183.859C163.749 183.859 163.464 183.757 163.284 183.554C163.109 183.347 163.009 183.025 162.986 182.587H162.95C162.681 183.072 162.366 183.415 162.007 183.618C161.652 183.818 161.218 183.917 160.706 183.917ZM162.95 180.671L161.796 180.695C161.304 180.698 160.929 180.749 160.671 180.847C160.413 180.941 160.216 181.085 160.079 181.281C159.943 181.476 159.874 181.732 159.874 182.048C159.874 182.392 159.966 182.657 160.15 182.845C160.337 183.032 160.603 183.126 160.947 183.126C161.337 183.126 161.681 183.038 161.978 182.863C162.279 182.687 162.515 182.447 162.687 182.142C162.863 181.833 162.95 181.517 162.95 181.193V180.671ZM168.206 183.753C167.863 183.847 167.507 183.894 167.14 183.894C166.718 183.894 166.402 183.775 166.191 183.536C165.98 183.294 165.874 182.935 165.874 182.458V178.228H165.142V177.46H165.915L166.226 176.042H166.929V177.46H168.101V178.228H166.929V182.23C166.929 182.534 166.978 182.749 167.075 182.874C167.177 182.995 167.351 183.056 167.597 183.056C167.73 183.056 167.933 183.029 168.206 182.974V183.753ZM169.917 180.853C169.917 181.579 170.068 182.14 170.368 182.534C170.669 182.929 171.109 183.126 171.687 183.126C172.144 183.126 172.509 183.034 172.782 182.851C173.06 182.667 173.247 182.435 173.345 182.154L174.271 182.417C173.892 183.417 173.031 183.917 171.687 183.917C170.749 183.917 170.034 183.638 169.542 183.079C169.054 182.521 168.81 181.691 168.81 180.589C168.81 179.542 169.054 178.74 169.542 178.181C170.034 177.622 170.736 177.343 171.646 177.343C172.579 177.343 173.279 177.624 173.743 178.187C174.208 178.749 174.441 179.591 174.441 180.712V180.853H169.917ZM173.351 180.044C173.292 179.376 173.122 178.89 172.841 178.585C172.56 178.277 172.156 178.122 171.628 178.122C171.116 178.122 170.71 178.294 170.409 178.638C170.113 178.978 169.952 179.447 169.929 180.044H173.351Z" fill="#62748E"/>
</g>
<defs>
<filter id="filter0_d_1105_1734" x="0" y="0" width="268" height="271.6" filterUnits="userSpaceOnUse" color-interpolation-filters="sRGB">
<feFlood flood-opacity="0" result="BackgroundImageFix"/>
<feColorMatrix in="SourceAlpha" type="matrix" values="0 0 0 0 0 0 0 0 0 0 0 0 0 0 0 0 0 0 127 0" result="hardAlpha"/>
<feMorphology radius="12" operator="erode" in="SourceAlpha" result="effect1_dropShadow_1105_1734"/>
<feOffset dy="25"/>
<feGaussianBlur stdDeviation="25"/>
<feComposite in2="hardAlpha" operator="out"/>
<feColorMatrix type="matrix" values="0 0 0 0 0 0 0 0 0 0 0 0 0 0 0 0 0 0 0.25 0"/>
<feBlend mode="normal" in2="BackgroundImageFix" result="effect1_dropShadow_1105_1734"/>
<feBlend mode="normal" in="SourceGraphic" in2="effect1_dropShadow_1105_1734" result="shape"/>
</filter>
<linearGradient id="paint0_linear_1105_1734" x1="38" y1="13" x2="233.566" y2="204.967" gradientUnits="userSpaceOnUse">
<stop stop-color="#1D293D"/>
<stop offset="1" stop-color="#0F172B"/>
</linearGradient>
<linearGradient id="paint1_linear_1105_1734" x1="118" y1="156" x2="118" y2="162" gradientUnits="userSpaceOnUse">
<stop stop-color="#197ADC"/>
<stop offset="1" stop-color="#6BB6FF"/>
</linearGradient>
<clipPath id="clip0_1105_1734">
<rect width="16" height="16" fill="white" transform="translate(58.8 35.8)"/>
</clipPath>
</defs>
</svg>
