<svg width="396" height="402" viewBox="0 0 396 402" fill="none" xmlns="http://www.w3.org/2000/svg">
<g filter="url(#filter0_d_1101_4962)">
<mask id="path-1-inside-1_1101_4962" fill="white">
<path d="M38 29C38 20.1635 45.1634 13 54 13H342C350.837 13 358 20.1634 358 29V323C358 331.837 350.837 339 342 339H54C45.1634 339 38 331.837 38 323V29Z"/>
</mask>
<path d="M38 29C38 20.1635 45.1634 13 54 13H342C350.837 13 358 20.1634 358 29V323C358 331.837 350.837 339 342 339H54C45.1634 339 38 331.837 38 323V29Z" fill="url(#paint0_linear_1101_4962)" shape-rendering="crispEdges"/>
<path d="M54 13V13.8H342V13V12.2H54V13ZM358 29H357.2V323H358H358.8V29H358ZM342 339V338.2H54V339V339.8H342V339ZM38 323H38.8V29H38H37.2V323H38ZM54 339V338.2C45.6053 338.2 38.8 331.395 38.8 323H38H37.2C37.2 332.278 44.7216 339.8 54 339.8V339ZM358 323H357.2C357.2 331.395 350.395 338.2 342 338.2V339V339.8C351.278 339.8 358.8 332.278 358.8 323H358ZM342 13V13.8C350.395 13.8 357.2 20.6053 357.2 29H358H358.8C358.8 19.7216 351.278 12.2 342 12.2V13ZM54 13V12.2C44.7216 12.2 37.2 19.7216 37.2 29H38H38.8C38.8 20.6053 45.6053 13.8 54 13.8V13Z" fill="#197ADC" fill-opacity="0.2" mask="url(#path-1-inside-1_1101_4962)"/>
<path d="M64.1375 47.9087V51.6001H62.8318V41.9683H64.1375V46.7944L68.7791 41.9683H70.3171L66.2156 46.1519L70.864 51.6001H69.2439L65.3953 46.9517L64.1375 47.9087ZM80.4576 50.5337V51.6001H72.8697V41.9683H80.1773V43.0347H74.1753V46.1245H79.7671V47.1772H74.1753V50.5337H80.4576ZM87.0707 47.6079V51.6001H85.7718V47.6079L82.0667 41.9683H83.5023L86.4349 46.5552L89.3539 41.9683H90.7894L87.0707 47.6079ZM98.5878 47.6968V51.6001H97.2822V41.9683H104.125V43.0347H98.5878V46.6167H103.961V47.6968H98.5878ZM114.129 50.5337V51.6001H106.541V41.9683H113.848V43.0347H107.846V46.1245H113.438V47.1772H107.846V50.5337H114.129ZM117.919 48.7837L116.811 51.6001H115.458L119.388 41.9683H120.872L124.741 51.6001H123.408L122.307 48.7837H117.919ZM120.113 42.9526C120.035 43.2078 119.942 43.4927 119.833 43.8071C119.728 44.117 119.63 44.3905 119.539 44.6274L118.315 47.7651H121.918L120.68 44.5864C120.616 44.4269 120.532 44.2013 120.427 43.9097C120.322 43.618 120.218 43.299 120.113 42.9526ZM129.351 43.0347V51.6001H128.052V43.0347H124.744V41.9683H132.66V43.0347H129.351ZM138.685 51.7368C137.896 51.7368 137.208 51.591 136.62 51.2993C136.032 51.0076 135.577 50.5907 135.253 50.0483C134.93 49.506 134.768 48.8566 134.768 48.1001V41.9683H136.073V47.9907C136.073 48.8703 136.297 49.5379 136.743 49.9937C137.19 50.4494 137.835 50.6772 138.678 50.6772C139.544 50.6772 140.216 50.4425 140.694 49.9731C141.178 49.4992 141.419 48.8088 141.419 47.9019V41.9683H142.718V47.9771C142.718 48.7563 142.552 49.4263 142.219 49.9868C141.891 50.5474 141.424 50.9803 140.818 51.2856C140.216 51.5864 139.505 51.7368 138.685 51.7368ZM146.959 47.6011V51.6001H145.653V41.9683H150.186C151.27 41.9683 152.106 42.2121 152.694 42.6997C153.287 43.1828 153.583 43.8573 153.583 44.7231C153.583 45.4386 153.373 46.0402 152.954 46.5278C152.539 47.0155 151.965 47.3231 151.231 47.4507L153.966 51.6001H152.462L149.96 47.6011H146.959ZM152.27 44.7368C152.27 44.1763 152.079 43.7502 151.696 43.4585C151.318 43.1623 150.771 43.0142 150.056 43.0142H146.959V46.5688H150.11C150.798 46.5688 151.329 46.4093 151.703 46.0903C152.081 45.7668 152.27 45.3156 152.27 44.7368ZM164.058 50.5337V51.6001H156.47V41.9683H163.778V43.0347H157.776V46.1245H163.368V47.1772H157.776V50.5337H164.058ZM174.055 48.9409C174.055 49.8296 173.707 50.5177 173.009 51.0054C172.317 51.493 171.339 51.7368 170.077 51.7368C167.73 51.7368 166.369 50.9211 165.996 49.2896L167.26 49.0366C167.406 49.6154 167.716 50.0415 168.19 50.3149C168.664 50.5838 169.309 50.7183 170.125 50.7183C170.968 50.7183 171.617 50.5747 172.073 50.2876C172.533 49.9959 172.763 49.5698 172.763 49.0093C172.763 48.6948 172.69 48.4396 172.544 48.2437C172.403 48.0477 172.203 47.8859 171.943 47.7583C171.683 47.6307 171.373 47.5236 171.013 47.437C170.653 47.3504 170.254 47.257 169.817 47.1567C169.311 47.0428 168.887 46.9312 168.545 46.8218C168.208 46.7124 167.93 46.5985 167.711 46.48C167.493 46.3569 167.306 46.2271 167.151 46.0903C166.923 45.8807 166.748 45.6369 166.625 45.3589C166.506 45.0809 166.447 44.7619 166.447 44.4019C166.447 43.577 166.761 42.9412 167.39 42.4946C168.024 42.048 168.928 41.8247 170.104 41.8247C171.198 41.8247 172.034 41.9933 172.613 42.3306C173.192 42.6632 173.597 43.2329 173.83 44.0396L172.544 44.2651C172.403 43.7547 172.134 43.3856 171.738 43.1577C171.341 42.9253 170.792 42.8091 170.09 42.8091C169.32 42.8091 168.732 42.9367 168.327 43.1919C167.921 43.4471 167.718 43.8276 167.718 44.3335C167.718 44.6297 167.796 44.8758 167.951 45.0718C168.11 45.2632 168.338 45.425 168.634 45.5571C168.912 45.6893 169.502 45.8556 170.405 46.0562C170.774 46.1427 171.139 46.2339 171.499 46.3296C171.859 46.4207 172.198 46.5369 172.517 46.6782C172.704 46.7557 172.882 46.8514 173.05 46.9653C173.224 47.0747 173.374 47.2023 173.502 47.3481C173.675 47.5396 173.809 47.7651 173.905 48.0249C174.005 48.2847 174.055 48.59 174.055 48.9409Z" fill="#CAD5E2"/>
<path d="M62.3667 92.2666C62.3667 84.5346 68.6347 78.2666 76.3667 78.2666H178.833C186.565 78.2666 192.833 84.5346 192.833 92.2666V177.233C192.833 184.965 186.565 191.233 178.833 191.233H76.3667C68.6347 191.233 62.3667 184.965 62.3667 177.233V92.2666Z" fill="url(#paint1_linear_1101_4962)"/>
<path d="M63.3833 93.2832C63.3833 85.5512 69.6513 79.2832 77.3833 79.2832H177.817C185.549 79.2832 191.817 85.5512 191.817 93.2832V176.233C191.817 183.965 185.549 190.233 177.817 190.233H77.3833C69.6513 190.233 63.3833 183.965 63.3833 176.233V93.2832Z" fill="#0F172B"/>
<path d="M79.5667 106C79.5667 100.477 84.0438 96 89.5667 96H118.117C123.64 96 128.117 100.477 128.117 106V134.55C128.117 140.073 123.639 144.55 118.117 144.55H89.5666C84.0438 144.55 79.5667 140.073 79.5667 134.55V106Z" fill="url(#paint2_linear_1101_4962)"/>
<path d="M91.8333 108.275V129.608C91.8333 130.315 92.1142 130.994 92.6143 131.494C93.1144 131.994 93.7927 132.275 94.4999 132.275H115.833" stroke="white" stroke-width="2.66667" stroke-linecap="round" stroke-linejoin="round"/>
<path d="M111.833 126.942V116.275" stroke="white" stroke-width="2.66667" stroke-linecap="round" stroke-linejoin="round"/>
<path d="M105.167 126.942V110.942" stroke="white" stroke-width="2.66667" stroke-linecap="round" stroke-linejoin="round"/>
<path d="M98.5 126.942V122.942" stroke="white" stroke-width="2.66667" stroke-linecap="round" stroke-linejoin="round"/>
<path d="M73.6882 166.384L72.5808 169.2H71.2273L75.158 159.568H76.6414L80.5105 169.2H79.1775L78.0769 166.384H73.6882ZM75.8826 160.552C75.8051 160.808 75.7117 161.093 75.6023 161.407C75.4975 161.717 75.3995 161.99 75.3083 162.227L74.0847 165.365H77.6873L76.45 162.186C76.3861 162.027 76.3018 161.801 76.197 161.51C76.0922 161.218 75.9874 160.899 75.8826 160.552ZM86.2458 169.2C86.2367 169.15 86.2253 169.056 86.2117 168.92C86.2026 168.778 86.1934 168.623 86.1843 168.455C86.1798 168.286 86.1775 168.138 86.1775 168.01H86.1501C85.9223 168.484 85.6192 168.824 85.241 169.029C84.8673 169.234 84.4024 169.337 83.8464 169.337C82.9122 169.337 82.224 169.022 81.782 168.393C81.3445 167.764 81.1257 166.812 81.1257 165.536C81.1257 164.246 81.3513 163.28 81.8025 162.637C82.2582 161.99 82.9395 161.667 83.8464 161.667C84.407 161.667 84.8741 161.769 85.2478 161.974C85.6215 162.179 85.9223 162.505 86.1501 162.952H86.1638L86.1501 162.125V159.055H87.3806V167.676C87.3806 168.063 87.3829 168.384 87.3875 168.639C87.3966 168.89 87.408 169.077 87.4216 169.2H86.2458ZM82.4177 165.495C82.4177 166.529 82.5544 167.27 82.8279 167.717C83.1013 168.163 83.5457 168.386 84.1609 168.386C84.8582 168.386 85.364 168.145 85.6785 167.662C85.9929 167.179 86.1501 166.429 86.1501 165.413C86.1501 164.433 85.9929 163.715 85.6785 163.26C85.364 162.804 84.8627 162.576 84.1746 162.576C83.5548 162.576 83.1059 162.806 82.8279 163.266C82.5544 163.722 82.4177 164.465 82.4177 165.495ZM95.283 161.803L92.5212 169.2H91.0652L88.3787 161.803H89.6912L91.3181 166.616C91.35 166.707 91.4047 166.889 91.4822 167.163C91.5597 167.432 91.6622 167.789 91.7898 168.236C91.849 168.058 91.906 167.874 91.9607 167.682C92.0199 167.486 92.0769 167.297 92.1316 167.115C92.1908 166.933 92.2455 166.771 92.2957 166.63L93.9773 161.803H95.283ZM98.1609 169.337C97.4181 169.337 96.8598 169.141 96.4861 168.749C96.1124 168.357 95.9255 167.819 95.9255 167.135C95.9255 166.37 96.1762 165.782 96.6775 165.372C97.1833 164.962 97.9968 164.743 99.1179 164.716L100.779 164.688V164.285C100.779 163.683 100.651 163.253 100.396 162.993C100.141 162.733 99.74 162.603 99.1931 162.603C98.6417 162.603 98.2406 162.697 97.99 162.884C97.7393 163.07 97.5889 163.369 97.5388 163.779L96.2537 163.663C96.4633 162.332 97.4522 161.667 99.2205 161.667C100.15 161.667 100.85 161.881 101.319 162.309C101.788 162.733 102.023 163.348 102.023 164.155V167.341C102.023 167.705 102.071 167.981 102.167 168.168C102.262 168.35 102.445 168.441 102.714 168.441C102.841 168.441 102.976 168.425 103.117 168.393V169.159C102.962 169.195 102.805 169.223 102.645 169.241C102.486 169.259 102.326 169.268 102.167 169.268C101.711 169.268 101.378 169.15 101.169 168.913C100.964 168.671 100.847 168.295 100.82 167.785H100.779C100.465 168.35 100.098 168.751 99.6785 168.988C99.2638 169.22 98.7579 169.337 98.1609 169.337ZM100.779 165.55L99.4324 165.577C98.8582 165.581 98.4207 165.641 98.1199 165.755C97.8191 165.864 97.5889 166.033 97.4294 166.26C97.2699 166.488 97.1902 166.787 97.1902 167.156C97.1902 167.557 97.2973 167.867 97.5115 168.086C97.7302 168.304 98.0401 168.414 98.4412 168.414C98.8969 168.414 99.2979 168.311 99.6443 168.106C99.9952 167.901 100.271 167.621 100.471 167.265C100.677 166.905 100.779 166.536 100.779 166.158V165.55ZM105.325 164.914V169.2H104.094V163.383C104.094 162.95 104.09 162.603 104.081 162.344C104.076 162.079 104.067 161.899 104.053 161.803H105.216C105.225 161.89 105.232 161.999 105.236 162.132C105.245 162.264 105.252 162.41 105.257 162.569C105.261 162.729 105.266 162.895 105.27 163.068H105.291C105.573 162.558 105.899 162.198 106.268 161.988C106.642 161.774 107.105 161.667 107.656 161.667C108.467 161.667 109.06 161.874 109.433 162.289C109.812 162.704 110.001 163.364 110.001 164.271V169.2H108.763V164.51C108.763 163.804 108.649 163.312 108.422 163.034C108.194 162.756 107.8 162.617 107.239 162.617C106.647 162.617 106.179 162.82 105.838 163.225C105.496 163.631 105.325 164.194 105.325 164.914ZM114.697 169.337C113.663 169.337 112.872 169.011 112.325 168.359C111.783 167.703 111.511 166.748 111.511 165.495C111.511 164.251 111.785 163.303 112.332 162.651C112.879 161.995 113.663 161.667 114.683 161.667C115.44 161.667 116.066 161.863 116.563 162.255C117.065 162.647 117.379 163.187 117.507 163.875L116.242 163.97C116.178 163.56 116.016 163.234 115.757 162.993C115.497 162.751 115.128 162.631 114.649 162.631C113.997 162.631 113.526 162.847 113.234 163.28C112.942 163.713 112.797 164.442 112.797 165.468C112.797 166.452 112.952 167.181 113.261 167.655C113.571 168.129 114.038 168.366 114.663 168.366C115.1 168.366 115.465 168.247 115.757 168.01C116.053 167.774 116.235 167.409 116.303 166.917L117.548 166.999C117.484 167.473 117.324 167.885 117.069 168.236C116.818 168.587 116.49 168.858 116.085 169.05C115.684 169.241 115.221 169.337 114.697 169.337ZM119.803 165.761C119.803 166.609 119.979 167.263 120.33 167.723C120.681 168.184 121.193 168.414 121.868 168.414C122.401 168.414 122.827 168.307 123.146 168.093C123.47 167.878 123.689 167.607 123.802 167.279L124.883 167.587C124.441 168.753 123.436 169.337 121.868 169.337C120.774 169.337 119.94 169.011 119.366 168.359C118.796 167.707 118.511 166.739 118.511 165.454C118.511 164.233 118.796 163.296 119.366 162.644C119.94 161.993 120.758 161.667 121.82 161.667C122.909 161.667 123.725 161.995 124.267 162.651C124.81 163.307 125.081 164.289 125.081 165.597V165.761H119.803ZM123.809 164.818C123.741 164.039 123.543 163.471 123.215 163.116C122.886 162.756 122.415 162.576 121.8 162.576C121.203 162.576 120.729 162.776 120.378 163.177C120.031 163.574 119.844 164.121 119.817 164.818H123.809ZM131.315 166.384L130.208 169.2H128.854L132.785 159.568H134.268L138.137 169.2H136.804L135.704 166.384H131.315ZM133.51 160.552C133.432 160.808 133.339 161.093 133.229 161.407C133.124 161.717 133.026 161.99 132.935 162.227L131.712 165.365H135.314L134.077 162.186C134.013 162.027 133.929 161.801 133.824 161.51C133.719 161.218 133.614 160.899 133.51 160.552ZM140.366 164.914V169.2H139.135V163.383C139.135 162.95 139.131 162.603 139.122 162.344C139.117 162.079 139.108 161.899 139.094 161.803H140.257C140.266 161.89 140.273 161.999 140.277 162.132C140.286 162.264 140.293 162.41 140.298 162.569C140.302 162.729 140.307 162.895 140.311 163.068H140.332C140.614 162.558 140.94 162.198 141.309 161.988C141.683 161.774 142.146 161.667 142.697 161.667C143.508 161.667 144.101 161.874 144.474 162.289C144.853 162.704 145.042 163.364 145.042 164.271V169.2H143.804V164.51C143.804 163.804 143.691 163.312 143.463 163.034C143.235 162.756 142.841 162.617 142.28 162.617C141.688 162.617 141.22 162.82 140.879 163.225C140.537 163.631 140.366 164.194 140.366 164.914ZM148.788 169.337C148.045 169.337 147.487 169.141 147.113 168.749C146.739 168.357 146.552 167.819 146.552 167.135C146.552 166.37 146.803 165.782 147.304 165.372C147.81 164.962 148.624 164.743 149.745 164.716L151.406 164.688V164.285C151.406 163.683 151.278 163.253 151.023 162.993C150.768 162.733 150.367 162.603 149.82 162.603C149.269 162.603 148.868 162.697 148.617 162.884C148.366 163.07 148.216 163.369 148.166 163.779L146.881 163.663C147.09 162.332 148.079 161.667 149.847 161.667C150.777 161.667 151.477 161.881 151.946 162.309C152.415 162.733 152.65 163.348 152.65 164.155V167.341C152.65 167.705 152.698 167.981 152.794 168.168C152.889 168.35 153.072 168.441 153.341 168.441C153.468 168.441 153.603 168.425 153.744 168.393V169.159C153.589 169.195 153.432 169.223 153.272 169.241C153.113 169.259 152.953 169.268 152.794 169.268C152.338 169.268 152.005 169.15 151.796 168.913C151.591 168.671 151.474 168.295 151.447 167.785H151.406C151.092 168.35 150.725 168.751 150.305 168.988C149.891 169.22 149.385 169.337 148.788 169.337ZM151.406 165.55L150.059 165.577C149.485 165.581 149.048 165.641 148.747 165.755C148.446 165.864 148.216 166.033 148.056 166.26C147.897 166.488 147.817 166.787 147.817 167.156C147.817 167.557 147.924 167.867 148.138 168.086C148.357 168.304 148.667 168.414 149.068 168.414C149.524 168.414 149.925 168.311 150.271 168.106C150.622 167.901 150.898 167.621 151.098 167.265C151.303 166.905 151.406 166.536 151.406 166.158V165.55ZM155.925 159.055V169.2H154.694V159.055H155.925ZM158.174 172.105C157.845 172.105 157.563 172.08 157.326 172.03V171.107C157.499 171.135 157.691 171.148 157.9 171.148C158.283 171.148 158.636 171.005 158.96 170.718C159.288 170.435 159.58 169.918 159.835 169.166L156.902 161.803H158.215L159.773 165.891C159.887 166.183 160.008 166.513 160.135 166.883C160.268 167.252 160.37 167.578 160.443 167.86C160.557 167.537 160.671 167.215 160.785 166.896C160.903 166.577 161.017 166.258 161.127 165.939L162.542 161.803H163.841L160.997 169.2C160.842 169.592 160.694 169.934 160.552 170.225C160.411 170.522 160.274 170.765 160.142 170.957C159.878 171.344 159.584 171.631 159.26 171.818C158.941 172.01 158.579 172.105 158.174 172.105ZM167.655 169.145C167.254 169.255 166.839 169.309 166.411 169.309C165.919 169.309 165.55 169.17 165.303 168.892C165.057 168.61 164.934 168.191 164.934 167.635V162.699H164.08V161.803H164.982L165.344 160.149H166.165V161.803H167.532V162.699H166.165V167.368C166.165 167.723 166.222 167.974 166.336 168.12C166.454 168.261 166.657 168.332 166.944 168.332C167.099 168.332 167.336 168.3 167.655 168.236V169.145ZM169.931 159.055V160.231H168.701V159.055H169.931ZM169.931 161.803V169.2H168.701V161.803H169.931ZM174.662 169.337C173.627 169.337 172.837 169.011 172.29 168.359C171.747 167.703 171.476 166.748 171.476 165.495C171.476 164.251 171.75 163.303 172.297 162.651C172.844 161.995 173.627 161.667 174.648 161.667C175.405 161.667 176.031 161.863 176.528 162.255C177.029 162.647 177.344 163.187 177.471 163.875L176.207 163.97C176.143 163.56 175.981 163.234 175.721 162.993C175.462 162.751 175.093 162.631 174.614 162.631C173.962 162.631 173.491 162.847 173.199 163.28C172.907 163.713 172.761 164.442 172.761 165.468C172.761 166.452 172.916 167.181 173.226 167.655C173.536 168.129 174.003 168.366 174.628 168.366C175.065 168.366 175.43 168.247 175.721 168.01C176.018 167.774 176.2 167.409 176.268 166.917L177.512 166.999C177.449 167.473 177.289 167.885 177.034 168.236C176.783 168.587 176.455 168.858 176.05 169.05C175.649 169.241 175.186 169.337 174.662 169.337ZM184.376 167.156C184.376 167.853 184.111 168.391 183.583 168.769C183.059 169.148 182.323 169.337 181.375 169.337C180.454 169.337 179.743 169.186 179.242 168.885C178.745 168.58 178.422 168.106 178.271 167.464L179.358 167.252C179.463 167.648 179.679 167.94 180.008 168.127C180.336 168.309 180.791 168.4 181.375 168.4C181.999 168.4 182.455 168.304 182.742 168.113C183.034 167.922 183.179 167.635 183.179 167.252C183.179 166.96 183.079 166.723 182.879 166.541C182.678 166.358 182.355 166.208 181.908 166.09C181.379 165.948 180.958 165.832 180.643 165.741C180.333 165.65 180.094 165.572 179.926 165.509C179.757 165.44 179.622 165.376 179.522 165.317C179.221 165.144 178.987 164.932 178.818 164.681C178.649 164.431 178.565 164.123 178.565 163.759C178.565 163.084 178.804 162.571 179.283 162.22C179.766 161.865 180.468 161.687 181.388 161.687C182.204 161.687 182.851 161.831 183.33 162.118C183.813 162.405 184.118 162.865 184.246 163.499L183.138 163.635C183.07 163.307 182.885 163.057 182.585 162.884C182.288 162.706 181.89 162.617 181.388 162.617C180.832 162.617 180.422 162.701 180.158 162.87C179.894 163.038 179.761 163.294 179.761 163.635C179.761 163.886 179.837 164.094 179.987 164.258C180.137 164.417 180.425 164.549 180.848 164.654C181.418 164.791 181.96 164.941 182.475 165.105C182.99 165.265 183.359 165.424 183.583 165.584C183.843 165.771 184.038 165.992 184.171 166.247C184.307 166.497 184.376 166.801 184.376 167.156Z" fill="#E2E8F0"/>
<path d="M62 218C62 210.268 68.268 204 76 204H178.467C186.199 204 192.467 210.268 192.467 218V302.967C192.467 310.699 186.199 316.967 178.467 316.967H76C68.268 316.967 62 310.699 62 302.967V218Z" fill="url(#paint3_linear_1101_4962)"/>
<path d="M63.0166 219.017C63.0166 211.285 69.2846 205.017 77.0166 205.017H177.45C185.182 205.017 191.45 211.285 191.45 219.017V301.967C191.45 309.699 185.182 315.967 177.45 315.967H77.0166C69.2846 315.967 63.0166 309.699 63.0166 301.967V219.017Z" fill="#0F172B"/>
<path d="M79.2 231.733C79.2 226.211 83.6771 221.733 89.2 221.733H117.75C123.273 221.733 127.75 226.211 127.75 231.733V260.283C127.75 265.806 123.273 270.283 117.75 270.283H89.1999C83.6771 270.283 79.2 265.806 79.2 260.283V231.733Z" fill="url(#paint4_linear_1101_4962)"/>
<path d="M98.1333 232.675V238.008" stroke="white" stroke-width="1.66661" stroke-linecap="round" stroke-linejoin="round"/>
<path d="M108.8 232.675V238.008" stroke="white" stroke-width="1.66661" stroke-linecap="round" stroke-linejoin="round"/>
<path d="M112.8 235.342H94.1332C92.6605 235.342 91.4666 236.535 91.4666 238.008V256.675C91.4666 258.148 92.6605 259.342 94.1332 259.342H112.8C114.273 259.342 115.467 258.148 115.467 256.675V238.008C115.467 236.535 114.273 235.342 112.8 235.342Z" stroke="white" stroke-width="1.66661" stroke-linecap="round" stroke-linejoin="round"/>
<path d="M91.4666 243.342H115.467" stroke="white" stroke-width="1.66661" stroke-linecap="round" stroke-linejoin="round"/>
<path d="M82.4883 293.184L81.3809 296H80.0273L83.958 286.368H85.4414L89.3105 296H87.9775L86.877 293.184H82.4883ZM84.6826 287.353C84.6051 287.608 84.5117 287.893 84.4023 288.207C84.2975 288.517 84.1995 288.79 84.1084 289.027L82.8848 292.165H86.4873L85.25 288.986C85.1862 288.827 85.1019 288.601 84.9971 288.31C84.8923 288.018 84.7874 287.699 84.6826 287.353ZM93.125 295.945C92.724 296.055 92.3092 296.109 91.8809 296.109C91.3887 296.109 91.0195 295.97 90.7734 295.692C90.5273 295.41 90.4043 294.991 90.4043 294.435V289.499H89.5498V288.604H90.4521L90.8145 286.949H91.6348V288.604H93.002V289.499H91.6348V294.168C91.6348 294.523 91.6917 294.774 91.8057 294.92C91.9242 295.061 92.127 295.132 92.4141 295.132C92.569 295.132 92.806 295.1 93.125 295.036V295.945ZM97.0215 295.945C96.6204 296.055 96.2057 296.109 95.7773 296.109C95.2852 296.109 94.916 295.97 94.6699 295.692C94.4238 295.41 94.3008 294.991 94.3008 294.435V289.499H93.4463V288.604H94.3486L94.7109 286.949H95.5312V288.604H96.8984V289.499H95.5312V294.168C95.5312 294.523 95.5882 294.774 95.7021 294.92C95.8206 295.061 96.0234 295.132 96.3105 295.132C96.4655 295.132 96.7025 295.1 97.0215 295.036V295.945ZM99.0176 292.562C99.0176 293.409 99.193 294.063 99.5439 294.523C99.8949 294.984 100.408 295.214 101.082 295.214C101.615 295.214 102.041 295.107 102.36 294.893C102.684 294.678 102.903 294.407 103.017 294.079L104.097 294.387C103.655 295.553 102.65 296.137 101.082 296.137C99.9883 296.137 99.1543 295.811 98.5801 295.159C98.0104 294.507 97.7256 293.539 97.7256 292.254C97.7256 291.033 98.0104 290.096 98.5801 289.444C99.1543 288.793 99.9723 288.467 101.034 288.467C102.123 288.467 102.939 288.795 103.481 289.451C104.024 290.107 104.295 291.09 104.295 292.397V292.562H99.0176ZM103.023 291.618C102.955 290.839 102.757 290.271 102.429 289.916C102.101 289.556 101.629 289.376 101.014 289.376C100.417 289.376 99.9427 289.576 99.5918 289.978C99.2454 290.374 99.0586 290.921 99.0312 291.618H103.023ZM107.125 291.714V296H105.895V290.183C105.895 289.75 105.89 289.403 105.881 289.144C105.876 288.879 105.867 288.699 105.854 288.604H107.016C107.025 288.69 107.032 288.799 107.036 288.932C107.045 289.064 107.052 289.21 107.057 289.369C107.061 289.529 107.066 289.695 107.07 289.868H107.091C107.373 289.358 107.699 288.998 108.068 288.788C108.442 288.574 108.905 288.467 109.456 288.467C110.267 288.467 110.86 288.674 111.233 289.089C111.612 289.504 111.801 290.164 111.801 291.071V296H110.563V291.311C110.563 290.604 110.45 290.112 110.222 289.834C109.994 289.556 109.6 289.417 109.039 289.417C108.447 289.417 107.979 289.62 107.638 290.025C107.296 290.431 107.125 290.994 107.125 291.714ZM118.425 296C118.416 295.95 118.404 295.856 118.391 295.72C118.382 295.578 118.372 295.424 118.363 295.255C118.359 295.086 118.356 294.938 118.356 294.811H118.329C118.101 295.285 117.798 295.624 117.42 295.829C117.046 296.034 116.581 296.137 116.025 296.137C115.091 296.137 114.403 295.822 113.961 295.193C113.523 294.564 113.305 293.612 113.305 292.336C113.305 291.046 113.53 290.08 113.981 289.438C114.437 288.79 115.118 288.467 116.025 288.467C116.586 288.467 117.053 288.569 117.427 288.774C117.8 288.979 118.101 289.305 118.329 289.752H118.343L118.329 288.925V285.855H119.56V294.476C119.56 294.863 119.562 295.184 119.566 295.439C119.576 295.69 119.587 295.877 119.601 296H118.425ZM114.597 292.295C114.597 293.329 114.733 294.07 115.007 294.517C115.28 294.963 115.725 295.187 116.34 295.187C117.037 295.187 117.543 294.945 117.857 294.462C118.172 293.979 118.329 293.229 118.329 292.213C118.329 291.233 118.172 290.515 117.857 290.06C117.543 289.604 117.042 289.376 116.354 289.376C115.734 289.376 115.285 289.606 115.007 290.066C114.733 290.522 114.597 291.265 114.597 292.295ZM123.34 296.137C122.597 296.137 122.039 295.941 121.665 295.549C121.291 295.157 121.104 294.619 121.104 293.936C121.104 293.17 121.355 292.582 121.856 292.172C122.362 291.762 123.176 291.543 124.297 291.516L125.958 291.488V291.085C125.958 290.483 125.83 290.053 125.575 289.793C125.32 289.533 124.919 289.403 124.372 289.403C123.821 289.403 123.42 289.497 123.169 289.684C122.918 289.87 122.768 290.169 122.718 290.579L121.433 290.463C121.642 289.132 122.631 288.467 124.399 288.467C125.329 288.467 126.029 288.681 126.498 289.109C126.967 289.533 127.202 290.148 127.202 290.955V294.141C127.202 294.505 127.25 294.781 127.346 294.968C127.441 295.15 127.624 295.241 127.893 295.241C128.02 295.241 128.155 295.225 128.296 295.193V295.959C128.141 295.995 127.984 296.023 127.824 296.041C127.665 296.059 127.505 296.068 127.346 296.068C126.89 296.068 126.557 295.95 126.348 295.713C126.143 295.471 126.026 295.095 125.999 294.585H125.958C125.644 295.15 125.277 295.551 124.857 295.788C124.443 296.021 123.937 296.137 123.34 296.137ZM125.958 292.35L124.611 292.377C124.037 292.382 123.6 292.441 123.299 292.555C122.998 292.664 122.768 292.833 122.608 293.061C122.449 293.288 122.369 293.587 122.369 293.956C122.369 294.357 122.476 294.667 122.69 294.886C122.909 295.104 123.219 295.214 123.62 295.214C124.076 295.214 124.477 295.111 124.823 294.906C125.174 294.701 125.45 294.421 125.65 294.065C125.855 293.705 125.958 293.336 125.958 292.958V292.35ZM130.504 291.714V296H129.273V290.183C129.273 289.75 129.269 289.403 129.26 289.144C129.255 288.879 129.246 288.699 129.232 288.604H130.395C130.404 288.69 130.41 288.799 130.415 288.932C130.424 289.064 130.431 289.21 130.436 289.369C130.44 289.529 130.445 289.695 130.449 289.868H130.47C130.752 289.358 131.078 288.998 131.447 288.788C131.821 288.574 132.284 288.467 132.835 288.467C133.646 288.467 134.239 288.674 134.612 289.089C134.991 289.504 135.18 290.164 135.18 291.071V296H133.942V291.311C133.942 290.604 133.828 290.112 133.601 289.834C133.373 289.556 132.979 289.417 132.418 289.417C131.826 289.417 131.358 289.62 131.017 290.025C130.675 290.431 130.504 290.994 130.504 291.714ZM139.876 296.137C138.841 296.137 138.051 295.811 137.504 295.159C136.962 294.503 136.69 293.548 136.69 292.295C136.69 291.051 136.964 290.103 137.511 289.451C138.058 288.795 138.841 288.467 139.862 288.467C140.619 288.467 141.245 288.663 141.742 289.055C142.243 289.447 142.558 289.987 142.686 290.675L141.421 290.771C141.357 290.36 141.195 290.035 140.936 289.793C140.676 289.551 140.307 289.431 139.828 289.431C139.176 289.431 138.705 289.647 138.413 290.08C138.121 290.513 137.976 291.242 137.976 292.268C137.976 293.252 138.131 293.981 138.44 294.455C138.75 294.929 139.217 295.166 139.842 295.166C140.279 295.166 140.644 295.048 140.936 294.811C141.232 294.574 141.414 294.209 141.482 293.717L142.727 293.799C142.663 294.273 142.503 294.685 142.248 295.036C141.997 295.387 141.669 295.658 141.264 295.85C140.863 296.041 140.4 296.137 139.876 296.137ZM144.982 292.562C144.982 293.409 145.158 294.063 145.509 294.523C145.86 294.984 146.372 295.214 147.047 295.214C147.58 295.214 148.006 295.107 148.325 294.893C148.649 294.678 148.868 294.407 148.981 294.079L150.062 294.387C149.619 295.553 148.615 296.137 147.047 296.137C145.953 296.137 145.119 295.811 144.545 295.159C143.975 294.507 143.69 293.539 143.69 292.254C143.69 291.033 143.975 290.096 144.545 289.444C145.119 288.793 145.937 288.467 146.999 288.467C148.088 288.467 148.904 288.795 149.446 289.451C149.989 290.107 150.26 291.09 150.26 292.397V292.562H144.982ZM148.988 291.618C148.92 290.839 148.722 290.271 148.394 289.916C148.065 289.556 147.594 289.376 146.979 289.376C146.382 289.376 145.908 289.576 145.557 289.978C145.21 290.374 145.023 290.921 144.996 291.618H148.988Z" fill="#E2E8F0"/>
<path d="M206 215C206 207.268 212.268 201 220 201H322.467C330.199 201 336.467 207.268 336.467 215V299.967C336.467 307.699 330.199 313.967 322.467 313.967H220C212.268 313.967 206 307.699 206 299.967V215Z" fill="url(#paint5_linear_1101_4962)"/>
<path d="M207.017 216.017C207.017 208.285 213.285 202.017 221.017 202.017H321.45C329.182 202.017 335.45 208.285 335.45 216.017V298.967C335.45 306.699 329.182 312.967 321.45 312.967H221.017C213.285 312.967 207.017 306.699 207.017 298.967V216.017Z" fill="#0F172B"/>
<path d="M223.2 228.733C223.2 223.211 227.677 218.733 233.2 218.733H261.75C267.273 218.733 271.75 223.211 271.75 228.733V257.283C271.75 262.806 267.273 267.283 261.75 267.283H233.2C227.677 267.283 223.2 262.806 223.2 257.283V228.733Z" fill="url(#paint6_linear_1101_4962)"/>
<path d="M252.8 255.008V252.342C252.8 250.927 252.238 249.571 251.238 248.57C250.238 247.57 248.881 247.008 247.467 247.008H239.467C238.052 247.008 236.696 247.57 235.695 248.57C234.695 249.571 234.133 250.927 234.133 252.342V255.008" stroke="white" stroke-width="2.33333" stroke-linecap="round" stroke-linejoin="round"/>
<path d="M252.8 231.179C253.943 231.475 254.956 232.143 255.679 233.078C256.402 234.012 256.795 235.16 256.795 236.342C256.795 237.523 256.402 238.671 255.679 239.606C254.956 240.54 253.943 241.208 252.8 241.504" stroke="white" stroke-width="2.33333" stroke-linecap="round" stroke-linejoin="round"/>
<path d="M260.8 255.008V252.342C260.799 251.16 260.406 250.012 259.682 249.078C258.958 248.144 257.944 247.477 256.8 247.182" stroke="white" stroke-width="2.33333" stroke-linecap="round" stroke-linejoin="round"/>
<path d="M243.467 241.675C246.412 241.675 248.8 239.287 248.8 236.342C248.8 233.396 246.412 231.008 243.467 231.008C240.521 231.008 238.133 233.396 238.133 236.342C238.133 239.287 240.521 241.675 243.467 241.675Z" stroke="white" stroke-width="2.33333" stroke-linecap="round" stroke-linejoin="round"/>
<path d="M213.454 293.001V297H212.148V287.368H216.681C217.765 287.368 218.602 287.612 219.189 288.1C219.782 288.583 220.078 289.257 220.078 290.123C220.078 290.839 219.868 291.44 219.449 291.928C219.035 292.415 218.46 292.723 217.727 292.851L220.461 297H218.957L216.455 293.001H213.454ZM218.766 290.137C218.766 289.576 218.574 289.15 218.191 288.858C217.813 288.562 217.266 288.414 216.551 288.414H213.454V291.969H216.605C217.294 291.969 217.825 291.809 218.198 291.49C218.576 291.167 218.766 290.715 218.766 290.137ZM228.315 293.295C228.315 294.589 228.031 295.553 227.461 296.187C226.891 296.82 226.064 297.137 224.979 297.137C223.899 297.137 223.084 296.809 222.532 296.152C221.981 295.492 221.705 294.539 221.705 293.295C221.705 292.019 221.981 291.062 222.532 290.424C223.088 289.786 223.918 289.467 225.021 289.467C226.151 289.467 226.982 289.779 227.516 290.403C228.049 291.023 228.315 291.987 228.315 293.295ZM227.023 293.295C227.023 292.274 226.871 291.534 226.565 291.073C226.265 290.608 225.757 290.376 225.041 290.376C224.321 290.376 223.799 290.613 223.476 291.087C223.157 291.556 222.997 292.292 222.997 293.295C222.997 294.27 223.154 295.004 223.469 295.496C223.788 295.984 224.287 296.228 224.966 296.228C225.704 296.228 226.23 295.991 226.545 295.517C226.864 295.043 227.023 294.302 227.023 293.295ZM231.084 286.855V297H229.854V286.855H231.084ZM233.914 293.562C233.914 294.409 234.09 295.063 234.44 295.523C234.791 295.984 235.304 296.214 235.979 296.214C236.512 296.214 236.938 296.107 237.257 295.893C237.58 295.678 237.799 295.407 237.913 295.079L238.993 295.387C238.551 296.553 237.546 297.137 235.979 297.137C234.885 297.137 234.051 296.811 233.477 296.159C232.907 295.507 232.622 294.539 232.622 293.254C232.622 292.033 232.907 291.096 233.477 290.444C234.051 289.793 234.869 289.467 235.931 289.467C237.02 289.467 237.836 289.795 238.378 290.451C238.92 291.107 239.191 292.09 239.191 293.397V293.562H233.914ZM237.92 292.618C237.852 291.839 237.653 291.271 237.325 290.916C236.997 290.556 236.525 290.376 235.91 290.376C235.313 290.376 234.839 290.576 234.488 290.978C234.142 291.374 233.955 291.921 233.928 292.618H237.92ZM243.86 292.734V293.828H240.442V292.734H243.86ZM253.082 294.286C253.082 295.143 252.77 295.811 252.146 296.289C251.521 296.763 250.653 297 249.541 297H245.631V287.368H249.131C250.261 287.368 251.109 287.564 251.674 287.956C252.239 288.343 252.521 288.927 252.521 289.706C252.521 290.276 252.362 290.754 252.043 291.142C251.724 291.529 251.273 291.789 250.689 291.921C251.455 292.012 252.045 292.27 252.46 292.693C252.875 293.113 253.082 293.644 253.082 294.286ZM251.209 289.863C251.209 289.344 251.031 288.972 250.676 288.749C250.32 288.526 249.805 288.414 249.131 288.414H246.937V291.463H249.131C249.828 291.463 250.348 291.333 250.689 291.073C251.036 290.809 251.209 290.406 251.209 289.863ZM251.763 294.184C251.763 293.049 250.965 292.481 249.37 292.481H246.937V295.954H249.473C250.27 295.954 250.851 295.806 251.216 295.51C251.58 295.214 251.763 294.771 251.763 294.184ZM256.65 297.137C255.908 297.137 255.349 296.941 254.976 296.549C254.602 296.157 254.415 295.619 254.415 294.936C254.415 294.17 254.666 293.582 255.167 293.172C255.673 292.762 256.486 292.543 257.607 292.516L259.269 292.488V292.085C259.269 291.483 259.141 291.053 258.886 290.793C258.631 290.533 258.229 290.403 257.683 290.403C257.131 290.403 256.73 290.497 256.479 290.684C256.229 290.87 256.078 291.169 256.028 291.579L254.743 291.463C254.953 290.132 255.942 289.467 257.71 289.467C258.64 289.467 259.339 289.681 259.809 290.109C260.278 290.533 260.513 291.148 260.513 291.955V295.141C260.513 295.505 260.561 295.781 260.656 295.968C260.752 296.15 260.934 296.241 261.203 296.241C261.331 296.241 261.465 296.225 261.606 296.193V296.959C261.451 296.995 261.294 297.023 261.135 297.041C260.975 297.059 260.816 297.068 260.656 297.068C260.201 297.068 259.868 296.95 259.658 296.713C259.453 296.471 259.337 296.095 259.31 295.585H259.269C258.954 296.15 258.587 296.551 258.168 296.788C257.753 297.021 257.247 297.137 256.65 297.137ZM259.269 293.35L257.922 293.377C257.348 293.382 256.91 293.441 256.609 293.555C256.309 293.664 256.078 293.833 255.919 294.061C255.759 294.288 255.68 294.587 255.68 294.956C255.68 295.357 255.787 295.667 256.001 295.886C256.22 296.104 256.53 296.214 256.931 296.214C257.386 296.214 257.787 296.111 258.134 295.906C258.485 295.701 258.76 295.421 258.961 295.065C259.166 294.705 259.269 294.336 259.269 293.958V293.35ZM268.107 294.956C268.107 295.653 267.843 296.191 267.314 296.569C266.79 296.948 266.054 297.137 265.106 297.137C264.186 297.137 263.475 296.986 262.974 296.686C262.477 296.38 262.153 295.906 262.003 295.264L263.09 295.052C263.195 295.448 263.411 295.74 263.739 295.927C264.067 296.109 264.523 296.2 265.106 296.2C265.731 296.2 266.187 296.104 266.474 295.913C266.765 295.722 266.911 295.435 266.911 295.052C266.911 294.76 266.811 294.523 266.61 294.341C266.41 294.159 266.086 294.008 265.64 293.89C265.111 293.748 264.689 293.632 264.375 293.541C264.065 293.45 263.826 293.372 263.657 293.309C263.489 293.24 263.354 293.176 263.254 293.117C262.953 292.944 262.718 292.732 262.55 292.481C262.381 292.231 262.297 291.923 262.297 291.559C262.297 290.884 262.536 290.371 263.015 290.021C263.498 289.665 264.2 289.487 265.12 289.487C265.936 289.487 266.583 289.631 267.062 289.918C267.545 290.205 267.85 290.665 267.978 291.299L266.87 291.436C266.802 291.107 266.617 290.857 266.316 290.684C266.02 290.506 265.621 290.417 265.12 290.417C264.564 290.417 264.154 290.501 263.89 290.67C263.625 290.839 263.493 291.094 263.493 291.436C263.493 291.686 263.568 291.894 263.719 292.058C263.869 292.217 264.156 292.349 264.58 292.454C265.15 292.591 265.692 292.741 266.207 292.905C266.722 293.065 267.091 293.224 267.314 293.384C267.574 293.571 267.77 293.792 267.902 294.047C268.039 294.298 268.107 294.601 268.107 294.956ZM270.5 293.562C270.5 294.409 270.675 295.063 271.026 295.523C271.377 295.984 271.89 296.214 272.564 296.214C273.098 296.214 273.524 296.107 273.843 295.893C274.166 295.678 274.385 295.407 274.499 295.079L275.579 295.387C275.137 296.553 274.132 297.137 272.564 297.137C271.471 297.137 270.637 296.811 270.062 296.159C269.493 295.507 269.208 294.539 269.208 293.254C269.208 292.033 269.493 291.096 270.062 290.444C270.637 289.793 271.455 289.467 272.517 289.467C273.606 289.467 274.422 289.795 274.964 290.451C275.506 291.107 275.777 292.09 275.777 293.397V293.562H270.5ZM274.506 292.618C274.438 291.839 274.239 291.271 273.911 290.916C273.583 290.556 273.111 290.376 272.496 290.376C271.899 290.376 271.425 290.576 271.074 290.978C270.728 291.374 270.541 291.921 270.514 292.618H274.506ZM282.114 297C282.105 296.95 282.094 296.856 282.08 296.72C282.071 296.578 282.062 296.424 282.053 296.255C282.048 296.086 282.046 295.938 282.046 295.811H282.019C281.791 296.285 281.488 296.624 281.109 296.829C280.736 297.034 280.271 297.137 279.715 297.137C278.781 297.137 278.092 296.822 277.65 296.193C277.213 295.564 276.994 294.612 276.994 293.336C276.994 292.046 277.22 291.08 277.671 290.438C278.127 289.79 278.808 289.467 279.715 289.467C280.275 289.467 280.743 289.569 281.116 289.774C281.49 289.979 281.791 290.305 282.019 290.752H282.032L282.019 289.925V286.855H283.249V295.476C283.249 295.863 283.251 296.184 283.256 296.439C283.265 296.69 283.276 296.877 283.29 297H282.114ZM278.286 293.295C278.286 294.329 278.423 295.07 278.696 295.517C278.97 295.963 279.414 296.187 280.029 296.187C280.727 296.187 281.232 295.945 281.547 295.462C281.861 294.979 282.019 294.229 282.019 293.213C282.019 292.233 281.861 291.515 281.547 291.06C281.232 290.604 280.731 290.376 280.043 290.376C279.423 290.376 278.974 290.606 278.696 291.066C278.423 291.522 278.286 292.265 278.286 293.295ZM289.805 294.184L288.697 297H287.344L291.274 287.368H292.758L296.627 297H295.294L294.193 294.184H289.805ZM291.999 288.353C291.922 288.608 291.828 288.893 291.719 289.207C291.614 289.517 291.516 289.79 291.425 290.027L290.201 293.165H293.804L292.566 289.986C292.503 289.827 292.418 289.601 292.313 289.31C292.209 289.018 292.104 288.699 291.999 288.353ZM300.435 297.137C299.4 297.137 298.609 296.811 298.062 296.159C297.52 295.503 297.249 294.548 297.249 293.295C297.249 292.051 297.522 291.103 298.069 290.451C298.616 289.795 299.4 289.467 300.421 289.467C301.177 289.467 301.804 289.663 302.301 290.055C302.802 290.447 303.117 290.987 303.244 291.675L301.979 291.771C301.916 291.36 301.754 291.035 301.494 290.793C301.234 290.551 300.865 290.431 300.387 290.431C299.735 290.431 299.263 290.647 298.972 291.08C298.68 291.513 298.534 292.242 298.534 293.268C298.534 294.252 298.689 294.981 298.999 295.455C299.309 295.929 299.776 296.166 300.4 296.166C300.838 296.166 301.202 296.048 301.494 295.811C301.79 295.574 301.973 295.209 302.041 294.717L303.285 294.799C303.221 295.273 303.062 295.685 302.807 296.036C302.556 296.387 302.228 296.658 301.822 296.85C301.421 297.041 300.959 297.137 300.435 297.137ZM307.435 297.137C306.4 297.137 305.609 296.811 305.062 296.159C304.52 295.503 304.249 294.548 304.249 293.295C304.249 292.051 304.522 291.103 305.069 290.451C305.616 289.795 306.4 289.467 307.421 289.467C308.177 289.467 308.804 289.663 309.301 290.055C309.802 290.447 310.117 290.987 310.244 291.675L308.979 291.771C308.916 291.36 308.754 291.035 308.494 290.793C308.234 290.551 307.865 290.431 307.387 290.431C306.735 290.431 306.263 290.647 305.972 291.08C305.68 291.513 305.534 292.242 305.534 293.268C305.534 294.252 305.689 294.981 305.999 295.455C306.309 295.929 306.776 296.166 307.4 296.166C307.838 296.166 308.202 296.048 308.494 295.811C308.79 295.574 308.973 295.209 309.041 294.717L310.285 294.799C310.221 295.273 310.062 295.685 309.807 296.036C309.556 296.387 309.228 296.658 308.822 296.85C308.421 297.041 307.959 297.137 307.435 297.137ZM312.541 293.562C312.541 294.409 312.716 295.063 313.067 295.523C313.418 295.984 313.931 296.214 314.605 296.214C315.139 296.214 315.565 296.107 315.884 295.893C316.207 295.678 316.426 295.407 316.54 295.079L317.62 295.387C317.178 296.553 316.173 297.137 314.605 297.137C313.512 297.137 312.678 296.811 312.104 296.159C311.534 295.507 311.249 294.539 311.249 293.254C311.249 292.033 311.534 291.096 312.104 290.444C312.678 289.793 313.496 289.467 314.558 289.467C315.647 289.467 316.463 289.795 317.005 290.451C317.547 291.107 317.818 292.09 317.818 293.397V293.562H312.541ZM316.547 292.618C316.479 291.839 316.28 291.271 315.952 290.916C315.624 290.556 315.152 290.376 314.537 290.376C313.94 290.376 313.466 290.576 313.115 290.978C312.769 291.374 312.582 291.921 312.555 292.618H316.547ZM324.941 294.956C324.941 295.653 324.677 296.191 324.148 296.569C323.624 296.948 322.888 297.137 321.94 297.137C321.02 297.137 320.309 296.986 319.808 296.686C319.311 296.38 318.987 295.906 318.837 295.264L319.924 295.052C320.029 295.448 320.245 295.74 320.573 295.927C320.901 296.109 321.357 296.2 321.94 296.2C322.565 296.2 323.021 296.104 323.308 295.913C323.599 295.722 323.745 295.435 323.745 295.052C323.745 294.76 323.645 294.523 323.444 294.341C323.244 294.159 322.92 294.008 322.474 293.89C321.945 293.748 321.523 293.632 321.209 293.541C320.899 293.45 320.66 293.372 320.491 293.309C320.323 293.24 320.188 293.176 320.088 293.117C319.787 292.944 319.552 292.732 319.384 292.481C319.215 292.231 319.131 291.923 319.131 291.559C319.131 290.884 319.37 290.371 319.849 290.021C320.332 289.665 321.034 289.487 321.954 289.487C322.77 289.487 323.417 289.631 323.896 289.918C324.379 290.205 324.684 290.665 324.812 291.299L323.704 291.436C323.636 291.107 323.451 290.857 323.15 290.684C322.854 290.506 322.455 290.417 321.954 290.417C321.398 290.417 320.988 290.501 320.724 290.67C320.459 290.839 320.327 291.094 320.327 291.436C320.327 291.686 320.402 291.894 320.553 292.058C320.703 292.217 320.99 292.349 321.414 292.454C321.984 292.591 322.526 292.741 323.041 292.905C323.556 293.065 323.925 293.224 324.148 293.384C324.408 293.571 324.604 293.792 324.736 294.047C324.873 294.298 324.941 294.601 324.941 294.956ZM331.941 294.956C331.941 295.653 331.677 296.191 331.148 296.569C330.624 296.948 329.888 297.137 328.94 297.137C328.02 297.137 327.309 296.986 326.808 296.686C326.311 296.38 325.987 295.906 325.837 295.264L326.924 295.052C327.029 295.448 327.245 295.74 327.573 295.927C327.901 296.109 328.357 296.2 328.94 296.2C329.565 296.2 330.021 296.104 330.308 295.913C330.599 295.722 330.745 295.435 330.745 295.052C330.745 294.76 330.645 294.523 330.444 294.341C330.244 294.159 329.92 294.008 329.474 293.89C328.945 293.748 328.523 293.632 328.209 293.541C327.899 293.45 327.66 293.372 327.491 293.309C327.323 293.24 327.188 293.176 327.088 293.117C326.787 292.944 326.552 292.732 326.384 292.481C326.215 292.231 326.131 291.923 326.131 291.559C326.131 290.884 326.37 290.371 326.849 290.021C327.332 289.665 328.034 289.487 328.954 289.487C329.77 289.487 330.417 289.631 330.896 289.918C331.379 290.205 331.684 290.665 331.812 291.299L330.704 291.436C330.636 291.107 330.451 290.857 330.15 290.684C329.854 290.506 329.455 290.417 328.954 290.417C328.398 290.417 327.988 290.501 327.724 290.67C327.459 290.839 327.327 291.094 327.327 291.436C327.327 291.686 327.402 291.894 327.553 292.058C327.703 292.217 327.99 292.349 328.414 292.454C328.984 292.591 329.526 292.741 330.041 292.905C330.556 293.065 330.925 293.224 331.148 293.384C331.408 293.571 331.604 293.792 331.736 294.047C331.873 294.298 331.941 294.601 331.941 294.956Z" fill="#E2E8F0"/>
<path d="M205 90C205 82.268 211.268 76 219 76H321.467C329.199 76 335.467 82.268 335.467 90V174.967C335.467 182.699 329.199 188.967 321.467 188.967H219C211.268 188.967 205 182.699 205 174.967V90Z" fill="url(#paint7_linear_1101_4962)"/>
<path d="M206.017 91.0166C206.017 83.2846 212.285 77.0166 220.017 77.0166H320.45C328.182 77.0166 334.45 83.2846 334.45 91.0166V173.967C334.45 181.699 328.182 187.967 320.45 187.967H220.017C212.285 187.967 206.017 181.699 206.017 173.967V91.0166Z" fill="#0F172B"/>
<path d="M222.2 103.733C222.2 98.2105 226.677 93.7334 232.2 93.7334H260.75C266.273 93.7334 270.75 98.2106 270.75 103.733V132.283C270.75 137.806 266.273 142.283 260.75 142.283H232.2C226.677 142.283 222.2 137.806 222.2 132.283V103.733Z" fill="url(#paint8_linear_1101_4962)"/>
<g opacity="0.6">
<path d="M253.825 128.554C253.948 128.751 254.338 129.685 254.416 129.932H254.266C254.136 129.951 253.985 129.935 253.853 129.934L238.515 129.932C238.569 129.693 238.949 128.814 239.081 128.554C239.331 128.534 239.593 128.553 239.845 128.554L246.465 128.554C246.806 128.554 247.15 128.545 247.491 128.554H253.825Z" fill="#62BFF6"/>
<path d="M253.825 128.554C253.948 128.751 254.338 129.685 254.416 129.932H254.266C254.047 129.904 253.793 129.931 253.57 129.931L246.464 129.932V128.554C246.671 128.572 247.297 128.585 247.49 128.554H253.825Z" fill="#4AA7F3"/>
<path d="M242.091 122.831L245.659 127.239C245.914 127.557 246.152 127.912 246.465 128.176C246.465 128.302 246.467 128.428 246.465 128.554L239.845 128.553C239.593 128.553 239.331 128.534 239.081 128.554L240.67 124.74C241.234 123.394 240.892 123.673 242.091 122.831Z" fill="#FEFEFE"/>
<path d="M242.892 122.219L246.023 126.135C246.165 126.314 246.298 126.509 246.464 126.666V126.727C246.691 126.564 247.292 125.732 247.507 125.461L248.512 124.213C249.017 123.574 249.512 122.929 250.034 122.303C250.196 122.467 250.559 122.737 250.768 122.831C251.472 123.523 251.541 123.19 251.988 124.268L252.391 125.214C252.859 126.306 253.423 127.454 253.825 128.554H247.491C247.149 128.545 246.806 128.554 246.464 128.554C246.467 128.428 246.465 128.302 246.464 128.176C246.152 127.912 245.913 127.557 245.659 127.239L242.091 122.831C242.355 122.624 242.622 122.416 242.892 122.219Z" fill="#E0DFDF"/>
<path d="M238.1 120.67L239.993 120.671C240.313 120.67 240.627 120.648 240.947 120.67C241.134 120.67 241.566 120.632 241.715 120.67C241.98 120.995 242.716 121.905 242.892 122.219C242.622 122.416 242.355 122.624 242.091 122.831C240.892 123.674 241.234 123.394 240.67 124.74L239.081 128.554C238.949 128.814 238.569 129.693 238.515 129.932H234.214C234.399 129.174 235.061 127.913 235.382 127.139L237.819 121.331C237.912 121.111 237.992 120.883 238.1 120.67Z" fill="#2EB761"/>
<path d="M240.947 120.67C241.134 120.67 241.566 120.632 241.715 120.67C241.98 120.995 242.716 121.905 242.892 122.219C242.622 122.416 242.355 122.624 242.091 122.831C241.955 122.698 240.457 120.846 240.474 120.699L240.458 120.708L240.456 120.694C240.587 120.598 240.801 120.727 240.947 120.67Z" fill="#27A15F"/>
<path d="M251.204 120.698C251.55 120.631 252.078 120.67 252.442 120.67L254.809 120.67C254.906 120.948 255.032 121.22 255.148 121.491L257.928 127.971C258.181 128.567 258.583 129.34 258.775 129.932H254.416C254.338 129.684 253.948 128.751 253.825 128.554C253.422 127.454 252.859 126.306 252.391 125.214L251.988 124.268C251.541 123.19 251.472 123.523 250.768 122.831C250.559 122.738 250.196 122.467 250.033 122.303C250.303 121.868 250.884 121.109 251.204 120.698Z" fill="#2EB761"/>
<path d="M246.493 105.774C250.626 105.782 254.292 109.337 254.271 113.503C254.261 115.625 252.357 119.047 251.204 120.698C250.884 121.109 250.303 121.868 250.033 122.303C249.512 122.929 249.017 123.574 248.512 124.214L247.507 125.461C247.292 125.732 246.691 126.565 246.464 126.727V126.666C246.491 125.902 246.465 125.128 246.465 124.363L246.464 118.219C246.464 117.972 246.451 117.725 246.464 117.477C247.515 117.558 248.709 116.979 249.412 116.223C251.876 113.573 249.9 109.194 246.493 109.349V105.774Z" fill="white"/>
<path d="M241.715 120.67C241.638 120.522 241.532 120.384 241.441 120.245C240.09 118.167 238.75 115.878 238.762 113.321C238.783 109.169 242.39 105.752 246.493 105.774V109.349C249.9 109.194 251.876 113.573 249.412 116.223C248.709 116.979 247.515 117.558 246.464 117.477C246.451 117.725 246.464 117.972 246.464 118.219L246.465 124.363C246.465 125.128 246.491 125.902 246.464 126.666C246.298 126.509 246.165 126.314 246.023 126.135L242.892 122.219C242.716 121.905 241.98 120.995 241.715 120.67ZM246.493 109.349C244.18 109.299 242.42 111.153 242.396 113.431C242.373 115.609 244.286 117.524 246.464 117.477C247.515 117.558 248.709 116.979 249.412 116.223C251.876 113.573 249.9 109.194 246.493 109.349Z" fill="white"/>
</g>
<path d="M227.155 170.867V171.933H220.982V162.302H222.287V170.867H227.155ZM229.793 161.789V162.965H228.563V161.789H229.793ZM229.793 164.537V171.933H228.563V164.537H229.793ZM237.696 164.537L234.934 171.933H233.478L230.791 164.537H232.104L233.731 169.349C233.763 169.441 233.817 169.623 233.895 169.896C233.972 170.165 234.075 170.523 234.202 170.969C234.262 170.792 234.319 170.607 234.373 170.416C234.433 170.22 234.49 170.031 234.544 169.848C234.603 169.666 234.658 169.504 234.708 169.363L236.39 164.537H237.696ZM239.63 168.495C239.63 169.343 239.806 169.997 240.156 170.457C240.507 170.917 241.02 171.147 241.695 171.147C242.228 171.147 242.654 171.04 242.973 170.826C243.296 170.612 243.515 170.341 243.629 170.012L244.709 170.32C244.267 171.487 243.262 172.07 241.695 172.07C240.601 172.07 239.767 171.744 239.193 171.093C238.623 170.441 238.338 169.472 238.338 168.187C238.338 166.966 238.623 166.029 239.193 165.378C239.767 164.726 240.585 164.4 241.647 164.4C242.736 164.4 243.552 164.728 244.094 165.385C244.636 166.041 244.907 167.023 244.907 168.331V168.495H239.63ZM243.636 167.552C243.568 166.772 243.369 166.205 243.041 165.849C242.713 165.489 242.241 165.309 241.626 165.309C241.029 165.309 240.555 165.51 240.204 165.911C239.858 166.307 239.671 166.854 239.644 167.552H243.636ZM254.095 163.368V171.933H252.796V163.368H249.488V162.302H257.404V163.368H254.095ZM259.413 168.078V171.933H258.183V166.26C258.183 166 258.178 165.726 258.169 165.439C258.165 165.152 258.156 164.851 258.142 164.537H259.304C259.313 164.747 259.32 164.936 259.324 165.104C259.334 165.273 259.34 165.421 259.345 165.549C259.35 165.672 259.352 165.776 259.352 165.863C259.356 165.945 259.359 166.007 259.359 166.048H259.386C259.523 165.601 259.673 165.255 259.837 165.009C259.997 164.781 260.179 164.623 260.384 164.537C260.589 164.446 260.842 164.4 261.143 164.4C261.311 164.4 261.478 164.423 261.642 164.469V165.596C261.487 165.551 261.268 165.528 260.986 165.528C260.475 165.528 260.086 165.749 259.817 166.191C259.548 166.629 259.413 167.258 259.413 168.078ZM264.704 172.07C263.962 172.07 263.403 171.874 263.03 171.482C262.656 171.09 262.469 170.552 262.469 169.869C262.469 169.103 262.72 168.515 263.221 168.105C263.727 167.695 264.54 167.476 265.661 167.449L267.323 167.422V167.018C267.323 166.417 267.195 165.986 266.94 165.726C266.684 165.467 266.283 165.337 265.737 165.337C265.185 165.337 264.784 165.43 264.533 165.617C264.283 165.804 264.132 166.102 264.082 166.512L262.797 166.396C263.007 165.066 263.996 164.4 265.764 164.4C266.694 164.4 267.393 164.614 267.863 165.043C268.332 165.467 268.567 166.082 268.567 166.888V170.074C268.567 170.439 268.615 170.714 268.71 170.901C268.806 171.083 268.988 171.175 269.257 171.175C269.385 171.175 269.519 171.159 269.66 171.127V171.892C269.505 171.929 269.348 171.956 269.189 171.974C269.029 171.993 268.87 172.002 268.71 172.002C268.254 172.002 267.922 171.883 267.712 171.646C267.507 171.405 267.391 171.029 267.364 170.518H267.323C267.008 171.083 266.641 171.484 266.222 171.721C265.807 171.954 265.301 172.07 264.704 172.07ZM267.323 168.283L265.976 168.31C265.402 168.315 264.964 168.374 264.663 168.488C264.363 168.597 264.132 168.766 263.973 168.994C263.813 169.222 263.734 169.52 263.734 169.889C263.734 170.29 263.841 170.6 264.055 170.819C264.274 171.038 264.584 171.147 264.985 171.147C265.44 171.147 265.841 171.045 266.188 170.84C266.539 170.635 266.814 170.354 267.015 169.999C267.22 169.639 267.323 169.27 267.323 168.891V168.283ZM273.448 172.07C272.413 172.07 271.622 171.744 271.075 171.093C270.533 170.436 270.262 169.482 270.262 168.228C270.262 166.984 270.535 166.036 271.082 165.385C271.629 164.728 272.413 164.4 273.434 164.4C274.19 164.4 274.817 164.596 275.314 164.988C275.815 165.38 276.129 165.92 276.257 166.608L274.992 166.704C274.929 166.294 274.767 165.968 274.507 165.726C274.247 165.485 273.878 165.364 273.4 165.364C272.748 165.364 272.276 165.58 271.985 166.013C271.693 166.446 271.547 167.176 271.547 168.201C271.547 169.185 271.702 169.914 272.012 170.388C272.322 170.862 272.789 171.099 273.413 171.099C273.851 171.099 274.215 170.981 274.507 170.744C274.803 170.507 274.986 170.142 275.054 169.65L276.298 169.732C276.234 170.206 276.075 170.619 275.82 170.969C275.569 171.32 275.241 171.592 274.835 171.783C274.434 171.974 273.972 172.07 273.448 172.07ZM278.841 169.302V171.933H277.611V161.789H278.841V168.126L282.088 164.537H283.531L280.53 167.716L283.688 171.933H282.245L279.743 168.556L278.841 169.302ZM285.834 161.789V162.965H284.604V161.789H285.834ZM285.834 164.537V171.933H284.604V164.537H285.834ZM288.986 167.647V171.933H287.755V166.116C287.755 165.683 287.751 165.337 287.741 165.077C287.737 164.813 287.728 164.633 287.714 164.537H288.876C288.885 164.623 288.892 164.733 288.897 164.865C288.906 164.997 288.913 165.143 288.917 165.302C288.922 165.462 288.926 165.628 288.931 165.802H288.951C289.234 165.291 289.56 164.931 289.929 164.721C290.303 164.507 290.765 164.4 291.317 164.4C292.128 164.4 292.72 164.608 293.094 165.022C293.472 165.437 293.661 166.098 293.661 167.005V171.933H292.424V167.244C292.424 166.538 292.31 166.045 292.082 165.767C291.854 165.489 291.46 165.35 290.9 165.35C290.307 165.35 289.84 165.553 289.498 165.959C289.156 166.364 288.986 166.927 288.986 167.647ZM298.323 174.839C297.517 174.839 296.874 174.679 296.396 174.36C295.917 174.046 295.61 173.597 295.473 173.013L296.71 172.836C296.792 173.177 296.972 173.44 297.25 173.622C297.533 173.809 297.902 173.902 298.358 173.902C298.968 173.902 299.426 173.722 299.732 173.362C300.042 173.002 300.197 172.464 300.197 171.749V170.559H300.183C299.95 171.033 299.631 171.391 299.226 171.633C298.82 171.87 298.346 171.988 297.804 171.988C296.897 171.988 296.229 171.687 295.801 171.086C295.377 170.484 295.165 169.538 295.165 168.249C295.165 166.941 295.393 165.977 295.849 165.357C296.309 164.733 297.006 164.421 297.941 164.421C298.465 164.421 298.918 164.541 299.301 164.783C299.688 165.02 299.987 165.359 300.197 165.802H300.21C300.21 165.71 300.215 165.569 300.224 165.378C300.233 165.182 300.244 164.997 300.258 164.824C300.272 164.651 300.283 164.555 300.292 164.537H301.461C301.434 164.783 301.42 165.293 301.42 166.068V171.721C301.42 172.76 301.163 173.54 300.648 174.059C300.133 174.579 299.358 174.839 298.323 174.839ZM300.197 168.235C300.197 167.337 300.012 166.631 299.643 166.116C299.278 165.596 298.811 165.337 298.241 165.337C297.613 165.337 297.155 165.565 296.867 166.02C296.58 166.476 296.437 167.214 296.437 168.235C296.437 169.247 296.571 169.974 296.84 170.416C297.109 170.858 297.569 171.079 298.221 171.079C298.804 171.079 299.278 170.826 299.643 170.32C300.012 169.81 300.197 169.115 300.197 168.235Z" fill="#E2E8F0"/>
</g>
<defs>
<filter id="filter0_d_1101_4962" x="0" y="0" width="396" height="402" filterUnits="userSpaceOnUse" color-interpolation-filters="sRGB">
<feFlood flood-opacity="0" result="BackgroundImageFix"/>
<feColorMatrix in="SourceAlpha" type="matrix" values="0 0 0 0 0 0 0 0 0 0 0 0 0 0 0 0 0 0 127 0" result="hardAlpha"/>
<feMorphology radius="12" operator="erode" in="SourceAlpha" result="effect1_dropShadow_1101_4962"/>
<feOffset dy="25"/>
<feGaussianBlur stdDeviation="25"/>
<feComposite in2="hardAlpha" operator="out"/>
<feColorMatrix type="matrix" values="0 0 0 0 0 0 0 0 0 0 0 0 0 0 0 0 0 0 0.25 0"/>
<feBlend mode="normal" in2="BackgroundImageFix" result="effect1_dropShadow_1101_4962"/>
<feBlend mode="normal" in="SourceGraphic" in2="effect1_dropShadow_1101_4962" result="shape"/>
</filter>
<linearGradient id="paint0_linear_1101_4962" x1="38" y1="13" x2="363.944" y2="332.945" gradientUnits="userSpaceOnUse">
<stop stop-color="#1D293D" stop-opacity="0.9"/>
<stop offset="0.5" stop-color="#1D293D" stop-opacity="0.95"/>
<stop offset="1" stop-color="#0F172B"/>
</linearGradient>
<linearGradient id="paint1_linear_1101_4962" x1="127.6" y1="78.2666" x2="127.6" y2="191.233" gradientUnits="userSpaceOnUse">
<stop stop-color="#197ADC"/>
<stop offset="1" stop-color="#4A9EFF"/>
</linearGradient>
<linearGradient id="paint2_linear_1101_4962" x1="103.842" y1="96" x2="103.842" y2="144.55" gradientUnits="userSpaceOnUse">
<stop stop-color="#197ADC"/>
<stop offset="1" stop-color="#4A9EFF"/>
</linearGradient>
<linearGradient id="paint3_linear_1101_4962" x1="127.233" y1="204" x2="127.233" y2="316.967" gradientUnits="userSpaceOnUse">
<stop stop-color="#197ADC"/>
<stop offset="1" stop-color="#4A9EFF"/>
</linearGradient>
<linearGradient id="paint4_linear_1101_4962" x1="103.475" y1="221.733" x2="103.475" y2="270.283" gradientUnits="userSpaceOnUse">
<stop stop-color="#197ADC"/>
<stop offset="1" stop-color="#4A9EFF"/>
</linearGradient>
<linearGradient id="paint5_linear_1101_4962" x1="271.233" y1="201" x2="271.233" y2="313.967" gradientUnits="userSpaceOnUse">
<stop stop-color="#197ADC"/>
<stop offset="1" stop-color="#4A9EFF"/>
</linearGradient>
<linearGradient id="paint6_linear_1101_4962" x1="247.475" y1="218.733" x2="247.475" y2="267.283" gradientUnits="userSpaceOnUse">
<stop stop-color="#197ADC"/>
<stop offset="1" stop-color="#4A9EFF"/>
</linearGradient>
<linearGradient id="paint7_linear_1101_4962" x1="270.233" y1="76" x2="270.233" y2="188.967" gradientUnits="userSpaceOnUse">
<stop stop-color="#197ADC"/>
<stop offset="1" stop-color="#4A9EFF"/>
</linearGradient>
<linearGradient id="paint8_linear_1101_4962" x1="246.475" y1="93.7334" x2="246.475" y2="142.283" gradientUnits="userSpaceOnUse">
<stop stop-color="#197ADC"/>
<stop offset="1" stop-color="#4A9EFF"/>
</linearGradient>
</defs>
</svg>
