<svg width="296" height="296" viewBox="0 0 296 296" fill="none" xmlns="http://www.w3.org/2000/svg">
<g filter="url(#filter0_d_1099_4488)">
<mask id="path-1-inside-1_1099_4488" fill="white">
<path d="M38 29C38 20.1634 45.1634 13 54 13H242C250.837 13 258 20.1634 258 29V217C258 225.837 250.837 233 242 233H54C45.1634 233 38 225.837 38 217V29Z"/>
</mask>
<path d="M38 29C38 20.1634 45.1634 13 54 13H242C250.837 13 258 20.1634 258 29V217C258 225.837 250.837 233 242 233H54C45.1634 233 38 225.837 38 217V29Z" fill="url(#paint0_linear_1099_4488)" shape-rendering="crispEdges"/>
<path d="M54 13V13.8H242V13V12.2H54V13ZM258 29H257.2V217H258H258.8V29H258ZM242 233V232.2H54V233V233.8H242V233ZM38 217H38.8V29H38H37.2V217H38ZM54 233V232.2C45.6053 232.2 38.8 225.395 38.8 217H38H37.2C37.2 226.278 44.7216 233.8 54 233.8V233ZM258 217H257.2C257.2 225.395 250.395 232.2 242 232.2V233V233.8C251.278 233.8 258.8 226.278 258.8 217H258ZM242 13V13.8C250.395 13.8 257.2 20.6053 257.2 29H258H258.8C258.8 19.7216 251.278 12.2 242 12.2V13ZM54 13V12.2C44.7216 12.2 37.2 19.7216 37.2 29H38H38.8C38.8 20.6053 45.6053 13.8 54 13.8V13Z" fill="#314158" fill-opacity="0.5" mask="url(#path-1-inside-1_1099_4488)"/>
<path d="M95.6953 49.3408C95.6953 50.2295 95.3467 50.9176 94.6494 51.4053C93.9567 51.8929 92.9792 52.1367 91.7168 52.1367C89.3698 52.1367 88.0094 51.321 87.6357 49.6895L88.9004 49.4365C89.0462 50.0153 89.3561 50.4414 89.8301 50.7148C90.304 50.9837 90.9489 51.1182 91.7646 51.1182C92.6077 51.1182 93.2572 50.9746 93.7129 50.6875C94.1732 50.3958 94.4033 49.9697 94.4033 49.4092C94.4033 49.0947 94.3304 48.8395 94.1846 48.6436C94.0433 48.4476 93.8428 48.2858 93.583 48.1582C93.3232 48.0306 93.0133 47.9235 92.6533 47.8369C92.2933 47.7503 91.8945 47.6569 91.457 47.5566C90.9512 47.4427 90.5273 47.3311 90.1855 47.2217C89.8483 47.1123 89.5703 46.9984 89.3516 46.8799C89.1328 46.7568 88.946 46.627 88.791 46.4902C88.5632 46.2806 88.3877 46.0368 88.2646 45.7588C88.1462 45.4808 88.0869 45.1618 88.0869 44.8018C88.0869 43.9769 88.4014 43.3411 89.0303 42.8945C89.6637 42.4479 90.5684 42.2246 91.7441 42.2246C92.8379 42.2246 93.6742 42.3932 94.2529 42.7305C94.8317 43.0632 95.2373 43.6328 95.4697 44.4395L94.1846 44.665C94.0433 44.1546 93.7744 43.7855 93.3779 43.5576C92.9814 43.3252 92.4323 43.209 91.7305 43.209C90.9603 43.209 90.3724 43.3366 89.9668 43.5918C89.5612 43.847 89.3584 44.2275 89.3584 44.7334C89.3584 45.0296 89.4359 45.2757 89.5908 45.4717C89.7503 45.6631 89.9782 45.8249 90.2744 45.957C90.5524 46.0892 91.1426 46.2555 92.0449 46.4561C92.4141 46.5426 92.7786 46.6338 93.1387 46.7295C93.4987 46.8206 93.8382 46.9368 94.1572 47.0781C94.3441 47.1556 94.5218 47.2513 94.6904 47.3652C94.8636 47.4746 95.014 47.6022 95.1416 47.748C95.3148 47.9395 95.4492 48.165 95.5449 48.4248C95.6452 48.6846 95.6953 48.9899 95.6953 49.3408ZM98.8262 49.1836L97.7188 52H96.3652L100.296 42.3682H101.779L105.648 52H104.315L103.215 49.1836H98.8262ZM101.021 43.3525C100.943 43.6077 100.85 43.8926 100.74 44.207C100.635 44.5169 100.537 44.7904 100.446 45.0273L99.2227 48.165H102.825L101.588 44.9863C101.524 44.8268 101.44 44.6012 101.335 44.3096C101.23 44.0179 101.125 43.6989 101.021 43.3525ZM112.997 50.9336V52H106.824V42.3682H108.13V50.9336H112.997ZM122.205 50.9336V52H114.617V42.3682H121.925V43.4346H115.923V46.5244H121.515V47.5771H115.923V50.9336H122.205ZM131.502 49.3408C131.502 50.2295 131.153 50.9176 130.456 51.4053C129.763 51.8929 128.786 52.1367 127.523 52.1367C125.176 52.1367 123.816 51.321 123.442 49.6895L124.707 49.4365C124.853 50.0153 125.163 50.4414 125.637 50.7148C126.111 50.9837 126.756 51.1182 127.571 51.1182C128.414 51.1182 129.064 50.9746 129.52 50.6875C129.98 50.3958 130.21 49.9697 130.21 49.4092C130.21 49.0947 130.137 48.8395 129.991 48.6436C129.85 48.4476 129.649 48.2858 129.39 48.1582C129.13 48.0306 128.82 47.9235 128.46 47.8369C128.1 47.7503 127.701 47.6569 127.264 47.5566C126.758 47.4427 126.334 47.3311 125.992 47.2217C125.655 47.1123 125.377 46.9984 125.158 46.8799C124.939 46.7568 124.753 46.627 124.598 46.4902C124.37 46.2806 124.194 46.0368 124.071 45.7588C123.953 45.4808 123.894 45.1618 123.894 44.8018C123.894 43.9769 124.208 43.3411 124.837 42.8945C125.47 42.4479 126.375 42.2246 127.551 42.2246C128.645 42.2246 129.481 42.3932 130.06 42.7305C130.638 43.0632 131.044 43.6328 131.276 44.4395L129.991 44.665C129.85 44.1546 129.581 43.7855 129.185 43.5576C128.788 43.3252 128.239 43.209 127.537 43.209C126.767 43.209 126.179 43.3366 125.773 43.5918C125.368 43.847 125.165 44.2275 125.165 44.7334C125.165 45.0296 125.243 45.2757 125.397 45.4717C125.557 45.6631 125.785 45.8249 126.081 45.957C126.359 46.0892 126.949 46.2555 127.852 46.4561C128.221 46.5426 128.585 46.6338 128.945 46.7295C129.305 46.8206 129.645 46.9368 129.964 47.0781C130.151 47.1556 130.328 47.2513 130.497 47.3652C130.67 47.4746 130.821 47.6022 130.948 47.748C131.121 47.9395 131.256 48.165 131.352 48.4248C131.452 48.6846 131.502 48.9899 131.502 49.3408ZM140.703 43.4346V52H139.404V43.4346H136.096V42.3682H144.012V43.4346H140.703ZM146.794 48.001V52H145.488V42.3682H150.021C151.105 42.3682 151.941 42.612 152.529 43.0996C153.122 43.5827 153.418 44.2572 153.418 45.123C153.418 45.8385 153.208 46.4401 152.789 46.9277C152.374 47.4154 151.8 47.723 151.066 47.8506L153.801 52H152.297L149.795 48.001H146.794ZM152.105 45.1367C152.105 44.5762 151.914 44.1501 151.531 43.8584C151.153 43.5622 150.606 43.4141 149.891 43.4141H146.794V46.9688H149.945C150.633 46.9688 151.164 46.8092 151.538 46.4902C151.916 46.1667 152.105 45.7155 152.105 45.1367ZM163.193 50.9336V52H155.605V42.3682H162.913V43.4346H156.911V46.5244H162.503V47.5771H156.911V50.9336H163.193ZM166.105 45.6016V52H164.943V42.3682H166.461L171.67 50.626C171.615 49.7282 171.588 49.0811 171.588 48.6846V42.3682H172.764V52H171.191L166.037 43.7969C166.046 44.0977 166.06 44.3984 166.078 44.6992C166.096 45 166.105 45.3008 166.105 45.6016ZM183.353 47.085C183.353 48.1012 183.154 48.9762 182.758 49.71C182.366 50.4437 181.817 51.0088 181.11 51.4053C180.409 51.8018 179.593 52 178.663 52H175.061V42.3682H178.246C179.878 42.3682 181.135 42.7783 182.02 43.5986C182.908 44.4144 183.353 45.5765 183.353 47.085ZM182.04 47.085C182.04 45.891 181.712 44.9818 181.056 44.3574C180.404 43.7285 179.458 43.4141 178.219 43.4141H176.366V50.9541H178.513C179.228 50.9541 179.848 50.7969 180.372 50.4824C180.901 50.168 181.311 49.7214 181.603 49.1426C181.894 48.5638 182.04 47.8779 182.04 47.085Z" fill="white"/>
<path d="M73.6667 44.6667H77.6667V48.6667" stroke="#197ADC" stroke-width="1.33333" stroke-linecap="round" stroke-linejoin="round"/>
<path d="M77.6666 44.6667L71.9999 50.3334L68.6666 47.0001L64.3333 51.3334" stroke="#197ADC" stroke-width="1.33333" stroke-linecap="round" stroke-linejoin="round"/>
<path d="M62.8 154.6C62.8 152.391 64.5909 150.6 66.8 150.6H76.85C79.0592 150.6 80.8501 152.391 80.8501 154.6V201.8H62.8V154.6Z" fill="url(#paint1_linear_1099_4488)"/>
<path d="M88.8501 116.2C88.8501 113.991 90.641 112.2 92.8501 112.2H102.917C105.126 112.2 106.917 113.991 106.917 116.2V201.8H88.8501V116.2Z" fill="url(#paint2_linear_1099_4488)"/>
<path d="M114.917 148.2C114.917 145.991 116.708 144.2 118.917 144.2H128.967C131.176 144.2 132.967 145.991 132.967 148.2V201.8H114.917V148.2Z" fill="url(#paint3_linear_1099_4488)"/>
<path d="M140.967 97C140.967 94.7909 142.758 93 144.967 93H155.033C157.243 93 159.033 94.7909 159.033 97V201.8H140.967V97Z" fill="url(#paint4_linear_1099_4488)"/>
<path d="M167.033 129C167.033 126.791 168.824 125 171.033 125H181.083C183.293 125 185.083 126.791 185.083 129V201.8H167.033V129Z" fill="url(#paint5_linear_1099_4488)"/>
<path d="M193.083 90.6001C193.083 88.391 194.874 86.6001 197.083 86.6001H207.15C209.359 86.6001 211.15 88.391 211.15 90.6001V201.8H193.083V90.6001Z" fill="url(#paint6_linear_1099_4488)"/>
<path d="M219.15 109.8C219.15 107.591 220.941 105.8 223.15 105.8H233.2C235.409 105.8 237.2 107.591 237.2 109.8V201.8H219.15V109.8Z" fill="url(#paint7_linear_1099_4488)"/>
</g>
<defs>
<filter id="filter0_d_1099_4488" x="0" y="0" width="296" height="296" filterUnits="userSpaceOnUse" color-interpolation-filters="sRGB">
<feFlood flood-opacity="0" result="BackgroundImageFix"/>
<feColorMatrix in="SourceAlpha" type="matrix" values="0 0 0 0 0 0 0 0 0 0 0 0 0 0 0 0 0 0 127 0" result="hardAlpha"/>
<feMorphology radius="12" operator="erode" in="SourceAlpha" result="effect1_dropShadow_1099_4488"/>
<feOffset dy="25"/>
<feGaussianBlur stdDeviation="25"/>
<feComposite in2="hardAlpha" operator="out"/>
<feColorMatrix type="matrix" values="0 0 0 0 0 0 0 0 0 0 0 0 0 0 0 0 0 0 0.25 0"/>
<feBlend mode="normal" in2="BackgroundImageFix" result="effect1_dropShadow_1099_4488"/>
<feBlend mode="normal" in="SourceGraphic" in2="effect1_dropShadow_1099_4488" result="shape"/>
</filter>
<linearGradient id="paint0_linear_1099_4488" x1="38" y1="13" x2="258" y2="233" gradientUnits="userSpaceOnUse">
<stop stop-color="#1D293D"/>
<stop offset="1" stop-color="#0F172B"/>
</linearGradient>
<linearGradient id="paint1_linear_1099_4488" x1="71.8251" y1="150.6" x2="71.8251" y2="201.8" gradientUnits="userSpaceOnUse">
<stop stop-color="#197ADC"/>
<stop offset="1" stop-color="#6BB6FF"/>
</linearGradient>
<linearGradient id="paint2_linear_1099_4488" x1="97.8834" y1="112.2" x2="97.8834" y2="201.8" gradientUnits="userSpaceOnUse">
<stop stop-color="#197ADC"/>
<stop offset="1" stop-color="#6BB6FF"/>
</linearGradient>
<linearGradient id="paint3_linear_1099_4488" x1="123.942" y1="144.2" x2="123.942" y2="201.8" gradientUnits="userSpaceOnUse">
<stop stop-color="#197ADC"/>
<stop offset="1" stop-color="#6BB6FF"/>
</linearGradient>
<linearGradient id="paint4_linear_1099_4488" x1="150" y1="93" x2="150" y2="201.8" gradientUnits="userSpaceOnUse">
<stop stop-color="#197ADC"/>
<stop offset="1" stop-color="#6BB6FF"/>
</linearGradient>
<linearGradient id="paint5_linear_1099_4488" x1="176.058" y1="125" x2="176.058" y2="201.8" gradientUnits="userSpaceOnUse">
<stop stop-color="#197ADC"/>
<stop offset="1" stop-color="#6BB6FF"/>
</linearGradient>
<linearGradient id="paint6_linear_1099_4488" x1="202.117" y1="86.6001" x2="202.117" y2="201.8" gradientUnits="userSpaceOnUse">
<stop stop-color="#197ADC"/>
<stop offset="1" stop-color="#6BB6FF"/>
</linearGradient>
<linearGradient id="paint7_linear_1099_4488" x1="228.175" y1="105.8" x2="228.175" y2="201.8" gradientUnits="userSpaceOnUse">
<stop stop-color="#197ADC"/>
<stop offset="1" stop-color="#6BB6FF"/>
</linearGradient>
</defs>
</svg>
