<svg width="332" height="274" viewBox="0 0 332 274" fill="none" xmlns="http://www.w3.org/2000/svg">
<g filter="url(#filter0_d_1105_1664)">
<mask id="path-1-inside-1_1105_1664" fill="white">
<path d="M38 29C38 20.1634 45.1634 13 54 13H278C286.837 13 294 20.1634 294 29V194.6C294 203.437 286.837 210.6 278 210.6H54C45.1634 210.6 38 203.437 38 194.6V29Z"/>
</mask>
<path d="M38 29C38 20.1634 45.1634 13 54 13H278C286.837 13 294 20.1634 294 29V194.6C294 203.437 286.837 210.6 278 210.6H54C45.1634 210.6 38 203.437 38 194.6V29Z" fill="url(#paint0_linear_1105_1664)" shape-rendering="crispEdges"/>
<path d="M54 13V13.8H278V13V12.2H54V13ZM294 29H293.2V194.6H294H294.8V29H294ZM278 210.6V209.8H54V210.6V211.4H278V210.6ZM38 194.6H38.8V29H38H37.2V194.6H38ZM54 210.6V209.8C45.6053 209.8 38.8 202.995 38.8 194.6H38H37.2C37.2 203.878 44.7216 211.4 54 211.4V210.6ZM294 194.6H293.2C293.2 202.995 286.395 209.8 278 209.8V210.6V211.4C287.278 211.4 294.8 203.878 294.8 194.6H294ZM278 13V13.8C286.395 13.8 293.2 20.6053 293.2 29H294H294.8C294.8 19.7216 287.278 12.2 278 12.2V13ZM54 13V12.2C44.7216 12.2 37.2 19.7216 37.2 29H38H38.8C38.8 20.6053 45.6053 13.8 54 13.8V13Z" fill="#314158" fill-opacity="0.5" mask="url(#path-1-inside-1_1105_1664)"/>
<g clip-path="url(#clip0_1105_1664)">
<path d="M69.4666 49.8V48.4667C69.4666 47.7595 69.1857 47.0812 68.6856 46.5811C68.1855 46.081 67.5072 45.8 66.8 45.8H62.8C62.0927 45.8 61.4144 46.081 60.9143 46.5811C60.4143 47.0812 60.1333 47.7595 60.1333 48.4667V49.8" stroke="#197ADC" stroke-width="1.33333" stroke-linecap="round" stroke-linejoin="round"/>
<path d="M69.4668 37.8855C70.0386 38.0337 70.5451 38.3677 70.9066 38.8349C71.2681 39.3021 71.4643 39.8761 71.4643 40.4668C71.4643 41.0576 71.2681 41.6316 70.9066 42.0988C70.5451 42.566 70.0386 42.8999 69.4668 43.0482" stroke="#197ADC" stroke-width="1.33333" stroke-linecap="round" stroke-linejoin="round"/>
<path d="M73.4668 49.8001V48.4667C73.4664 47.8759 73.2697 47.3019 72.9077 46.8349C72.5457 46.368 72.0389 46.0344 71.4668 45.8867" stroke="#197ADC" stroke-width="1.33333" stroke-linecap="round" stroke-linejoin="round"/>
<path d="M64.8 43.1334C66.2727 43.1334 67.4666 41.9395 67.4666 40.4667C67.4666 38.994 66.2727 37.8 64.8 37.8C63.3272 37.8 62.1333 38.994 62.1333 40.4667C62.1333 41.9395 63.3272 43.1334 64.8 43.1334Z" stroke="#197ADC" stroke-width="1.33333" stroke-linecap="round" stroke-linejoin="round"/>
</g>
<path d="M87.7219 39.0347V47.6001H86.4231V39.0347H83.1145V37.9683H91.0305V39.0347H87.7219ZM100.095 46.5337V47.6001H92.5071V37.9683H99.8147V39.0347H93.8127V42.1245H99.4045V43.1772H93.8127V46.5337H100.095ZM103.185 44.7837L102.077 47.6001H100.724L104.655 37.9683H106.138L110.007 47.6001H108.674L107.573 44.7837H103.185ZM105.379 38.9526C105.302 39.2078 105.208 39.4927 105.099 39.8071C104.994 40.117 104.896 40.3905 104.805 40.6274L103.581 43.7651H107.184L105.947 40.5864C105.883 40.4269 105.798 40.2013 105.694 39.9097C105.589 39.618 105.484 39.299 105.379 38.9526ZM112.345 41.1743V47.6001H111.183V37.9683H112.899L115.462 44.647C115.553 44.9159 115.64 45.2052 115.722 45.5151C115.809 45.8205 115.865 46.0415 115.893 46.1782C115.92 46.0552 115.966 45.8866 116.03 45.6724C116.093 45.4536 116.157 45.244 116.221 45.0435C116.285 44.8429 116.33 44.7108 116.358 44.647L118.873 37.9683H120.548V47.6001H119.372V41.1743C119.372 40.8188 119.377 40.4702 119.386 40.1284C119.4 39.7866 119.416 39.4517 119.434 39.1235C119.32 39.5291 119.213 39.8937 119.113 40.2173C119.017 40.5363 118.923 40.8097 118.832 41.0376L116.344 47.6001H115.428L112.906 41.0376L112.297 39.1235C112.306 39.4653 112.315 39.8071 112.324 40.1489C112.338 40.4907 112.345 40.8325 112.345 41.1743ZM134.193 40.8667C134.193 41.4728 134.058 41.9992 133.789 42.4458C133.52 42.8924 133.138 43.2388 132.641 43.4849C132.149 43.7264 131.561 43.8472 130.877 43.8472H128.047V47.6001H126.741V37.9683H130.795C131.875 37.9683 132.712 38.2212 133.304 38.7271C133.896 39.2329 134.193 39.9461 134.193 40.8667ZM132.88 40.8804C132.88 39.6362 132.133 39.0142 130.638 39.0142H128.047V42.8149H130.693C131.422 42.8149 131.969 42.6554 132.333 42.3364C132.698 42.0129 132.88 41.5275 132.88 40.8804ZM143.667 46.5337V47.6001H136.079V37.9683H143.387V39.0347H137.385V42.1245H142.977V43.1772H137.385V46.5337H143.667ZM146.723 43.6011V47.6001H145.417V37.9683H149.949C151.034 37.9683 151.87 38.2121 152.458 38.6997C153.051 39.1828 153.347 39.8573 153.347 40.7231C153.347 41.4386 153.137 42.0402 152.718 42.5278C152.303 43.0155 151.729 43.3231 150.995 43.4507L153.73 47.6001H152.226L149.724 43.6011H146.723ZM152.034 40.7368C152.034 40.1763 151.843 39.7502 151.46 39.4585C151.082 39.1623 150.535 39.0142 149.82 39.0142H146.723V42.5688H149.874C150.562 42.5688 151.093 42.4093 151.467 42.0903C151.845 41.7668 152.034 41.3156 152.034 40.7368ZM156.84 43.6968V47.6001H155.534V37.9683H162.377V39.0347H156.84V42.6167H162.213V43.6968H156.84ZM173.164 42.7397C173.164 43.7697 172.968 44.6584 172.576 45.4058C172.189 46.1532 171.638 46.7297 170.922 47.1353C170.207 47.5363 169.359 47.7368 168.379 47.7368C167.395 47.7368 166.545 47.5363 165.829 47.1353C165.118 46.7342 164.569 46.16 164.182 45.4126C163.799 44.6652 163.608 43.7743 163.608 42.7397C163.608 41.7098 163.797 40.8302 164.175 40.1011C164.558 39.3674 165.105 38.8045 165.816 38.4126C166.531 38.0207 167.39 37.8247 168.393 37.8247C169.377 37.8247 170.225 38.0184 170.936 38.4058C171.651 38.7931 172.2 39.3537 172.583 40.0874C172.971 40.8166 173.164 41.7007 173.164 42.7397ZM171.831 42.7397C171.831 41.5412 171.531 40.6001 170.929 39.9165C170.332 39.2329 169.487 38.8911 168.393 38.8911C167.29 38.8911 166.438 39.2284 165.836 39.9028C165.235 40.5773 164.934 41.5229 164.934 42.7397C164.934 43.5418 165.071 44.2391 165.344 44.8315C165.617 45.4194 166.012 45.8752 166.527 46.1987C167.042 46.5177 167.659 46.6772 168.379 46.6772C169.491 46.6772 170.343 46.3354 170.936 45.6519C171.533 44.9637 171.831 43.993 171.831 42.7397ZM176.295 43.6011V47.6001H174.99V37.9683H179.522C180.606 37.9683 181.443 38.2121 182.031 38.6997C182.623 39.1828 182.919 39.8573 182.919 40.7231C182.919 41.4386 182.71 42.0402 182.29 42.5278C181.876 43.0155 181.301 43.3231 180.568 43.4507L183.302 47.6001H181.798L179.296 43.6011H176.295ZM181.607 40.7368C181.607 40.1763 181.415 39.7502 181.032 39.4585C180.654 39.1623 180.107 39.0142 179.392 39.0142H176.295V42.5688H179.447C180.135 42.5688 180.666 42.4093 181.039 42.0903C181.418 41.7668 181.607 41.3156 181.607 40.7368ZM186.269 41.1743V47.6001H185.107V37.9683H186.823L189.386 44.647C189.477 44.9159 189.564 45.2052 189.646 45.5151C189.732 45.8205 189.789 46.0415 189.817 46.1782C189.844 46.0552 189.89 45.8866 189.953 45.6724C190.017 45.4536 190.081 45.244 190.145 45.0435C190.209 44.8429 190.254 44.7108 190.281 44.647L192.797 37.9683H194.472V47.6001H193.296V41.1743C193.296 40.8188 193.301 40.4702 193.31 40.1284C193.323 39.7866 193.339 39.4517 193.358 39.1235C193.244 39.5291 193.137 39.8937 193.036 40.2173C192.941 40.5363 192.847 40.8097 192.756 41.0376L190.268 47.6001H189.352L186.829 41.0376L186.221 39.1235C186.23 39.4653 186.239 39.8071 186.248 40.1489C186.262 40.4907 186.269 40.8325 186.269 41.1743ZM198.109 44.7837L197.001 47.6001H195.648L199.578 37.9683H201.062L204.931 47.6001H203.598L202.497 44.7837H198.109ZM200.303 38.9526C200.226 39.2078 200.132 39.4927 200.023 39.8071C199.918 40.117 199.82 40.3905 199.729 40.6274L198.505 43.7651H202.108L200.87 40.5864C200.807 40.4269 200.722 40.2013 200.617 39.9097C200.513 39.618 200.408 39.299 200.303 38.9526ZM207.269 41.2017V47.6001H206.107V37.9683H207.624L212.833 46.2261C212.779 45.3283 212.751 44.6812 212.751 44.2847V37.9683H213.927V47.6001H212.355L207.2 39.397C207.21 39.6978 207.223 39.9985 207.241 40.2993C207.26 40.6001 207.269 40.9009 207.269 41.2017ZM220.544 46.6636C221.893 46.6636 222.907 45.9959 223.586 44.6606L224.653 45.1938C224.256 46.0233 223.698 46.6545 222.978 47.0874C222.262 47.5203 221.431 47.7368 220.483 47.7368C219.507 47.7368 218.669 47.534 217.967 47.1284C217.265 46.7228 216.725 46.1463 216.347 45.3989C215.973 44.647 215.786 43.7606 215.786 42.7397C215.786 41.7144 215.973 40.8348 216.347 40.1011C216.721 39.3674 217.258 38.8045 217.96 38.4126C218.662 38.0207 219.501 37.8247 220.476 37.8247C221.501 37.8247 222.358 38.0252 223.046 38.4263C223.734 38.8273 224.24 39.422 224.564 40.2104L223.326 40.6206C223.103 40.0601 222.743 39.6317 222.246 39.3354C221.754 39.0392 221.169 38.8911 220.49 38.8911C219.423 38.8911 218.594 39.2352 218.001 39.9233C217.409 40.6069 217.113 41.5457 217.113 42.7397C217.113 43.5236 217.252 44.2118 217.53 44.8042C217.812 45.3921 218.209 45.8501 218.719 46.1782C219.234 46.5018 219.842 46.6636 220.544 46.6636ZM233.929 46.5337V47.6001H226.341V37.9683H233.649V39.0347H227.647V42.1245H233.239V43.1772H227.647V46.5337H233.929Z" fill="white"/>
<path d="M58.8 69.8H90.8V101.8H58.8V69.8Z" fill="url(#paint1_linear_1105_1664)"/>
<path d="M68.4036 86.3723V89.8H67.2844V81.5442H71.1692C72.0989 81.5442 72.8157 81.7532 73.3196 82.1711C73.8274 82.5852 74.0813 83.1633 74.0813 83.9055C74.0813 84.5188 73.9016 85.0344 73.5422 85.4524C73.1868 85.8704 72.6946 86.134 72.0657 86.2434L74.4094 89.8H73.1204L70.9758 86.3723H68.4036ZM72.9563 83.9172C72.9563 83.4368 72.7922 83.0715 72.4641 82.8215C72.1399 82.5676 71.6711 82.4407 71.0579 82.4407H68.4036V85.4875H71.1047C71.6946 85.4875 72.1497 85.3508 72.47 85.0774C72.7942 84.8 72.9563 84.4133 72.9563 83.9172ZM77.0754 86.636V89.8H75.9563V81.5442H77.0754V85.6809L81.054 81.5442H82.3723L78.8567 85.1301L82.8411 89.8H81.4524L78.1536 85.8157L77.0754 86.636Z" fill="white"/>
<path d="M104.904 78.3723V81.8H103.784V73.5442H107.669C108.599 73.5442 109.316 73.7532 109.82 74.1711C110.327 74.5852 110.581 75.1633 110.581 75.9055C110.581 76.5188 110.402 77.0344 110.042 77.4524C109.687 77.8704 109.195 78.134 108.566 78.2434L110.909 81.8H109.62L107.476 78.3723H104.904ZM109.456 75.9172C109.456 75.4368 109.292 75.0715 108.964 74.8215C108.64 74.5676 108.171 74.4407 107.558 74.4407H104.904V77.4875H107.605C108.195 77.4875 108.65 77.3508 108.97 77.0774C109.294 76.8 109.456 76.4133 109.456 75.9172ZM113.898 81.9172C113.261 81.9172 112.782 81.7493 112.462 81.4133C112.142 81.0774 111.982 80.6165 111.982 80.0305C111.982 79.3743 112.197 78.8704 112.626 78.5188C113.06 78.1672 113.757 77.9797 114.718 77.9563L116.142 77.9329V77.5872C116.142 77.0715 116.032 76.7024 115.814 76.4797C115.595 76.2571 115.251 76.1458 114.782 76.1458C114.31 76.1458 113.966 76.2258 113.751 76.386C113.536 76.5461 113.407 76.802 113.365 77.1536L112.263 77.054C112.443 75.9133 113.29 75.343 114.806 75.343C115.603 75.343 116.202 75.5266 116.605 75.8938C117.007 76.2571 117.208 76.7844 117.208 77.4758V80.2063C117.208 80.5188 117.249 80.7551 117.331 80.9153C117.413 81.0715 117.57 81.1497 117.8 81.1497C117.909 81.1497 118.025 81.136 118.146 81.1086V81.7649C118.013 81.7961 117.878 81.8196 117.741 81.8352C117.605 81.8508 117.468 81.8586 117.331 81.8586C116.941 81.8586 116.656 81.7571 116.476 81.554C116.3 81.3469 116.2 81.0247 116.177 80.5872H116.142C115.872 81.0715 115.558 81.4153 115.198 81.6184C114.843 81.8176 114.409 81.9172 113.898 81.9172ZM116.142 78.6711L114.988 78.6946C114.495 78.6985 114.12 78.7493 113.863 78.8469C113.605 78.9407 113.407 79.0852 113.271 79.2805C113.134 79.4758 113.066 79.7317 113.066 80.0481C113.066 80.3918 113.157 80.6575 113.341 80.845C113.529 81.0325 113.794 81.1262 114.138 81.1262C114.529 81.1262 114.872 81.0383 115.169 80.8625C115.47 80.6868 115.706 80.4465 115.878 80.1418C116.054 79.8333 116.142 79.5168 116.142 79.1926V78.6711ZM120.009 73.1047V74.1125H118.954V73.1047H120.009ZM118.603 84.2903C118.298 84.2903 118.05 84.2727 117.859 84.2375V83.4231C117.921 83.4309 117.982 83.4387 118.04 83.4465C118.099 83.4543 118.159 83.4583 118.222 83.4583C118.491 83.4583 118.681 83.3879 118.79 83.2473C118.9 83.1067 118.954 82.8333 118.954 82.427V75.4602H120.009V82.5852C120.009 83.1829 119.892 83.6165 119.657 83.886C119.423 84.1555 119.072 84.2903 118.603 84.2903ZM122.441 78.8528C122.441 79.5793 122.591 80.1399 122.892 80.5344C123.193 80.929 123.632 81.1262 124.21 81.1262C124.667 81.1262 125.032 81.0344 125.306 80.8508C125.583 80.6672 125.771 80.4348 125.868 80.1536L126.794 80.4172C126.415 81.4172 125.554 81.9172 124.21 81.9172C123.273 81.9172 122.558 81.6379 122.066 81.0793C121.577 80.5208 121.333 79.6907 121.333 78.5891C121.333 77.5422 121.577 76.7395 122.066 76.1809C122.558 75.6223 123.259 75.343 124.169 75.343C125.103 75.343 125.802 75.6243 126.267 76.1868C126.732 76.7493 126.964 77.5911 126.964 78.7122V78.8528H122.441ZM125.874 78.0442C125.816 77.3762 125.646 76.8899 125.365 76.5852C125.083 76.2766 124.679 76.1223 124.152 76.1223C123.64 76.1223 123.234 76.2942 122.933 76.6379C122.636 76.9778 122.476 77.4465 122.452 78.0442H125.874ZM133.07 80.0481C133.07 80.6458 132.843 81.1067 132.39 81.4309C131.941 81.7551 131.31 81.9172 130.497 81.9172C129.708 81.9172 129.099 81.7883 128.669 81.5305C128.243 81.2688 127.966 80.8625 127.837 80.3118L128.769 80.1301C128.859 80.47 129.044 80.72 129.325 80.8801C129.607 81.0364 129.997 81.1145 130.497 81.1145C131.032 81.1145 131.423 81.0325 131.669 80.8684C131.919 80.7043 132.044 80.4583 132.044 80.1301C132.044 79.8801 131.958 79.677 131.786 79.5208C131.615 79.3645 131.337 79.2356 130.954 79.134C130.501 79.0129 130.14 78.9133 129.87 78.8352C129.605 78.7571 129.4 78.6907 129.255 78.636C129.111 78.5774 128.995 78.5227 128.909 78.4719C128.652 78.3235 128.45 78.1418 128.306 77.927C128.161 77.7122 128.089 77.4485 128.089 77.136C128.089 76.5579 128.294 76.1184 128.704 75.8176C129.118 75.5129 129.72 75.3606 130.509 75.3606C131.208 75.3606 131.763 75.4836 132.173 75.7297C132.587 75.9758 132.849 76.3704 132.958 76.9133L132.009 77.0305C131.95 76.7493 131.792 76.5344 131.534 76.386C131.281 76.2336 130.939 76.1575 130.509 76.1575C130.032 76.1575 129.681 76.2297 129.454 76.3743C129.228 76.5188 129.115 76.7375 129.115 77.0305C129.115 77.2454 129.179 77.4231 129.308 77.5637C129.437 77.7004 129.683 77.8137 130.046 77.9036C130.534 78.0208 130.999 78.1497 131.441 78.2903C131.882 78.427 132.198 78.5637 132.39 78.7004C132.613 78.8606 132.781 79.05 132.894 79.2688C133.011 79.4836 133.07 79.7434 133.07 80.0481ZM135.361 76.5442C135.587 76.1301 135.859 75.8274 136.175 75.636C136.495 75.4407 136.9 75.343 137.388 75.343C138.075 75.343 138.581 75.5227 138.906 75.8821C139.234 76.2375 139.398 76.802 139.398 77.5754V81.8H138.337V77.7805C138.337 77.2063 138.236 76.7922 138.032 76.5383C137.833 76.2844 137.499 76.1575 137.031 76.1575C136.534 76.1575 136.136 76.3293 135.835 76.6731C135.538 77.0168 135.39 77.4797 135.39 78.0618V81.8H134.335V73.1047H135.39V75.3665C135.39 75.5227 135.386 75.6887 135.378 75.8645C135.37 76.0364 135.363 76.1868 135.355 76.3157C135.351 76.4407 135.347 76.5168 135.343 76.5442H135.361ZM145.626 78.636V81.8H144.507V73.5442H145.626V77.6809L149.605 73.5442H150.923L147.407 77.1301L151.392 81.8H150.003L146.704 77.8157L145.626 78.636ZM156.343 80.7161C156.101 81.1536 155.82 81.4641 155.499 81.6477C155.183 81.8274 154.788 81.9172 154.316 81.9172C153.62 81.9172 153.111 81.7454 152.786 81.4016C152.466 81.054 152.306 80.4817 152.306 79.6848V75.4602H153.366V79.4797C153.366 80.1125 153.464 80.5422 153.659 80.7688C153.859 80.9915 154.197 81.1028 154.673 81.1028C155.181 81.1028 155.581 80.929 155.874 80.5813C156.167 80.2336 156.314 79.7512 156.314 79.134V75.4602H157.368V80.4465C157.368 80.8137 157.37 81.1106 157.374 81.3372C157.382 81.5637 157.392 81.718 157.404 81.8H156.407C156.404 81.7805 156.396 81.6887 156.384 81.5247C156.376 81.3606 156.368 81.0911 156.361 80.7161H156.343ZM160.087 78.1262V81.8H159.038V76.8137C159.038 76.4426 159.034 76.1458 159.027 75.9231C159.023 75.6965 159.015 75.5422 159.003 75.4602H159.999C160.007 75.5461 160.015 75.6516 160.023 75.7766C160.031 75.9016 160.036 76.0325 160.04 76.1692C160.044 76.302 160.046 76.427 160.046 76.5442H160.064C160.29 76.095 160.55 75.7825 160.843 75.6067C161.136 75.4309 161.493 75.343 161.915 75.343C162.396 75.343 162.775 75.4387 163.052 75.6301C163.333 75.8215 163.529 76.1262 163.638 76.5442H163.656C163.874 76.1184 164.138 75.8118 164.447 75.6243C164.759 75.4368 165.136 75.343 165.577 75.343C166.218 75.343 166.683 75.5168 166.972 75.8645C167.265 76.2122 167.411 76.7825 167.411 77.5754V81.8H166.368V77.7805C166.368 77.1672 166.284 76.7434 166.116 76.509C165.948 76.2747 165.646 76.1575 165.208 76.1575C164.747 76.1575 164.388 76.3293 164.13 76.6731C163.876 77.0129 163.749 77.4973 163.749 78.1262V81.8H162.706V77.7805C162.706 77.1672 162.622 76.7434 162.454 76.509C162.286 76.2747 161.984 76.1575 161.546 76.1575C161.097 76.1575 160.741 76.3293 160.48 76.6731C160.218 77.0168 160.087 77.5012 160.087 78.1262ZM170.628 81.9172C169.991 81.9172 169.513 81.7493 169.193 81.4133C168.872 81.0774 168.712 80.6165 168.712 80.0305C168.712 79.3743 168.927 78.8704 169.357 78.5188C169.79 78.1672 170.488 77.9797 171.448 77.9563L172.872 77.9329V77.5872C172.872 77.0715 172.763 76.7024 172.544 76.4797C172.325 76.2571 171.982 76.1458 171.513 76.1458C171.04 76.1458 170.697 76.2258 170.482 76.386C170.267 76.5461 170.138 76.802 170.095 77.1536L168.993 77.054C169.173 75.9133 170.021 75.343 171.536 75.343C172.333 75.343 172.933 75.5266 173.335 75.8938C173.738 76.2571 173.939 76.7844 173.939 77.4758V80.2063C173.939 80.5188 173.98 80.7551 174.062 80.9153C174.144 81.0715 174.3 81.1497 174.531 81.1497C174.64 81.1497 174.755 81.136 174.876 81.1086V81.7649C174.743 81.7961 174.609 81.8196 174.472 81.8352C174.335 81.8508 174.198 81.8586 174.062 81.8586C173.671 81.8586 173.386 81.7571 173.206 81.554C173.031 81.3469 172.931 81.0247 172.907 80.5872H172.872C172.603 81.0715 172.288 81.4153 171.929 81.6184C171.573 81.8176 171.14 81.9172 170.628 81.9172ZM172.872 78.6711L171.718 78.6946C171.226 78.6985 170.851 78.7493 170.593 78.8469C170.335 78.9407 170.138 79.0852 170.001 79.2805C169.865 79.4758 169.796 79.7317 169.796 80.0481C169.796 80.3918 169.888 80.6575 170.072 80.845C170.259 81.0325 170.525 81.1262 170.868 81.1262C171.259 81.1262 171.603 81.0383 171.9 80.8625C172.2 80.6868 172.437 80.4465 172.609 80.1418C172.784 79.8333 172.872 79.5168 172.872 79.1926V78.6711ZM176.769 78.4954V81.8H175.714V76.9368C175.714 76.7141 175.71 76.4797 175.702 76.2336C175.698 75.9875 175.691 75.7297 175.679 75.4602H176.675C176.683 75.6399 176.689 75.802 176.693 75.9465C176.7 76.0911 176.706 76.218 176.71 76.3274C176.714 76.4329 176.716 76.5227 176.716 76.5969C176.72 76.6672 176.722 76.72 176.722 76.7551H176.745C176.863 76.3723 176.991 76.0754 177.132 75.8645C177.269 75.6692 177.425 75.5344 177.601 75.4602C177.777 75.3821 177.993 75.343 178.251 75.343C178.396 75.343 178.538 75.3625 178.679 75.4016V76.3684C178.546 76.3293 178.359 76.3098 178.116 76.3098C177.679 76.3098 177.345 76.4993 177.115 76.8782C176.884 77.2532 176.769 77.7922 176.769 78.4954Z" fill="#CAD5E2"/>
<path d="M107.962 94.9309V96.8H106.966V94.9309H103.075V94.1106L106.855 88.5442H107.962V94.0989H109.122V94.9309H107.962ZM104.048 94.0989H106.966V90.8059C106.966 90.6262 106.966 90.4485 106.966 90.2727C106.97 90.093 106.978 89.9133 106.99 89.7336C106.9 89.9055 106.822 90.0461 106.755 90.1555C106.689 90.261 106.628 90.3528 106.573 90.4309L104.048 94.0989ZM115.65 94.1106C115.65 94.9817 115.39 95.6672 114.87 96.1672C114.355 96.6672 113.638 96.9172 112.72 96.9172C111.95 96.9172 111.329 96.7493 110.857 96.4133C110.384 96.0774 110.085 95.5911 109.96 94.9543L111.027 94.8313C111.14 95.2375 111.339 95.5442 111.624 95.7512C111.909 95.9543 112.282 96.0559 112.743 96.0559C113.31 96.0559 113.753 95.886 114.073 95.5461C114.394 95.2024 114.554 94.7317 114.554 94.134C114.554 93.6145 114.392 93.1946 114.068 92.8743C113.747 92.554 113.314 92.3938 112.767 92.3938C112.482 92.3938 112.216 92.4387 111.97 92.5286C111.724 92.6184 111.478 92.7708 111.232 92.9856H110.2L110.476 88.5442H115.169V89.4407H111.437L111.279 92.0598C111.736 91.7083 112.304 91.5325 112.984 91.5325C113.527 91.5325 113.997 91.6418 114.396 91.8606C114.794 92.0754 115.103 92.3762 115.322 92.7629C115.54 93.1497 115.65 93.5989 115.65 94.1106ZM125.669 93.6243C125.669 94.7336 125.425 95.5598 124.937 96.1028C124.448 96.6458 123.74 96.9172 122.81 96.9172C121.884 96.9172 121.185 96.636 120.712 96.0735C120.24 95.5071 120.003 94.6907 120.003 93.6243C120.003 92.5305 120.24 91.7102 120.712 91.1633C121.189 90.6165 121.9 90.343 122.845 90.343C123.814 90.343 124.527 90.6106 124.984 91.1458C125.441 91.677 125.669 92.5032 125.669 93.6243ZM124.562 93.6243C124.562 92.7493 124.431 92.1145 124.169 91.72C123.911 91.3215 123.476 91.1223 122.863 91.1223C122.245 91.1223 121.798 91.3254 121.521 91.7317C121.247 92.134 121.111 92.7649 121.111 93.6243C121.111 94.4602 121.245 95.0891 121.515 95.511C121.788 95.929 122.216 96.1379 122.798 96.1379C123.431 96.1379 123.882 95.9348 124.152 95.5286C124.425 95.1223 124.562 94.4875 124.562 93.6243ZM128.066 93.4954V96.8H127.011V91.9368C127.011 91.7141 127.007 91.4797 126.999 91.2336C126.995 90.9875 126.988 90.7297 126.976 90.4602H127.972C127.98 90.6399 127.986 90.802 127.99 90.9465C127.997 91.0911 128.003 91.218 128.007 91.3274C128.011 91.4329 128.013 91.5227 128.013 91.5969C128.017 91.6672 128.019 91.72 128.019 91.7551H128.042C128.159 91.3723 128.288 91.0754 128.429 90.8645C128.566 90.6692 128.722 90.5344 128.898 90.4602C129.073 90.3821 129.29 90.343 129.548 90.343C129.693 90.343 129.835 90.3625 129.976 90.4016V91.3684C129.843 91.3293 129.656 91.3098 129.413 91.3098C128.976 91.3098 128.642 91.4993 128.411 91.8782C128.181 92.2532 128.066 92.7922 128.066 93.4954ZM135.068 96.8C135.06 96.7571 135.05 96.677 135.038 96.5598C135.031 96.4387 135.023 96.3059 135.015 96.1614C135.011 96.0168 135.009 95.8899 135.009 95.7805H134.986C134.79 96.1868 134.531 96.4778 134.206 96.6536C133.886 96.8293 133.488 96.9172 133.011 96.9172C132.21 96.9172 131.62 96.6477 131.241 96.1086C130.866 95.5696 130.679 94.7532 130.679 93.6594C130.679 92.554 130.872 91.7258 131.259 91.175C131.65 90.6204 132.234 90.343 133.011 90.343C133.491 90.343 133.892 90.4309 134.212 90.6067C134.532 90.7825 134.79 91.0618 134.986 91.4446H134.997L134.986 90.7356V88.1047H136.04V95.4934C136.04 95.8254 136.042 96.1008 136.046 96.3196C136.054 96.5344 136.064 96.6946 136.075 96.8H135.068ZM131.786 93.6243C131.786 94.511 131.904 95.1458 132.138 95.5286C132.372 95.9114 132.753 96.1028 133.281 96.1028C133.878 96.1028 134.312 95.8958 134.581 95.4817C134.851 95.0676 134.986 94.425 134.986 93.554C134.986 92.7141 134.851 92.0989 134.581 91.7083C134.312 91.3176 133.882 91.1223 133.292 91.1223C132.761 91.1223 132.376 91.3196 132.138 91.7141C131.904 92.1047 131.786 92.7415 131.786 93.6243ZM138.472 93.8528C138.472 94.5793 138.622 95.1399 138.923 95.5344C139.224 95.929 139.663 96.1262 140.241 96.1262C140.698 96.1262 141.064 96.0344 141.337 95.8508C141.615 95.6672 141.802 95.4348 141.9 95.1536L142.825 95.4172C142.447 96.4172 141.585 96.9172 140.241 96.9172C139.304 96.9172 138.589 96.6379 138.097 96.0793C137.609 95.5208 137.365 94.6907 137.365 93.5891C137.365 92.5422 137.609 91.7395 138.097 91.1809C138.589 90.6223 139.29 90.343 140.2 90.343C141.134 90.343 141.833 90.6243 142.298 91.1868C142.763 91.7493 142.995 92.5911 142.995 93.7122V93.8528H138.472ZM141.906 93.0442C141.847 92.3762 141.677 91.8899 141.396 91.5852C141.115 91.2766 140.71 91.1223 140.183 91.1223C139.671 91.1223 139.265 91.2942 138.964 91.6379C138.667 91.9778 138.507 92.4465 138.484 93.0442H141.906ZM145.421 93.4954V96.8H144.366V91.9368C144.366 91.7141 144.363 91.4797 144.355 91.2336C144.351 90.9875 144.343 90.7297 144.331 90.4602H145.327C145.335 90.6399 145.341 90.802 145.345 90.9465C145.353 91.0911 145.359 91.218 145.363 91.3274C145.366 91.4329 145.368 91.5227 145.368 91.5969C145.372 91.6672 145.374 91.72 145.374 91.7551H145.398C145.515 91.3723 145.644 91.0754 145.784 90.8645C145.921 90.6692 146.077 90.5344 146.253 90.4602C146.429 90.3821 146.646 90.343 146.904 90.343C147.048 90.343 147.191 90.3625 147.331 90.4016V91.3684C147.198 91.3293 147.011 91.3098 146.769 91.3098C146.331 91.3098 145.997 91.4993 145.767 91.8782C145.536 92.2532 145.421 92.7922 145.421 93.4954ZM153.097 95.0481C153.097 95.6458 152.87 96.1067 152.417 96.4309C151.968 96.7551 151.337 96.9172 150.525 96.9172C149.736 96.9172 149.126 96.7883 148.697 96.5305C148.271 96.2688 147.993 95.8625 147.865 95.3118L148.796 95.1301C148.886 95.47 149.072 95.72 149.353 95.8801C149.634 96.0364 150.025 96.1145 150.525 96.1145C151.06 96.1145 151.45 96.0325 151.697 95.8684C151.947 95.7043 152.072 95.4583 152.072 95.1301C152.072 94.8801 151.986 94.677 151.814 94.5208C151.642 94.3645 151.365 94.2356 150.982 94.134C150.529 94.0129 150.167 93.9133 149.898 93.8352C149.632 93.7571 149.427 93.6907 149.282 93.636C149.138 93.5774 149.023 93.5227 148.937 93.4719C148.679 93.3235 148.478 93.1418 148.333 92.927C148.189 92.7122 148.116 92.4485 148.116 92.136C148.116 91.5579 148.322 91.1184 148.732 90.8176C149.146 90.5129 149.747 90.3606 150.536 90.3606C151.236 90.3606 151.79 90.4836 152.2 90.7297C152.615 90.9758 152.876 91.3704 152.986 91.9133L152.036 92.0305C151.978 91.7493 151.82 91.5344 151.562 91.386C151.308 91.2336 150.966 91.1575 150.536 91.1575C150.06 91.1575 149.708 91.2297 149.482 91.3743C149.255 91.5188 149.142 91.7375 149.142 92.0305C149.142 92.2454 149.206 92.4231 149.335 92.5637C149.464 92.7004 149.71 92.8137 150.073 92.9036C150.562 93.0208 151.027 93.1497 151.468 93.2903C151.909 93.427 152.226 93.5637 152.417 93.7004C152.64 93.8606 152.808 94.05 152.921 94.2688C153.038 94.4836 153.097 94.7434 153.097 95.0481Z" fill="#62748E"/>
<path d="M227.266 85.6011L229.768 89.6001H228.339L225.865 85.3892V84.7739H226.172C226.956 84.7739 227.537 84.6623 227.916 84.439C228.294 84.2111 228.515 83.8215 228.579 83.27H225.865V82.4019H228.565C228.456 81.8413 228.223 81.4403 227.868 81.1987C227.517 80.9572 227.015 80.8364 226.364 80.8364H225.865V79.9683H231.662V80.8364H229.016C229.454 81.1873 229.718 81.7091 229.809 82.4019H231.662V83.27H229.836C229.704 84.5962 228.847 85.3732 227.266 85.6011ZM239.742 88.5542V89.6001H233.364V88.7319C233.596 88.1987 233.876 87.7271 234.205 87.3169C234.537 86.9067 234.89 86.5376 235.264 86.2095C235.638 85.8813 236.007 85.576 236.372 85.2935C236.554 85.1522 236.725 85.0109 236.884 84.8696C237.048 84.7284 237.203 84.5871 237.349 84.4458C237.641 84.1632 237.875 83.867 238.053 83.5571C238.236 83.2472 238.327 82.8963 238.327 82.5044C238.327 81.9757 238.172 81.5656 237.862 81.2739C237.552 80.9823 237.121 80.8364 236.57 80.8364C236.046 80.8364 235.613 80.98 235.271 81.2671C234.934 81.5496 234.736 81.9484 234.676 82.4634L233.418 82.3472C233.51 81.577 233.835 80.964 234.396 80.5083C234.961 80.0526 235.686 79.8247 236.57 79.8247C237.541 79.8247 238.286 80.0549 238.805 80.5151C239.329 80.9709 239.591 81.6203 239.591 82.4634C239.591 82.8371 239.505 83.2085 239.332 83.5776C239.163 83.9468 238.91 84.3159 238.573 84.6851C238.404 84.8674 238.158 85.1021 237.834 85.3892C237.511 85.6763 237.112 86.0135 236.638 86.4009C236.114 86.8293 235.697 87.2166 235.387 87.563C235.077 87.9048 234.854 88.2352 234.717 88.5542H239.742ZM247.63 86.9136C247.63 87.8022 247.348 88.495 246.783 88.9917C246.218 89.4884 245.406 89.7368 244.349 89.7368C243.319 89.7368 242.513 89.493 241.929 89.0054C241.35 88.5177 241.061 87.825 241.061 86.9272C241.061 86.2983 241.241 85.7697 241.601 85.3413C241.961 84.9129 242.421 84.6532 242.982 84.562V84.5347C242.458 84.4116 242.043 84.145 241.738 83.7349C241.437 83.3247 241.287 82.8439 241.287 82.2925C241.287 81.5588 241.56 80.964 242.107 80.5083C242.658 80.0526 243.397 79.8247 244.322 79.8247C245.27 79.8247 246.017 80.048 246.564 80.4946C247.115 80.9412 247.391 81.5451 247.391 82.3062C247.391 82.8576 247.238 83.3384 246.933 83.7485C246.628 84.1587 246.211 84.4162 245.682 84.521V84.5483C246.297 84.6486 246.776 84.9106 247.118 85.3345C247.459 85.7537 247.63 86.2801 247.63 86.9136ZM246.113 82.3745C246.113 81.2853 245.516 80.7407 244.322 80.7407C243.137 80.7407 242.544 81.2853 242.544 82.3745C242.544 82.9259 242.699 83.3475 243.009 83.6392C243.324 83.9263 243.766 84.0698 244.335 84.0698C244.914 84.0698 245.354 83.9377 245.655 83.6733C245.96 83.4045 246.113 82.9715 246.113 82.3745ZM246.352 86.7974C246.352 86.2004 246.174 85.7515 245.819 85.4507C245.463 85.1453 244.964 84.9927 244.322 84.9927C243.697 84.9927 243.21 85.1567 242.859 85.4849C242.508 85.8084 242.333 86.255 242.333 86.8247C242.333 87.4855 242.501 87.9823 242.838 88.3149C243.18 88.6476 243.688 88.814 244.363 88.814C245.033 88.814 245.532 88.6545 245.86 88.3354C246.188 88.0119 246.352 87.4992 246.352 86.7974ZM250.877 89.2515C250.877 89.7345 250.834 90.1379 250.748 90.4614C250.661 90.785 250.527 91.0949 250.344 91.3911H249.503C249.718 91.0812 249.877 90.7759 249.982 90.4751C250.091 90.1789 250.146 89.8872 250.146 89.6001H249.544V88.103H250.877V89.2515ZM259.34 86.4624C259.34 87.4787 259.037 88.2785 258.431 88.8618C257.83 89.4451 256.993 89.7368 255.922 89.7368C255.025 89.7368 254.3 89.5409 253.749 89.1489C253.197 88.757 252.848 88.1896 252.703 87.4468L253.947 87.3032C254.079 87.7772 254.311 88.1349 254.644 88.3765C254.977 88.6134 255.412 88.7319 255.95 88.7319C256.611 88.7319 257.128 88.5337 257.501 88.1372C257.875 87.7362 258.062 87.187 258.062 86.4897C258.062 85.8836 257.873 85.3937 257.495 85.02C257.121 84.6463 256.615 84.4595 255.977 84.4595C255.644 84.4595 255.334 84.5119 255.047 84.6167C254.76 84.7215 254.473 84.8993 254.186 85.1499H252.983L253.304 79.9683H258.78V81.0142H254.425L254.241 84.0698C254.774 83.6597 255.437 83.4546 256.23 83.4546C256.863 83.4546 257.413 83.5822 257.877 83.8374C258.342 84.0881 258.702 84.439 258.958 84.8901C259.213 85.3413 259.34 85.8654 259.34 86.4624ZM267.174 84.7808C267.174 86.3895 266.889 87.6177 266.32 88.4653C265.755 89.313 264.918 89.7368 263.811 89.7368C262.704 89.7368 261.872 89.3153 261.316 88.4722C260.76 87.6291 260.482 86.3986 260.482 84.7808C260.482 83.1265 260.751 81.8869 261.289 81.062C261.831 80.2371 262.685 79.8247 263.852 79.8247C264.987 79.8247 265.823 80.2417 266.361 81.0757C266.903 81.9097 267.174 83.1447 267.174 84.7808ZM265.923 84.7808C265.923 83.8511 265.853 83.0968 265.711 82.5181C265.575 81.9347 265.354 81.5063 265.048 81.2329C264.743 80.9595 264.344 80.8228 263.852 80.8228C263.351 80.8228 262.943 80.9572 262.628 81.2261C262.314 81.495 262.084 81.9211 261.938 82.5044C261.797 83.0832 261.726 83.842 261.726 84.7808C261.726 85.6922 261.799 86.4396 261.945 87.0229C262.095 87.6063 262.325 88.0369 262.635 88.3149C262.945 88.5929 263.342 88.7319 263.825 88.7319C264.549 88.7319 265.08 88.4084 265.417 87.7612C265.755 87.1141 265.923 86.1206 265.923 84.7808ZM274.967 84.7808C274.967 86.3895 274.682 87.6177 274.113 88.4653C273.548 89.313 272.711 89.7368 271.604 89.7368C270.497 89.7368 269.665 89.3153 269.109 88.4722C268.553 87.6291 268.275 86.3986 268.275 84.7808C268.275 83.1265 268.544 81.8869 269.082 81.062C269.624 80.2371 270.478 79.8247 271.645 79.8247C272.78 79.8247 273.616 80.2417 274.154 81.0757C274.696 81.9097 274.967 83.1447 274.967 84.7808ZM273.716 84.7808C273.716 83.8511 273.646 83.0968 273.504 82.5181C273.368 81.9347 273.147 81.5063 272.841 81.2329C272.536 80.9595 272.137 80.8228 271.645 80.8228C271.144 80.8228 270.736 80.9572 270.421 81.2261C270.107 81.495 269.877 81.9211 269.731 82.5044C269.59 83.0832 269.519 83.842 269.519 84.7808C269.519 85.6922 269.592 86.4396 269.738 87.0229C269.888 87.6063 270.118 88.0369 270.428 88.3149C270.738 88.5929 271.135 88.7319 271.618 88.7319C272.342 88.7319 272.873 88.4084 273.21 87.7612C273.548 87.1141 273.716 86.1206 273.716 84.7808Z" fill="#05DF72"/>
<path d="M58.8 113.8H90.8V145.8H58.8V113.8Z" fill="url(#paint2_linear_1105_1664)"/>
<path d="M73.6711 128.029C73.6711 128.548 73.5559 128.999 73.3254 129.382C73.095 129.765 72.7668 130.062 72.3411 130.273C71.9192 130.48 71.4153 130.583 70.8293 130.583H68.4036V133.8H67.2844V125.544H70.759C71.6848 125.544 72.4016 125.761 72.9094 126.195C73.4172 126.628 73.6711 127.24 73.6711 128.029ZM72.5461 128.04C72.5461 126.974 71.9055 126.441 70.6243 126.441H68.4036V129.698H70.6711C71.2961 129.698 71.7649 129.562 72.0774 129.288C72.3899 129.011 72.5461 128.595 72.5461 128.04ZM81.7571 131.521C81.7571 132.282 81.4583 132.872 80.8606 133.29C80.2668 133.708 79.429 133.917 78.3469 133.917C76.3352 133.917 75.1692 133.218 74.8489 131.82L75.9329 131.603C76.0579 132.099 76.3235 132.464 76.7297 132.698C77.136 132.929 77.6887 133.044 78.3879 133.044C79.1106 133.044 79.6672 132.921 80.0579 132.675C80.4524 132.425 80.6497 132.06 80.6497 131.579C80.6497 131.31 80.5872 131.091 80.4622 130.923C80.3411 130.755 80.1692 130.616 79.9465 130.507C79.7239 130.398 79.4583 130.306 79.1497 130.232C78.8411 130.157 78.4993 130.077 78.1243 129.991C77.6907 129.894 77.3274 129.798 77.0344 129.704C76.7454 129.611 76.5071 129.513 76.3196 129.411C76.1321 129.306 75.9719 129.195 75.8391 129.077C75.6438 128.898 75.4934 128.689 75.3879 128.45C75.2864 128.212 75.2356 127.939 75.2356 127.63C75.2356 126.923 75.5051 126.378 76.0442 125.995C76.5872 125.613 77.3625 125.421 78.3704 125.421C79.3079 125.421 80.0247 125.566 80.5208 125.855C81.0168 126.14 81.3645 126.628 81.5637 127.32L80.4622 127.513C80.3411 127.075 80.1106 126.759 79.7708 126.564C79.4309 126.365 78.9602 126.265 78.3586 126.265C77.6985 126.265 77.1946 126.374 76.8469 126.593C76.4993 126.812 76.3254 127.138 76.3254 127.572C76.3254 127.825 76.3918 128.036 76.5247 128.204C76.6614 128.368 76.8567 128.507 77.1106 128.62C77.3489 128.734 77.8547 128.876 78.6282 129.048C78.9446 129.122 79.2571 129.2 79.5657 129.282C79.8743 129.361 80.1653 129.46 80.4387 129.581C80.5989 129.648 80.7512 129.73 80.8958 129.827C81.0442 129.921 81.1731 130.031 81.2825 130.156C81.4309 130.32 81.5461 130.513 81.6282 130.736C81.7141 130.958 81.7571 131.22 81.7571 131.521Z" fill="white"/>
<path d="M110.171 120.029C110.171 120.548 110.056 120.999 109.825 121.382C109.595 121.765 109.267 122.062 108.841 122.273C108.419 122.48 107.915 122.583 107.329 122.583H104.904V125.8H103.784V117.544H107.259C108.185 117.544 108.902 117.761 109.409 118.195C109.917 118.628 110.171 119.24 110.171 120.029ZM109.046 120.04C109.046 118.974 108.406 118.441 107.124 118.441H104.904V121.698H107.171C107.796 121.698 108.265 121.562 108.577 121.288C108.89 121.011 109.046 120.595 109.046 120.04ZM112.691 122.495V125.8H111.636V120.937C111.636 120.714 111.632 120.48 111.624 120.234C111.62 119.988 111.613 119.73 111.601 119.46H112.597C112.605 119.64 112.611 119.802 112.615 119.947C112.622 120.091 112.628 120.218 112.632 120.327C112.636 120.433 112.638 120.523 112.638 120.597C112.642 120.667 112.644 120.72 112.644 120.755H112.667C112.784 120.372 112.913 120.075 113.054 119.865C113.191 119.669 113.347 119.534 113.523 119.46C113.698 119.382 113.915 119.343 114.173 119.343C114.318 119.343 114.46 119.363 114.601 119.402V120.368C114.468 120.329 114.281 120.31 114.038 120.31C113.601 120.31 113.267 120.499 113.036 120.878C112.806 121.253 112.691 121.792 112.691 122.495ZM116.657 117.105V118.113H115.603V117.105H116.657ZM116.657 119.46V125.8H115.603V119.46H116.657ZM118.591 128.29C118.31 128.29 118.068 128.269 117.865 128.226V127.435C118.013 127.458 118.177 127.47 118.357 127.47C118.685 127.47 118.988 127.347 119.265 127.101C119.546 126.859 119.796 126.415 120.015 125.771L117.501 119.46H118.626L119.962 122.964C120.06 123.214 120.163 123.497 120.273 123.814C120.386 124.13 120.474 124.409 120.536 124.652C120.634 124.374 120.732 124.099 120.829 123.825C120.931 123.552 121.029 123.279 121.122 123.005L122.335 119.46H123.448L121.011 125.8C120.878 126.136 120.751 126.429 120.63 126.679C120.509 126.933 120.392 127.142 120.279 127.306C120.052 127.638 119.8 127.884 119.523 128.044C119.249 128.208 118.939 128.29 118.591 128.29ZM125.898 125.917C125.261 125.917 124.782 125.749 124.462 125.413C124.142 125.077 123.982 124.616 123.982 124.031C123.982 123.374 124.197 122.87 124.626 122.519C125.06 122.167 125.757 121.98 126.718 121.956L128.142 121.933V121.587C128.142 121.072 128.032 120.702 127.814 120.48C127.595 120.257 127.251 120.146 126.782 120.146C126.31 120.146 125.966 120.226 125.751 120.386C125.536 120.546 125.407 120.802 125.365 121.154L124.263 121.054C124.443 119.913 125.29 119.343 126.806 119.343C127.603 119.343 128.202 119.527 128.605 119.894C129.007 120.257 129.208 120.784 129.208 121.476V124.206C129.208 124.519 129.249 124.755 129.331 124.915C129.413 125.072 129.57 125.15 129.8 125.15C129.909 125.15 130.025 125.136 130.146 125.109V125.765C130.013 125.796 129.878 125.82 129.741 125.835C129.605 125.851 129.468 125.859 129.331 125.859C128.941 125.859 128.656 125.757 128.476 125.554C128.3 125.347 128.2 125.025 128.177 124.587H128.142C127.872 125.072 127.558 125.415 127.198 125.618C126.843 125.818 126.409 125.917 125.898 125.917ZM128.142 122.671L126.988 122.695C126.495 122.698 126.12 122.749 125.863 122.847C125.605 122.941 125.407 123.085 125.271 123.281C125.134 123.476 125.066 123.732 125.066 124.048C125.066 124.392 125.157 124.657 125.341 124.845C125.529 125.032 125.794 125.126 126.138 125.126C126.529 125.126 126.872 125.038 127.169 124.863C127.47 124.687 127.706 124.447 127.878 124.142C128.054 123.833 128.142 123.517 128.142 123.193V122.671ZM140.945 123.521C140.945 124.282 140.646 124.872 140.048 125.29C139.454 125.708 138.616 125.917 137.534 125.917C135.523 125.917 134.357 125.218 134.036 123.82L135.12 123.603C135.245 124.099 135.511 124.464 135.917 124.698C136.323 124.929 136.876 125.044 137.575 125.044C138.298 125.044 138.855 124.921 139.245 124.675C139.64 124.425 139.837 124.06 139.837 123.579C139.837 123.31 139.775 123.091 139.65 122.923C139.529 122.755 139.357 122.616 139.134 122.507C138.911 122.398 138.646 122.306 138.337 122.232C138.029 122.157 137.687 122.077 137.312 121.991C136.878 121.894 136.515 121.798 136.222 121.704C135.933 121.611 135.695 121.513 135.507 121.411C135.32 121.306 135.159 121.195 135.027 121.077C134.831 120.898 134.681 120.689 134.575 120.45C134.474 120.212 134.423 119.939 134.423 119.63C134.423 118.923 134.693 118.378 135.232 117.995C135.775 117.613 136.55 117.421 137.558 117.421C138.495 117.421 139.212 117.566 139.708 117.855C140.204 118.14 140.552 118.628 140.751 119.32L139.65 119.513C139.529 119.075 139.298 118.759 138.958 118.564C138.618 118.365 138.148 118.265 137.546 118.265C136.886 118.265 136.382 118.374 136.034 118.593C135.687 118.812 135.513 119.138 135.513 119.572C135.513 119.825 135.579 120.036 135.712 120.204C135.849 120.368 136.044 120.507 136.298 120.62C136.536 120.734 137.042 120.876 137.816 121.048C138.132 121.122 138.445 121.2 138.753 121.282C139.062 121.361 139.353 121.46 139.626 121.581C139.786 121.648 139.939 121.73 140.083 121.827C140.232 121.921 140.361 122.031 140.47 122.156C140.618 122.32 140.734 122.513 140.816 122.736C140.902 122.958 140.945 123.22 140.945 123.521ZM143.353 120.544C143.579 120.13 143.851 119.827 144.167 119.636C144.488 119.441 144.892 119.343 145.38 119.343C146.068 119.343 146.573 119.523 146.898 119.882C147.226 120.238 147.39 120.802 147.39 121.575V125.8H146.329V121.781C146.329 121.206 146.228 120.792 146.025 120.538C145.825 120.284 145.491 120.157 145.023 120.157C144.527 120.157 144.128 120.329 143.827 120.673C143.531 121.017 143.382 121.48 143.382 122.062V125.8H142.327V117.105H143.382V119.366C143.382 119.523 143.378 119.689 143.37 119.865C143.363 120.036 143.355 120.187 143.347 120.316C143.343 120.441 143.339 120.517 143.335 120.544H143.353ZM150.601 125.917C149.964 125.917 149.486 125.749 149.165 125.413C148.845 125.077 148.685 124.616 148.685 124.031C148.685 123.374 148.9 122.87 149.329 122.519C149.763 122.167 150.46 121.98 151.421 121.956L152.845 121.933V121.587C152.845 121.072 152.736 120.702 152.517 120.48C152.298 120.257 151.954 120.146 151.486 120.146C151.013 120.146 150.669 120.226 150.454 120.386C150.24 120.546 150.111 120.802 150.068 121.154L148.966 121.054C149.146 119.913 149.993 119.343 151.509 119.343C152.306 119.343 152.906 119.527 153.308 119.894C153.71 120.257 153.911 120.784 153.911 121.476V124.206C153.911 124.519 153.952 124.755 154.034 124.915C154.116 125.072 154.273 125.15 154.503 125.15C154.613 125.15 154.728 125.136 154.849 125.109V125.765C154.716 125.796 154.581 125.82 154.445 125.835C154.308 125.851 154.171 125.859 154.034 125.859C153.644 125.859 153.359 125.757 153.179 125.554C153.003 125.347 152.904 125.025 152.88 124.587H152.845C152.575 125.072 152.261 125.415 151.902 125.618C151.546 125.818 151.113 125.917 150.601 125.917ZM152.845 122.671L151.691 122.695C151.198 122.698 150.823 122.749 150.566 122.847C150.308 122.941 150.111 123.085 149.974 123.281C149.837 123.476 149.769 123.732 149.769 124.048C149.769 124.392 149.861 124.657 150.044 124.845C150.232 125.032 150.497 125.126 150.841 125.126C151.232 125.126 151.575 125.038 151.872 124.863C152.173 124.687 152.409 124.447 152.581 124.142C152.757 123.833 152.845 123.517 152.845 123.193V122.671ZM156.741 122.495V125.8H155.687V120.937C155.687 120.714 155.683 120.48 155.675 120.234C155.671 119.988 155.663 119.73 155.652 119.46H156.648C156.656 119.64 156.661 119.802 156.665 119.947C156.673 120.091 156.679 120.218 156.683 120.327C156.687 120.433 156.689 120.523 156.689 120.597C156.693 120.667 156.695 120.72 156.695 120.755H156.718C156.835 120.372 156.964 120.075 157.105 119.865C157.241 119.669 157.398 119.534 157.573 119.46C157.749 119.382 157.966 119.343 158.224 119.343C158.368 119.343 158.511 119.363 158.652 119.402V120.368C158.519 120.329 158.331 120.31 158.089 120.31C157.652 120.31 157.318 120.499 157.087 120.878C156.857 121.253 156.741 121.792 156.741 122.495ZM160.732 122.126V125.8H159.683V120.814C159.683 120.443 159.679 120.146 159.671 119.923C159.667 119.697 159.659 119.542 159.648 119.46H160.644C160.652 119.546 160.659 119.652 160.667 119.777C160.675 119.902 160.681 120.032 160.685 120.169C160.689 120.302 160.691 120.427 160.691 120.544H160.708C160.935 120.095 161.195 119.782 161.488 119.607C161.781 119.431 162.138 119.343 162.56 119.343C163.04 119.343 163.419 119.439 163.697 119.63C163.978 119.822 164.173 120.126 164.282 120.544H164.3C164.519 120.118 164.782 119.812 165.091 119.624C165.404 119.437 165.781 119.343 166.222 119.343C166.863 119.343 167.327 119.517 167.616 119.865C167.909 120.212 168.056 120.782 168.056 121.575V125.8H167.013V121.781C167.013 121.167 166.929 120.743 166.761 120.509C166.593 120.275 166.29 120.157 165.853 120.157C165.392 120.157 165.032 120.329 164.775 120.673C164.521 121.013 164.394 121.497 164.394 122.126V125.8H163.351V121.781C163.351 121.167 163.267 120.743 163.099 120.509C162.931 120.275 162.628 120.157 162.191 120.157C161.741 120.157 161.386 120.329 161.124 120.673C160.863 121.017 160.732 121.501 160.732 122.126ZM171.273 125.917C170.636 125.917 170.157 125.749 169.837 125.413C169.517 125.077 169.357 124.616 169.357 124.031C169.357 123.374 169.572 122.87 170.001 122.519C170.435 122.167 171.132 121.98 172.093 121.956L173.517 121.933V121.587C173.517 121.072 173.407 120.702 173.189 120.48C172.97 120.257 172.626 120.146 172.157 120.146C171.685 120.146 171.341 120.226 171.126 120.386C170.911 120.546 170.782 120.802 170.74 121.154L169.638 121.054C169.818 119.913 170.665 119.343 172.181 119.343C172.978 119.343 173.577 119.527 173.98 119.894C174.382 120.257 174.583 120.784 174.583 121.476V124.206C174.583 124.519 174.624 124.755 174.706 124.915C174.788 125.072 174.945 125.15 175.175 125.15C175.284 125.15 175.4 125.136 175.521 125.109V125.765C175.388 125.796 175.253 125.82 175.116 125.835C174.98 125.851 174.843 125.859 174.706 125.859C174.316 125.859 174.031 125.757 173.851 125.554C173.675 125.347 173.575 125.025 173.552 124.587H173.517C173.247 125.072 172.933 125.415 172.573 125.618C172.218 125.818 171.784 125.917 171.273 125.917ZM173.517 122.671L172.363 122.695C171.87 122.698 171.495 122.749 171.238 122.847C170.98 122.941 170.782 123.085 170.646 123.281C170.509 123.476 170.441 123.732 170.441 124.048C170.441 124.392 170.532 124.657 170.716 124.845C170.904 125.032 171.169 125.126 171.513 125.126C171.904 125.126 172.247 125.038 172.544 124.863C172.845 124.687 173.081 124.447 173.253 124.142C173.429 123.833 173.517 123.517 173.517 123.193V122.671Z" fill="#CAD5E2"/>
<path d="M108.97 138.111C108.97 138.982 108.71 139.667 108.191 140.167C107.675 140.667 106.958 140.917 106.04 140.917C105.271 140.917 104.65 140.749 104.177 140.413C103.704 140.077 103.406 139.591 103.281 138.954L104.347 138.831C104.46 139.238 104.659 139.544 104.945 139.751C105.23 139.954 105.603 140.056 106.064 140.056C106.63 140.056 107.073 139.886 107.394 139.546C107.714 139.202 107.874 138.732 107.874 138.134C107.874 137.615 107.712 137.195 107.388 136.874C107.068 136.554 106.634 136.394 106.087 136.394C105.802 136.394 105.536 136.439 105.29 136.529C105.044 136.618 104.798 136.771 104.552 136.986H103.521L103.796 132.544H108.49V133.441H104.757L104.599 136.06C105.056 135.708 105.624 135.532 106.304 135.532C106.847 135.532 107.318 135.642 107.716 135.861C108.115 136.075 108.423 136.376 108.642 136.763C108.861 137.15 108.97 137.599 108.97 138.111ZM115.55 139.904V140.8H110.083V140.056C110.282 139.599 110.523 139.195 110.804 138.843C111.089 138.491 111.392 138.175 111.712 137.894C112.032 137.613 112.349 137.351 112.661 137.109C112.818 136.988 112.964 136.866 113.101 136.745C113.241 136.624 113.374 136.503 113.499 136.382C113.749 136.14 113.95 135.886 114.103 135.62C114.259 135.355 114.337 135.054 114.337 134.718C114.337 134.265 114.204 133.913 113.939 133.663C113.673 133.413 113.304 133.288 112.831 133.288C112.382 133.288 112.011 133.411 111.718 133.657C111.429 133.9 111.259 134.241 111.208 134.683L110.13 134.583C110.208 133.923 110.488 133.398 110.968 133.007C111.452 132.616 112.073 132.421 112.831 132.421C113.663 132.421 114.302 132.618 114.747 133.013C115.197 133.404 115.421 133.96 115.421 134.683C115.421 135.003 115.347 135.322 115.198 135.638C115.054 135.954 114.837 136.271 114.548 136.587C114.404 136.743 114.193 136.945 113.915 137.191C113.638 137.437 113.296 137.726 112.89 138.058C112.441 138.425 112.083 138.757 111.818 139.054C111.552 139.347 111.361 139.63 111.243 139.904H115.55ZM125.669 137.624C125.669 138.734 125.425 139.56 124.937 140.103C124.448 140.646 123.74 140.917 122.81 140.917C121.884 140.917 121.185 140.636 120.712 140.073C120.24 139.507 120.003 138.691 120.003 137.624C120.003 136.531 120.24 135.71 120.712 135.163C121.189 134.616 121.9 134.343 122.845 134.343C123.814 134.343 124.527 134.611 124.984 135.146C125.441 135.677 125.669 136.503 125.669 137.624ZM124.562 137.624C124.562 136.749 124.431 136.115 124.169 135.72C123.911 135.322 123.476 135.122 122.863 135.122C122.245 135.122 121.798 135.325 121.521 135.732C121.247 136.134 121.111 136.765 121.111 137.624C121.111 138.46 121.245 139.089 121.515 139.511C121.788 139.929 122.216 140.138 122.798 140.138C123.431 140.138 123.882 139.935 124.152 139.529C124.425 139.122 124.562 138.488 124.562 137.624ZM128.066 137.495V140.8H127.011V135.937C127.011 135.714 127.007 135.48 126.999 135.234C126.995 134.988 126.988 134.73 126.976 134.46H127.972C127.98 134.64 127.986 134.802 127.99 134.947C127.997 135.091 128.003 135.218 128.007 135.327C128.011 135.433 128.013 135.523 128.013 135.597C128.017 135.667 128.019 135.72 128.019 135.755H128.042C128.159 135.372 128.288 135.075 128.429 134.865C128.566 134.669 128.722 134.534 128.898 134.46C129.073 134.382 129.29 134.343 129.548 134.343C129.693 134.343 129.835 134.363 129.976 134.402V135.368C129.843 135.329 129.656 135.31 129.413 135.31C128.976 135.31 128.642 135.499 128.411 135.878C128.181 136.253 128.066 136.792 128.066 137.495ZM135.068 140.8C135.06 140.757 135.05 140.677 135.038 140.56C135.031 140.439 135.023 140.306 135.015 140.161C135.011 140.017 135.009 139.89 135.009 139.781H134.986C134.79 140.187 134.531 140.478 134.206 140.654C133.886 140.829 133.488 140.917 133.011 140.917C132.21 140.917 131.62 140.648 131.241 140.109C130.866 139.57 130.679 138.753 130.679 137.659C130.679 136.554 130.872 135.726 131.259 135.175C131.65 134.62 132.234 134.343 133.011 134.343C133.491 134.343 133.892 134.431 134.212 134.607C134.532 134.782 134.79 135.062 134.986 135.445H134.997L134.986 134.736V132.105H136.04V139.493C136.04 139.825 136.042 140.101 136.046 140.32C136.054 140.534 136.064 140.695 136.075 140.8H135.068ZM131.786 137.624C131.786 138.511 131.904 139.146 132.138 139.529C132.372 139.911 132.753 140.103 133.281 140.103C133.878 140.103 134.312 139.896 134.581 139.482C134.851 139.068 134.986 138.425 134.986 137.554C134.986 136.714 134.851 136.099 134.581 135.708C134.312 135.318 133.882 135.122 133.292 135.122C132.761 135.122 132.376 135.32 132.138 135.714C131.904 136.105 131.786 136.741 131.786 137.624ZM138.472 137.853C138.472 138.579 138.622 139.14 138.923 139.534C139.224 139.929 139.663 140.126 140.241 140.126C140.698 140.126 141.064 140.034 141.337 139.851C141.615 139.667 141.802 139.435 141.9 139.154L142.825 139.417C142.447 140.417 141.585 140.917 140.241 140.917C139.304 140.917 138.589 140.638 138.097 140.079C137.609 139.521 137.365 138.691 137.365 137.589C137.365 136.542 137.609 135.74 138.097 135.181C138.589 134.622 139.29 134.343 140.2 134.343C141.134 134.343 141.833 134.624 142.298 135.187C142.763 135.749 142.995 136.591 142.995 137.712V137.853H138.472ZM141.906 137.044C141.847 136.376 141.677 135.89 141.396 135.585C141.115 135.277 140.71 135.122 140.183 135.122C139.671 135.122 139.265 135.294 138.964 135.638C138.667 135.978 138.507 136.447 138.484 137.044H141.906ZM145.421 137.495V140.8H144.366V135.937C144.366 135.714 144.363 135.48 144.355 135.234C144.351 134.988 144.343 134.73 144.331 134.46H145.327C145.335 134.64 145.341 134.802 145.345 134.947C145.353 135.091 145.359 135.218 145.363 135.327C145.366 135.433 145.368 135.523 145.368 135.597C145.372 135.667 145.374 135.72 145.374 135.755H145.398C145.515 135.372 145.644 135.075 145.784 134.865C145.921 134.669 146.077 134.534 146.253 134.46C146.429 134.382 146.646 134.343 146.904 134.343C147.048 134.343 147.191 134.363 147.331 134.402V135.368C147.198 135.329 147.011 135.31 146.769 135.31C146.331 135.31 145.997 135.499 145.767 135.878C145.536 136.253 145.421 136.792 145.421 137.495ZM153.097 139.048C153.097 139.646 152.87 140.107 152.417 140.431C151.968 140.755 151.337 140.917 150.525 140.917C149.736 140.917 149.126 140.788 148.697 140.531C148.271 140.269 147.993 139.863 147.865 139.312L148.796 139.13C148.886 139.47 149.072 139.72 149.353 139.88C149.634 140.036 150.025 140.115 150.525 140.115C151.06 140.115 151.45 140.032 151.697 139.868C151.947 139.704 152.072 139.458 152.072 139.13C152.072 138.88 151.986 138.677 151.814 138.521C151.642 138.365 151.365 138.236 150.982 138.134C150.529 138.013 150.167 137.913 149.898 137.835C149.632 137.757 149.427 137.691 149.282 137.636C149.138 137.577 149.023 137.523 148.937 137.472C148.679 137.323 148.478 137.142 148.333 136.927C148.189 136.712 148.116 136.448 148.116 136.136C148.116 135.558 148.322 135.118 148.732 134.818C149.146 134.513 149.747 134.361 150.536 134.361C151.236 134.361 151.79 134.484 152.2 134.73C152.615 134.976 152.876 135.37 152.986 135.913L152.036 136.031C151.978 135.749 151.82 135.534 151.562 135.386C151.308 135.234 150.966 135.157 150.536 135.157C150.06 135.157 149.708 135.23 149.482 135.374C149.255 135.519 149.142 135.738 149.142 136.031C149.142 136.245 149.206 136.423 149.335 136.564C149.464 136.7 149.71 136.814 150.073 136.904C150.562 137.021 151.027 137.15 151.468 137.29C151.909 137.427 152.226 137.564 152.417 137.7C152.64 137.861 152.808 138.05 152.921 138.269C153.038 138.484 153.097 138.743 153.097 139.048Z" fill="#62748E"/>
<path d="M227.266 129.601L229.768 133.6H228.339L225.865 129.389V128.774H226.172C226.956 128.774 227.537 128.662 227.916 128.439C228.294 128.211 228.515 127.821 228.579 127.27H225.865V126.402H228.565C228.456 125.841 228.223 125.44 227.868 125.199C227.517 124.957 227.015 124.836 226.364 124.836H225.865V123.968H231.662V124.836H229.016C229.454 125.187 229.718 125.709 229.809 126.402H231.662V127.27H229.836C229.704 128.596 228.847 129.373 227.266 129.601ZM239.831 130.941C239.831 131.83 239.548 132.518 238.983 133.005C238.418 133.493 237.611 133.737 236.563 133.737C235.588 133.737 234.808 133.518 234.225 133.081C233.646 132.639 233.302 131.987 233.193 131.125L234.464 131.009C234.628 132.149 235.328 132.718 236.563 132.718C237.183 132.718 237.668 132.566 238.019 132.26C238.375 131.955 238.552 131.501 238.552 130.9C238.552 130.376 238.349 129.968 237.944 129.676C237.543 129.38 236.962 129.232 236.201 129.232H235.503V128.166H236.173C236.848 128.166 237.37 128.02 237.739 127.728C238.112 127.432 238.299 127.024 238.299 126.504C238.299 125.989 238.147 125.584 237.841 125.288C237.541 124.987 237.092 124.836 236.495 124.836C235.952 124.836 235.513 124.975 235.175 125.253C234.843 125.531 234.649 125.923 234.594 126.429L233.357 126.333C233.448 125.545 233.774 124.93 234.334 124.488C234.9 124.046 235.624 123.825 236.508 123.825C237.474 123.825 238.224 124.05 238.757 124.501C239.295 124.948 239.564 125.572 239.564 126.375C239.564 126.99 239.391 127.491 239.044 127.878C238.703 128.261 238.204 128.521 237.547 128.658V128.685C238.267 128.763 238.828 129.004 239.229 129.41C239.63 129.815 239.831 130.326 239.831 130.941ZM247.555 132.554V133.6H241.519V132.554H243.973V125.144L241.799 126.696V125.534L244.076 123.968H245.21V132.554H247.555ZM250.877 133.251C250.877 133.735 250.834 134.138 250.748 134.461C250.661 134.785 250.527 135.095 250.344 135.391H249.503C249.718 135.081 249.877 134.776 249.982 134.475C250.091 134.179 250.146 133.887 250.146 133.6H249.544V132.103H250.877V133.251ZM259.224 132.554V133.6H252.846V132.732C253.079 132.199 253.359 131.727 253.687 131.317C254.02 130.907 254.373 130.538 254.747 130.209C255.12 129.881 255.489 129.576 255.854 129.293C256.036 129.152 256.207 129.011 256.367 128.87C256.531 128.728 256.686 128.587 256.832 128.446C257.123 128.163 257.358 127.867 257.536 127.557C257.718 127.247 257.809 126.896 257.809 126.504C257.809 125.976 257.654 125.566 257.344 125.274C257.034 124.982 256.604 124.836 256.052 124.836C255.528 124.836 255.095 124.98 254.753 125.267C254.416 125.55 254.218 125.948 254.159 126.463L252.901 126.347C252.992 125.577 253.318 124.964 253.878 124.508C254.444 124.053 255.168 123.825 256.052 123.825C257.023 123.825 257.768 124.055 258.288 124.515C258.812 124.971 259.074 125.62 259.074 126.463C259.074 126.837 258.987 127.208 258.814 127.578C258.645 127.947 258.392 128.316 258.055 128.685C257.887 128.867 257.64 129.102 257.317 129.389C256.993 129.676 256.595 130.014 256.121 130.401C255.597 130.829 255.18 131.217 254.87 131.563C254.56 131.905 254.336 132.235 254.2 132.554H259.224ZM267.174 128.781C267.174 130.389 266.889 131.618 266.32 132.465C265.755 133.313 264.918 133.737 263.811 133.737C262.704 133.737 261.872 133.315 261.316 132.472C260.76 131.629 260.482 130.399 260.482 128.781C260.482 127.126 260.751 125.887 261.289 125.062C261.831 124.237 262.685 123.825 263.852 123.825C264.987 123.825 265.823 124.242 266.361 125.076C266.903 125.91 267.174 127.145 267.174 128.781ZM265.923 128.781C265.923 127.851 265.853 127.097 265.711 126.518C265.575 125.935 265.354 125.506 265.048 125.233C264.743 124.959 264.344 124.823 263.852 124.823C263.351 124.823 262.943 124.957 262.628 125.226C262.314 125.495 262.084 125.921 261.938 126.504C261.797 127.083 261.726 127.842 261.726 128.781C261.726 129.692 261.799 130.44 261.945 131.023C262.095 131.606 262.325 132.037 262.635 132.315C262.945 132.593 263.342 132.732 263.825 132.732C264.549 132.732 265.08 132.408 265.417 131.761C265.755 131.114 265.923 130.121 265.923 128.781ZM274.967 128.781C274.967 130.389 274.682 131.618 274.113 132.465C273.548 133.313 272.711 133.737 271.604 133.737C270.497 133.737 269.665 133.315 269.109 132.472C268.553 131.629 268.275 130.399 268.275 128.781C268.275 127.126 268.544 125.887 269.082 125.062C269.624 124.237 270.478 123.825 271.645 123.825C272.78 123.825 273.616 124.242 274.154 125.076C274.696 125.91 274.967 127.145 274.967 128.781ZM273.716 128.781C273.716 127.851 273.646 127.097 273.504 126.518C273.368 125.935 273.147 125.506 272.841 125.233C272.536 124.959 272.137 124.823 271.645 124.823C271.144 124.823 270.736 124.957 270.421 125.226C270.107 125.495 269.877 125.921 269.731 126.504C269.59 127.083 269.519 127.842 269.519 128.781C269.519 129.692 269.592 130.44 269.738 131.023C269.888 131.606 270.118 132.037 270.428 132.315C270.738 132.593 271.135 132.732 271.618 132.732C272.342 132.732 272.873 132.408 273.21 131.761C273.548 131.114 273.716 130.121 273.716 128.781Z" fill="#05DF72"/>
<path d="M58.8 157.8H90.8V189.8H58.8V157.8Z" fill="url(#paint3_linear_1105_1664)"/>
<path d="M68.4329 175.386L67.4836 177.8H66.3235L69.6926 169.544H70.9641L74.2805 177.8H73.1379L72.1946 175.386H68.4329ZM70.3137 170.388C70.2473 170.607 70.1672 170.851 70.0735 171.12C69.9836 171.386 69.8997 171.62 69.8215 171.823L68.7727 174.513H71.8606L70.8 171.788C70.7454 171.652 70.6731 171.458 70.5833 171.208C70.4934 170.958 70.4036 170.685 70.3137 170.388ZM81.7571 175.521C81.7571 176.282 81.4583 176.872 80.8606 177.29C80.2668 177.708 79.429 177.917 78.3469 177.917C76.3352 177.917 75.1692 177.218 74.8489 175.82L75.9329 175.603C76.0579 176.099 76.3235 176.464 76.7297 176.698C77.136 176.929 77.6887 177.044 78.3879 177.044C79.1106 177.044 79.6672 176.921 80.0579 176.675C80.4524 176.425 80.6497 176.06 80.6497 175.579C80.6497 175.31 80.5872 175.091 80.4622 174.923C80.3411 174.755 80.1692 174.616 79.9465 174.507C79.7239 174.398 79.4583 174.306 79.1497 174.232C78.8411 174.157 78.4993 174.077 78.1243 173.991C77.6907 173.894 77.3274 173.798 77.0344 173.704C76.7454 173.611 76.5071 173.513 76.3196 173.411C76.1321 173.306 75.9719 173.195 75.8391 173.077C75.6438 172.898 75.4934 172.689 75.3879 172.45C75.2864 172.212 75.2356 171.939 75.2356 171.63C75.2356 170.923 75.5051 170.378 76.0442 169.995C76.5872 169.613 77.3625 169.421 78.3704 169.421C79.3079 169.421 80.0247 169.566 80.5208 169.855C81.0168 170.14 81.3645 170.628 81.5637 171.32L80.4622 171.513C80.3411 171.075 80.1106 170.759 79.7708 170.564C79.4309 170.365 78.9602 170.265 78.3586 170.265C77.6985 170.265 77.1946 170.374 76.8469 170.593C76.4993 170.812 76.3254 171.138 76.3254 171.572C76.3254 171.825 76.3918 172.036 76.5247 172.204C76.6614 172.368 76.8567 172.507 77.1106 172.62C77.3489 172.734 77.8547 172.876 78.6282 173.048C78.9446 173.122 79.2571 173.2 79.5657 173.282C79.8743 173.361 80.1653 173.46 80.4387 173.581C80.5989 173.648 80.7512 173.73 80.8958 173.827C81.0442 173.921 81.1731 174.031 81.2825 174.156C81.4309 174.32 81.5461 174.513 81.6282 174.736C81.7141 174.958 81.7571 175.22 81.7571 175.521Z" fill="white"/>
<path d="M104.933 167.386L103.984 169.8H102.823L106.193 161.544H107.464L110.781 169.8H109.638L108.695 167.386H104.933ZM106.814 162.388C106.747 162.607 106.667 162.851 106.573 163.12C106.484 163.386 106.4 163.62 106.322 163.823L105.273 166.513H108.361L107.3 163.788C107.245 163.652 107.173 163.458 107.083 163.208C106.993 162.958 106.904 162.685 106.814 162.388ZM112.685 166.126V169.8H111.636V164.814C111.636 164.443 111.632 164.146 111.624 163.923C111.62 163.697 111.613 163.542 111.601 163.46H112.597C112.605 163.546 112.613 163.652 112.62 163.777C112.628 163.902 112.634 164.032 112.638 164.169C112.642 164.302 112.644 164.427 112.644 164.544H112.661C112.888 164.095 113.148 163.782 113.441 163.607C113.734 163.431 114.091 163.343 114.513 163.343C114.993 163.343 115.372 163.439 115.65 163.63C115.931 163.822 116.126 164.126 116.236 164.544H116.253C116.472 164.118 116.736 163.812 117.044 163.624C117.357 163.437 117.734 163.343 118.175 163.343C118.816 163.343 119.281 163.517 119.57 163.865C119.863 164.212 120.009 164.782 120.009 165.575V169.8H118.966V165.781C118.966 165.167 118.882 164.743 118.714 164.509C118.546 164.275 118.243 164.157 117.806 164.157C117.345 164.157 116.986 164.329 116.728 164.673C116.474 165.013 116.347 165.497 116.347 166.126V169.8H115.304V165.781C115.304 165.167 115.22 164.743 115.052 164.509C114.884 164.275 114.581 164.157 114.144 164.157C113.695 164.157 113.339 164.329 113.077 164.673C112.816 165.017 112.685 165.501 112.685 166.126ZM122.657 161.105V162.113H121.603V161.105H122.657ZM122.657 163.46V169.8H121.603V163.46H122.657ZM126.718 169.753C126.374 169.847 126.019 169.894 125.652 169.894C125.23 169.894 124.913 169.775 124.702 169.536C124.491 169.294 124.386 168.935 124.386 168.458V164.228H123.654V163.46H124.427L124.738 162.042H125.441V163.46H126.613V164.228H125.441V168.23C125.441 168.534 125.49 168.749 125.587 168.874C125.689 168.995 125.863 169.056 126.109 169.056C126.241 169.056 126.445 169.029 126.718 168.974V169.753ZM137.605 167.521C137.605 168.282 137.306 168.872 136.708 169.29C136.115 169.708 135.277 169.917 134.195 169.917C132.183 169.917 131.017 169.218 130.697 167.82L131.781 167.603C131.906 168.099 132.171 168.464 132.577 168.698C132.984 168.929 133.536 169.044 134.236 169.044C134.958 169.044 135.515 168.921 135.906 168.675C136.3 168.425 136.497 168.06 136.497 167.579C136.497 167.31 136.435 167.091 136.31 166.923C136.189 166.755 136.017 166.616 135.794 166.507C135.572 166.398 135.306 166.306 134.997 166.232C134.689 166.157 134.347 166.077 133.972 165.991C133.538 165.894 133.175 165.798 132.882 165.704C132.593 165.611 132.355 165.513 132.167 165.411C131.98 165.306 131.82 165.195 131.687 165.077C131.491 164.898 131.341 164.689 131.236 164.45C131.134 164.212 131.083 163.939 131.083 163.63C131.083 162.923 131.353 162.378 131.892 161.995C132.435 161.613 133.21 161.421 134.218 161.421C135.156 161.421 135.872 161.566 136.368 161.855C136.865 162.14 137.212 162.628 137.411 163.32L136.31 163.513C136.189 163.075 135.958 162.759 135.618 162.564C135.279 162.365 134.808 162.265 134.206 162.265C133.546 162.265 133.042 162.374 132.695 162.593C132.347 162.812 132.173 163.138 132.173 163.572C132.173 163.825 132.24 164.036 132.372 164.204C132.509 164.368 132.704 164.507 132.958 164.62C133.197 164.734 133.702 164.876 134.476 165.048C134.792 165.122 135.105 165.2 135.413 165.282C135.722 165.361 136.013 165.46 136.286 165.581C136.447 165.648 136.599 165.73 136.743 165.827C136.892 165.921 137.021 166.031 137.13 166.156C137.279 166.32 137.394 166.513 137.476 166.736C137.562 166.958 137.605 167.22 137.605 167.521ZM140.013 161.105V162.113H138.958V161.105H140.013ZM140.013 163.46V169.8H138.958V163.46H140.013ZM142.714 166.126V169.8H141.659V164.814C141.659 164.443 141.656 164.146 141.648 163.923C141.644 163.697 141.636 163.542 141.624 163.46H142.62C142.628 163.534 142.634 163.628 142.638 163.741C142.646 163.855 142.652 163.98 142.656 164.116C142.659 164.253 142.663 164.396 142.667 164.544H142.685C142.927 164.107 143.206 163.798 143.523 163.618C143.843 163.435 144.24 163.343 144.712 163.343C145.407 163.343 145.915 163.521 146.236 163.876C146.56 164.232 146.722 164.798 146.722 165.575V169.8H145.661V165.781C145.661 165.175 145.564 164.753 145.368 164.515C145.173 164.277 144.835 164.157 144.355 164.157C143.847 164.157 143.447 164.331 143.154 164.679C142.861 165.027 142.714 165.509 142.714 166.126ZM150.718 172.29C150.027 172.29 149.476 172.154 149.066 171.88C148.656 171.611 148.392 171.226 148.275 170.726L149.335 170.573C149.406 170.866 149.56 171.091 149.798 171.247C150.04 171.407 150.357 171.488 150.747 171.488C151.271 171.488 151.663 171.333 151.925 171.025C152.191 170.716 152.323 170.255 152.323 169.642V168.622H152.312C152.113 169.029 151.839 169.335 151.491 169.542C151.144 169.745 150.738 169.847 150.273 169.847C149.495 169.847 148.923 169.589 148.556 169.073C148.193 168.558 148.011 167.747 148.011 166.642C148.011 165.521 148.206 164.695 148.597 164.163C148.991 163.628 149.589 163.361 150.39 163.361C150.839 163.361 151.228 163.464 151.556 163.671C151.888 163.874 152.144 164.165 152.323 164.544H152.335C152.335 164.466 152.339 164.345 152.347 164.181C152.355 164.013 152.365 163.855 152.376 163.706C152.388 163.558 152.398 163.476 152.406 163.46H153.407C153.384 163.671 153.372 164.109 153.372 164.773V169.618C153.372 170.509 153.152 171.177 152.71 171.622C152.269 172.068 151.605 172.29 150.718 172.29ZM152.323 166.63C152.323 165.861 152.165 165.255 151.849 164.814C151.536 164.368 151.136 164.146 150.648 164.146C150.109 164.146 149.716 164.341 149.47 164.732C149.224 165.122 149.101 165.755 149.101 166.63C149.101 167.497 149.216 168.12 149.447 168.499C149.677 168.878 150.072 169.068 150.63 169.068C151.13 169.068 151.536 168.851 151.849 168.417C152.165 167.98 152.323 167.384 152.323 166.63ZM156.044 164.544C156.271 164.13 156.542 163.827 156.859 163.636C157.179 163.441 157.583 163.343 158.072 163.343C158.759 163.343 159.265 163.523 159.589 163.882C159.917 164.238 160.081 164.802 160.081 165.575V169.8H159.021V165.781C159.021 165.206 158.919 164.792 158.716 164.538C158.517 164.284 158.183 164.157 157.714 164.157C157.218 164.157 156.82 164.329 156.519 164.673C156.222 165.017 156.073 165.48 156.073 166.062V169.8H155.019V161.105H156.073V163.366C156.073 163.523 156.07 163.689 156.062 163.865C156.054 164.036 156.046 164.187 156.038 164.316C156.034 164.441 156.031 164.517 156.027 164.544H156.044Z" fill="#CAD5E2"/>
<path d="M108.947 182.521C108.947 183.282 108.704 183.872 108.22 184.29C107.736 184.708 107.044 184.917 106.146 184.917C105.31 184.917 104.642 184.73 104.142 184.355C103.646 183.976 103.351 183.417 103.257 182.679L104.347 182.579C104.488 183.556 105.087 184.044 106.146 184.044C106.677 184.044 107.093 183.913 107.394 183.652C107.698 183.39 107.851 183.001 107.851 182.486C107.851 182.036 107.677 181.687 107.329 181.437C106.986 181.183 106.488 181.056 105.835 181.056H105.238V180.142H105.812C106.39 180.142 106.837 180.017 107.154 179.767C107.474 179.513 107.634 179.163 107.634 178.718C107.634 178.277 107.503 177.929 107.241 177.675C106.984 177.417 106.599 177.288 106.087 177.288C105.622 177.288 105.245 177.407 104.956 177.646C104.671 177.884 104.505 178.22 104.458 178.654L103.398 178.572C103.476 177.896 103.755 177.368 104.236 176.99C104.72 176.611 105.341 176.421 106.099 176.421C106.927 176.421 107.57 176.615 108.027 177.001C108.488 177.384 108.718 177.919 108.718 178.607C108.718 179.134 108.57 179.564 108.273 179.896C107.98 180.224 107.552 180.447 106.99 180.564V180.587C107.607 180.654 108.087 180.861 108.431 181.208C108.775 181.556 108.947 181.993 108.947 182.521ZM115.632 182.497C115.632 183.259 115.39 183.853 114.906 184.279C114.421 184.704 113.726 184.917 112.82 184.917C111.937 184.917 111.245 184.708 110.745 184.29C110.249 183.872 110.001 183.279 110.001 182.509C110.001 181.97 110.156 181.517 110.464 181.15C110.773 180.782 111.167 180.56 111.648 180.482V180.458C111.198 180.353 110.843 180.124 110.581 179.773C110.323 179.421 110.195 179.009 110.195 178.536C110.195 177.907 110.429 177.398 110.898 177.007C111.37 176.616 112.003 176.421 112.796 176.421C113.609 176.421 114.249 176.613 114.718 176.995C115.191 177.378 115.427 177.896 115.427 178.548C115.427 179.021 115.296 179.433 115.034 179.784C114.773 180.136 114.415 180.357 113.962 180.447V180.47C114.49 180.556 114.9 180.781 115.193 181.144C115.486 181.503 115.632 181.954 115.632 182.497ZM114.331 178.607C114.331 177.673 113.82 177.206 112.796 177.206C111.781 177.206 111.273 177.673 111.273 178.607C111.273 179.079 111.406 179.441 111.671 179.691C111.941 179.937 112.32 180.06 112.808 180.06C113.304 180.06 113.681 179.947 113.939 179.72C114.2 179.49 114.331 179.118 114.331 178.607ZM114.536 182.398C114.536 181.886 114.384 181.501 114.079 181.243C113.775 180.982 113.347 180.851 112.796 180.851C112.261 180.851 111.843 180.991 111.542 181.273C111.241 181.55 111.091 181.933 111.091 182.421C111.091 182.988 111.236 183.413 111.525 183.698C111.818 183.984 112.253 184.126 112.831 184.126C113.406 184.126 113.833 183.99 114.115 183.716C114.396 183.439 114.536 182.999 114.536 182.398ZM125.669 181.624C125.669 182.734 125.425 183.56 124.937 184.103C124.448 184.646 123.74 184.917 122.81 184.917C121.884 184.917 121.185 184.636 120.712 184.073C120.24 183.507 120.003 182.691 120.003 181.624C120.003 180.531 120.24 179.71 120.712 179.163C121.189 178.616 121.9 178.343 122.845 178.343C123.814 178.343 124.527 178.611 124.984 179.146C125.441 179.677 125.669 180.503 125.669 181.624ZM124.562 181.624C124.562 180.749 124.431 180.115 124.169 179.72C123.911 179.322 123.476 179.122 122.863 179.122C122.245 179.122 121.798 179.325 121.521 179.732C121.247 180.134 121.111 180.765 121.111 181.624C121.111 182.46 121.245 183.089 121.515 183.511C121.788 183.929 122.216 184.138 122.798 184.138C123.431 184.138 123.882 183.935 124.152 183.529C124.425 183.122 124.562 182.488 124.562 181.624ZM128.066 181.495V184.8H127.011V179.937C127.011 179.714 127.007 179.48 126.999 179.234C126.995 178.988 126.988 178.73 126.976 178.46H127.972C127.98 178.64 127.986 178.802 127.99 178.947C127.997 179.091 128.003 179.218 128.007 179.327C128.011 179.433 128.013 179.523 128.013 179.597C128.017 179.667 128.019 179.72 128.019 179.755H128.042C128.159 179.372 128.288 179.075 128.429 178.865C128.566 178.669 128.722 178.534 128.898 178.46C129.073 178.382 129.29 178.343 129.548 178.343C129.693 178.343 129.835 178.363 129.976 178.402V179.368C129.843 179.329 129.656 179.31 129.413 179.31C128.976 179.31 128.642 179.499 128.411 179.878C128.181 180.253 128.066 180.792 128.066 181.495ZM135.068 184.8C135.06 184.757 135.05 184.677 135.038 184.56C135.031 184.439 135.023 184.306 135.015 184.161C135.011 184.017 135.009 183.89 135.009 183.781H134.986C134.79 184.187 134.531 184.478 134.206 184.654C133.886 184.829 133.488 184.917 133.011 184.917C132.21 184.917 131.62 184.648 131.241 184.109C130.866 183.57 130.679 182.753 130.679 181.659C130.679 180.554 130.872 179.726 131.259 179.175C131.65 178.62 132.234 178.343 133.011 178.343C133.491 178.343 133.892 178.431 134.212 178.607C134.532 178.782 134.79 179.062 134.986 179.445H134.997L134.986 178.736V176.105H136.04V183.493C136.04 183.825 136.042 184.101 136.046 184.32C136.054 184.534 136.064 184.695 136.075 184.8H135.068ZM131.786 181.624C131.786 182.511 131.904 183.146 132.138 183.529C132.372 183.911 132.753 184.103 133.281 184.103C133.878 184.103 134.312 183.896 134.581 183.482C134.851 183.068 134.986 182.425 134.986 181.554C134.986 180.714 134.851 180.099 134.581 179.708C134.312 179.318 133.882 179.122 133.292 179.122C132.761 179.122 132.376 179.32 132.138 179.714C131.904 180.105 131.786 180.741 131.786 181.624ZM138.472 181.853C138.472 182.579 138.622 183.14 138.923 183.534C139.224 183.929 139.663 184.126 140.241 184.126C140.698 184.126 141.064 184.034 141.337 183.851C141.615 183.667 141.802 183.435 141.9 183.154L142.825 183.417C142.447 184.417 141.585 184.917 140.241 184.917C139.304 184.917 138.589 184.638 138.097 184.079C137.609 183.521 137.365 182.691 137.365 181.589C137.365 180.542 137.609 179.74 138.097 179.181C138.589 178.622 139.29 178.343 140.2 178.343C141.134 178.343 141.833 178.624 142.298 179.187C142.763 179.749 142.995 180.591 142.995 181.712V181.853H138.472ZM141.906 181.044C141.847 180.376 141.677 179.89 141.396 179.585C141.115 179.277 140.71 179.122 140.183 179.122C139.671 179.122 139.265 179.294 138.964 179.638C138.667 179.978 138.507 180.447 138.484 181.044H141.906ZM145.421 181.495V184.8H144.366V179.937C144.366 179.714 144.363 179.48 144.355 179.234C144.351 178.988 144.343 178.73 144.331 178.46H145.327C145.335 178.64 145.341 178.802 145.345 178.947C145.353 179.091 145.359 179.218 145.363 179.327C145.366 179.433 145.368 179.523 145.368 179.597C145.372 179.667 145.374 179.72 145.374 179.755H145.398C145.515 179.372 145.644 179.075 145.784 178.865C145.921 178.669 146.077 178.534 146.253 178.46C146.429 178.382 146.646 178.343 146.904 178.343C147.048 178.343 147.191 178.363 147.331 178.402V179.368C147.198 179.329 147.011 179.31 146.769 179.31C146.331 179.31 145.997 179.499 145.767 179.878C145.536 180.253 145.421 180.792 145.421 181.495ZM153.097 183.048C153.097 183.646 152.87 184.107 152.417 184.431C151.968 184.755 151.337 184.917 150.525 184.917C149.736 184.917 149.126 184.788 148.697 184.531C148.271 184.269 147.993 183.863 147.865 183.312L148.796 183.13C148.886 183.47 149.072 183.72 149.353 183.88C149.634 184.036 150.025 184.115 150.525 184.115C151.06 184.115 151.45 184.032 151.697 183.868C151.947 183.704 152.072 183.458 152.072 183.13C152.072 182.88 151.986 182.677 151.814 182.521C151.642 182.365 151.365 182.236 150.982 182.134C150.529 182.013 150.167 181.913 149.898 181.835C149.632 181.757 149.427 181.691 149.282 181.636C149.138 181.577 149.023 181.523 148.937 181.472C148.679 181.323 148.478 181.142 148.333 180.927C148.189 180.712 148.116 180.448 148.116 180.136C148.116 179.558 148.322 179.118 148.732 178.818C149.146 178.513 149.747 178.361 150.536 178.361C151.236 178.361 151.79 178.484 152.2 178.73C152.615 178.976 152.876 179.37 152.986 179.913L152.036 180.031C151.978 179.749 151.82 179.534 151.562 179.386C151.308 179.234 150.966 179.157 150.536 179.157C150.06 179.157 149.708 179.23 149.482 179.374C149.255 179.519 149.142 179.738 149.142 180.031C149.142 180.245 149.206 180.423 149.335 180.564C149.464 180.7 149.71 180.814 150.073 180.904C150.562 181.021 151.027 181.15 151.468 181.29C151.909 181.427 152.226 181.564 152.417 181.7C152.64 181.861 152.808 182.05 152.921 182.269C153.038 182.484 153.097 182.743 153.097 183.048Z" fill="#62748E"/>
<path d="M227.266 173.601L229.768 177.6H228.339L225.865 173.389V172.774H226.172C226.956 172.774 227.537 172.662 227.916 172.439C228.294 172.211 228.515 171.821 228.579 171.27H225.865V170.402H228.565C228.456 169.841 228.223 169.44 227.868 169.199C227.517 168.957 227.015 168.836 226.364 168.836H225.865V167.968H231.662V168.836H229.016C229.454 169.187 229.718 169.709 229.809 170.402H231.662V171.27H229.836C229.704 172.596 228.847 173.373 227.266 173.601ZM239.742 176.554V177.6H233.364V176.732C233.596 176.199 233.876 175.727 234.205 175.317C234.537 174.907 234.89 174.538 235.264 174.209C235.638 173.881 236.007 173.576 236.372 173.293C236.554 173.152 236.725 173.011 236.884 172.87C237.048 172.728 237.203 172.587 237.349 172.446C237.641 172.163 237.875 171.867 238.053 171.557C238.236 171.247 238.327 170.896 238.327 170.504C238.327 169.976 238.172 169.566 237.862 169.274C237.552 168.982 237.121 168.836 236.57 168.836C236.046 168.836 235.613 168.98 235.271 169.267C234.934 169.55 234.736 169.948 234.676 170.463L233.418 170.347C233.51 169.577 233.835 168.964 234.396 168.508C234.961 168.053 235.686 167.825 236.57 167.825C237.541 167.825 238.286 168.055 238.805 168.515C239.329 168.971 239.591 169.62 239.591 170.463C239.591 170.837 239.505 171.208 239.332 171.578C239.163 171.947 238.91 172.316 238.573 172.685C238.404 172.867 238.158 173.102 237.834 173.389C237.511 173.676 237.112 174.014 236.638 174.401C236.114 174.829 235.697 175.217 235.387 175.563C235.077 175.905 234.854 176.235 234.717 176.554H239.742ZM246.475 175.419V177.6H245.313V175.419H240.774V174.462L245.183 167.968H246.475V174.449H247.829V175.419H246.475ZM241.909 174.449H245.313V170.607C245.313 170.397 245.313 170.19 245.313 169.985C245.318 169.775 245.327 169.566 245.34 169.356C245.236 169.556 245.144 169.721 245.067 169.848C244.989 169.971 244.919 170.078 244.855 170.169L241.909 174.449ZM250.877 177.251C250.877 177.735 250.834 178.138 250.748 178.461C250.661 178.785 250.527 179.095 250.344 179.391H249.503C249.718 179.081 249.877 178.776 249.982 178.475C250.091 178.179 250.146 177.887 250.146 177.6H249.544V176.103H250.877V177.251ZM259.32 174.914C259.32 175.802 259.037 176.495 258.472 176.992C257.907 177.488 257.096 177.737 256.039 177.737C255.009 177.737 254.202 177.493 253.619 177.005C253.04 176.518 252.75 175.825 252.75 174.927C252.75 174.298 252.931 173.77 253.291 173.341C253.651 172.913 254.111 172.653 254.671 172.562V172.535C254.147 172.412 253.733 172.145 253.427 171.735C253.126 171.325 252.976 170.844 252.976 170.292C252.976 169.559 253.25 168.964 253.796 168.508C254.348 168.053 255.086 167.825 256.011 167.825C256.959 167.825 257.707 168.048 258.253 168.495C258.805 168.941 259.081 169.545 259.081 170.306C259.081 170.858 258.928 171.338 258.623 171.749C258.317 172.159 257.9 172.416 257.372 172.521V172.548C257.987 172.649 258.465 172.911 258.807 173.334C259.149 173.754 259.32 174.28 259.32 174.914ZM257.802 170.375C257.802 169.285 257.205 168.741 256.011 168.741C254.826 168.741 254.234 169.285 254.234 170.375C254.234 170.926 254.389 171.347 254.699 171.639C255.013 171.926 255.455 172.07 256.025 172.07C256.604 172.07 257.043 171.938 257.344 171.673C257.65 171.404 257.802 170.972 257.802 170.375ZM258.042 174.797C258.042 174.2 257.864 173.751 257.508 173.451C257.153 173.145 256.654 172.993 256.011 172.993C255.387 172.993 254.899 173.157 254.548 173.485C254.197 173.808 254.022 174.255 254.022 174.825C254.022 175.486 254.191 175.982 254.528 176.315C254.87 176.648 255.378 176.814 256.052 176.814C256.722 176.814 257.221 176.654 257.549 176.335C257.877 176.012 258.042 175.499 258.042 174.797ZM267.174 172.781C267.174 174.389 266.889 175.618 266.32 176.465C265.755 177.313 264.918 177.737 263.811 177.737C262.704 177.737 261.872 177.315 261.316 176.472C260.76 175.629 260.482 174.399 260.482 172.781C260.482 171.126 260.751 169.887 261.289 169.062C261.831 168.237 262.685 167.825 263.852 167.825C264.987 167.825 265.823 168.242 266.361 169.076C266.903 169.91 267.174 171.145 267.174 172.781ZM265.923 172.781C265.923 171.851 265.853 171.097 265.711 170.518C265.575 169.935 265.354 169.506 265.048 169.233C264.743 168.959 264.344 168.823 263.852 168.823C263.351 168.823 262.943 168.957 262.628 169.226C262.314 169.495 262.084 169.921 261.938 170.504C261.797 171.083 261.726 171.842 261.726 172.781C261.726 173.692 261.799 174.44 261.945 175.023C262.095 175.606 262.325 176.037 262.635 176.315C262.945 176.593 263.342 176.732 263.825 176.732C264.549 176.732 265.08 176.408 265.417 175.761C265.755 175.114 265.923 174.121 265.923 172.781ZM274.967 172.781C274.967 174.389 274.682 175.618 274.113 176.465C273.548 177.313 272.711 177.737 271.604 177.737C270.497 177.737 269.665 177.315 269.109 176.472C268.553 175.629 268.275 174.399 268.275 172.781C268.275 171.126 268.544 169.887 269.082 169.062C269.624 168.237 270.478 167.825 271.645 167.825C272.78 167.825 273.616 168.242 274.154 169.076C274.696 169.91 274.967 171.145 274.967 172.781ZM273.716 172.781C273.716 171.851 273.646 171.097 273.504 170.518C273.368 169.935 273.147 169.506 272.841 169.233C272.536 168.959 272.137 168.823 271.645 168.823C271.144 168.823 270.736 168.957 270.421 169.226C270.107 169.495 269.877 169.921 269.731 170.504C269.59 171.083 269.519 171.842 269.519 172.781C269.519 173.692 269.592 174.44 269.738 175.023C269.888 175.606 270.118 176.037 270.428 176.315C270.738 176.593 271.135 176.732 271.618 176.732C272.342 176.732 272.873 176.408 273.21 175.761C273.548 175.114 273.716 174.121 273.716 172.781Z" fill="#05DF72"/>
</g>
<defs>
<filter id="filter0_d_1105_1664" x="0" y="0" width="332" height="273.6" filterUnits="userSpaceOnUse" color-interpolation-filters="sRGB">
<feFlood flood-opacity="0" result="BackgroundImageFix"/>
<feColorMatrix in="SourceAlpha" type="matrix" values="0 0 0 0 0 0 0 0 0 0 0 0 0 0 0 0 0 0 127 0" result="hardAlpha"/>
<feMorphology radius="12" operator="erode" in="SourceAlpha" result="effect1_dropShadow_1105_1664"/>
<feOffset dy="25"/>
<feGaussianBlur stdDeviation="25"/>
<feComposite in2="hardAlpha" operator="out"/>
<feColorMatrix type="matrix" values="0 0 0 0 0 0 0 0 0 0 0 0 0 0 0 0 0 0 0.25 0"/>
<feBlend mode="normal" in2="BackgroundImageFix" result="effect1_dropShadow_1105_1664"/>
<feBlend mode="normal" in="SourceGraphic" in2="effect1_dropShadow_1105_1664" result="shape"/>
</filter>
<linearGradient id="paint0_linear_1105_1664" x1="38" y1="13" x2="229.156" y2="260.651" gradientUnits="userSpaceOnUse">
<stop stop-color="#1D293D"/>
<stop offset="1" stop-color="#0F172B"/>
</linearGradient>
<linearGradient id="paint1_linear_1105_1664" x1="74.8" y1="69.8" x2="74.8" y2="101.8" gradientUnits="userSpaceOnUse">
<stop stop-color="#197ADC"/>
<stop offset="1" stop-color="#155C9E"/>
</linearGradient>
<linearGradient id="paint2_linear_1105_1664" x1="74.8" y1="113.8" x2="74.8" y2="145.8" gradientUnits="userSpaceOnUse">
<stop stop-color="#197ADC"/>
<stop offset="1" stop-color="#155C9E"/>
</linearGradient>
<linearGradient id="paint3_linear_1105_1664" x1="74.8" y1="157.8" x2="74.8" y2="189.8" gradientUnits="userSpaceOnUse">
<stop stop-color="#197ADC"/>
<stop offset="1" stop-color="#155C9E"/>
</linearGradient>
<clipPath id="clip0_1105_1664">
<rect width="16" height="16" fill="white" transform="translate(58.8 35.8)"/>
</clipPath>
</defs>
</svg>
