<svg width="364" height="238" viewBox="0 0 364 238" fill="none" xmlns="http://www.w3.org/2000/svg">
<g filter="url(#filter0_d_1105_1636)">
<mask id="path-1-inside-1_1105_1636" fill="white">
<path d="M38 29C38 20.1634 45.1634 13 54 13H310C318.837 13 326 20.1634 326 29V158.6C326 167.437 318.837 174.6 310 174.6H54C45.1635 174.6 38 167.437 38 158.6V29Z"/>
</mask>
<path d="M38 29C38 20.1634 45.1634 13 54 13H310C318.837 13 326 20.1634 326 29V158.6C326 167.437 318.837 174.6 310 174.6H54C45.1635 174.6 38 167.437 38 158.6V29Z" fill="url(#paint0_linear_1105_1636)" shape-rendering="crispEdges"/>
<path d="M54 13V13.8H310V13V12.2H54V13ZM326 29H325.2V158.6H326H326.8V29H326ZM310 174.6V173.8H54V174.6V175.4H310V174.6ZM38 158.6H38.8V29H38H37.2V158.6H38ZM54 174.6V173.8C45.6053 173.8 38.8 166.995 38.8 158.6H38H37.2C37.2 167.878 44.7216 175.4 54 175.4V174.6ZM326 158.6H325.2C325.2 166.995 318.395 173.8 310 173.8V174.6V175.4C319.278 175.4 326.8 167.878 326.8 158.6H326ZM310 13V13.8C318.395 13.8 325.2 20.6053 325.2 29H326H326.8C326.8 19.7216 319.278 12.2 310 12.2V13ZM54 13V12.2C44.7216 12.2 37.2 19.7216 37.2 29H38H38.8C38.8 20.6053 45.6053 13.8 54 13.8V13Z" fill="#314158" fill-opacity="0.5" mask="url(#path-1-inside-1_1105_1636)"/>
<g clip-path="url(#clip0_1105_1636)">
<path d="M72.1335 42.4666C72.1335 45.7953 68.4408 49.262 67.2008 50.3326C67.0853 50.4195 66.9447 50.4665 66.8001 50.4665C66.6556 50.4665 66.515 50.4195 66.3995 50.3326C65.1595 49.262 61.4668 45.7953 61.4668 42.4666C61.4668 41.0521 62.0287 39.6956 63.0289 38.6954C64.0291 37.6952 65.3856 37.1333 66.8001 37.1333C68.2146 37.1333 69.5712 37.6952 70.5714 38.6954C71.5716 39.6956 72.1335 41.0521 72.1335 42.4666Z" stroke="#197ADC" stroke-width="1.33333" stroke-linecap="round" stroke-linejoin="round"/>
<path d="M66.8 44.4668C67.9046 44.4668 68.8 43.5714 68.8 42.4668C68.8 41.3622 67.9046 40.4668 66.8 40.4668C65.6955 40.4668 64.8 41.3622 64.8 42.4668C64.8 43.5714 65.6955 44.4668 66.8 44.4668Z" stroke="#197ADC" stroke-width="1.33333" stroke-linecap="round" stroke-linejoin="round"/>
</g>
<path d="M90.1213 46.5337V47.6001H83.9485V37.9683H85.2542V46.5337H90.1213ZM93.1907 37.9683V47.6001H91.885V37.9683H93.1907ZM103.766 37.9683L99.8352 47.6001H98.4817L94.551 37.9683H95.925L98.5911 44.7495C98.7004 45.0275 98.7984 45.3101 98.885 45.5972C98.9762 45.8843 99.0696 46.1691 99.1653 46.4517C99.2564 46.1691 99.3521 45.8729 99.4524 45.563C99.5527 45.2531 99.6484 44.9819 99.7395 44.7495L102.392 37.9683H103.766ZM112.564 46.5337V47.6001H104.976V37.9683H112.283V39.0347H106.281V42.1245H111.873V43.1772H106.281V46.5337H112.564ZM119.516 43.6968V47.6001H118.21V37.9683H125.053V39.0347H119.516V42.6167H124.889V43.6968H119.516ZM128.218 37.9683V47.6001H126.912V37.9683H128.218ZM138.253 46.5337V47.6001H130.665V37.9683H137.973V39.0347H131.971V42.1245H137.563V43.1772H131.971V46.5337H138.253ZM146.176 46.5337V47.6001H140.003V37.9683H141.309V46.5337H146.176ZM156.088 42.6851C156.088 43.7013 155.89 44.5763 155.493 45.3101C155.101 46.0438 154.552 46.6089 153.846 47.0054C153.144 47.4019 152.328 47.6001 151.399 47.6001H147.796V37.9683H150.982C152.613 37.9683 153.871 38.3784 154.755 39.1987C155.644 40.0145 156.088 41.1766 156.088 42.6851ZM154.776 42.6851C154.776 41.491 154.448 40.5819 153.791 39.9575C153.14 39.3286 152.194 39.0142 150.954 39.0142H149.102V46.5542H151.248C151.964 46.5542 152.584 46.397 153.108 46.0825C153.636 45.7681 154.046 45.3215 154.338 44.7427C154.63 44.1639 154.776 43.478 154.776 42.6851ZM162.37 44.7837L161.263 47.6001H159.909L163.84 37.9683H165.323L169.193 47.6001H167.86L166.759 44.7837H162.37ZM164.565 38.9526C164.487 39.2078 164.394 39.4927 164.284 39.8071C164.18 40.117 164.082 40.3905 163.99 40.6274L162.767 43.7651H166.369L165.132 40.5864C165.068 40.4269 164.984 40.2013 164.879 39.9097C164.774 39.618 164.67 39.299 164.565 38.9526ZM174.689 46.6636C176.038 46.6636 177.052 45.9959 177.731 44.6606L178.797 45.1938C178.401 46.0233 177.842 46.6545 177.122 47.0874C176.407 47.5203 175.575 47.7368 174.627 47.7368C173.652 47.7368 172.813 47.534 172.112 47.1284C171.41 46.7228 170.87 46.1463 170.491 45.3989C170.118 44.647 169.931 43.7606 169.931 42.7397C169.931 41.7144 170.118 40.8348 170.491 40.1011C170.865 39.3674 171.403 38.8045 172.105 38.4126C172.807 38.0207 173.645 37.8247 174.62 37.8247C175.646 37.8247 176.503 38.0252 177.191 38.4263C177.879 38.8273 178.385 39.422 178.708 40.2104L177.471 40.6206C177.248 40.0601 176.888 39.6317 176.391 39.3354C175.899 39.0392 175.313 38.8911 174.634 38.8911C173.568 38.8911 172.738 39.2352 172.146 39.9233C171.553 40.6069 171.257 41.5457 171.257 42.7397C171.257 43.5236 171.396 44.2118 171.674 44.8042C171.957 45.3921 172.353 45.8501 172.864 46.1782C173.378 46.5018 173.987 46.6636 174.689 46.6636ZM184.259 39.0347V47.6001H182.96V39.0347H179.652V37.9683H187.568V39.0347H184.259ZM190.493 37.9683V47.6001H189.188V37.9683H190.493ZM201.069 37.9683L197.138 47.6001H195.784L191.854 37.9683H193.228L195.894 44.7495C196.003 45.0275 196.101 45.3101 196.188 45.5972C196.279 45.8843 196.372 46.1691 196.468 46.4517C196.559 46.1691 196.655 45.8729 196.755 45.563C196.855 45.2531 196.951 44.9819 197.042 44.7495L199.695 37.9683H201.069ZM203.728 37.9683V47.6001H202.422V37.9683H203.728ZM209.948 39.0347V47.6001H208.65V39.0347H205.341V37.9683H213.257V39.0347H209.948ZM216.183 37.9683V47.6001H214.877V37.9683H216.183ZM226.218 46.5337V47.6001H218.63V37.9683H225.938V39.0347H219.936V42.1245H225.528V43.1772H219.936V46.5337H226.218ZM235.515 44.9409C235.515 45.8296 235.166 46.5177 234.469 47.0054C233.776 47.493 232.799 47.7368 231.536 47.7368C229.189 47.7368 227.829 46.9211 227.455 45.2896L228.72 45.0366C228.866 45.6154 229.176 46.0415 229.65 46.3149C230.124 46.5838 230.768 46.7183 231.584 46.7183C232.427 46.7183 233.077 46.5747 233.532 46.2876C233.993 45.9959 234.223 45.5698 234.223 45.0093C234.223 44.6948 234.15 44.4396 234.004 44.2437C233.863 44.0477 233.662 43.8859 233.403 43.7583C233.143 43.6307 232.833 43.5236 232.473 43.437C232.113 43.3504 231.714 43.257 231.277 43.1567C230.771 43.0428 230.347 42.9312 230.005 42.8218C229.668 42.7124 229.39 42.5985 229.171 42.48C228.952 42.3569 228.766 42.2271 228.611 42.0903C228.383 41.8807 228.207 41.6369 228.084 41.3589C227.966 41.0809 227.906 40.7619 227.906 40.4019C227.906 39.577 228.221 38.9412 228.85 38.4946C229.483 38.048 230.388 37.8247 231.564 37.8247C232.657 37.8247 233.494 37.9933 234.073 38.3306C234.651 38.6632 235.057 39.2329 235.289 40.0396L234.004 40.2651C233.863 39.7547 233.594 39.3856 233.198 39.1577C232.801 38.9253 232.252 38.8091 231.55 38.8091C230.78 38.8091 230.192 38.9367 229.786 39.1919C229.381 39.4471 229.178 39.8276 229.178 40.3335C229.178 40.6297 229.255 40.8758 229.41 41.0718C229.57 41.2632 229.798 41.425 230.094 41.5571C230.372 41.6893 230.962 41.8556 231.865 42.0562C232.234 42.1427 232.598 42.2339 232.958 42.3296C233.318 42.4207 233.658 42.5369 233.977 42.6782C234.164 42.7557 234.341 42.8514 234.51 42.9653C234.683 43.0747 234.834 43.2023 234.961 43.3481C235.134 43.5396 235.269 43.7651 235.365 44.0249C235.465 44.2847 235.515 44.59 235.515 44.9409Z" fill="white"/>
<path d="M58.8 71.8H90.8V103.8H58.8V71.8Z" fill="url(#paint1_linear_1105_1636)"/>
<path d="M68.4036 88.3723V91.8H67.2844V83.5442H71.1692C72.0989 83.5442 72.8157 83.7532 73.3196 84.1711C73.8274 84.5852 74.0813 85.1633 74.0813 85.9055C74.0813 86.5188 73.9016 87.0344 73.5422 87.4524C73.1868 87.8704 72.6946 88.134 72.0657 88.2434L74.4094 91.8H73.1204L70.9758 88.3723H68.4036ZM72.9563 85.9172C72.9563 85.4368 72.7922 85.0715 72.4641 84.8215C72.1399 84.5676 71.6711 84.4407 71.0579 84.4407H68.4036V87.4875H71.1047C71.6946 87.4875 72.1497 87.3508 72.47 87.0774C72.7942 86.8 72.9563 86.4133 72.9563 85.9172ZM77.0754 88.636V91.8H75.9563V83.5442H77.0754V87.6809L81.054 83.5442H82.3723L78.8567 87.1301L82.8411 91.8H81.4524L78.1536 87.8157L77.0754 88.636Z" fill="white"/>
<path d="M105.254 79.6011V83.6001H103.948V73.9683H108.481C109.565 73.9683 110.402 74.2121 110.99 74.6997C111.582 75.1828 111.878 75.8573 111.878 76.7231C111.878 77.4386 111.669 78.0402 111.249 78.5278C110.835 79.0155 110.26 79.3231 109.527 79.4507L112.261 83.6001H110.757L108.255 79.6011H105.254ZM110.566 76.7368C110.566 76.1763 110.374 75.7502 109.991 75.4585C109.613 75.1623 109.066 75.0142 108.351 75.0142H105.254V78.5688H108.406C109.094 78.5688 109.625 78.4093 109.998 78.0903C110.377 77.7668 110.566 77.3156 110.566 76.7368ZM115.747 83.7368C115.004 83.7368 114.446 83.5409 114.073 83.1489C113.699 82.757 113.512 82.2192 113.512 81.5356C113.512 80.77 113.763 80.1821 114.264 79.772C114.77 79.3618 115.583 79.1431 116.704 79.1157L118.365 79.0884V78.6851C118.365 78.0835 118.238 77.6528 117.983 77.3931C117.727 77.1333 117.326 77.0034 116.78 77.0034C116.228 77.0034 115.827 77.0968 115.576 77.2837C115.326 77.4705 115.175 77.769 115.125 78.1792L113.84 78.063C114.05 76.7323 115.039 76.0669 116.807 76.0669C117.737 76.0669 118.436 76.2811 118.906 76.7095C119.375 77.1333 119.61 77.7485 119.61 78.5552V81.7407C119.61 82.1053 119.657 82.381 119.753 82.5679C119.849 82.7502 120.031 82.8413 120.3 82.8413C120.428 82.8413 120.562 82.8254 120.703 82.7935V83.5591C120.548 83.5955 120.391 83.6229 120.232 83.6411C120.072 83.6593 119.913 83.6685 119.753 83.6685C119.297 83.6685 118.965 83.55 118.755 83.313C118.55 83.0715 118.434 82.6955 118.406 82.1851H118.365C118.051 82.7502 117.684 83.1512 117.265 83.3882C116.85 83.6206 116.344 83.7368 115.747 83.7368ZM118.365 79.9497L117.019 79.9771C116.445 79.9816 116.007 80.0409 115.706 80.1548C115.406 80.2642 115.175 80.4328 115.016 80.6606C114.856 80.8885 114.777 81.187 114.777 81.5562C114.777 81.9572 114.884 82.2671 115.098 82.4858C115.317 82.7046 115.627 82.814 116.028 82.814C116.483 82.814 116.884 82.7114 117.231 82.5063C117.582 82.3013 117.857 82.021 118.058 81.6655C118.263 81.3055 118.365 80.9364 118.365 80.5581V79.9497ZM122.877 73.4556V74.6313H121.647V73.4556H122.877ZM121.237 86.5054C120.881 86.5054 120.592 86.4849 120.368 86.4438V85.4937C120.441 85.5028 120.512 85.5119 120.58 85.521C120.649 85.5301 120.719 85.5347 120.792 85.5347C121.107 85.5347 121.328 85.4526 121.455 85.2886C121.583 85.1245 121.647 84.8055 121.647 84.3315V76.2036H122.877V84.5161C122.877 85.2134 122.74 85.7192 122.467 86.0337C122.194 86.3481 121.783 86.5054 121.237 86.5054ZM125.714 80.1616C125.714 81.0093 125.89 81.6632 126.24 82.1235C126.591 82.5838 127.104 82.814 127.779 82.814C128.312 82.814 128.738 82.7069 129.057 82.4927C129.38 82.2785 129.599 82.0073 129.713 81.6792L130.793 81.9868C130.351 83.1535 129.346 83.7368 127.779 83.7368C126.685 83.7368 125.851 83.411 125.277 82.7593C124.707 82.1076 124.422 81.1392 124.422 79.854C124.422 78.6326 124.707 77.6961 125.277 77.0444C125.851 76.3927 126.669 76.0669 127.731 76.0669C128.82 76.0669 129.636 76.395 130.178 77.0513C130.72 77.7075 130.991 78.6896 130.991 79.9976V80.1616H125.714ZM129.72 79.2183C129.652 78.439 129.453 77.8716 129.125 77.5161C128.797 77.1561 128.325 76.9761 127.71 76.9761C127.113 76.9761 126.639 77.1766 126.288 77.5776C125.942 77.9741 125.755 78.521 125.728 79.2183H129.72ZM138.115 81.5562C138.115 82.2534 137.85 82.7912 137.322 83.1694C136.797 83.5477 136.061 83.7368 135.114 83.7368C134.193 83.7368 133.482 83.5864 132.981 83.2856C132.484 82.9803 132.16 82.5063 132.01 81.8638L133.097 81.6519C133.202 82.0483 133.418 82.34 133.746 82.5269C134.074 82.7091 134.53 82.8003 135.114 82.8003C135.738 82.8003 136.194 82.7046 136.481 82.5132C136.772 82.3218 136.918 82.0347 136.918 81.6519C136.918 81.3602 136.818 81.1232 136.617 80.9409C136.417 80.7586 136.093 80.6082 135.647 80.4897C135.118 80.3485 134.697 80.2323 134.382 80.1411C134.072 80.05 133.833 79.9725 133.664 79.9087C133.496 79.8403 133.361 79.7765 133.261 79.7173C132.96 79.5441 132.726 79.3322 132.557 79.0815C132.388 78.8309 132.304 78.5233 132.304 78.1587C132.304 77.4842 132.543 76.9715 133.022 76.6206C133.505 76.2651 134.207 76.0874 135.127 76.0874C135.943 76.0874 136.59 76.231 137.069 76.5181C137.552 76.8052 137.857 77.2655 137.985 77.8989L136.877 78.0356C136.809 77.7075 136.624 77.4569 136.323 77.2837C136.027 77.106 135.628 77.0171 135.127 77.0171C134.571 77.0171 134.161 77.1014 133.897 77.27C133.632 77.4386 133.5 77.6938 133.5 78.0356C133.5 78.2863 133.575 78.4937 133.726 78.6577C133.876 78.8172 134.163 78.9494 134.587 79.0542C135.157 79.1909 135.699 79.3413 136.214 79.5054C136.729 79.6649 137.098 79.8244 137.322 79.9839C137.581 80.1707 137.777 80.3918 137.909 80.647C138.046 80.8976 138.115 81.2007 138.115 81.5562ZM140.787 77.4683C141.052 76.9852 141.368 76.632 141.738 76.4087C142.111 76.1808 142.583 76.0669 143.153 76.0669C143.955 76.0669 144.545 76.2765 144.923 76.6958C145.306 77.1105 145.497 77.769 145.497 78.6714V83.6001H144.26V78.9106C144.26 78.2407 144.142 77.7576 143.905 77.4614C143.672 77.1652 143.282 77.0171 142.736 77.0171C142.157 77.0171 141.692 77.2176 141.341 77.6187C140.995 78.0197 140.822 78.5597 140.822 79.2388V83.6001H139.591V73.4556H140.822V76.0942C140.822 76.2765 140.817 76.4702 140.808 76.6753C140.799 76.8758 140.79 77.0513 140.781 77.2017C140.776 77.3475 140.771 77.4364 140.767 77.4683H140.787ZM152.764 79.9087V83.6001H151.458V73.9683H152.764V78.7944L157.406 73.9683H158.944L154.842 78.1519L159.49 83.6001H157.87L154.022 78.9517L152.764 79.9087ZM165.267 82.3354C164.984 82.8459 164.656 83.2082 164.282 83.4224C163.913 83.632 163.453 83.7368 162.902 83.7368C162.09 83.7368 161.496 83.5363 161.117 83.1353C160.744 82.7297 160.557 82.062 160.557 81.1323V76.2036H161.794V80.8931C161.794 81.6313 161.908 82.1326 162.136 82.397C162.368 82.6567 162.763 82.7866 163.319 82.7866C163.911 82.7866 164.378 82.5838 164.72 82.1782C165.062 81.7726 165.233 81.2098 165.233 80.4897V76.2036H166.463V82.021C166.463 82.4494 166.465 82.7957 166.47 83.0601C166.479 83.3244 166.49 83.5044 166.504 83.6001H165.342C165.337 83.5773 165.328 83.4702 165.315 83.2788C165.306 83.0874 165.296 82.7729 165.287 82.3354H165.267ZM169.635 79.314V83.6001H168.411V77.7827C168.411 77.3498 168.407 77.0034 168.398 76.7437C168.393 76.4793 168.384 76.2993 168.37 76.2036H169.532C169.542 76.3039 169.551 76.4269 169.56 76.5728C169.569 76.7186 169.576 76.8713 169.58 77.0308C169.585 77.1857 169.587 77.3315 169.587 77.4683H169.608C169.872 76.9442 170.175 76.5796 170.517 76.3745C170.859 76.1694 171.276 76.0669 171.768 76.0669C172.328 76.0669 172.77 76.1785 173.094 76.4019C173.422 76.6252 173.65 76.9806 173.778 77.4683H173.798C174.053 76.9715 174.361 76.6138 174.721 76.395C175.086 76.1763 175.525 76.0669 176.04 76.0669C176.788 76.0669 177.33 76.2697 177.667 76.6753C178.009 77.0809 178.18 77.7463 178.18 78.6714V83.6001H176.963V78.9106C176.963 78.1951 176.865 77.7007 176.669 77.4272C176.473 77.1538 176.12 77.0171 175.61 77.0171C175.072 77.0171 174.653 77.2176 174.352 77.6187C174.056 78.0151 173.907 78.5802 173.907 79.314V83.6001H172.691V78.9106C172.691 78.1951 172.593 77.7007 172.397 77.4272C172.201 77.1538 171.848 77.0171 171.337 77.0171C170.813 77.0171 170.398 77.2176 170.093 77.6187C169.788 78.0197 169.635 78.5848 169.635 79.314ZM181.933 83.7368C181.19 83.7368 180.632 83.5409 180.258 83.1489C179.884 82.757 179.698 82.2192 179.698 81.5356C179.698 80.77 179.948 80.1821 180.449 79.772C180.955 79.3618 181.769 79.1431 182.89 79.1157L184.551 79.0884V78.6851C184.551 78.0835 184.423 77.6528 184.168 77.3931C183.913 77.1333 183.512 77.0034 182.965 77.0034C182.414 77.0034 182.013 77.0968 181.762 77.2837C181.511 77.4705 181.361 77.769 181.311 78.1792L180.026 78.063C180.235 76.7323 181.224 76.0669 182.992 76.0669C183.922 76.0669 184.622 76.2811 185.091 76.7095C185.56 77.1333 185.795 77.7485 185.795 78.5552V81.7407C185.795 82.1053 185.843 82.381 185.939 82.5679C186.034 82.7502 186.217 82.8413 186.486 82.8413C186.613 82.8413 186.748 82.8254 186.889 82.7935V83.5591C186.734 83.5955 186.577 83.6229 186.417 83.6411C186.258 83.6593 186.098 83.6685 185.939 83.6685C185.483 83.6685 185.15 83.55 184.941 83.313C184.736 83.0715 184.619 82.6955 184.592 82.1851H184.551C184.237 82.7502 183.87 83.1512 183.45 83.3882C183.036 83.6206 182.53 83.7368 181.933 83.7368ZM184.551 79.9497L183.204 79.9771C182.63 79.9816 182.193 80.0409 181.892 80.1548C181.591 80.2642 181.361 80.4328 181.201 80.6606C181.042 80.8885 180.962 81.187 180.962 81.5562C180.962 81.9572 181.069 82.2671 181.283 82.4858C181.502 82.7046 181.812 82.814 182.213 82.814C182.669 82.814 183.07 82.7114 183.416 82.5063C183.767 82.3013 184.043 82.021 184.243 81.6655C184.448 81.3055 184.551 80.9364 184.551 80.5581V79.9497ZM189.097 79.7446V83.6001H187.866V77.9263C187.866 77.6665 187.862 77.3931 187.853 77.106C187.848 76.8188 187.839 76.5181 187.825 76.2036H188.988C188.997 76.4132 189.003 76.6024 189.008 76.771C189.017 76.9396 189.024 77.0877 189.029 77.2153C189.033 77.3384 189.035 77.4432 189.035 77.5298C189.04 77.6118 189.042 77.6733 189.042 77.7144H189.07C189.206 77.2677 189.357 76.9214 189.521 76.6753C189.68 76.4474 189.863 76.2902 190.068 76.2036C190.273 76.1125 190.526 76.0669 190.826 76.0669C190.995 76.0669 191.161 76.0897 191.325 76.1353V77.2632C191.17 77.2176 190.952 77.1948 190.669 77.1948C190.159 77.1948 189.769 77.4159 189.5 77.8579C189.231 78.2954 189.097 78.9243 189.097 79.7446Z" fill="#E2E8F0"/>
<path d="M110.253 99.5208C110.253 100.282 109.954 100.872 109.357 101.29C108.763 101.708 107.925 101.917 106.843 101.917C104.831 101.917 103.665 101.218 103.345 99.8196L104.429 99.6028C104.554 100.099 104.82 100.464 105.226 100.698C105.632 100.929 106.185 101.044 106.884 101.044C107.607 101.044 108.163 100.921 108.554 100.675C108.948 100.425 109.146 100.06 109.146 99.5793C109.146 99.3098 109.083 99.0911 108.958 98.9231C108.837 98.7551 108.665 98.6165 108.443 98.5071C108.22 98.3977 107.954 98.3059 107.646 98.2317C107.337 98.1575 106.995 98.0774 106.62 97.9915C106.187 97.8938 105.823 97.7981 105.531 97.7043C105.241 97.6106 105.003 97.5129 104.816 97.4114C104.628 97.3059 104.468 97.1946 104.335 97.0774C104.14 96.8977 103.99 96.6887 103.884 96.4504C103.782 96.2122 103.732 95.9387 103.732 95.6301C103.732 94.9231 104.001 94.3782 104.54 93.9954C105.083 93.6125 105.859 93.4211 106.866 93.4211C107.804 93.4211 108.521 93.5657 109.017 93.8547C109.513 94.1399 109.861 94.6282 110.06 95.3196L108.958 95.5129C108.837 95.0754 108.607 94.759 108.267 94.5637C107.927 94.3645 107.456 94.2649 106.855 94.2649C106.195 94.2649 105.691 94.3743 105.343 94.593C104.995 94.8118 104.822 95.1379 104.822 95.5715C104.822 95.8254 104.888 96.0364 105.021 96.2043C105.157 96.3684 105.353 96.5071 105.607 96.6204C105.845 96.7336 106.351 96.8762 107.124 97.0481C107.441 97.1223 107.753 97.2004 108.062 97.2825C108.37 97.3606 108.661 97.4602 108.935 97.5813C109.095 97.6477 109.247 97.7297 109.392 97.8274C109.54 97.9211 109.669 98.0305 109.779 98.1555C109.927 98.3196 110.042 98.5129 110.124 98.7356C110.21 98.9583 110.253 99.22 110.253 99.5208ZM112.421 98.8528C112.421 99.5793 112.572 100.14 112.872 100.534C113.173 100.929 113.613 101.126 114.191 101.126C114.648 101.126 115.013 101.034 115.286 100.851C115.564 100.667 115.751 100.435 115.849 100.154L116.775 100.417C116.396 101.417 115.534 101.917 114.191 101.917C113.253 101.917 112.538 101.638 112.046 101.079C111.558 100.521 111.314 99.6907 111.314 98.5891C111.314 97.5422 111.558 96.7395 112.046 96.1809C112.538 95.6223 113.24 95.343 114.15 95.343C115.083 95.343 115.782 95.6243 116.247 96.1868C116.712 96.7493 116.945 97.5911 116.945 98.7122V98.8528H112.421ZM115.855 98.0442C115.796 97.3762 115.626 96.8899 115.345 96.5852C115.064 96.2766 114.659 96.1223 114.132 96.1223C113.62 96.1223 113.214 96.2942 112.913 96.6379C112.616 96.9778 112.456 97.4465 112.433 98.0442H115.855ZM120.724 101.917C119.837 101.917 119.159 101.638 118.691 101.079C118.226 100.517 117.993 99.6985 117.993 98.6243C117.993 97.5579 118.228 96.7454 118.697 96.1868C119.165 95.6243 119.837 95.343 120.712 95.343C121.361 95.343 121.898 95.511 122.323 95.8469C122.753 96.1829 123.023 96.6458 123.132 97.2356L122.048 97.3176C121.993 96.9661 121.855 96.6868 121.632 96.4797C121.409 96.2727 121.093 96.1692 120.683 96.1692C120.124 96.1692 119.72 96.3547 119.47 96.7258C119.22 97.0969 119.095 97.7219 119.095 98.6008C119.095 99.4446 119.228 100.07 119.493 100.476C119.759 100.882 120.159 101.085 120.695 101.085C121.07 101.085 121.382 100.984 121.632 100.781C121.886 100.577 122.042 100.265 122.101 99.843L123.167 99.9133C123.113 100.32 122.976 100.673 122.757 100.974C122.542 101.275 122.261 101.507 121.913 101.671C121.57 101.835 121.173 101.917 120.724 101.917ZM126.73 101.753C126.386 101.847 126.031 101.894 125.663 101.894C125.241 101.894 124.925 101.775 124.714 101.536C124.503 101.294 124.398 100.935 124.398 100.458V96.2278H123.665V95.4602H124.439L124.749 94.0422H125.452V95.4602H126.624V96.2278H125.452V100.23C125.452 100.534 125.501 100.749 125.599 100.874C125.7 100.995 125.874 101.056 126.12 101.056C126.253 101.056 126.456 101.029 126.73 100.974V101.753ZM132.993 98.6243C132.993 99.7336 132.749 100.56 132.261 101.103C131.773 101.646 131.064 101.917 130.134 101.917C129.208 101.917 128.509 101.636 128.036 101.073C127.564 100.507 127.327 99.6907 127.327 98.6243C127.327 97.5305 127.564 96.7102 128.036 96.1633C128.513 95.6165 129.224 95.343 130.169 95.343C131.138 95.343 131.851 95.6106 132.308 96.1458C132.765 96.677 132.993 97.5032 132.993 98.6243ZM131.886 98.6243C131.886 97.7493 131.755 97.1145 131.493 96.72C131.236 96.3215 130.8 96.1223 130.187 96.1223C129.57 96.1223 129.122 96.3254 128.845 96.7317C128.572 97.134 128.435 97.7649 128.435 98.6243C128.435 99.4602 128.57 100.089 128.839 100.511C129.113 100.929 129.54 101.138 130.122 101.138C130.755 101.138 131.206 100.935 131.476 100.529C131.749 100.122 131.886 99.4875 131.886 98.6243ZM135.39 98.4954V101.8H134.335V96.9368C134.335 96.7141 134.331 96.4797 134.323 96.2336C134.32 95.9875 134.312 95.7297 134.3 95.4602H135.296C135.304 95.6399 135.31 95.802 135.314 95.9465C135.322 96.0911 135.327 96.218 135.331 96.3274C135.335 96.4329 135.337 96.5227 135.337 96.5969C135.341 96.6672 135.343 96.72 135.343 96.7551H135.366C135.484 96.3723 135.613 96.0754 135.753 95.8645C135.89 95.6692 136.046 95.5344 136.222 95.4602C136.398 95.3821 136.615 95.343 136.872 95.343C137.017 95.343 137.159 95.3625 137.3 95.4016V96.3684C137.167 96.3293 136.98 96.3098 136.738 96.3098C136.3 96.3098 135.966 96.4993 135.736 96.8782C135.505 97.2532 135.39 97.7922 135.39 98.4954ZM146.927 100.904V101.8H141.753V100.904H143.857V94.552L141.993 95.8821V94.886L143.945 93.5442H144.917V100.904H146.927ZM152.681 99.9309V101.8H151.685V99.9309H147.794V99.1106L151.573 93.5442H152.681V99.0989H153.841V99.9309H152.681ZM148.767 99.0989H151.685V95.8059C151.685 95.6262 151.685 95.4485 151.685 95.2727C151.689 95.093 151.697 94.9133 151.708 94.7336C151.618 94.9055 151.54 95.0461 151.474 95.1555C151.407 95.261 151.347 95.3528 151.292 95.4309L148.767 99.0989ZM156.454 101.501C156.454 101.915 156.417 102.261 156.343 102.538C156.269 102.816 156.154 103.081 155.997 103.335H155.277C155.46 103.07 155.597 102.808 155.687 102.55C155.781 102.296 155.827 102.046 155.827 101.8H155.312V100.517H156.454V101.501ZM165.642 101.009C166.181 101.009 166.683 100.927 167.148 100.763C167.616 100.599 167.995 100.376 168.284 100.095V98.6067H165.818V97.6692H169.316V100.517C168.878 100.962 168.341 101.308 167.704 101.554C167.072 101.796 166.384 101.917 165.642 101.917C164.782 101.917 164.042 101.743 163.421 101.396C162.8 101.048 162.322 100.554 161.986 99.9133C161.65 99.2688 161.482 98.509 161.482 97.634C161.482 96.2942 161.841 95.2571 162.56 94.5227C163.279 93.7883 164.288 93.4211 165.589 93.4211C166.503 93.4211 167.245 93.5754 167.816 93.884C168.386 94.1926 168.825 94.6868 169.134 95.3665L168.068 95.6829C167.833 95.2141 167.509 94.8723 167.095 94.6575C166.685 94.4426 166.173 94.3352 165.56 94.3352C164.607 94.3352 163.878 94.6243 163.374 95.2024C162.87 95.7766 162.618 96.5872 162.618 97.634C162.618 98.677 162.886 99.5012 163.421 100.107C163.956 100.708 164.697 101.009 165.642 101.009ZM175.034 100.716C174.792 101.154 174.511 101.464 174.191 101.648C173.874 101.827 173.48 101.917 173.007 101.917C172.312 101.917 171.802 101.745 171.478 101.402C171.157 101.054 170.997 100.482 170.997 99.6848V95.4602H172.058V99.4797C172.058 100.113 172.156 100.542 172.351 100.769C172.55 100.991 172.888 101.103 173.365 101.103C173.872 101.103 174.273 100.929 174.566 100.581C174.859 100.234 175.005 99.7512 175.005 99.134V95.4602H176.06V100.447C176.06 100.814 176.062 101.111 176.066 101.337C176.073 101.564 176.083 101.718 176.095 101.8H175.099C175.095 101.781 175.087 101.689 175.075 101.525C175.068 101.361 175.06 101.091 175.052 100.716H175.034ZM178.784 98.4954V101.8H177.73V96.9368C177.73 96.7141 177.726 96.4797 177.718 96.2336C177.714 95.9875 177.706 95.7297 177.695 95.4602H178.691C178.698 95.6399 178.704 95.802 178.708 95.9465C178.716 96.0911 178.722 96.218 178.726 96.3274C178.73 96.4329 178.732 96.5227 178.732 96.5969C178.736 96.6672 178.738 96.72 178.738 96.7551H178.761C178.878 96.3723 179.007 96.0754 179.148 95.8645C179.284 95.6692 179.441 95.5344 179.616 95.4602C179.792 95.3821 180.009 95.343 180.267 95.343C180.411 95.343 180.554 95.3625 180.695 95.4016V96.3684C180.562 96.3293 180.374 96.3098 180.132 96.3098C179.695 96.3098 179.361 96.4993 179.13 96.8782C178.9 97.2532 178.784 97.7922 178.784 98.4954ZM184.105 104.29C183.413 104.29 182.863 104.154 182.452 103.88C182.042 103.611 181.779 103.226 181.661 102.726L182.722 102.573C182.792 102.866 182.947 103.091 183.185 103.247C183.427 103.407 183.743 103.488 184.134 103.488C184.657 103.488 185.05 103.333 185.312 103.025C185.577 102.716 185.71 102.255 185.71 101.642V100.622H185.698C185.499 101.029 185.226 101.335 184.878 101.542C184.531 101.745 184.124 101.847 183.659 101.847C182.882 101.847 182.31 101.589 181.943 101.073C181.579 100.558 181.398 99.7473 181.398 98.6418C181.398 97.5208 181.593 96.6946 181.984 96.1633C182.378 95.6282 182.976 95.3606 183.777 95.3606C184.226 95.3606 184.615 95.4641 184.943 95.6711C185.275 95.8743 185.531 96.1653 185.71 96.5442H185.722C185.722 96.4661 185.726 96.345 185.734 96.1809C185.741 96.0129 185.751 95.8547 185.763 95.7063C185.775 95.5579 185.784 95.4758 185.792 95.4602H186.794C186.771 95.6711 186.759 96.1086 186.759 96.7727V101.618C186.759 102.509 186.538 103.177 186.097 103.622C185.656 104.068 184.991 104.29 184.105 104.29ZM185.71 98.6301C185.71 97.8606 185.552 97.2551 185.236 96.8137C184.923 96.3684 184.523 96.1458 184.034 96.1458C183.495 96.1458 183.103 96.3411 182.857 96.7317C182.611 97.1223 182.488 97.7551 182.488 98.6301C182.488 99.4973 182.603 100.12 182.833 100.499C183.064 100.878 183.458 101.068 184.017 101.068C184.517 101.068 184.923 100.851 185.236 100.417C185.552 99.9797 185.71 99.384 185.71 98.6301ZM189.999 101.917C189.363 101.917 188.884 101.749 188.564 101.413C188.243 101.077 188.083 100.616 188.083 100.031C188.083 99.3743 188.298 98.8704 188.728 98.5188C189.161 98.1672 189.859 97.9797 190.82 97.9563L192.243 97.9329V97.5872C192.243 97.0715 192.134 96.7024 191.915 96.4797C191.697 96.2571 191.353 96.1458 190.884 96.1458C190.411 96.1458 190.068 96.2258 189.853 96.386C189.638 96.5461 189.509 96.802 189.466 97.1536L188.365 97.054C188.544 95.9133 189.392 95.343 190.907 95.343C191.704 95.343 192.304 95.5266 192.706 95.8938C193.109 96.2571 193.31 96.7844 193.31 97.4758V100.206C193.31 100.519 193.351 100.755 193.433 100.915C193.515 101.072 193.671 101.15 193.902 101.15C194.011 101.15 194.126 101.136 194.247 101.109V101.765C194.115 101.796 193.98 101.82 193.843 101.835C193.706 101.851 193.57 101.859 193.433 101.859C193.042 101.859 192.757 101.757 192.577 101.554C192.402 101.347 192.302 101.025 192.279 100.587H192.243C191.974 101.072 191.659 101.415 191.3 101.618C190.945 101.818 190.511 101.917 189.999 101.917ZM192.243 98.6711L191.089 98.6946C190.597 98.6985 190.222 98.7493 189.964 98.8469C189.706 98.9407 189.509 99.0852 189.372 99.2805C189.236 99.4758 189.167 99.7317 189.167 100.048C189.167 100.392 189.259 100.657 189.443 100.845C189.63 101.032 189.896 101.126 190.24 101.126C190.63 101.126 190.974 101.038 191.271 100.863C191.572 100.687 191.808 100.447 191.98 100.142C192.156 99.8333 192.243 99.5168 192.243 99.1926V98.6711ZM200.423 98.6243C200.423 99.7336 200.179 100.56 199.691 101.103C199.202 101.646 198.493 101.917 197.564 101.917C196.638 101.917 195.939 101.636 195.466 101.073C194.993 100.507 194.757 99.6907 194.757 98.6243C194.757 97.5305 194.993 96.7102 195.466 96.1633C195.943 95.6165 196.654 95.343 197.599 95.343C198.568 95.343 199.281 95.6106 199.738 96.1458C200.195 96.677 200.423 97.5032 200.423 98.6243ZM199.316 98.6243C199.316 97.7493 199.185 97.1145 198.923 96.72C198.665 96.3215 198.23 96.1223 197.616 96.1223C196.999 96.1223 196.552 96.3254 196.275 96.7317C196.001 97.134 195.865 97.7649 195.865 98.6243C195.865 99.4602 195.999 100.089 196.269 100.511C196.542 100.929 196.97 101.138 197.552 101.138C198.185 101.138 198.636 100.935 198.906 100.529C199.179 100.122 199.316 99.4875 199.316 98.6243ZM202.82 98.1262V101.8H201.765V96.8137C201.765 96.4426 201.761 96.1458 201.753 95.9231C201.749 95.6965 201.741 95.5422 201.73 95.4602H202.726C202.734 95.5344 202.74 95.6282 202.743 95.7415C202.751 95.8547 202.757 95.9797 202.761 96.1165C202.765 96.2532 202.769 96.3958 202.773 96.5442H202.79C203.032 96.1067 203.312 95.7981 203.628 95.6184C203.948 95.4348 204.345 95.343 204.818 95.343C205.513 95.343 206.021 95.5208 206.341 95.8762C206.665 96.2317 206.827 96.7981 206.827 97.5754V101.8H205.767V97.7805C205.767 97.175 205.669 96.7532 205.474 96.5149C205.279 96.2766 204.941 96.1575 204.46 96.1575C203.952 96.1575 203.552 96.3313 203.259 96.679C202.966 97.0266 202.82 97.509 202.82 98.1262Z" fill="#197ADC"/>
<path d="M261.021 90.9036V91.8H255.847V90.9036H257.951V84.552L256.088 85.8821V84.886L258.039 83.5442H259.011V90.9036H261.021ZM267.818 87.6692C267.818 89.0481 267.574 90.1008 267.086 90.8274C266.601 91.554 265.885 91.9172 264.935 91.9172C263.986 91.9172 263.273 91.5559 262.797 90.8333C262.32 90.1106 262.082 89.0559 262.082 87.6692C262.082 86.2512 262.312 85.1887 262.773 84.4817C263.238 83.7747 263.97 83.4211 264.97 83.4211C265.943 83.4211 266.66 83.7786 267.121 84.4934C267.586 85.2083 267.818 86.2668 267.818 87.6692ZM266.746 87.6692C266.746 86.8723 266.685 86.2258 266.564 85.7297C266.447 85.2297 266.258 84.8625 265.996 84.6282C265.734 84.3938 265.392 84.2766 264.97 84.2766C264.541 84.2766 264.191 84.3918 263.922 84.6223C263.652 84.8528 263.455 85.218 263.33 85.718C263.209 86.2141 263.148 86.8645 263.148 87.6692C263.148 88.4504 263.211 89.0911 263.336 89.5911C263.465 90.0911 263.662 90.4602 263.927 90.6985C264.193 90.9368 264.533 91.0559 264.947 91.0559C265.568 91.0559 266.023 90.7786 266.312 90.2239C266.601 89.6692 266.746 88.8176 266.746 87.6692ZM270.531 85.4602V86.6731H269.388V85.4602H270.531ZM270.531 90.5872V91.8H269.388V90.5872H270.531ZM277.779 89.5208C277.779 90.2825 277.537 90.8723 277.052 91.2903C276.568 91.7083 275.877 91.9172 274.978 91.9172C274.142 91.9172 273.474 91.7297 272.974 91.3547C272.478 90.9758 272.183 90.4172 272.09 89.679L273.179 89.5793C273.32 90.5559 273.92 91.0442 274.978 91.0442C275.51 91.0442 275.926 90.9133 276.226 90.6516C276.531 90.3899 276.683 90.0012 276.683 89.4856C276.683 89.0364 276.51 88.6868 276.162 88.4368C275.818 88.1829 275.32 88.0559 274.668 88.0559H274.07V87.1418H274.644C275.222 87.1418 275.67 87.0168 275.986 86.7668C276.306 86.5129 276.467 86.1633 276.467 85.718C276.467 85.2766 276.336 84.929 276.074 84.675C275.816 84.4172 275.431 84.2883 274.92 84.2883C274.455 84.2883 274.078 84.4075 273.789 84.6458C273.504 84.884 273.338 85.22 273.291 85.6536L272.23 85.5715C272.308 84.8958 272.588 84.3684 273.068 83.9895C273.552 83.6106 274.174 83.4211 274.931 83.4211C275.76 83.4211 276.402 83.6145 276.859 84.0012C277.32 84.384 277.551 84.9192 277.551 85.6067C277.551 86.134 277.402 86.5637 277.105 86.8958C276.812 87.2239 276.385 87.4465 275.822 87.5637V87.5872C276.439 87.6536 276.92 87.8606 277.263 88.2083C277.607 88.5559 277.779 88.9934 277.779 89.5208ZM284.517 87.6692C284.517 89.0481 284.273 90.1008 283.785 90.8274C283.301 91.554 282.584 91.9172 281.635 91.9172C280.685 91.9172 279.972 91.5559 279.496 90.8333C279.019 90.1106 278.781 89.0559 278.781 87.6692C278.781 86.2512 279.011 85.1887 279.472 84.4817C279.937 83.7747 280.67 83.4211 281.67 83.4211C282.642 83.4211 283.359 83.7786 283.82 84.4934C284.285 85.2083 284.517 86.2668 284.517 87.6692ZM283.445 87.6692C283.445 86.8723 283.385 86.2258 283.263 85.7297C283.146 85.2297 282.957 84.8625 282.695 84.6282C282.433 84.3938 282.092 84.2766 281.67 84.2766C281.24 84.2766 280.89 84.3918 280.621 84.6223C280.351 84.8528 280.154 85.218 280.029 85.718C279.908 86.2141 279.847 86.8645 279.847 87.6692C279.847 88.4504 279.91 89.0911 280.035 89.5911C280.164 90.0911 280.361 90.4602 280.627 90.6985C280.892 90.9368 281.232 91.0559 281.646 91.0559C282.267 91.0559 282.722 90.7786 283.011 90.2239C283.301 89.6692 283.445 88.8176 283.445 87.6692ZM289.797 89.386L288.847 91.8H287.687L291.056 83.5442H292.328L295.644 91.8H294.502L293.558 89.386H289.797ZM291.677 84.3879C291.611 84.6067 291.531 84.8508 291.437 85.1204C291.347 85.386 291.263 85.6204 291.185 85.8235L290.136 88.5129H293.224L292.164 85.7883C292.109 85.6516 292.037 85.4583 291.947 85.2083C291.857 84.9583 291.767 84.6848 291.677 84.3879ZM297.648 86.2922V91.8H296.652V83.5442H298.123L300.32 89.2688C300.398 89.4993 300.472 89.7473 300.543 90.0129C300.617 90.2747 300.666 90.4641 300.689 90.5813C300.713 90.4758 300.752 90.3313 300.806 90.1477C300.861 89.9602 300.916 89.7805 300.97 89.6086C301.025 89.4368 301.064 89.3235 301.088 89.2688L303.244 83.5442H304.679V91.8H303.672V86.2922C303.672 85.9875 303.676 85.6887 303.683 85.3958C303.695 85.1028 303.709 84.8157 303.724 84.5344C303.627 84.8821 303.535 85.1946 303.449 85.4719C303.367 85.7454 303.287 85.9797 303.209 86.175L301.076 91.8H300.291L298.129 86.175L297.607 84.5344C297.615 84.8274 297.623 85.1204 297.631 85.4133C297.642 85.7063 297.648 85.9993 297.648 86.2922Z" fill="#62748E"/>
<path d="M58.8 119.8H90.8V151.8H58.8V119.8Z" fill="url(#paint2_linear_1105_1636)"/>
<path d="M73.6711 134.029C73.6711 134.548 73.5559 134.999 73.3254 135.382C73.095 135.765 72.7668 136.062 72.3411 136.273C71.9192 136.48 71.4153 136.583 70.8293 136.583H68.4036V139.8H67.2844V131.544H70.759C71.6848 131.544 72.4016 131.761 72.9094 132.195C73.4172 132.628 73.6711 133.24 73.6711 134.029ZM72.5461 134.04C72.5461 132.974 71.9055 132.441 70.6243 132.441H68.4036V135.698H70.6711C71.2961 135.698 71.7649 135.562 72.0774 135.288C72.3899 135.011 72.5461 134.595 72.5461 134.04ZM81.7571 137.521C81.7571 138.282 81.4583 138.872 80.8606 139.29C80.2668 139.708 79.429 139.917 78.3469 139.917C76.3352 139.917 75.1692 139.218 74.8489 137.82L75.9329 137.603C76.0579 138.099 76.3235 138.464 76.7297 138.698C77.136 138.929 77.6887 139.044 78.3879 139.044C79.1106 139.044 79.6672 138.921 80.0579 138.675C80.4524 138.425 80.6497 138.06 80.6497 137.579C80.6497 137.31 80.5872 137.091 80.4622 136.923C80.3411 136.755 80.1692 136.616 79.9465 136.507C79.7239 136.398 79.4583 136.306 79.1497 136.232C78.8411 136.157 78.4993 136.077 78.1243 135.991C77.6907 135.894 77.3274 135.798 77.0344 135.704C76.7454 135.611 76.5071 135.513 76.3196 135.411C76.1321 135.306 75.9719 135.195 75.8391 135.077C75.6438 134.898 75.4934 134.689 75.3879 134.45C75.2864 134.212 75.2356 133.939 75.2356 133.63C75.2356 132.923 75.5051 132.378 76.0442 131.995C76.5872 131.613 77.3625 131.421 78.3704 131.421C79.3079 131.421 80.0247 131.566 80.5208 131.855C81.0168 132.14 81.3645 132.628 81.5637 133.32L80.4622 133.513C80.3411 133.075 80.1106 132.759 79.7708 132.564C79.4309 132.365 78.9602 132.265 78.3586 132.265C77.6985 132.265 77.1946 132.374 76.8469 132.593C76.4993 132.812 76.3254 133.138 76.3254 133.572C76.3254 133.825 76.3918 134.036 76.5247 134.204C76.6614 134.368 76.8567 134.507 77.1106 134.62C77.3489 134.734 77.8547 134.876 78.6282 135.048C78.9446 135.122 79.2571 135.2 79.5657 135.282C79.8743 135.361 80.1653 135.46 80.4387 135.581C80.5989 135.648 80.7512 135.73 80.8958 135.827C81.0442 135.921 81.1731 136.031 81.2825 136.156C81.4309 136.32 81.5461 136.513 81.6282 136.736C81.7141 136.958 81.7571 137.22 81.7571 137.521Z" fill="white"/>
<path d="M111.4 124.867C111.4 125.473 111.265 125.999 110.996 126.446C110.727 126.892 110.345 127.239 109.848 127.485C109.356 127.726 108.768 127.847 108.084 127.847H105.254V131.6H103.948V121.968H108.002C109.082 121.968 109.919 122.221 110.511 122.727C111.103 123.233 111.4 123.946 111.4 124.867ZM110.087 124.88C110.087 123.636 109.34 123.014 107.845 123.014H105.254V126.815H107.9C108.629 126.815 109.176 126.655 109.54 126.336C109.905 126.013 110.087 125.528 110.087 124.88ZM114.339 127.745V131.6H113.109V125.926C113.109 125.667 113.104 125.393 113.095 125.106C113.09 124.819 113.081 124.518 113.068 124.204H114.23C114.239 124.413 114.246 124.602 114.25 124.771C114.259 124.94 114.266 125.088 114.271 125.215C114.275 125.338 114.278 125.443 114.278 125.53C114.282 125.612 114.284 125.673 114.284 125.714H114.312C114.448 125.268 114.599 124.921 114.763 124.675C114.922 124.447 115.105 124.29 115.31 124.204C115.515 124.112 115.768 124.067 116.069 124.067C116.237 124.067 116.404 124.09 116.568 124.135V125.263C116.413 125.218 116.194 125.195 115.911 125.195C115.401 125.195 115.011 125.416 114.742 125.858C114.474 126.295 114.339 126.924 114.339 127.745ZM118.967 121.456V122.631H117.737V121.456H118.967ZM118.967 124.204V131.6H117.737V124.204H118.967ZM121.223 134.505C120.895 134.505 120.612 134.48 120.375 134.43V133.507C120.548 133.535 120.74 133.548 120.949 133.548C121.332 133.548 121.685 133.405 122.009 133.118C122.337 132.835 122.629 132.318 122.884 131.566L119.951 124.204H121.264L122.823 128.292C122.936 128.583 123.057 128.914 123.185 129.283C123.317 129.652 123.42 129.978 123.492 130.26C123.606 129.937 123.72 129.615 123.834 129.296C123.953 128.977 124.067 128.658 124.176 128.339L125.591 124.204H126.89L124.046 131.6C123.891 131.992 123.743 132.334 123.602 132.625C123.461 132.922 123.324 133.166 123.192 133.357C122.927 133.744 122.633 134.031 122.31 134.218C121.991 134.41 121.628 134.505 121.223 134.505ZM129.747 131.737C129.004 131.737 128.446 131.541 128.073 131.149C127.699 130.757 127.512 130.219 127.512 129.536C127.512 128.77 127.763 128.182 128.264 127.772C128.77 127.362 129.583 127.143 130.704 127.116L132.365 127.088V126.685C132.365 126.083 132.238 125.653 131.983 125.393C131.727 125.133 131.326 125.003 130.78 125.003C130.228 125.003 129.827 125.097 129.576 125.284C129.326 125.471 129.175 125.769 129.125 126.179L127.84 126.063C128.05 124.732 129.039 124.067 130.807 124.067C131.737 124.067 132.436 124.281 132.906 124.709C133.375 125.133 133.61 125.749 133.61 126.555V129.741C133.61 130.105 133.657 130.381 133.753 130.568C133.849 130.75 134.031 130.841 134.3 130.841C134.428 130.841 134.562 130.825 134.703 130.793V131.559C134.548 131.596 134.391 131.623 134.232 131.641C134.072 131.659 133.913 131.668 133.753 131.668C133.297 131.668 132.965 131.55 132.755 131.313C132.55 131.071 132.434 130.695 132.406 130.185H132.365C132.051 130.75 131.684 131.151 131.265 131.388C130.85 131.621 130.344 131.737 129.747 131.737ZM132.365 127.95L131.019 127.977C130.445 127.982 130.007 128.041 129.706 128.155C129.406 128.264 129.175 128.433 129.016 128.661C128.856 128.889 128.777 129.187 128.777 129.556C128.777 129.957 128.884 130.267 129.098 130.486C129.317 130.705 129.627 130.814 130.028 130.814C130.483 130.814 130.884 130.711 131.231 130.506C131.582 130.301 131.857 130.021 132.058 129.666C132.263 129.306 132.365 128.936 132.365 128.558V127.95ZM147.302 128.941C147.302 129.83 146.953 130.518 146.256 131.005C145.563 131.493 144.586 131.737 143.323 131.737C140.976 131.737 139.616 130.921 139.242 129.29L140.507 129.037C140.653 129.615 140.963 130.042 141.437 130.315C141.911 130.584 142.556 130.718 143.371 130.718C144.214 130.718 144.864 130.575 145.32 130.288C145.78 129.996 146.01 129.57 146.01 129.009C146.01 128.695 145.937 128.44 145.791 128.244C145.65 128.048 145.449 127.886 145.19 127.758C144.93 127.631 144.62 127.524 144.26 127.437C143.9 127.35 143.501 127.257 143.064 127.157C142.558 127.043 142.134 126.931 141.792 126.822C141.455 126.712 141.177 126.598 140.958 126.48C140.74 126.357 140.553 126.227 140.398 126.09C140.17 125.881 139.994 125.637 139.871 125.359C139.753 125.081 139.694 124.762 139.694 124.402C139.694 123.577 140.008 122.941 140.637 122.495C141.27 122.048 142.175 121.825 143.351 121.825C144.445 121.825 145.281 121.993 145.86 122.331C146.438 122.663 146.844 123.233 147.076 124.04L145.791 124.265C145.65 123.755 145.381 123.386 144.985 123.158C144.588 122.925 144.039 122.809 143.337 122.809C142.567 122.809 141.979 122.937 141.573 123.192C141.168 123.447 140.965 123.828 140.965 124.333C140.965 124.63 141.043 124.876 141.198 125.072C141.357 125.263 141.585 125.425 141.881 125.557C142.159 125.689 142.749 125.856 143.652 126.056C144.021 126.143 144.385 126.234 144.745 126.33C145.105 126.421 145.445 126.537 145.764 126.678C145.951 126.756 146.128 126.851 146.297 126.965C146.47 127.075 146.621 127.202 146.748 127.348C146.921 127.54 147.056 127.765 147.152 128.025C147.252 128.285 147.302 128.59 147.302 128.941ZM150.112 125.468C150.376 124.985 150.693 124.632 151.062 124.409C151.435 124.181 151.907 124.067 152.477 124.067C153.279 124.067 153.869 124.277 154.247 124.696C154.63 125.111 154.822 125.769 154.822 126.671V131.6H153.584V126.911C153.584 126.241 153.466 125.758 153.229 125.461C152.996 125.165 152.607 125.017 152.06 125.017C151.481 125.017 151.016 125.218 150.665 125.619C150.319 126.02 150.146 126.56 150.146 127.239V131.6H148.915V121.456H150.146V124.094C150.146 124.277 150.141 124.47 150.132 124.675C150.123 124.876 150.114 125.051 150.105 125.202C150.1 125.347 150.096 125.436 150.091 125.468H150.112ZM158.568 131.737C157.825 131.737 157.267 131.541 156.893 131.149C156.519 130.757 156.332 130.219 156.332 129.536C156.332 128.77 156.583 128.182 157.084 127.772C157.59 127.362 158.404 127.143 159.525 127.116L161.186 127.088V126.685C161.186 126.083 161.058 125.653 160.803 125.393C160.548 125.133 160.147 125.003 159.6 125.003C159.048 125.003 158.647 125.097 158.397 125.284C158.146 125.471 157.996 125.769 157.946 126.179L156.66 126.063C156.87 124.732 157.859 124.067 159.627 124.067C160.557 124.067 161.256 124.281 161.726 124.709C162.195 125.133 162.43 125.749 162.43 126.555V129.741C162.43 130.105 162.478 130.381 162.573 130.568C162.669 130.75 162.851 130.841 163.12 130.841C163.248 130.841 163.382 130.825 163.524 130.793V131.559C163.369 131.596 163.212 131.623 163.052 131.641C162.892 131.659 162.733 131.668 162.573 131.668C162.118 131.668 161.785 131.55 161.575 131.313C161.37 131.071 161.254 130.695 161.227 130.185H161.186C160.871 130.75 160.504 131.151 160.085 131.388C159.67 131.621 159.165 131.737 158.568 131.737ZM161.186 127.95L159.839 127.977C159.265 127.982 158.827 128.041 158.527 128.155C158.226 128.264 157.996 128.433 157.836 128.661C157.677 128.889 157.597 129.187 157.597 129.556C157.597 129.957 157.704 130.267 157.918 130.486C158.137 130.705 158.447 130.814 158.848 130.814C159.304 130.814 159.705 130.711 160.051 130.506C160.402 130.301 160.678 130.021 160.878 129.666C161.083 129.306 161.186 128.936 161.186 128.558V127.95ZM165.732 127.745V131.6H164.501V125.926C164.501 125.667 164.497 125.393 164.488 125.106C164.483 124.819 164.474 124.518 164.46 124.204H165.622C165.631 124.413 165.638 124.602 165.643 124.771C165.652 124.94 165.659 125.088 165.663 125.215C165.668 125.338 165.67 125.443 165.67 125.53C165.675 125.612 165.677 125.673 165.677 125.714H165.704C165.841 125.268 165.991 124.921 166.156 124.675C166.315 124.447 166.497 124.29 166.702 124.204C166.907 124.112 167.16 124.067 167.461 124.067C167.63 124.067 167.796 124.09 167.96 124.135V125.263C167.805 125.218 167.587 125.195 167.304 125.195C166.794 125.195 166.404 125.416 166.135 125.858C165.866 126.295 165.732 126.924 165.732 127.745ZM170.387 127.314V131.6H169.163V125.783C169.163 125.35 169.159 125.003 169.15 124.744C169.145 124.479 169.136 124.299 169.122 124.204H170.284C170.294 124.304 170.303 124.427 170.312 124.573C170.321 124.719 170.328 124.871 170.332 125.031C170.337 125.186 170.339 125.332 170.339 125.468H170.36C170.624 124.944 170.927 124.58 171.269 124.375C171.611 124.169 172.028 124.067 172.52 124.067C173.08 124.067 173.522 124.179 173.846 124.402C174.174 124.625 174.402 124.981 174.53 125.468H174.55C174.805 124.972 175.113 124.614 175.473 124.395C175.837 124.176 176.277 124.067 176.792 124.067C177.54 124.067 178.082 124.27 178.419 124.675C178.761 125.081 178.932 125.746 178.932 126.671V131.6H177.715V126.911C177.715 126.195 177.617 125.701 177.421 125.427C177.225 125.154 176.872 125.017 176.362 125.017C175.824 125.017 175.405 125.218 175.104 125.619C174.808 126.015 174.659 126.58 174.659 127.314V131.6H173.443V126.911C173.443 126.195 173.345 125.701 173.149 125.427C172.953 125.154 172.6 125.017 172.089 125.017C171.565 125.017 171.15 125.218 170.845 125.619C170.54 126.02 170.387 126.585 170.387 127.314ZM182.685 131.737C181.942 131.737 181.384 131.541 181.01 131.149C180.636 130.757 180.449 130.219 180.449 129.536C180.449 128.77 180.7 128.182 181.201 127.772C181.707 127.362 182.521 127.143 183.642 127.116L185.303 127.088V126.685C185.303 126.083 185.175 125.653 184.92 125.393C184.665 125.133 184.264 125.003 183.717 125.003C183.166 125.003 182.765 125.097 182.514 125.284C182.263 125.471 182.113 125.769 182.063 126.179L180.778 126.063C180.987 124.732 181.976 124.067 183.744 124.067C184.674 124.067 185.374 124.281 185.843 124.709C186.312 125.133 186.547 125.749 186.547 126.555V129.741C186.547 130.105 186.595 130.381 186.691 130.568C186.786 130.75 186.969 130.841 187.238 130.841C187.365 130.841 187.5 130.825 187.641 130.793V131.559C187.486 131.596 187.329 131.623 187.169 131.641C187.01 131.659 186.85 131.668 186.691 131.668C186.235 131.668 185.902 131.55 185.693 131.313C185.488 131.071 185.371 130.695 185.344 130.185H185.303C184.989 130.75 184.622 131.151 184.202 131.388C183.788 131.621 183.282 131.737 182.685 131.737ZM185.303 127.95L183.956 127.977C183.382 127.982 182.945 128.041 182.644 128.155C182.343 128.264 182.113 128.433 181.953 128.661C181.794 128.889 181.714 129.187 181.714 129.556C181.714 129.957 181.821 130.267 182.035 130.486C182.254 130.705 182.564 130.814 182.965 130.814C183.421 130.814 183.822 130.711 184.168 130.506C184.519 130.301 184.795 130.021 184.995 129.666C185.2 129.306 185.303 128.936 185.303 128.558V127.95Z" fill="#E2E8F0"/>
<path d="M107.488 148.997C108.644 148.997 109.513 148.425 110.095 147.281L111.009 147.738C110.669 148.448 110.191 148.99 109.573 149.361C108.96 149.732 108.247 149.917 107.435 149.917C106.599 149.917 105.88 149.743 105.279 149.396C104.677 149.048 104.214 148.554 103.89 147.913C103.57 147.269 103.409 146.509 103.409 145.634C103.409 144.755 103.57 144.001 103.89 143.372C104.21 142.743 104.671 142.261 105.273 141.925C105.874 141.589 106.593 141.421 107.429 141.421C108.308 141.421 109.042 141.593 109.632 141.937C110.222 142.281 110.656 142.79 110.933 143.466L109.872 143.818C109.681 143.337 109.372 142.97 108.947 142.716C108.525 142.462 108.023 142.335 107.441 142.335C106.527 142.335 105.816 142.63 105.308 143.22C104.8 143.806 104.546 144.611 104.546 145.634C104.546 146.306 104.665 146.896 104.904 147.404C105.146 147.907 105.486 148.3 105.923 148.581C106.365 148.859 106.886 148.997 107.488 148.997ZM117.642 146.624C117.642 147.734 117.398 148.56 116.909 149.103C116.421 149.646 115.712 149.917 114.782 149.917C113.857 149.917 113.157 149.636 112.685 149.073C112.212 148.507 111.976 147.691 111.976 146.624C111.976 145.531 112.212 144.71 112.685 144.163C113.161 143.616 113.872 143.343 114.818 143.343C115.786 143.343 116.499 143.611 116.956 144.146C117.413 144.677 117.642 145.503 117.642 146.624ZM116.534 146.624C116.534 145.749 116.404 145.115 116.142 144.72C115.884 144.322 115.448 144.122 114.835 144.122C114.218 144.122 113.771 144.325 113.493 144.732C113.22 145.134 113.083 145.765 113.083 146.624C113.083 147.46 113.218 148.089 113.488 148.511C113.761 148.929 114.189 149.138 114.771 149.138C115.404 149.138 115.855 148.935 116.124 148.529C116.398 148.122 116.534 147.488 116.534 146.624ZM120.038 146.126V149.8H118.984V144.814C118.984 144.443 118.98 144.146 118.972 143.923C118.968 143.697 118.96 143.542 118.948 143.46H119.945C119.952 143.534 119.958 143.628 119.962 143.741C119.97 143.855 119.976 143.98 119.98 144.116C119.984 144.253 119.988 144.396 119.991 144.544H120.009C120.251 144.107 120.531 143.798 120.847 143.618C121.167 143.435 121.564 143.343 122.036 143.343C122.732 143.343 123.24 143.521 123.56 143.876C123.884 144.232 124.046 144.798 124.046 145.575V149.8H122.986V145.781C122.986 145.175 122.888 144.753 122.693 144.515C122.497 144.277 122.159 144.157 121.679 144.157C121.171 144.157 120.771 144.331 120.478 144.679C120.185 145.027 120.038 145.509 120.038 146.126ZM126.718 146.126V149.8H125.663V144.814C125.663 144.443 125.659 144.146 125.652 143.923C125.648 143.697 125.64 143.542 125.628 143.46H126.624C126.632 143.534 126.638 143.628 126.642 143.741C126.65 143.855 126.656 143.98 126.659 144.116C126.663 144.253 126.667 144.396 126.671 144.544H126.689C126.931 144.107 127.21 143.798 127.527 143.618C127.847 143.435 128.243 143.343 128.716 143.343C129.411 143.343 129.919 143.521 130.24 143.876C130.564 144.232 130.726 144.798 130.726 145.575V149.8H129.665V145.781C129.665 145.175 129.568 144.753 129.372 144.515C129.177 144.277 128.839 144.157 128.359 144.157C127.851 144.157 127.45 144.331 127.157 144.679C126.865 145.027 126.718 145.509 126.718 146.126ZM133.937 149.917C133.3 149.917 132.822 149.749 132.501 149.413C132.181 149.077 132.021 148.616 132.021 148.031C132.021 147.374 132.236 146.87 132.665 146.519C133.099 146.167 133.796 145.98 134.757 145.956L136.181 145.933V145.587C136.181 145.072 136.072 144.702 135.853 144.48C135.634 144.257 135.29 144.146 134.822 144.146C134.349 144.146 134.005 144.226 133.79 144.386C133.575 144.546 133.447 144.802 133.404 145.154L132.302 145.054C132.482 143.913 133.329 143.343 134.845 143.343C135.642 143.343 136.241 143.527 136.644 143.894C137.046 144.257 137.247 144.784 137.247 145.476V148.206C137.247 148.519 137.288 148.755 137.37 148.915C137.452 149.072 137.609 149.15 137.839 149.15C137.948 149.15 138.064 149.136 138.185 149.109V149.765C138.052 149.796 137.917 149.82 137.781 149.835C137.644 149.851 137.507 149.859 137.37 149.859C136.98 149.859 136.695 149.757 136.515 149.554C136.339 149.347 136.24 149.025 136.216 148.587H136.181C135.911 149.072 135.597 149.415 135.238 149.618C134.882 149.818 134.448 149.917 133.937 149.917ZM136.181 146.671L135.027 146.695C134.534 146.698 134.159 146.749 133.902 146.847C133.644 146.941 133.447 147.085 133.31 147.281C133.173 147.476 133.105 147.732 133.105 148.048C133.105 148.392 133.197 148.657 133.38 148.845C133.568 149.032 133.833 149.126 134.177 149.126C134.568 149.126 134.911 149.038 135.208 148.863C135.509 148.687 135.745 148.447 135.917 148.142C136.093 147.833 136.181 147.517 136.181 147.193V146.671ZM143.007 148.716C142.765 149.154 142.484 149.464 142.163 149.648C141.847 149.827 141.452 149.917 140.98 149.917C140.284 149.917 139.775 149.745 139.45 149.402C139.13 149.054 138.97 148.482 138.97 147.685V143.46H140.031V147.48C140.031 148.113 140.128 148.542 140.323 148.769C140.523 148.991 140.861 149.103 141.337 149.103C141.845 149.103 142.245 148.929 142.538 148.581C142.831 148.234 142.978 147.751 142.978 147.134V143.46H144.032V148.447C144.032 148.814 144.034 149.111 144.038 149.337C144.046 149.564 144.056 149.718 144.068 149.8H143.072C143.068 149.781 143.06 149.689 143.048 149.525C143.04 149.361 143.032 149.091 143.025 148.716H143.007ZM148.081 152.29C147.39 152.29 146.839 152.154 146.429 151.88C146.019 151.611 145.755 151.226 145.638 150.726L146.698 150.573C146.769 150.866 146.923 151.091 147.161 151.247C147.404 151.407 147.72 151.488 148.111 151.488C148.634 151.488 149.027 151.333 149.288 151.025C149.554 150.716 149.687 150.255 149.687 149.642V148.622H149.675C149.476 149.029 149.202 149.335 148.855 149.542C148.507 149.745 148.101 149.847 147.636 149.847C146.859 149.847 146.286 149.589 145.919 149.073C145.556 148.558 145.374 147.747 145.374 146.642C145.374 145.521 145.57 144.695 145.96 144.163C146.355 143.628 146.952 143.361 147.753 143.361C148.202 143.361 148.591 143.464 148.919 143.671C149.251 143.874 149.507 144.165 149.687 144.544H149.698C149.698 144.466 149.702 144.345 149.71 144.181C149.718 144.013 149.728 143.855 149.74 143.706C149.751 143.558 149.761 143.476 149.769 143.46H150.771C150.747 143.671 150.736 144.109 150.736 144.773V149.618C150.736 150.509 150.515 151.177 150.073 151.622C149.632 152.068 148.968 152.29 148.081 152.29ZM149.687 146.63C149.687 145.861 149.529 145.255 149.212 144.814C148.9 144.368 148.499 144.146 148.011 144.146C147.472 144.146 147.079 144.341 146.833 144.732C146.587 145.122 146.464 145.755 146.464 146.63C146.464 147.497 146.579 148.12 146.81 148.499C147.04 148.878 147.435 149.068 147.993 149.068C148.493 149.068 148.9 148.851 149.212 148.417C149.529 147.98 149.687 147.384 149.687 146.63ZM153.407 144.544C153.634 144.13 153.906 143.827 154.222 143.636C154.542 143.441 154.947 143.343 155.435 143.343C156.122 143.343 156.628 143.523 156.952 143.882C157.281 144.238 157.445 144.802 157.445 145.575V149.8H156.384V145.781C156.384 145.206 156.282 144.792 156.079 144.538C155.88 144.284 155.546 144.157 155.077 144.157C154.581 144.157 154.183 144.329 153.882 144.673C153.585 145.017 153.437 145.48 153.437 146.062V149.8H152.382V141.105H153.437V143.366C153.437 143.523 153.433 143.689 153.425 143.865C153.417 144.036 153.409 144.187 153.402 144.316C153.398 144.441 153.394 144.517 153.39 144.544H153.407ZM161.476 149.753C161.132 149.847 160.777 149.894 160.409 149.894C159.988 149.894 159.671 149.775 159.46 149.536C159.249 149.294 159.144 148.935 159.144 148.458V144.228H158.411V143.46H159.185L159.495 142.042H160.198V143.46H161.37V144.228H160.198V148.23C160.198 148.534 160.247 148.749 160.345 148.874C160.447 148.995 160.62 149.056 160.866 149.056C160.999 149.056 161.202 149.029 161.476 148.974V149.753ZM172.281 144.029C172.281 144.548 172.165 144.999 171.935 145.382C171.704 145.765 171.376 146.062 170.95 146.273C170.529 146.48 170.025 146.583 169.439 146.583H167.013V149.8H165.894V141.544H169.368C170.294 141.544 171.011 141.761 171.519 142.195C172.027 142.628 172.281 143.24 172.281 144.029ZM171.156 144.04C171.156 142.974 170.515 142.441 169.234 142.441H167.013V145.698H169.281C169.906 145.698 170.374 145.562 170.687 145.288C170.999 145.011 171.156 144.595 171.156 144.04ZM174.777 141.105V149.8H173.722V141.105H174.777ZM178.011 149.917C177.374 149.917 176.896 149.749 176.575 149.413C176.255 149.077 176.095 148.616 176.095 148.031C176.095 147.374 176.31 146.87 176.74 146.519C177.173 146.167 177.87 145.98 178.831 145.956L180.255 145.933V145.587C180.255 145.072 180.146 144.702 179.927 144.48C179.708 144.257 179.365 144.146 178.896 144.146C178.423 144.146 178.079 144.226 177.865 144.386C177.65 144.546 177.521 144.802 177.478 145.154L176.376 145.054C176.556 143.913 177.404 143.343 178.919 143.343C179.716 143.343 180.316 143.527 180.718 143.894C181.12 144.257 181.322 144.784 181.322 145.476V148.206C181.322 148.519 181.363 148.755 181.445 148.915C181.527 149.072 181.683 149.15 181.913 149.15C182.023 149.15 182.138 149.136 182.259 149.109V149.765C182.126 149.796 181.991 149.82 181.855 149.835C181.718 149.851 181.581 149.859 181.445 149.859C181.054 149.859 180.769 149.757 180.589 149.554C180.413 149.347 180.314 149.025 180.29 148.587H180.255C179.986 149.072 179.671 149.415 179.312 149.618C178.956 149.818 178.523 149.917 178.011 149.917ZM180.255 146.671L179.101 146.695C178.609 146.698 178.234 146.749 177.976 146.847C177.718 146.941 177.521 147.085 177.384 147.281C177.247 147.476 177.179 147.732 177.179 148.048C177.179 148.392 177.271 148.657 177.454 148.845C177.642 149.032 177.907 149.126 178.251 149.126C178.642 149.126 178.986 149.038 179.282 148.863C179.583 148.687 179.82 148.447 179.991 148.142C180.167 147.833 180.255 147.517 180.255 147.193V146.671ZM185.505 149.917C184.618 149.917 183.941 149.638 183.472 149.079C183.007 148.517 182.775 147.698 182.775 146.624C182.775 145.558 183.009 144.745 183.478 144.187C183.947 143.624 184.618 143.343 185.493 143.343C186.142 143.343 186.679 143.511 187.105 143.847C187.534 144.183 187.804 144.646 187.913 145.236L186.829 145.318C186.775 144.966 186.636 144.687 186.413 144.48C186.191 144.273 185.874 144.169 185.464 144.169C184.906 144.169 184.501 144.355 184.251 144.726C184.001 145.097 183.876 145.722 183.876 146.601C183.876 147.445 184.009 148.07 184.275 148.476C184.54 148.882 184.941 149.085 185.476 149.085C185.851 149.085 186.163 148.984 186.413 148.781C186.667 148.577 186.823 148.265 186.882 147.843L187.948 147.913C187.894 148.32 187.757 148.673 187.538 148.974C187.323 149.275 187.042 149.507 186.695 149.671C186.351 149.835 185.954 149.917 185.505 149.917ZM189.882 146.853C189.882 147.579 190.032 148.14 190.333 148.534C190.634 148.929 191.073 149.126 191.652 149.126C192.109 149.126 192.474 149.034 192.747 148.851C193.025 148.667 193.212 148.435 193.31 148.154L194.236 148.417C193.857 149.417 192.995 149.917 191.652 149.917C190.714 149.917 189.999 149.638 189.507 149.079C189.019 148.521 188.775 147.691 188.775 146.589C188.775 145.542 189.019 144.74 189.507 144.181C189.999 143.622 190.7 143.343 191.611 143.343C192.544 143.343 193.243 143.624 193.708 144.187C194.173 144.749 194.406 145.591 194.406 146.712V146.853H189.882ZM193.316 146.044C193.257 145.376 193.087 144.89 192.806 144.585C192.525 144.277 192.12 144.122 191.593 144.122C191.081 144.122 190.675 144.294 190.374 144.638C190.077 144.978 189.917 145.447 189.894 146.044H193.316ZM197.2 149.501C197.2 149.915 197.163 150.261 197.089 150.538C197.015 150.816 196.9 151.081 196.743 151.335H196.023C196.206 151.07 196.343 150.808 196.433 150.55C196.527 150.296 196.573 150.046 196.573 149.8H196.058V148.517H197.2V149.501ZM209.716 145.587C209.716 146.458 209.546 147.208 209.206 147.837C208.87 148.466 208.4 148.95 207.794 149.29C207.193 149.63 206.493 149.8 205.697 149.8H202.609V141.544H205.339C206.738 141.544 207.816 141.896 208.573 142.599C209.335 143.298 209.716 144.294 209.716 145.587ZM208.591 145.587C208.591 144.564 208.31 143.784 207.747 143.249C207.189 142.71 206.378 142.441 205.316 142.441H203.728V148.904H205.568C206.181 148.904 206.712 148.769 207.161 148.499C207.615 148.23 207.966 147.847 208.216 147.351C208.466 146.855 208.591 146.267 208.591 145.587ZM211.913 146.853C211.913 147.579 212.064 148.14 212.365 148.534C212.665 148.929 213.105 149.126 213.683 149.126C214.14 149.126 214.505 149.034 214.779 148.851C215.056 148.667 215.243 148.435 215.341 148.154L216.267 148.417C215.888 149.417 215.027 149.917 213.683 149.917C212.745 149.917 212.031 149.638 211.538 149.079C211.05 148.521 210.806 147.691 210.806 146.589C210.806 145.542 211.05 144.74 211.538 144.181C212.031 143.622 212.732 143.343 213.642 143.343C214.575 143.343 215.275 143.624 215.74 144.187C216.204 144.749 216.437 145.591 216.437 146.712V146.853H211.913ZM215.347 146.044C215.288 145.376 215.118 144.89 214.837 144.585C214.556 144.277 214.152 144.122 213.624 144.122C213.113 144.122 212.706 144.294 212.406 144.638C212.109 144.978 211.948 145.447 211.925 146.044H215.347ZM218.839 141.105V149.8H217.784V141.105H218.839ZM221.505 144.544C221.732 144.13 222.003 143.827 222.32 143.636C222.64 143.441 223.044 143.343 223.532 143.343C224.22 143.343 224.726 143.523 225.05 143.882C225.378 144.238 225.542 144.802 225.542 145.575V149.8H224.482V145.781C224.482 145.206 224.38 144.792 224.177 144.538C223.978 144.284 223.644 144.157 223.175 144.157C222.679 144.157 222.281 144.329 221.98 144.673C221.683 145.017 221.534 145.48 221.534 146.062V149.8H220.48V141.105H221.534V143.366C221.534 143.523 221.531 143.689 221.523 143.865C221.515 144.036 221.507 144.187 221.499 144.316C221.495 144.441 221.491 144.517 221.488 144.544H221.505ZM228.185 141.105V142.113H227.13V141.105H228.185ZM228.185 143.46V149.8H227.13V143.46H228.185Z" fill="#197ADC"/>
<path d="M261.021 138.904V139.8H255.847V138.904H257.951V132.552L256.088 133.882V132.886L258.039 131.544H259.011V138.904H261.021ZM266.81 138.904V139.8H261.636V138.904H263.74V132.552L261.877 133.882V132.886L263.828 131.544H264.801V138.904H266.81ZM269.64 133.46V134.673H268.498V133.46H269.64ZM269.64 138.587V139.8H268.498V138.587H269.64ZM276.83 138.904V139.8H271.656V138.904H273.76V132.552L271.896 133.882V132.886L273.847 131.544H274.82V138.904H276.83ZM283.592 137.111C283.592 137.982 283.332 138.667 282.812 139.167C282.297 139.667 281.58 139.917 280.662 139.917C279.892 139.917 279.271 139.749 278.799 139.413C278.326 139.077 278.027 138.591 277.902 137.954L278.969 137.831C279.082 138.238 279.281 138.544 279.566 138.751C279.851 138.954 280.224 139.056 280.685 139.056C281.252 139.056 281.695 138.886 282.015 138.546C282.336 138.202 282.496 137.732 282.496 137.134C282.496 136.615 282.334 136.195 282.01 135.874C281.689 135.554 281.256 135.394 280.709 135.394C280.424 135.394 280.158 135.439 279.912 135.529C279.666 135.618 279.42 135.771 279.174 135.986H278.142L278.418 131.544H283.111V132.441H279.379L279.22 135.06C279.677 134.708 280.246 134.532 280.926 134.532C281.469 134.532 281.939 134.642 282.338 134.861C282.736 135.075 283.045 135.376 283.263 135.763C283.482 136.15 283.592 136.599 283.592 137.111ZM288.906 137.386L287.957 139.8H286.797L290.166 131.544H291.437L294.754 139.8H293.611L292.668 137.386H288.906ZM290.787 132.388C290.72 132.607 290.64 132.851 290.547 133.12C290.457 133.386 290.373 133.62 290.295 133.823L289.246 136.513H292.334L291.273 133.788C291.219 133.652 291.146 133.458 291.056 133.208C290.967 132.958 290.877 132.685 290.787 132.388ZM296.758 134.292V139.8H295.761V131.544H297.232L299.429 137.269C299.508 137.499 299.582 137.747 299.652 138.013C299.726 138.275 299.775 138.464 299.799 138.581C299.822 138.476 299.861 138.331 299.916 138.148C299.97 137.96 300.025 137.781 300.08 137.609C300.135 137.437 300.174 137.323 300.197 137.269L302.353 131.544H303.789V139.8H302.781V134.292C302.781 133.988 302.785 133.689 302.793 133.396C302.804 133.103 302.818 132.816 302.834 132.534C302.736 132.882 302.644 133.195 302.558 133.472C302.476 133.745 302.396 133.98 302.318 134.175L300.185 139.8H299.4L297.238 134.175L296.717 132.534C296.724 132.827 296.732 133.12 296.74 133.413C296.752 133.706 296.758 133.999 296.758 134.292Z" fill="#62748E"/>
</g>
<defs>
<filter id="filter0_d_1105_1636" x="0" y="0" width="364" height="237.6" filterUnits="userSpaceOnUse" color-interpolation-filters="sRGB">
<feFlood flood-opacity="0" result="BackgroundImageFix"/>
<feColorMatrix in="SourceAlpha" type="matrix" values="0 0 0 0 0 0 0 0 0 0 0 0 0 0 0 0 0 0 127 0" result="hardAlpha"/>
<feMorphology radius="12" operator="erode" in="SourceAlpha" result="effect1_dropShadow_1105_1636"/>
<feOffset dy="25"/>
<feGaussianBlur stdDeviation="25"/>
<feComposite in2="hardAlpha" operator="out"/>
<feColorMatrix type="matrix" values="0 0 0 0 0 0 0 0 0 0 0 0 0 0 0 0 0 0 0.25 0"/>
<feBlend mode="normal" in2="BackgroundImageFix" result="effect1_dropShadow_1105_1636"/>
<feBlend mode="normal" in="SourceGraphic" in2="effect1_dropShadow_1105_1636" result="shape"/>
</filter>
<linearGradient id="paint0_linear_1105_1636" x1="38" y1="13" x2="175.926" y2="258.808" gradientUnits="userSpaceOnUse">
<stop stop-color="#1D293D"/>
<stop offset="1" stop-color="#0F172B"/>
</linearGradient>
<linearGradient id="paint1_linear_1105_1636" x1="74.8" y1="71.8" x2="74.8" y2="103.8" gradientUnits="userSpaceOnUse">
<stop stop-color="#197ADC"/>
<stop offset="1" stop-color="#155C9E"/>
</linearGradient>
<linearGradient id="paint2_linear_1105_1636" x1="74.8" y1="119.8" x2="74.8" y2="151.8" gradientUnits="userSpaceOnUse">
<stop stop-color="#197ADC"/>
<stop offset="1" stop-color="#155C9E"/>
</linearGradient>
<clipPath id="clip0_1105_1636">
<rect width="16" height="16" fill="white" transform="translate(58.8 35.8)"/>
</clipPath>
</defs>
</svg>
