<svg width="364" height="246" viewBox="0 0 364 246" fill="none" xmlns="http://www.w3.org/2000/svg">
<g filter="url(#filter0_d_1105_1704)">
<mask id="path-1-inside-1_1105_1704" fill="white">
<path d="M38 29C38 20.1634 45.1634 13 54 13H310C318.837 13 326 20.1634 326 29V166.6C326 175.437 318.837 182.6 310 182.6H54C45.1635 182.6 38 175.437 38 166.6V29Z"/>
</mask>
<path d="M38 29C38 20.1634 45.1634 13 54 13H310C318.837 13 326 20.1634 326 29V166.6C326 175.437 318.837 182.6 310 182.6H54C45.1635 182.6 38 175.437 38 166.6V29Z" fill="url(#paint0_linear_1105_1704)" shape-rendering="crispEdges"/>
<path d="M54 13V13.8H310V13V12.2H54V13ZM326 29H325.2V166.6H326H326.8V29H326ZM310 182.6V181.8H54V182.6V183.4H310V182.6ZM38 166.6H38.8V29H38H37.2V166.6H38ZM54 182.6V181.8C45.6053 181.8 38.8 174.995 38.8 166.6H38H37.2C37.2 175.878 44.7216 183.4 54 183.4V182.6ZM326 166.6H325.2C325.2 174.995 318.395 181.8 310 181.8V182.6V183.4C319.278 183.4 326.8 175.878 326.8 166.6H326ZM310 13V13.8C318.395 13.8 325.2 20.6053 325.2 29H326H326.8C326.8 19.7216 319.278 12.2 310 12.2V13ZM54 13V12.2C44.7216 12.2 37.2 19.7216 37.2 29H38H38.8C38.8 20.6053 45.6053 13.8 54 13.8V13Z" fill="#314158" fill-opacity="0.5" mask="url(#path-1-inside-1_1105_1704)"/>
<path d="M60.8 37.8V48.4667C60.8 48.8203 60.9405 49.1595 61.1906 49.4095C61.4406 49.6596 61.7798 49.8 62.1334 49.8H72.8" stroke="#197ADC" stroke-width="1.33333" stroke-linecap="round" stroke-linejoin="round"/>
<path d="M70.8 47.1334V41.8" stroke="#197ADC" stroke-width="1.33333" stroke-linecap="round" stroke-linejoin="round"/>
<path d="M67.4668 47.1333V39.1333" stroke="#197ADC" stroke-width="1.33333" stroke-linecap="round" stroke-linejoin="round"/>
<path d="M64.1333 47.1333V45.1333" stroke="#197ADC" stroke-width="1.33333" stroke-linecap="round" stroke-linejoin="round"/>
<path d="M87.7219 39.0347V47.6001H86.4231V39.0347H83.1145V37.9683H91.0305V39.0347H87.7219ZM101.319 42.7397C101.319 43.7697 101.123 44.6584 100.731 45.4058C100.343 46.1532 99.7919 46.7297 99.0764 47.1353C98.3609 47.5363 97.5133 47.7368 96.5334 47.7368C95.5491 47.7368 94.6991 47.5363 93.9836 47.1353C93.2727 46.7342 92.7236 46.16 92.3362 45.4126C91.9534 44.6652 91.762 43.7743 91.762 42.7397C91.762 41.7098 91.9511 40.8302 92.3293 40.1011C92.7122 39.3674 93.259 38.8045 93.97 38.4126C94.6855 38.0207 95.5445 37.8247 96.5471 37.8247C97.5315 37.8247 98.3792 38.0184 99.0901 38.4058C99.8056 38.7931 100.355 39.3537 100.738 40.0874C101.125 40.8166 101.319 41.7007 101.319 42.7397ZM99.9856 42.7397C99.9856 41.5412 99.6848 40.6001 99.0833 39.9165C98.4862 39.2329 97.6409 38.8911 96.5471 38.8911C95.4443 38.8911 94.592 39.2284 93.9905 39.9028C93.3889 40.5773 93.0881 41.5229 93.0881 42.7397C93.0881 43.5418 93.2249 44.2391 93.4983 44.8315C93.7717 45.4194 94.1659 45.8752 94.6809 46.1987C95.1959 46.5177 95.8134 46.6772 96.5334 46.6772C97.6454 46.6772 98.4976 46.3354 99.0901 45.6519C99.6871 44.9637 99.9856 43.993 99.9856 42.7397ZM111.436 42.6851C111.436 43.7013 111.238 44.5763 110.841 45.3101C110.449 46.0438 109.9 46.6089 109.194 47.0054C108.492 47.4019 107.676 47.6001 106.746 47.6001H103.144V37.9683H106.329C107.961 37.9683 109.219 38.3784 110.103 39.1987C110.991 40.0145 111.436 41.1766 111.436 42.6851ZM110.123 42.6851C110.123 41.491 109.795 40.5819 109.139 39.9575C108.487 39.3286 107.542 39.0142 106.302 39.0142H104.449V46.5542H106.596C107.311 46.5542 107.931 46.397 108.455 46.0825C108.984 45.7681 109.394 45.3215 109.686 44.7427C109.977 44.1639 110.123 43.478 110.123 42.6851ZM114.601 44.7837L113.493 47.6001H112.14L116.071 37.9683H117.554L121.423 47.6001H120.09L118.99 44.7837H114.601ZM116.795 38.9526C116.718 39.2078 116.624 39.4927 116.515 39.8071C116.41 40.117 116.312 40.3905 116.221 40.6274L114.997 43.7651H118.6L117.363 40.5864C117.299 40.4269 117.214 40.2013 117.11 39.9097C117.005 39.618 116.9 39.299 116.795 38.9526ZM125.723 43.6079V47.6001H124.424V43.6079L120.719 37.9683H122.155L125.087 42.5552L128.006 37.9683H129.442L125.723 43.6079ZM131.718 37.9683L131.568 40.9966H130.604L130.46 37.9683H131.718ZM141.124 44.9409C141.124 45.8296 140.776 46.5177 140.078 47.0054C139.386 47.493 138.408 47.7368 137.146 47.7368C134.799 47.7368 133.438 46.9211 133.065 45.2896L134.329 45.0366C134.475 45.6154 134.785 46.0415 135.259 46.3149C135.733 46.5838 136.378 46.7183 137.194 46.7183C138.037 46.7183 138.686 46.5747 139.142 46.2876C139.602 45.9959 139.832 45.5698 139.832 45.0093C139.832 44.6948 139.759 44.4396 139.614 44.2437C139.472 44.0477 139.272 43.8859 139.012 43.7583C138.752 43.6307 138.442 43.5236 138.082 43.437C137.722 43.3504 137.323 43.257 136.886 43.1567C136.38 43.0428 135.956 42.9312 135.615 42.8218C135.277 42.7124 134.999 42.5985 134.781 42.48C134.562 42.3569 134.375 42.2271 134.22 42.0903C133.992 41.8807 133.817 41.6369 133.694 41.3589C133.575 41.0809 133.516 40.7619 133.516 40.4019C133.516 39.577 133.83 38.9412 134.459 38.4946C135.093 38.048 135.997 37.8247 137.173 37.8247C138.267 37.8247 139.103 37.9933 139.682 38.3306C140.261 38.6632 140.666 39.2329 140.899 40.0396L139.614 40.2651C139.472 39.7547 139.203 39.3856 138.807 39.1577C138.41 38.9253 137.861 38.8091 137.159 38.8091C136.389 38.8091 135.801 38.9367 135.396 39.1919C134.99 39.4471 134.787 39.8276 134.787 40.3335C134.787 40.6297 134.865 40.8758 135.02 41.0718C135.179 41.2632 135.407 41.425 135.703 41.5571C135.981 41.6893 136.572 41.8556 137.474 42.0562C137.843 42.1427 138.208 42.2339 138.568 42.3296C138.928 42.4207 139.267 42.5369 139.586 42.6782C139.773 42.7557 139.951 42.8514 140.119 42.9653C140.293 43.0747 140.443 43.2023 140.571 43.3481C140.744 43.5396 140.878 43.7651 140.974 44.0249C141.074 44.2847 141.124 44.59 141.124 44.9409ZM155.883 42.7397C155.883 43.7697 155.687 44.6584 155.295 45.4058C154.908 46.1532 154.356 46.7297 153.641 47.1353C152.925 47.5363 152.078 47.7368 151.098 47.7368C150.114 47.7368 149.264 47.5363 148.548 47.1353C147.837 46.7342 147.288 46.16 146.901 45.4126C146.518 44.6652 146.326 43.7743 146.326 42.7397C146.326 41.7098 146.516 40.8302 146.894 40.1011C147.277 39.3674 147.823 38.8045 148.534 38.4126C149.25 38.0207 150.109 37.8247 151.112 37.8247C152.096 37.8247 152.944 38.0184 153.655 38.4058C154.37 38.7931 154.919 39.3537 155.302 40.0874C155.689 40.8166 155.883 41.7007 155.883 42.7397ZM154.55 42.7397C154.55 41.5412 154.249 40.6001 153.648 39.9165C153.051 39.2329 152.205 38.8911 151.112 38.8911C150.009 38.8911 149.156 39.2284 148.555 39.9028C147.953 40.5773 147.653 41.5229 147.653 42.7397C147.653 43.5418 147.789 44.2391 148.063 44.8315C148.336 45.4194 148.73 45.8752 149.245 46.1987C149.76 46.5177 150.378 46.6772 151.098 46.6772C152.21 46.6772 153.062 46.3354 153.655 45.6519C154.252 44.9637 154.55 43.993 154.55 42.7397ZM165.836 37.9683L161.906 47.6001H160.552L156.621 37.9683H157.995L160.661 44.7495C160.771 45.0275 160.869 45.3101 160.955 45.5972C161.046 45.8843 161.14 46.1691 161.236 46.4517C161.327 46.1691 161.422 45.8729 161.523 45.563C161.623 45.2531 161.719 44.9819 161.81 44.7495L164.462 37.9683H165.836ZM174.634 46.5337V47.6001H167.046V37.9683H174.354V39.0347H168.352V42.1245H173.944V43.1772H168.352V46.5337H174.634ZM177.69 43.6011V47.6001H176.384V37.9683H180.916C182.001 37.9683 182.837 38.2121 183.425 38.6997C184.017 39.1828 184.314 39.8573 184.314 40.7231C184.314 41.4386 184.104 42.0402 183.685 42.5278C183.27 43.0155 182.696 43.3231 181.962 43.4507L184.697 47.6001H183.193L180.691 43.6011H177.69ZM183.001 40.7368C183.001 40.1763 182.81 39.7502 182.427 39.4585C182.049 39.1623 181.502 39.0142 180.786 39.0142H177.69V42.5688H180.841C181.529 42.5688 182.06 42.4093 182.434 42.0903C182.812 41.7668 183.001 41.3156 183.001 40.7368ZM194.369 37.9683L190.439 47.6001H189.085L185.155 37.9683H186.529L189.195 44.7495C189.304 45.0275 189.402 45.3101 189.489 45.5972C189.58 45.8843 189.673 46.1691 189.769 46.4517C189.86 46.1691 189.956 45.8729 190.056 45.563C190.156 45.2531 190.252 44.9819 190.343 44.7495L192.995 37.9683H194.369ZM197.029 37.9683V47.6001H195.723V37.9683H197.029ZM207.064 46.5337V47.6001H199.476V37.9683H206.783V39.0347H200.781V42.1245H206.373V43.1772H200.781V46.5337H207.064ZM213.797 41.5161L212.122 47.6001H210.564L207.727 37.9683H209.087L210.817 44.0864C210.921 44.4692 211.019 44.8589 211.111 45.2554C211.206 45.6473 211.297 46.0461 211.384 46.4517C211.42 46.283 211.468 46.062 211.528 45.7886C211.591 45.5106 211.657 45.228 211.726 44.9409C211.794 44.6538 211.856 44.4123 211.91 44.2163L213.66 37.9683H214.911L216.586 43.9634C216.714 44.451 216.828 44.9045 216.928 45.3237C217.028 45.7384 217.115 46.1144 217.188 46.4517C217.256 46.1828 217.327 45.8934 217.4 45.5835C217.477 45.269 217.548 44.9842 217.612 44.729C217.68 44.4692 217.728 44.2847 217.755 44.1753L219.471 37.9683H220.831L217.994 47.6001H216.436L214.768 41.4819C214.713 41.2905 214.645 41.0239 214.563 40.6821C214.485 40.3403 214.394 39.9211 214.289 39.4243C214.248 39.6659 214.194 39.9279 214.125 40.2104C214.061 40.4884 213.998 40.7459 213.934 40.9829C213.875 41.2199 213.829 41.3976 213.797 41.5161Z" fill="white"/>
<path d="M58.8 79.8C58.8 74.2772 63.2772 69.8 68.8 69.8H166C171.523 69.8 176 74.2772 176 79.8V151.8C176 157.323 171.523 161.8 166 161.8H68.8001C63.2772 161.8 58.8 157.323 58.8 151.8V79.8Z" fill="#1D293D" fill-opacity="0.5"/>
<g clip-path="url(#clip0_1105_1704)">
<path d="M81.4668 86.4668H85.4668V90.4668" stroke="#197ADC" stroke-width="1.33333" stroke-linecap="round" stroke-linejoin="round"/>
<path d="M85.4666 86.4668L79.8 92.1335L76.4666 88.8001L72.1333 93.1335" stroke="#197ADC" stroke-width="1.33333" stroke-linecap="round" stroke-linejoin="round"/>
</g>
<path d="M73.885 115.658L77.1018 120.8H75.2649L72.0833 115.386V114.595H72.4788C73.4866 114.595 74.2336 114.451 74.72 114.164C75.2063 113.871 75.4905 113.37 75.5725 112.661H72.0833V111.545H75.5549C75.4143 110.824 75.1155 110.309 74.6584 109.998C74.2073 109.688 73.5627 109.532 72.7249 109.532H72.0833V108.416H79.5364V109.532H76.135C76.6975 109.984 77.0374 110.655 77.1545 111.545H79.5364V112.661H77.1897C77.0198 114.366 75.9182 115.365 73.885 115.658ZM89.9514 119.455V120.8H82.1907V119.455H85.3459V109.928L82.551 111.923V110.429L85.4778 108.416H86.9368V119.455H89.9514ZM99.9446 119.455V120.8H91.7444V119.684C92.0432 118.998 92.4036 118.392 92.8254 117.865C93.2532 117.337 93.7073 116.863 94.1877 116.441C94.6682 116.019 95.1428 115.626 95.6116 115.263C95.8459 115.081 96.0657 114.9 96.2708 114.718C96.4817 114.536 96.6809 114.355 96.8684 114.173C97.2434 113.81 97.5452 113.429 97.7737 113.031C98.0081 112.632 98.1252 112.181 98.1252 111.677C98.1252 110.997 97.926 110.47 97.5276 110.095C97.1292 109.72 96.5754 109.532 95.8665 109.532C95.1926 109.532 94.636 109.717 94.1965 110.086C93.7629 110.449 93.5081 110.962 93.4319 111.624L91.8147 111.475C91.9319 110.485 92.3508 109.697 93.0715 109.111C93.7981 108.525 94.7297 108.232 95.8665 108.232C97.1145 108.232 98.0725 108.528 98.7405 109.119C99.4143 109.705 99.7512 110.54 99.7512 111.624C99.7512 112.105 99.6399 112.582 99.4172 113.057C99.2004 113.531 98.8752 114.006 98.4417 114.481C98.2249 114.715 97.9084 115.017 97.4924 115.386C97.0764 115.755 96.5637 116.189 95.9543 116.687C95.2805 117.238 94.7444 117.736 94.3459 118.181C93.9475 118.62 93.6604 119.045 93.4846 119.455H99.9446ZM110.114 116.766C110.114 118.073 109.724 119.101 108.945 119.851C108.171 120.601 107.096 120.976 105.719 120.976C104.565 120.976 103.633 120.724 102.924 120.22C102.215 119.716 101.767 118.987 101.579 118.031L103.179 117.847C103.349 118.456 103.648 118.916 104.075 119.227C104.503 119.531 105.063 119.684 105.754 119.684C106.604 119.684 107.269 119.429 107.749 118.919C108.23 118.404 108.47 117.698 108.47 116.801C108.47 116.022 108.227 115.392 107.74 114.911C107.26 114.431 106.61 114.191 105.789 114.191C105.362 114.191 104.963 114.258 104.594 114.393C104.225 114.528 103.856 114.756 103.487 115.078H101.94L102.353 108.416H109.393V109.761H103.794L103.557 113.69C104.242 113.162 105.095 112.899 106.115 112.899C106.929 112.899 107.635 113.063 108.233 113.391C108.83 113.713 109.293 114.164 109.621 114.744C109.949 115.324 110.114 115.998 110.114 116.766ZM114.033 116.054V120.8H112.355V108.416H114.033V114.621L120.001 108.416H121.979L116.705 113.795L122.682 120.8H120.599L115.651 114.823L114.033 116.054Z" fill="white"/>
<path d="M75.0188 138.458V145.8H73.9055V138.458H71.0696V137.544H77.8547V138.458H75.0188ZM82.97 142.624C82.97 143.734 82.7258 144.56 82.2375 145.103C81.7493 145.646 81.0403 145.917 80.1106 145.917C79.1848 145.917 78.4856 145.636 78.0129 145.073C77.5403 144.507 77.304 143.691 77.304 142.624C77.304 141.531 77.5403 140.71 78.0129 140.163C78.4895 139.616 79.2004 139.343 80.1458 139.343C81.1145 139.343 81.8274 139.611 82.2844 140.146C82.7415 140.677 82.97 141.503 82.97 142.624ZM81.8625 142.624C81.8625 141.749 81.7317 141.115 81.47 140.72C81.2122 140.322 80.7766 140.122 80.1633 140.122C79.5461 140.122 79.0989 140.325 78.8215 140.732C78.5481 141.134 78.4114 141.765 78.4114 142.624C78.4114 143.46 78.5461 144.089 78.8157 144.511C79.0891 144.929 79.5168 145.138 80.0989 145.138C80.7317 145.138 81.1829 144.935 81.4524 144.529C81.7258 144.122 81.8625 143.488 81.8625 142.624ZM86.7258 145.753C86.3821 145.847 86.0266 145.894 85.6594 145.894C85.2375 145.894 84.9211 145.775 84.7102 145.536C84.4993 145.294 84.3938 144.935 84.3938 144.458V140.228H83.6614V139.46H84.4348L84.7454 138.042H85.4485V139.46H86.6204V140.228H85.4485V144.23C85.4485 144.534 85.4973 144.749 85.595 144.874C85.6965 144.995 85.8704 145.056 86.1165 145.056C86.2493 145.056 86.4524 145.029 86.7258 144.974V145.753ZM89.2454 145.917C88.6086 145.917 88.1301 145.749 87.8098 145.413C87.4895 145.077 87.3293 144.616 87.3293 144.031C87.3293 143.374 87.5442 142.87 87.9739 142.519C88.4075 142.167 89.1047 141.98 90.0657 141.956L91.4895 141.933V141.587C91.4895 141.072 91.3801 140.702 91.1614 140.48C90.9426 140.257 90.5989 140.146 90.1301 140.146C89.6575 140.146 89.3137 140.226 89.0989 140.386C88.884 140.546 88.7551 140.802 88.7122 141.154L87.6106 141.054C87.7903 139.913 88.6379 139.343 90.1536 139.343C90.9504 139.343 91.55 139.527 91.9524 139.894C92.3547 140.257 92.5559 140.784 92.5559 141.476V144.206C92.5559 144.519 92.5969 144.755 92.679 144.915C92.761 145.072 92.9172 145.15 93.1477 145.15C93.2571 145.15 93.3723 145.136 93.4934 145.109V145.765C93.3606 145.796 93.2258 145.82 93.0891 145.835C92.9524 145.851 92.8157 145.859 92.679 145.859C92.2883 145.859 92.0032 145.757 91.8235 145.554C91.6477 145.347 91.5481 145.025 91.5247 144.587H91.4895C91.22 145.072 90.9055 145.415 90.5461 145.618C90.1907 145.818 89.7571 145.917 89.2454 145.917ZM91.4895 142.671L90.3352 142.695C89.843 142.698 89.468 142.749 89.2102 142.847C88.9524 142.941 88.7551 143.085 88.6184 143.281C88.4817 143.476 88.4133 143.732 88.4133 144.048C88.4133 144.392 88.5051 144.657 88.6887 144.845C88.8762 145.032 89.1418 145.126 89.4856 145.126C89.8762 145.126 90.22 145.038 90.5168 144.863C90.8176 144.687 91.054 144.447 91.2258 144.142C91.4016 143.833 91.4895 143.517 91.4895 143.193V142.671ZM95.3625 137.105V145.8H94.3079V137.105H95.3625ZM106.964 143.521C106.964 144.282 106.665 144.872 106.068 145.29C105.474 145.708 104.636 145.917 103.554 145.917C101.542 145.917 100.376 145.218 100.056 143.82L101.14 143.603C101.265 144.099 101.531 144.464 101.937 144.698C102.343 144.929 102.896 145.044 103.595 145.044C104.318 145.044 104.874 144.921 105.265 144.675C105.659 144.425 105.857 144.06 105.857 143.579C105.857 143.31 105.794 143.091 105.669 142.923C105.548 142.755 105.376 142.616 105.154 142.507C104.931 142.398 104.665 142.306 104.357 142.232C104.048 142.157 103.706 142.077 103.331 141.991C102.898 141.894 102.534 141.798 102.241 141.704C101.952 141.611 101.714 141.513 101.527 141.411C101.339 141.306 101.179 141.195 101.046 141.077C100.851 140.898 100.7 140.689 100.595 140.45C100.493 140.212 100.443 139.939 100.443 139.63C100.443 138.923 100.712 138.378 101.251 137.995C101.794 137.613 102.57 137.421 103.577 137.421C104.515 137.421 105.232 137.566 105.728 137.855C106.224 138.14 106.572 138.628 106.771 139.32L105.669 139.513C105.548 139.075 105.318 138.759 104.978 138.564C104.638 138.365 104.167 138.265 103.566 138.265C102.906 138.265 102.402 138.374 102.054 138.593C101.706 138.812 101.532 139.138 101.532 139.572C101.532 139.825 101.599 140.036 101.732 140.204C101.868 140.368 102.064 140.507 102.318 140.62C102.556 140.734 103.062 140.876 103.835 141.048C104.152 141.122 104.464 141.2 104.773 141.282C105.081 141.361 105.372 141.46 105.646 141.581C105.806 141.648 105.958 141.73 106.103 141.827C106.251 141.921 106.38 142.031 106.49 142.156C106.638 142.32 106.753 142.513 106.835 142.736C106.921 142.958 106.964 143.22 106.964 143.521ZM109.941 145.917C109.304 145.917 108.825 145.749 108.505 145.413C108.185 145.077 108.025 144.616 108.025 144.031C108.025 143.374 108.24 142.87 108.669 142.519C109.103 142.167 109.8 141.98 110.761 141.956L112.185 141.933V141.587C112.185 141.072 112.075 140.702 111.857 140.48C111.638 140.257 111.294 140.146 110.825 140.146C110.353 140.146 110.009 140.226 109.794 140.386C109.579 140.546 109.45 140.802 109.407 141.154L108.306 141.054C108.486 139.913 109.333 139.343 110.849 139.343C111.646 139.343 112.245 139.527 112.648 139.894C113.05 140.257 113.251 140.784 113.251 141.476V144.206C113.251 144.519 113.292 144.755 113.374 144.915C113.456 145.072 113.613 145.15 113.843 145.15C113.952 145.15 114.068 145.136 114.189 145.109V145.765C114.056 145.796 113.921 145.82 113.784 145.835C113.648 145.851 113.511 145.859 113.374 145.859C112.984 145.859 112.698 145.757 112.519 145.554C112.343 145.347 112.243 145.025 112.22 144.587H112.185C111.915 145.072 111.601 145.415 111.241 145.618C110.886 145.818 110.452 145.917 109.941 145.917ZM112.185 142.671L111.031 142.695C110.538 142.698 110.163 142.749 109.906 142.847C109.648 142.941 109.45 143.085 109.314 143.281C109.177 143.476 109.109 143.732 109.109 144.048C109.109 144.392 109.2 144.657 109.384 144.845C109.572 145.032 109.837 145.126 110.181 145.126C110.572 145.126 110.915 145.038 111.212 144.863C111.513 144.687 111.749 144.447 111.921 144.142C112.097 143.833 112.185 143.517 112.185 143.193V142.671ZM116.058 137.105V145.8H115.003V137.105H116.058ZM118.484 142.853C118.484 143.579 118.634 144.14 118.935 144.534C119.236 144.929 119.675 145.126 120.253 145.126C120.71 145.126 121.075 145.034 121.349 144.851C121.626 144.667 121.814 144.435 121.911 144.154L122.837 144.417C122.458 145.417 121.597 145.917 120.253 145.917C119.316 145.917 118.601 145.638 118.109 145.079C117.62 144.521 117.376 143.691 117.376 142.589C117.376 141.542 117.62 140.74 118.109 140.181C118.601 139.622 119.302 139.343 120.212 139.343C121.146 139.343 121.845 139.624 122.31 140.187C122.775 140.749 123.007 141.591 123.007 142.712V142.853H118.484ZM121.917 142.044C121.859 141.376 121.689 140.89 121.407 140.585C121.126 140.277 120.722 140.122 120.195 140.122C119.683 140.122 119.277 140.294 118.976 140.638C118.679 140.978 118.519 141.447 118.495 142.044H121.917ZM129.113 144.048C129.113 144.646 128.886 145.107 128.433 145.431C127.984 145.755 127.353 145.917 126.54 145.917C125.751 145.917 125.142 145.788 124.712 145.531C124.286 145.269 124.009 144.863 123.88 144.312L124.812 144.13C124.902 144.47 125.087 144.72 125.368 144.88C125.65 145.036 126.04 145.115 126.54 145.115C127.075 145.115 127.466 145.032 127.712 144.868C127.962 144.704 128.087 144.458 128.087 144.13C128.087 143.88 128.001 143.677 127.829 143.521C127.657 143.365 127.38 143.236 126.997 143.134C126.544 143.013 126.183 142.913 125.913 142.835C125.648 142.757 125.443 142.691 125.298 142.636C125.154 142.577 125.038 142.523 124.952 142.472C124.695 142.323 124.493 142.142 124.349 141.927C124.204 141.712 124.132 141.448 124.132 141.136C124.132 140.558 124.337 140.118 124.747 139.818C125.161 139.513 125.763 139.361 126.552 139.361C127.251 139.361 127.806 139.484 128.216 139.73C128.63 139.976 128.892 140.37 129.001 140.913L128.052 141.031C127.993 140.749 127.835 140.534 127.577 140.386C127.323 140.234 126.982 140.157 126.552 140.157C126.075 140.157 125.724 140.23 125.497 140.374C125.271 140.519 125.157 140.738 125.157 141.031C125.157 141.245 125.222 141.423 125.351 141.564C125.48 141.7 125.726 141.814 126.089 141.904C126.577 142.021 127.042 142.15 127.484 142.29C127.925 142.427 128.241 142.564 128.433 142.7C128.656 142.861 128.823 143.05 128.937 143.269C129.054 143.484 129.113 143.743 129.113 144.048Z" fill="#62748E"/>
<path d="M188 79.8C188 74.2772 192.477 69.8 198 69.8H295.2C300.723 69.8 305.2 74.2772 305.2 79.8V151.8C305.2 157.323 300.723 161.8 295.2 161.8H198C192.477 161.8 188 157.323 188 151.8V79.8Z" fill="#1D293D" fill-opacity="0.5"/>
<g clip-path="url(#clip1_1105_1704)">
<path d="M207.333 96.2867C207.536 96.4038 207.766 96.4654 208 96.4654C208.234 96.4654 208.464 96.4038 208.667 96.2867L213.333 93.6201C213.536 93.5032 213.704 93.3351 213.821 93.1326C213.938 92.9302 214 92.7005 214 92.4667V87.1334C214 86.8996 213.938 86.6699 213.821 86.4675C213.704 86.2651 213.536 86.097 213.333 85.9801L208.667 83.3134C208.464 83.1964 208.234 83.1348 208 83.1348C207.766 83.1348 207.536 83.1964 207.333 83.3134L202.667 85.9801C202.464 86.097 202.296 86.2651 202.179 86.4675C202.062 86.6699 202 86.8996 202 87.1334V92.4667C202 92.7005 202.062 92.9302 202.179 93.1326C202.296 93.3351 202.464 93.5032 202.667 93.6201L207.333 96.2867Z" stroke="#197ADC" stroke-width="1.33333" stroke-linecap="round" stroke-linejoin="round"/>
<path d="M208 96.4667V89.8" stroke="#197ADC" stroke-width="1.33333" stroke-linecap="round" stroke-linejoin="round"/>
<path d="M202.193 86.4668L208 89.8001L213.807 86.4668" stroke="#197ADC" stroke-width="1.33333" stroke-linecap="round" stroke-linejoin="round"/>
<path d="M205 84.6467L211 88.0801" stroke="#197ADC" stroke-width="1.33333" stroke-linecap="round" stroke-linejoin="round"/>
</g>
<path d="M209.22 117.381C209.22 118.524 208.856 119.408 208.13 120.035C207.403 120.662 206.366 120.976 205.019 120.976C203.765 120.976 202.763 120.695 202.013 120.132C201.269 119.564 200.826 118.726 200.686 117.618L202.32 117.469C202.531 118.934 203.431 119.666 205.019 119.666C205.815 119.666 206.439 119.47 206.891 119.077C207.348 118.685 207.576 118.102 207.576 117.328C207.576 116.655 207.315 116.13 206.794 115.755C206.278 115.374 205.531 115.184 204.553 115.184H203.656V113.813H204.518C205.385 113.813 206.056 113.625 206.53 113.25C207.011 112.869 207.251 112.345 207.251 111.677C207.251 111.015 207.055 110.493 206.662 110.113C206.275 109.726 205.698 109.532 204.931 109.532C204.233 109.532 203.668 109.711 203.234 110.069C202.807 110.426 202.558 110.93 202.487 111.58L200.896 111.457C201.014 110.444 201.433 109.653 202.153 109.084C202.88 108.516 203.812 108.232 204.948 108.232C206.19 108.232 207.154 108.522 207.84 109.102C208.531 109.676 208.877 110.479 208.877 111.51C208.877 112.301 208.654 112.946 208.209 113.444C207.77 113.936 207.128 114.27 206.284 114.446V114.481C207.21 114.58 207.931 114.891 208.446 115.412C208.962 115.934 209.22 116.59 209.22 117.381ZM217.763 117.996V120.8H216.269V117.996H210.433V116.766L216.102 108.416H217.763V116.748H219.503V117.996H217.763ZM211.892 116.748H216.269V111.809C216.269 111.539 216.269 111.273 216.269 111.009C216.274 110.74 216.286 110.47 216.304 110.2C216.169 110.458 216.052 110.669 215.952 110.833C215.853 110.991 215.762 111.129 215.68 111.246L211.892 116.748ZM229.145 119.455V120.8H220.944V119.684C221.243 118.998 221.604 118.392 222.025 117.865C222.453 117.337 222.907 116.863 223.388 116.441C223.868 116.019 224.343 115.626 224.812 115.263C225.046 115.081 225.266 114.9 225.471 114.718C225.682 114.536 225.881 114.355 226.068 114.173C226.443 113.81 226.745 113.429 226.974 113.031C227.208 112.632 227.325 112.181 227.325 111.677C227.325 110.997 227.126 110.47 226.728 110.095C226.329 109.72 225.775 109.532 225.066 109.532C224.393 109.532 223.836 109.717 223.396 110.086C222.963 110.449 222.708 110.962 222.632 111.624L221.015 111.475C221.132 110.485 221.551 109.697 222.271 109.111C222.998 108.525 223.93 108.232 225.066 108.232C226.314 108.232 227.272 108.528 227.94 109.119C228.614 109.705 228.951 110.54 228.951 111.624C228.951 112.105 228.84 112.582 228.617 113.057C228.4 113.531 228.075 114.006 227.642 114.481C227.425 114.715 227.108 115.017 226.692 115.386C226.276 115.755 225.764 116.189 225.154 116.687C224.48 117.238 223.944 117.736 223.546 118.181C223.147 118.62 222.86 119.045 222.685 119.455H229.145Z" fill="white"/>
<path d="M204.219 138.458V145.8H203.105V138.458H200.27V137.544H207.055V138.458H204.219ZM212.17 142.624C212.17 143.734 211.926 144.56 211.438 145.103C210.949 145.646 210.24 145.917 209.311 145.917C208.385 145.917 207.686 145.636 207.213 145.073C206.74 144.507 206.504 143.691 206.504 142.624C206.504 141.531 206.74 140.71 207.213 140.163C207.689 139.616 208.4 139.343 209.346 139.343C210.314 139.343 211.027 139.611 211.484 140.146C211.941 140.677 212.17 141.503 212.17 142.624ZM211.062 142.624C211.062 141.749 210.932 141.115 210.67 140.72C210.412 140.322 209.977 140.122 209.363 140.122C208.746 140.122 208.299 140.325 208.021 140.732C207.748 141.134 207.611 141.765 207.611 142.624C207.611 143.46 207.746 144.089 208.016 144.511C208.289 144.929 208.717 145.138 209.299 145.138C209.932 145.138 210.383 144.935 210.652 144.529C210.926 144.122 211.062 143.488 211.062 142.624ZM215.926 145.753C215.582 145.847 215.227 145.894 214.859 145.894C214.438 145.894 214.121 145.775 213.91 145.536C213.699 145.294 213.594 144.935 213.594 144.458V140.228H212.861V139.46H213.635L213.945 138.042H214.648V139.46H215.82V140.228H214.648V144.23C214.648 144.534 214.697 144.749 214.795 144.874C214.896 144.995 215.07 145.056 215.316 145.056C215.449 145.056 215.652 145.029 215.926 144.974V145.753ZM218.445 145.917C217.809 145.917 217.33 145.749 217.01 145.413C216.689 145.077 216.529 144.616 216.529 144.031C216.529 143.374 216.744 142.87 217.174 142.519C217.607 142.167 218.305 141.98 219.266 141.956L220.689 141.933V141.587C220.689 141.072 220.58 140.702 220.361 140.48C220.143 140.257 219.799 140.146 219.33 140.146C218.857 140.146 218.514 140.226 218.299 140.386C218.084 140.546 217.955 140.802 217.912 141.154L216.811 141.054C216.99 139.913 217.838 139.343 219.354 139.343C220.15 139.343 220.75 139.527 221.152 139.894C221.555 140.257 221.756 140.784 221.756 141.476V144.206C221.756 144.519 221.797 144.755 221.879 144.915C221.961 145.072 222.117 145.15 222.348 145.15C222.457 145.15 222.572 145.136 222.693 145.109V145.765C222.561 145.796 222.426 145.82 222.289 145.835C222.152 145.851 222.016 145.859 221.879 145.859C221.488 145.859 221.203 145.757 221.023 145.554C220.848 145.347 220.748 145.025 220.725 144.587H220.689C220.42 145.072 220.105 145.415 219.746 145.618C219.391 145.818 218.957 145.917 218.445 145.917ZM220.689 142.671L219.535 142.695C219.043 142.698 218.668 142.749 218.41 142.847C218.152 142.941 217.955 143.085 217.818 143.281C217.682 143.476 217.613 143.732 217.613 144.048C217.613 144.392 217.705 144.657 217.889 144.845C218.076 145.032 218.342 145.126 218.686 145.126C219.076 145.126 219.42 145.038 219.717 144.863C220.018 144.687 220.254 144.447 220.426 144.142C220.602 143.833 220.689 143.517 220.689 143.193V142.671ZM224.562 137.105V145.8H223.508V137.105H224.562ZM237.471 141.634C237.471 142.517 237.303 143.279 236.967 143.919C236.635 144.56 236.162 145.054 235.549 145.402C234.936 145.745 234.209 145.917 233.369 145.917C232.525 145.917 231.797 145.745 231.184 145.402C230.574 145.058 230.104 144.566 229.771 143.925C229.443 143.284 229.279 142.521 229.279 141.634C229.279 140.751 229.441 139.997 229.766 139.372C230.094 138.743 230.562 138.261 231.172 137.925C231.785 137.589 232.521 137.421 233.381 137.421C234.225 137.421 234.951 137.587 235.561 137.919C236.174 138.251 236.645 138.732 236.973 139.361C237.305 139.986 237.471 140.743 237.471 141.634ZM236.328 141.634C236.328 140.607 236.07 139.8 235.555 139.214C235.043 138.628 234.318 138.335 233.381 138.335C232.436 138.335 231.705 138.624 231.189 139.202C230.674 139.781 230.416 140.591 230.416 141.634C230.416 142.322 230.533 142.919 230.768 143.427C231.002 143.931 231.34 144.322 231.781 144.599C232.223 144.872 232.752 145.009 233.369 145.009C234.322 145.009 235.053 144.716 235.561 144.13C236.072 143.54 236.328 142.708 236.328 141.634ZM239.938 142.495V145.8H238.883V140.937C238.883 140.714 238.879 140.48 238.871 140.234C238.867 139.988 238.859 139.73 238.848 139.46H239.844C239.852 139.64 239.857 139.802 239.861 139.947C239.869 140.091 239.875 140.218 239.879 140.327C239.883 140.433 239.885 140.523 239.885 140.597C239.889 140.667 239.891 140.72 239.891 140.755H239.914C240.031 140.372 240.16 140.075 240.301 139.865C240.438 139.669 240.594 139.534 240.77 139.46C240.945 139.382 241.162 139.343 241.42 139.343C241.564 139.343 241.707 139.363 241.848 139.402V140.368C241.715 140.329 241.527 140.31 241.285 140.31C240.848 140.31 240.514 140.499 240.283 140.878C240.053 141.253 239.938 141.792 239.938 142.495ZM246.939 145.8C246.932 145.757 246.922 145.677 246.91 145.56C246.902 145.439 246.895 145.306 246.887 145.161C246.883 145.017 246.881 144.89 246.881 144.781H246.857C246.662 145.187 246.402 145.478 246.078 145.654C245.758 145.829 245.359 145.917 244.883 145.917C244.082 145.917 243.492 145.648 243.113 145.109C242.738 144.57 242.551 143.753 242.551 142.659C242.551 141.554 242.744 140.726 243.131 140.175C243.521 139.62 244.105 139.343 244.883 139.343C245.363 139.343 245.764 139.431 246.084 139.607C246.404 139.782 246.662 140.062 246.857 140.445H246.869L246.857 139.736V137.105H247.912V144.493C247.912 144.825 247.914 145.101 247.918 145.32C247.926 145.534 247.936 145.695 247.947 145.8H246.939ZM243.658 142.624C243.658 143.511 243.775 144.146 244.01 144.529C244.244 144.911 244.625 145.103 245.152 145.103C245.75 145.103 246.184 144.896 246.453 144.482C246.723 144.068 246.857 143.425 246.857 142.554C246.857 141.714 246.723 141.099 246.453 140.708C246.184 140.318 245.754 140.122 245.164 140.122C244.633 140.122 244.248 140.32 244.01 140.714C243.775 141.105 243.658 141.741 243.658 142.624ZM250.344 142.853C250.344 143.579 250.494 144.14 250.795 144.534C251.096 144.929 251.535 145.126 252.113 145.126C252.57 145.126 252.936 145.034 253.209 144.851C253.486 144.667 253.674 144.435 253.771 144.154L254.697 144.417C254.318 145.417 253.457 145.917 252.113 145.917C251.176 145.917 250.461 145.638 249.969 145.079C249.48 144.521 249.236 143.691 249.236 142.589C249.236 141.542 249.48 140.74 249.969 140.181C250.461 139.622 251.162 139.343 252.072 139.343C253.006 139.343 253.705 139.624 254.17 140.187C254.635 140.749 254.867 141.591 254.867 142.712V142.853H250.344ZM253.777 142.044C253.719 141.376 253.549 140.89 253.268 140.585C252.986 140.277 252.582 140.122 252.055 140.122C251.543 140.122 251.137 140.294 250.836 140.638C250.539 140.978 250.379 141.447 250.355 142.044H253.777ZM257.293 142.495V145.8H256.238V140.937C256.238 140.714 256.234 140.48 256.227 140.234C256.223 139.988 256.215 139.73 256.203 139.46H257.199C257.207 139.64 257.213 139.802 257.217 139.947C257.225 140.091 257.23 140.218 257.234 140.327C257.238 140.433 257.24 140.523 257.24 140.597C257.244 140.667 257.246 140.72 257.246 140.755H257.27C257.387 140.372 257.516 140.075 257.656 139.865C257.793 139.669 257.949 139.534 258.125 139.46C258.301 139.382 258.518 139.343 258.775 139.343C258.92 139.343 259.062 139.363 259.203 139.402V140.368C259.07 140.329 258.883 140.31 258.641 140.31C258.203 140.31 257.869 140.499 257.639 140.878C257.408 141.253 257.293 141.792 257.293 142.495ZM264.969 144.048C264.969 144.646 264.742 145.107 264.289 145.431C263.84 145.755 263.209 145.917 262.396 145.917C261.607 145.917 260.998 145.788 260.568 145.531C260.143 145.269 259.865 144.863 259.736 144.312L260.668 144.13C260.758 144.47 260.943 144.72 261.225 144.88C261.506 145.036 261.896 145.115 262.396 145.115C262.932 145.115 263.322 145.032 263.568 144.868C263.818 144.704 263.943 144.458 263.943 144.13C263.943 143.88 263.857 143.677 263.686 143.521C263.514 143.365 263.236 143.236 262.854 143.134C262.4 143.013 262.039 142.913 261.77 142.835C261.504 142.757 261.299 142.691 261.154 142.636C261.01 142.577 260.895 142.523 260.809 142.472C260.551 142.323 260.35 142.142 260.205 141.927C260.061 141.712 259.988 141.448 259.988 141.136C259.988 140.558 260.193 140.118 260.604 139.818C261.018 139.513 261.619 139.361 262.408 139.361C263.107 139.361 263.662 139.484 264.072 139.73C264.486 139.976 264.748 140.37 264.857 140.913L263.908 141.031C263.85 140.749 263.691 140.534 263.434 140.386C263.18 140.234 262.838 140.157 262.408 140.157C261.932 140.157 261.58 140.23 261.354 140.374C261.127 140.519 261.014 140.738 261.014 141.031C261.014 141.245 261.078 141.423 261.207 141.564C261.336 141.7 261.582 141.814 261.945 141.904C262.434 142.021 262.898 142.15 263.34 142.29C263.781 142.427 264.098 142.564 264.289 142.7C264.512 142.861 264.68 143.05 264.793 143.269C264.91 143.484 264.969 143.743 264.969 144.048Z" fill="#62748E"/>
</g>
<defs>
<filter id="filter0_d_1105_1704" x="0" y="0" width="364" height="245.6" filterUnits="userSpaceOnUse" color-interpolation-filters="sRGB">
<feFlood flood-opacity="0" result="BackgroundImageFix"/>
<feColorMatrix in="SourceAlpha" type="matrix" values="0 0 0 0 0 0 0 0 0 0 0 0 0 0 0 0 0 0 127 0" result="hardAlpha"/>
<feMorphology radius="12" operator="erode" in="SourceAlpha" result="effect1_dropShadow_1105_1704"/>
<feOffset dy="25"/>
<feGaussianBlur stdDeviation="25"/>
<feComposite in2="hardAlpha" operator="out"/>
<feColorMatrix type="matrix" values="0 0 0 0 0 0 0 0 0 0 0 0 0 0 0 0 0 0 0.25 0"/>
<feBlend mode="normal" in2="BackgroundImageFix" result="effect1_dropShadow_1105_1704"/>
<feBlend mode="normal" in="SourceGraphic" in2="effect1_dropShadow_1105_1704" result="shape"/>
</filter>
<linearGradient id="paint0_linear_1105_1704" x1="38" y1="13" x2="186.316" y2="264.858" gradientUnits="userSpaceOnUse">
<stop stop-color="#1D293D"/>
<stop offset="1" stop-color="#0F172B"/>
</linearGradient>
<clipPath id="clip0_1105_1704">
<rect width="16" height="16" fill="white" transform="translate(70.8 81.8)"/>
</clipPath>
<clipPath id="clip1_1105_1704">
<rect width="16" height="16" fill="white" transform="translate(200 81.8)"/>
</clipPath>
</defs>
</svg>
