<svg width="20" height="20" viewBox="0 0 20 20" fill="none" xmlns="http://www.w3.org/2000/svg">
<path d="M14.4828 15C14.9617 15 15.3688 14.8481 15.704 14.5443C16.0393 14.2405 16.2069 13.8715 16.2069 13.4375C16.2069 13.0035 16.0393 12.6345 15.704 12.3307C15.3688 12.0269 14.9617 11.875 14.4828 11.875C14.0038 11.875 13.5967 12.0269 13.2615 12.3307C12.9262 12.6345 12.7586 13.0035 12.7586 13.4375C12.7586 13.8715 12.9262 14.2405 13.2615 14.5443C13.5967 14.8481 14.0038 15 14.4828 15ZM14.4802 18.125C15.0949 18.125 15.6609 17.9861 16.1782 17.7083C16.6954 17.4306 17.1073 17.066 17.4138 16.6146C16.9732 16.3889 16.5065 16.2196 16.0138 16.1068C15.5211 15.9939 15.0086 15.9375 14.4764 15.9375C13.9443 15.9375 13.4339 15.9983 12.9454 16.1198C12.4569 16.2413 11.9923 16.4063 11.5517 16.6146C11.8582 17.066 12.2693 17.4306 12.7848 17.7083C13.3003 17.9861 13.8654 18.125 14.4802 18.125ZM8.96552 20C6.41762 19.4792 4.2864 18.1727 2.57184 16.0807C0.85728 13.9887 0 11.658 0 9.08854V3.125L8.96552 0L17.931 3.125V8.88021C17.5096 8.7066 17.136 8.56771 16.8103 8.46354C16.4847 8.35938 16.1686 8.28993 15.8621 8.25521V4.40104L8.96552 2.00521L2.06897 4.40104V9.08854C2.06897 9.93924 2.1887 10.7726 2.42816 11.5885C2.66762 12.4045 3.01724 13.1727 3.47701 13.8932C3.93678 14.6137 4.49713 15.2734 5.15805 15.8724C5.81897 16.4714 6.5613 16.9965 7.38506 17.4479C7.53831 17.8472 7.78257 18.2682 8.11782 18.7109C8.45307 19.1536 8.82184 19.566 9.22414 19.9479L9.09483 19.974L8.96552 20ZM14.4762 20C12.948 20 11.6475 19.5119 10.5747 18.5357C9.50192 17.5596 8.96552 16.3791 8.96552 14.994C8.96552 13.6091 9.50412 12.4306 10.5813 11.4583C11.6583 10.4861 12.961 10 14.4894 10C16.0175 10 17.318 10.4881 18.3908 11.4643C19.4636 12.4404 20 13.6209 20 15.006C20 16.3909 19.4614 17.5694 18.3842 18.5417C17.3072 19.5139 16.0045 20 14.4762 20Z" fill="black"/>
</svg>
