<svg width="15" height="17" viewBox="0 0 15 17" fill="none" xmlns="http://www.w3.org/2000/svg">
<path d="M5.82031 13.3594L12.5 6.67969L11.3281 5.50781L5.82031 10.9766L3.67188 8.82812L2.5 10L5.82031 13.3594ZM8.08594 1.91406C7.92969 1.75781 7.73438 1.67969 7.5 1.67969C7.26562 1.67969 7.07031 1.75781 6.91406 1.91406C6.75781 2.07031 6.67969 2.26562 6.67969 2.5C6.67969 2.73438 6.75781 2.94271 6.91406 3.125C7.07031 3.28125 7.26562 3.35938 7.5 3.35938C7.73438 3.35938 7.92969 3.28125 8.08594 3.125C8.24219 2.94271 8.32031 2.73438 8.32031 2.5C8.32031 2.26562 8.24219 2.07031 8.08594 1.91406ZM13.3203 1.67969C13.763 1.67969 14.1536 1.84896 14.4922 2.1875C14.8307 2.52604 15 2.91667 15 3.35938V15C15 15.4427 14.8307 15.8333 14.4922 16.1719C14.1536 16.5104 13.763 16.6797 13.3203 16.6797H1.67969C1.23698 16.6797 0.846354 16.5104 0.507812 16.1719C0.169271 15.8333 0 15.4427 0 15V3.35938C0 2.91667 0.169271 2.52604 0.507812 2.1875C0.846354 1.84896 1.23698 1.67969 1.67969 1.67969H5.15625C5.33854 1.1849 5.63802 0.78125 6.05469 0.46875C6.47135 0.15625 6.95312 0 7.5 0C8.04688 0 8.52865 0.15625 8.94531 0.46875C9.36198 0.78125 9.66146 1.1849 9.84375 1.67969H13.3203Z" fill="black"/>
</svg>
