<svg width="22" height="22" viewBox="0 0 22 22" fill="none" xmlns="http://www.w3.org/2000/svg">
<path d="M12.8333 1.83334H5.49996C4.76358 1.83334 4.05729 2.12617 3.53594 2.64752C3.01459 3.16887 2.72179 3.87516 2.72179 4.61154V17.3885C2.72179 18.1248 3.01459 18.8311 3.53594 19.3525C4.05729 19.8738 4.76358 20.1667 5.49996 20.1667H16.5C17.2364 20.1667 17.9427 19.8738 18.464 19.3525C18.9854 18.8311 19.2782 18.1248 19.2782 17.3885V8.27851L12.8333 1.83334Z" stroke="black" stroke-width="2" stroke-linecap="round" stroke-linejoin="round"/>
<path d="M12.8334 1.83334V8.27851H19.2782" stroke="black" stroke-width="2" stroke-linecap="round" stroke-linejoin="round"/>
<path d="M14.6667 12.1H7.33337" stroke="black" stroke-width="2" stroke-linecap="round" stroke-linejoin="round"/>
<path d="M14.6667 15.8333H7.33337" stroke="black" stroke-width="2" stroke-linecap="round" stroke-linejoin="round"/>
<path d="M9.16671 8.36667H8.25004H7.33337" stroke="black" stroke-width="2" stroke-linecap="round" stroke-linejoin="round"/>
</svg>
