<svg width="20" height="20" viewBox="0 0 20 20" fill="none" xmlns="http://www.w3.org/2000/svg">
<path d="M2 17.6488V17.8571V2.14286V17.6488ZM2 20C1.45 20 0.979167 19.7902 0.5875 19.3705C0.195833 18.9509 0 18.4464 0 17.8571V2.14286C0 1.55357 0.195833 1.04911 0.5875 0.629465C0.979167 0.209822 1.45 0 2 0H16.6667C17.2167 0 17.6875 0.209822 18.0792 0.629465C18.4708 1.04911 18.6667 1.55357 18.6667 2.14286V5.05952H16.6667V2.14286H2V17.8571H16.6667V14.9107H18.6667V17.8571C18.6667 18.4464 18.4708 18.9509 18.0792 19.3705C17.6875 19.7902 17.2167 20 16.6667 20H2ZM10 15.7143C9.45 15.7143 8.97917 15.5045 8.5875 15.0848C8.19583 14.6652 8 14.1607 8 13.5714V6.42857C8 5.83929 8.19583 5.33482 8.5875 4.91518C8.97917 4.49554 9.45 4.28571 10 4.28571H18C18.55 4.28571 19.0208 4.49554 19.4125 4.91518C19.8042 5.33482 20 5.83929 20 6.42857V13.5714C20 14.1607 19.8042 14.6652 19.4125 15.0848C19.0208 15.5045 18.55 15.7143 18 15.7143H10ZM18 13.5714V6.42857H10V13.5714H18ZM14 11.7857C14.463 11.7857 14.8565 11.6121 15.1806 11.2649C15.5046 10.9177 15.6667 10.496 15.6667 10C15.6667 9.50397 15.5046 9.08234 15.1806 8.73512C14.8565 8.3879 14.463 8.21429 14 8.21429C13.537 8.21429 13.1435 8.3879 12.8194 8.73512C12.4954 9.08234 12.3333 9.50397 12.3333 10C12.3333 10.496 12.4954 10.9177 12.8194 11.2649C13.1435 11.6121 13.537 11.7857 14 11.7857Z" fill="black"/>
</svg>
