<svg width="20" height="20" viewBox="0 0 20 20" fill="none" xmlns="http://www.w3.org/2000/svg">
<path d="M7.49972 2.49992H3.33319C2.87296 2.49992 2.49988 2.87301 2.49988 3.33323V9.16638C2.49988 9.62661 2.87296 9.99969 3.33319 9.99969H7.49972C7.95994 9.99969 8.33303 9.62661 8.33303 9.16638V3.33323C8.33303 2.87301 7.95994 2.49992 7.49972 2.49992Z" stroke="black" stroke-width="1.66661" stroke-linecap="round" stroke-linejoin="round"/>
<path d="M16.6661 2.49992H12.4996C12.0393 2.49992 11.6663 2.87301 11.6663 3.33323V5.83315C11.6663 6.29338 12.0393 6.66646 12.4996 6.66646H16.6661C17.1263 6.66646 17.4994 6.29338 17.4994 5.83315V3.33323C17.4994 2.87301 17.1263 2.49992 16.6661 2.49992Z" stroke="black" stroke-width="1.66661" stroke-linecap="round" stroke-linejoin="round"/>
<path d="M16.6661 9.99969H12.4996C12.0393 9.99969 11.6663 10.3728 11.6663 10.833V16.6661C11.6663 17.1264 12.0393 17.4995 12.4996 17.4995H16.6661C17.1263 17.4995 17.4994 17.1264 17.4994 16.6661V10.833C17.4994 10.3728 17.1263 9.99969 16.6661 9.99969Z" stroke="black" stroke-width="1.66661" stroke-linecap="round" stroke-linejoin="round"/>
<path d="M7.49972 13.3329H3.33319C2.87296 13.3329 2.49988 13.706 2.49988 14.1662V16.6661C2.49988 17.1264 2.87296 17.4995 3.33319 17.4995H7.49972C7.95994 17.4995 8.33303 17.1264 8.33303 16.6661V14.1662C8.33303 13.706 7.95994 13.3329 7.49972 13.3329Z" stroke="black" stroke-width="1.66661" stroke-linecap="round" stroke-linejoin="round"/>
</svg>
