<svg width="20" height="20" viewBox="0 0 20 20" fill="none" xmlns="http://www.w3.org/2000/svg">
<path d="M7.58929 16.875L6.07143 15.5469L8.48214 13.4375L6.07143 11.3281L7.58929 10L10 12.1094L12.4107 10L13.9286 11.3281L11.5179 13.4375L13.9286 15.5469L12.4107 16.875L10 14.7656L7.58929 16.875ZM2.14286 20C1.55357 20 1.04911 19.8134 0.629464 19.4401C0.209821 19.0668 0 18.6285 0 18.125V4.375C0 3.87153 0.209821 3.43316 0.629464 3.0599C1.04911 2.68663 1.55357 2.5 2.14286 2.5H4.28571V0H6.42857V2.5H13.5714V0H15.7143V2.5H17.8571C18.4464 2.5 18.9509 2.68663 19.3705 3.0599C19.7902 3.43316 20 3.87153 20 4.375V18.125C20 18.6285 19.7902 19.0668 19.3705 19.4401C18.9509 19.8134 18.4464 20 17.8571 20H2.14286ZM2.14286 18.125H17.8571V8.75H2.14286V18.125ZM2.14286 6.875H17.8571V4.375H2.14286V6.875Z" fill="black"/>
</svg>
