<svg width="20" height="20" viewBox="0 0 20 20" fill="none" xmlns="http://www.w3.org/2000/svg">
<path d="M1.875 20C1.35937 20 0.917969 19.8042 0.550781 19.4125C0.183594 19.0208 0 18.55 0 18V6C0 5.45 0.183594 4.97917 0.550781 4.5875C0.917969 4.19583 1.35937 4 1.875 4H6.25V1.99417C6.25 1.4425 6.43385 0.972222 6.80156 0.583333C7.1691 0.194444 7.61102 0 8.12734 0H11.8818C12.3981 0 12.8385 0.195834 13.2031 0.587501C13.5677 0.979167 13.75 1.45 13.75 2V4H18.125C18.6406 4 19.082 4.19583 19.4492 4.5875C19.8164 4.97917 20 5.45 20 6V18C20 18.55 19.8164 19.0208 19.4492 19.4125C19.082 19.8042 18.6406 20 18.125 20H1.875ZM1.875 18H18.125V6H1.875V18ZM8.125 4H11.875V2H8.125V4Z" fill="black"/>
</svg>
