<svg width="20" height="20" viewBox="0 0 20 20" fill="none" xmlns="http://www.w3.org/2000/svg">
<path d="M8.67188 14.2361C9.07118 14.7454 9.56597 14.9826 10.1562 14.9479C10.7465 14.9132 11.1806 14.6181 11.4583 14.0625L16.875 3.33333L8.82396 10.5646C8.39271 10.9521 8.15972 11.5336 8.125 12.309C8.09028 13.0845 8.27257 13.7269 8.67188 14.2361ZM10.026 0C11.0677 0 12.0052 0.179398 12.8385 0.538194C13.6719 0.896991 14.4271 1.34259 15.1042 1.875L13.3073 3.4375C12.8212 3.13657 12.3134 2.90509 11.7839 2.74306C11.2543 2.58102 10.6684 2.5 10.026 2.5C7.76754 2.5 5.84436 3.58218 4.25651 5.74653C2.66884 7.91088 1.875 10.4398 1.875 13.3333C1.875 14.213 1.92274 14.9363 2.01823 15.5035C2.11372 16.0706 2.26563 16.7361 2.47396 17.5H17.5C17.7257 16.7361 17.8863 16.0359 17.9818 15.3993C18.0773 14.7627 18.125 14.0741 18.125 13.3333C18.125 12.3611 18.0252 11.3889 17.8255 10.4167C17.6259 9.44444 17.3351 8.55324 16.9531 7.74306L18.0729 5.48611C18.6806 6.59722 19.1536 7.82407 19.4922 9.16667C19.8307 10.5093 20 11.875 20 13.2639C20 14.4444 19.9262 15.4745 19.7786 16.3542C19.6311 17.2338 19.3924 18.044 19.0625 18.7847C18.8889 19.1782 18.6675 19.4792 18.3984 19.6875C18.1293 19.8958 17.8299 20 17.5 20H2.5C2.17014 20 1.87066 19.8958 1.60156 19.6875C1.33247 19.4792 1.11111 19.1782 0.9375 18.7847C0.607639 18.044 0.368924 17.2338 0.221354 16.3542C0.0737847 15.4745 0 14.4444 0 13.2639C0 11.4185 0.264757 9.68982 0.794271 8.07778C1.32378 6.46574 2.03993 5.06366 2.94271 3.87153C3.84549 2.6794 4.90833 1.73611 6.13125 1.04167C7.35417 0.347222 8.65243 0 10.026 0Z" fill="black"/>
</svg>
