<svg width="20" height="20" viewBox="0 0 20 20" fill="none" xmlns="http://www.w3.org/2000/svg">
<path d="M1.9598 20V5.66667L0 0.944444L1.80905 0L4.17085 5.61111H15.8291L18.191 0L20 0.944444L18.0402 5.66667V20H1.9598ZM7.98995 12.2222H12.0101C12.2948 12.2222 12.5335 12.1157 12.7261 11.9028C12.9188 11.6898 13.0151 11.4259 13.0151 11.1111C13.0151 10.7963 12.9188 10.5324 12.7261 10.3194C12.5335 10.1065 12.2948 10 12.0101 10H7.98995C7.70519 10 7.4665 10.1065 7.27387 10.3194C7.08124 10.5324 6.98492 10.7963 6.98492 11.1111C6.98492 11.4259 7.08124 11.6898 7.27387 11.9028C7.4665 12.1157 7.70519 12.2222 7.98995 12.2222ZM3.96985 17.7778H16.0302V7.83333H3.96985V17.7778Z" fill="black"/>
</svg>
