<svg width="20" height="20" viewBox="0 0 20 20" fill="none" xmlns="http://www.w3.org/2000/svg">
<g clip-path="url(#clip0_307_6231)">
<path d="M9.16634 18.1078C9.41969 18.2541 9.70709 18.3311 9.99964 18.3311C10.2922 18.3311 10.5796 18.2541 10.833 18.1078L16.6661 14.7746C16.9192 14.6284 17.1294 14.4183 17.2757 14.1653C17.422 13.9122 17.4991 13.6252 17.4994 13.3329V6.66647C17.4991 6.37421 17.422 6.08716 17.2757 5.83413C17.1294 5.5811 16.9192 5.37098 16.6661 5.22485L10.833 1.89162C10.5796 1.74534 10.2922 1.66833 9.99964 1.66833C9.70709 1.66833 9.41969 1.74534 9.16634 1.89162L3.33319 5.22485C3.08008 5.37098 2.86985 5.5811 2.72359 5.83413C2.57733 6.08716 2.50018 6.37421 2.49988 6.66647V13.3329C2.50018 13.6252 2.57733 13.9122 2.72359 14.1653C2.86985 14.4183 3.08008 14.6284 3.33319 14.7746L9.16634 18.1078Z" stroke="black" stroke-width="1.66661" stroke-linecap="round" stroke-linejoin="round"/>
<path d="M9.99963 18.3327V9.99963" stroke="black" stroke-width="1.66661" stroke-linecap="round" stroke-linejoin="round"/>
<path d="M2.74158 5.83313L9.99968 9.99967L17.2578 5.83313" stroke="black" stroke-width="1.66661" stroke-linecap="round" stroke-linejoin="round"/>
<path d="M6.24976 3.55823L13.7495 7.84976" stroke="black" stroke-width="1.66661" stroke-linecap="round" stroke-linejoin="round"/>
</g>
<defs>
<clipPath id="clip0_307_6231">
<rect width="19.9994" height="19.9994" fill="white"/>
</clipPath>
</defs>
</svg>
