<svg width="18" height="25" viewBox="0 0 18 25" fill="none" xmlns="http://www.w3.org/2000/svg">
<path d="M1.40878 13.417C-2.33395 7.63243 1.81916 1.76355e-05 8.7091 -3.49249e-05C15.491 0.000420701 19.62 7.39562 16.1772 13.1443L16.0074 13.4177L8.75606 24.623C8.7336 24.6577 8.68322 24.6577 8.66077 24.623L1.40878 13.417ZM8.70841 1.5005C3.00737 1.50079 -0.42873 7.81572 2.66831 12.6022L8.28925 21.2881C8.4863 21.5926 8.93184 21.5925 9.12884 21.288L14.7478 12.6015C17.8448 7.815 14.4094 1.50071 8.70841 1.5005ZM5.80334 8.71727C5.80335 7.11254 7.10438 5.81151 8.7091 5.8115C10.3134 5.81179 11.614 7.11223 11.6142 8.71658C11.6142 10.3213 10.3131 11.6223 8.70841 11.6223C7.10381 11.6223 5.80345 10.3218 5.80334 8.71727Z" fill="black"/>
</svg>
